<svg xmlns="http://www.w3.org/2000/svg" viewBox="0 0 684.28 178.04"><defs><style>.cls-1{fill:none;stroke:#78001e;stroke-width:25px;}.cls-2{fill:#fff;}</style></defs><g id="レイヤー_2" data-name="レイヤー 2"><g id="scene3"><path class="cls-1" d="M17.1,110.8l-2.38-3.23A12,12,0,0,1,12.51,100a12.69,12.69,0,0,1,2.89-7.57A147,147,0,0,0,42.77,40.25q.34-1.53-1-1.53H23.56a9.29,9.29,0,0,1-6.8-2.89A9.28,9.28,0,0,1,13.87,29V26.14a9,9,0,0,1,2.89-6.71,9.45,9.45,0,0,1,6.8-2.81h132.6a9.45,9.45,0,0,1,6.8,2.81,9,9,0,0,1,2.89,6.71V29a9.28,9.28,0,0,1-2.89,6.8,9.29,9.29,0,0,1-6.8,2.89H125.05c-1,0-1.53.46-1.53,1.36V77c0,1,.45,1.31,1.36.85a238.21,238.21,0,0,0,22.61-12.24,8.56,8.56,0,0,1,7.06-1A8.84,8.84,0,0,1,160.24,69l2.21,4.25a10.09,10.09,0,0,1,.85,7.48,9.44,9.44,0,0,1-4.42,6,319.5,319.5,0,0,1-34,17.34,2,2,0,0,0-1.36,2v32.3c0,1.93.17,3.09.51,3.49s1.36.7,3.06.93c1.25.12,3.06.17,5.44.17,2.61,0,4.65-.05,6.12-.17a3.93,3.93,0,0,0,2.81-1.1c.51-.63.93-2.1,1.27-4.42s.62-6.49.85-12.5a8.65,8.65,0,0,1,3.15-6.46,9,9,0,0,1,6.88-2.21l4.25.34a9.74,9.74,0,0,1,6.63,3.4,9.57,9.57,0,0,1,2.55,7q-.85,17.68-2.72,25.16t-5.27,9.86q-3.41,2.38-11.9,3.06-6.79.67-15.3.68-6.12,0-15.3-.34-13.26-.67-16.66-3.82T96.49,146V40.08a1.2,1.2,0,0,0-1.36-1.36H69.29a1.75,1.75,0,0,0-1.87,1.53,146.11,146.11,0,0,1-4.59,15.13c-.23.91.06,1.36.85,1.36H80.85a9.87,9.87,0,0,1,9.69,9.69V76.8Q87.32,105.2,73.46,127a109.49,109.49,0,0,1-37,35.53,11.63,11.63,0,0,1-14.62-2.72l-3.57-4.42a7.29,7.29,0,0,1-1.61-6.46,8,8,0,0,1,4-5.44,94.64,94.64,0,0,0,27.88-24.31,1.29,1.29,0,0,0-.34-2q-6.12-4.59-13.43-9.52c-.91-.68-1.64-.62-2.21.17-.34.46-.91,1.14-1.7,2s-1.36,1.59-1.7,2A7.17,7.17,0,0,1,23,114.2,7.86,7.86,0,0,1,17.1,110.8ZM47.36,87.17c-.45.91-.34,1.59.34,2q10.36,7.32,11.39,8c.79.57,1.42.4,1.87-.51a135,135,0,0,0,5.1-18.53c.23-.9-.17-1.36-1.19-1.36H54.67a2.12,2.12,0,0,0-2.21,1.36Q48.38,85.47,47.36,87.17Z"/><path class="cls-1" d="M210.56,159.25a10.37,10.37,0,0,1-7.48-1.87,10.15,10.15,0,0,1-4.25-6.46,289.08,289.08,0,0,1-6.29-61.54,289.15,289.15,0,0,1,6.29-61.54,10.15,10.15,0,0,1,4.25-6.46,10.42,10.42,0,0,1,7.48-1.87l8,.85a7.85,7.85,0,0,1,5.95,3.49,8.58,8.58,0,0,1,1.36,7,281.36,281.36,0,0,0-5.78,58.48,281.29,281.29,0,0,0,5.78,58.48,8.6,8.6,0,0,1-1.36,7.06,7.87,7.87,0,0,1-5.95,3.48Zm77.69-5.44q-24.48,0-38.25-9.52t-13.77-25.67q0-6.12,3.91-14.36A74.59,74.59,0,0,1,250.85,88a8.84,8.84,0,0,1,6.72-3.23A10.86,10.86,0,0,1,265,87.17l3.91,2.89a8.32,8.32,0,0,1,3.32,6.29,9.92,9.92,0,0,1-2.13,7q-7,8.85-7,13.6c0,4.2,2,7.28,6,9.27s10.37,3,19.21,3a166.53,166.53,0,0,0,27.88-2.55,9.37,9.37,0,0,1,7.14,1.53,9,9,0,0,1,3.91,6.12l.68,4.93a10,10,0,0,1-1.61,7.48,9.1,9.1,0,0,1-6.21,4.08A163.43,163.43,0,0,1,288.25,153.81ZM314.77,30.56a9.87,9.87,0,0,1,9.69,9.69v4.59a9.87,9.87,0,0,1-9.69,9.69H260.54a9.87,9.87,0,0,1-9.69-9.69V40.25a9.87,9.87,0,0,1,9.69-9.69Z"/><path class="cls-1" d="M366.28,157.21a8.29,8.29,0,0,1-5.61-4.16A8.53,8.53,0,0,1,360,146q14.44-45.9,23.63-89.93a1,1,0,0,0-.25-1,1.23,1.23,0,0,0-.94-.51H371.72A9.87,9.87,0,0,1,362,44.84V40.93a9.87,9.87,0,0,1,9.69-9.69h15.13a1.75,1.75,0,0,0,1.87-1.53c.23-1,.51-2.43.85-4.25s.57-3.23.68-4.25a10,10,0,0,1,3.91-6.54,10.25,10.25,0,0,1,7.31-2.13l6.8.51a8.5,8.5,0,0,1,6.29,3.49,8.45,8.45,0,0,1,1.7,6.88c-.11.68-.28,1.76-.51,3.23s-.4,2.55-.51,3.23c-.23.91.17,1.36,1.19,1.36h47.09a9,9,0,0,1,6.72,2.89,9.46,9.46,0,0,1,2.8,6.8v3.91a9.42,9.42,0,0,1-2.8,6.8,9,9,0,0,1-6.72,2.89H412a1.61,1.61,0,0,0-1.7,1.36A883.6,883.6,0,0,1,386,151.77a9.9,9.9,0,0,1-4.84,5.95,10.49,10.49,0,0,1-7.57,1.19Zm122.74-24a9.49,9.49,0,0,1,7.06,1.79,8.8,8.8,0,0,1,3.65,6.2l.51,4.08a9.56,9.56,0,0,1-1.87,7.23,9.71,9.71,0,0,1-6.29,3.82,198,198,0,0,1-26.35,1.87q-24.32,0-38.67-8.92t-14.37-22.87q0-9.69,9-19.38a12.05,12.05,0,0,1,7.4-3.91,13.43,13.43,0,0,1,8.41,1.36l2.89,1.36A6.25,6.25,0,0,1,444,110.8a6.82,6.82,0,0,1-1.87,6q-3.23,3.57-3.23,6.8,0,4.94,7.06,8.16t19.8,3.23A171,171,0,0,0,489,133.24ZM437.85,90.06A9,9,0,0,1,431,87.85a9.25,9.25,0,0,1-3.32-6.46l-.34-3.4a9.93,9.93,0,0,1,8.84-10.54Q463.69,64.9,488,64.73a9.06,9.06,0,0,1,6.72,2.89,9.46,9.46,0,0,1,2.8,6.8v3.4a9.87,9.87,0,0,1-9.69,9.69Q462.5,87.69,437.85,90.06Z"/><path class="cls-1" d="M572,159.59q-15.13,0-28-19.89T531.18,91.08a210.33,210.33,0,0,1,6.29-51.17A10.36,10.36,0,0,1,542,33.54a11.2,11.2,0,0,1,7.73-1.79l7.48.85a7.62,7.62,0,0,1,5.87,3.49A8.46,8.46,0,0,1,564.33,43a213.6,213.6,0,0,0-5.78,48.11q0,17.17,5.19,29.16t10.28,12q3.22,0,8.59-6.71t11.13-19.3a9.94,9.94,0,0,1,5.36-5.27,9.84,9.84,0,0,1,7.39-.17l5.44,2a9,9,0,0,1,5.53,5,9.1,9.1,0,0,1,.08,7.39Q608.7,136.31,596.21,148T572,159.59Zm72.25-28.05a263.81,263.81,0,0,0-17.17-86.19,8.52,8.52,0,0,1,.34-7.05,8.19,8.19,0,0,1,5.44-4.51l6.63-1.87a10.52,10.52,0,0,1,7.74.6A10.92,10.92,0,0,1,652.73,38q17.5,41.82,19,93.67a8.48,8.48,0,0,1-2.72,6.72,9.44,9.44,0,0,1-6.8,2.8h-8.16a9.29,9.29,0,0,1-6.8-2.89A9.92,9.92,0,0,1,644.23,131.54Z"/><path class="cls-2" d="M17.1,110.8l-2.38-3.23A12,12,0,0,1,12.51,100a12.69,12.69,0,0,1,2.89-7.57A147,147,0,0,0,42.77,40.25q.34-1.53-1-1.53H23.56a9.29,9.29,0,0,1-6.8-2.89A9.28,9.28,0,0,1,13.87,29V26.14a9,9,0,0,1,2.89-6.71,9.45,9.45,0,0,1,6.8-2.81h132.6a9.45,9.45,0,0,1,6.8,2.81,9,9,0,0,1,2.89,6.71V29a9.28,9.28,0,0,1-2.89,6.8,9.29,9.29,0,0,1-6.8,2.89H125.05c-1,0-1.53.46-1.53,1.36V77c0,1,.45,1.31,1.36.85a238.21,238.21,0,0,0,22.61-12.24,8.56,8.56,0,0,1,7.06-1A8.84,8.84,0,0,1,160.24,69l2.21,4.25a10.09,10.09,0,0,1,.85,7.48,9.44,9.44,0,0,1-4.42,6,319.5,319.5,0,0,1-34,17.34,2,2,0,0,0-1.36,2v32.3c0,1.93.17,3.09.51,3.49s1.36.7,3.06.93c1.25.12,3.06.17,5.44.17,2.61,0,4.65-.05,6.12-.17a3.93,3.93,0,0,0,2.81-1.1c.51-.63.93-2.1,1.27-4.42s.62-6.49.85-12.5a8.65,8.65,0,0,1,3.15-6.46,9,9,0,0,1,6.88-2.21l4.25.34a9.74,9.74,0,0,1,6.63,3.4,9.57,9.57,0,0,1,2.55,7q-.85,17.68-2.72,25.16t-5.27,9.86q-3.41,2.38-11.9,3.06-6.79.67-15.3.68-6.12,0-15.3-.34-13.26-.67-16.66-3.82T96.49,146V40.08a1.2,1.2,0,0,0-1.36-1.36H69.29a1.75,1.75,0,0,0-1.87,1.53,146.11,146.11,0,0,1-4.59,15.13c-.23.91.06,1.36.85,1.36H80.85a9.87,9.87,0,0,1,9.69,9.69V76.8Q87.32,105.2,73.46,127a109.49,109.49,0,0,1-37,35.53,11.63,11.63,0,0,1-14.62-2.72l-3.57-4.42a7.29,7.29,0,0,1-1.61-6.46,8,8,0,0,1,4-5.44,94.64,94.64,0,0,0,27.88-24.31,1.29,1.29,0,0,0-.34-2q-6.12-4.59-13.43-9.52c-.91-.68-1.64-.62-2.21.17-.34.46-.91,1.14-1.7,2s-1.36,1.59-1.7,2A7.17,7.17,0,0,1,23,114.2,7.86,7.86,0,0,1,17.1,110.8ZM47.36,87.17c-.45.91-.34,1.59.34,2q10.36,7.32,11.39,8c.79.57,1.42.4,1.87-.51a135,135,0,0,0,5.1-18.53c.23-.9-.17-1.36-1.19-1.36H54.67a2.12,2.12,0,0,0-2.21,1.36Q48.38,85.47,47.36,87.17Z"/><path class="cls-2" d="M210.56,159.25a10.37,10.37,0,0,1-7.48-1.87,10.15,10.15,0,0,1-4.25-6.46,289.08,289.08,0,0,1-6.29-61.54,289.15,289.15,0,0,1,6.29-61.54,10.15,10.15,0,0,1,4.25-6.46,10.42,10.42,0,0,1,7.48-1.87l8,.85a7.85,7.85,0,0,1,5.95,3.49,8.58,8.58,0,0,1,1.36,7,281.36,281.36,0,0,0-5.78,58.48,281.29,281.29,0,0,0,5.78,58.48,8.6,8.6,0,0,1-1.36,7.06,7.87,7.87,0,0,1-5.95,3.48Zm77.69-5.44q-24.48,0-38.25-9.52t-13.77-25.67q0-6.12,3.91-14.36A74.59,74.59,0,0,1,250.85,88a8.84,8.84,0,0,1,6.72-3.23A10.86,10.86,0,0,1,265,87.17l3.91,2.89a8.32,8.32,0,0,1,3.32,6.29,9.92,9.92,0,0,1-2.13,7q-7,8.85-7,13.6c0,4.2,2,7.28,6,9.27s10.37,3,19.21,3a166.53,166.53,0,0,0,27.88-2.55,9.37,9.37,0,0,1,7.14,1.53,9,9,0,0,1,3.91,6.12l.68,4.93a10,10,0,0,1-1.61,7.48,9.1,9.1,0,0,1-6.21,4.08A163.43,163.43,0,0,1,288.25,153.81ZM314.77,30.56a9.87,9.87,0,0,1,9.69,9.69v4.59a9.87,9.87,0,0,1-9.69,9.69H260.54a9.87,9.87,0,0,1-9.69-9.69V40.25a9.87,9.87,0,0,1,9.69-9.69Z"/><path class="cls-2" d="M366.28,157.21a8.29,8.29,0,0,1-5.61-4.16A8.53,8.53,0,0,1,360,146q14.44-45.9,23.63-89.93a1,1,0,0,0-.25-1,1.23,1.23,0,0,0-.94-.51H371.72A9.87,9.87,0,0,1,362,44.84V40.93a9.87,9.87,0,0,1,9.69-9.69h15.13a1.75,1.75,0,0,0,1.87-1.53c.23-1,.51-2.43.85-4.25s.57-3.23.68-4.25a10,10,0,0,1,3.91-6.54,10.25,10.25,0,0,1,7.31-2.13l6.8.51a8.5,8.5,0,0,1,6.29,3.49,8.45,8.45,0,0,1,1.7,6.88c-.11.68-.28,1.76-.51,3.23s-.4,2.55-.51,3.23c-.23.91.17,1.36,1.19,1.36h47.09a9,9,0,0,1,6.72,2.89,9.46,9.46,0,0,1,2.8,6.8v3.91a9.42,9.42,0,0,1-2.8,6.8,9,9,0,0,1-6.72,2.89H412a1.61,1.61,0,0,0-1.7,1.36A883.6,883.6,0,0,1,386,151.77a9.9,9.9,0,0,1-4.84,5.95,10.49,10.49,0,0,1-7.57,1.19Zm122.74-24a9.49,9.49,0,0,1,7.06,1.79,8.8,8.8,0,0,1,3.65,6.2l.51,4.08a9.56,9.56,0,0,1-1.87,7.23,9.71,9.71,0,0,1-6.29,3.82,198,198,0,0,1-26.35,1.87q-24.32,0-38.67-8.92t-14.37-22.87q0-9.69,9-19.38a12.05,12.05,0,0,1,7.4-3.91,13.43,13.43,0,0,1,8.41,1.36l2.89,1.36A6.25,6.25,0,0,1,444,110.8a6.82,6.82,0,0,1-1.87,6q-3.23,3.57-3.23,6.8,0,4.94,7.06,8.16t19.8,3.23A171,171,0,0,0,489,133.24ZM437.85,90.06A9,9,0,0,1,431,87.85a9.25,9.25,0,0,1-3.32-6.46l-.34-3.4a9.93,9.93,0,0,1,8.84-10.54Q463.69,64.9,488,64.73a9.06,9.06,0,0,1,6.72,2.89,9.46,9.46,0,0,1,2.8,6.8v3.4a9.87,9.87,0,0,1-9.69,9.69Q462.5,87.69,437.85,90.06Z"/><path class="cls-2" d="M572,159.59q-15.13,0-28-19.89T531.18,91.08a210.33,210.33,0,0,1,6.29-51.17A10.36,10.36,0,0,1,542,33.54a11.2,11.2,0,0,1,7.73-1.79l7.48.85a7.62,7.62,0,0,1,5.87,3.49A8.46,8.46,0,0,1,564.33,43a213.6,213.6,0,0,0-5.78,48.11q0,17.17,5.19,29.16t10.28,12q3.22,0,8.59-6.71t11.13-19.3a9.94,9.94,0,0,1,5.36-5.27,9.84,9.84,0,0,1,7.39-.17l5.44,2a9,9,0,0,1,5.53,5,9.1,9.1,0,0,1,.08,7.39Q608.7,136.31,596.21,148T572,159.59Zm72.25-28.05a263.81,263.81,0,0,0-17.17-86.19,8.52,8.52,0,0,1,.34-7.05,8.19,8.19,0,0,1,5.44-4.51l6.63-1.87a10.52,10.52,0,0,1,7.74.6A10.92,10.92,0,0,1,652.73,38q17.5,41.82,19,93.67a8.48,8.48,0,0,1-2.72,6.72,9.44,9.44,0,0,1-6.8,2.8h-8.16a9.29,9.29,0,0,1-6.8-2.89A9.92,9.92,0,0,1,644.23,131.54Z"/></g></g></svg>