<svg xmlns="http://www.w3.org/2000/svg" viewBox="0 0 216.37 817.77"><defs><style>.cls-1{fill:none;stroke:#5e006c;stroke-width:30px;}.cls-2{fill:#fff;}</style></defs><g id="レイヤー_2" data-name="レイヤー 2"><g id="scene3"><path class="cls-1" d="M20.55,128.57l-2.87-3.9A14.46,14.46,0,0,1,15,115.55a15.3,15.3,0,0,1,3.49-9.12,177.5,177.5,0,0,0,33-62.93c.28-1.23-.13-1.85-1.23-1.85H28.34a11.21,11.21,0,0,1-8.2-3.48A11.22,11.22,0,0,1,16.65,30V26.48a10.89,10.89,0,0,1,3.49-8.1A11.39,11.39,0,0,1,28.34,15h159.9a11.42,11.42,0,0,1,8.2,3.38,10.91,10.91,0,0,1,3.48,8.1V30a11.24,11.24,0,0,1-3.48,8.2,11.24,11.24,0,0,1-8.2,3.48H150.72c-1.23,0-1.84.55-1.84,1.64V87.78c0,1.23.54,1.57,1.64,1A287.52,287.52,0,0,0,177.78,74a10.32,10.32,0,0,1,8.51-1.23,10.66,10.66,0,0,1,6.87,5.33l2.66,5.13a12.2,12.2,0,0,1,1,9,11.41,11.41,0,0,1-5.33,7.17,385.49,385.49,0,0,1-41,20.91,2.38,2.38,0,0,0-1.64,2.46v39c0,2.33.2,3.73.61,4.2s1.64.86,3.69,1.13q2.25.21,6.56.21,4.71,0,7.38-.21a4.74,4.74,0,0,0,3.39-1.33q.92-1.12,1.53-5.33t1-15.07a10.44,10.44,0,0,1,3.79-7.79,10.8,10.8,0,0,1,8.3-2.66l5.13.41a11.71,11.71,0,0,1,8,4.1,11.51,11.51,0,0,1,3.08,8.4q-1,21.33-3.28,30.34t-6.36,11.89q-4.09,2.87-14.35,3.69-8.2.81-18.45.82-7.38,0-18.45-.41-16-.82-20.09-4.61T116.28,171V43.29a1.45,1.45,0,0,0-1.64-1.64H83.48a2.11,2.11,0,0,0-2.25,1.85,175.34,175.34,0,0,1-5.54,18.24c-.27,1.1.07,1.64,1,1.64h20.7a11.92,11.92,0,0,1,11.69,11.69v12.5q-3.9,34.25-20.6,60.47a132.11,132.11,0,0,1-44.59,42.85,14,14,0,0,1-17.63-3.28L22,182.28A8.79,8.79,0,0,1,20,174.49a9.64,9.64,0,0,1,4.81-6.56,114.2,114.2,0,0,0,33.62-29.32,1.55,1.55,0,0,0-.41-2.46q-7.38-5.53-16.19-11.48c-1.1-.82-2-.75-2.67.21-.41.55-1.09,1.37-2.05,2.46s-1.64,1.91-2,2.46a8.67,8.67,0,0,1-7.48,2.87A9.44,9.44,0,0,1,20.55,128.57ZM57,100.07c-.55,1.1-.41,1.92.41,2.46q12.49,8.82,13.73,9.64c1,.69,1.71.48,2.26-.61a164,164,0,0,0,6.15-22.35c.27-1.09-.21-1.64-1.44-1.64H65.85a2.54,2.54,0,0,0-2.66,1.64Q58.27,98,57,100.07Z"/><path class="cls-1" d="M48.84,392.1a12.49,12.49,0,0,1-9-2.26,12.19,12.19,0,0,1-5.13-7.79,348.16,348.16,0,0,1-7.58-74.21,348.71,348.71,0,0,1,7.58-74.2,12.16,12.16,0,0,1,5.13-7.79,12.49,12.49,0,0,1,9-2.26l9.63,1a9.45,9.45,0,0,1,7.18,4.2,10.39,10.39,0,0,1,1.64,8.51,338.69,338.69,0,0,0-7,70.51,338.72,338.72,0,0,0,7,70.52,10.39,10.39,0,0,1-1.64,8.51,9.45,9.45,0,0,1-7.18,4.2Zm93.68-6.56q-29.52,0-46.12-11.48t-16.61-31q0-7.37,4.72-17.32a89.43,89.43,0,0,1,12.91-19.57,10.65,10.65,0,0,1,8.1-3.9,13.13,13.13,0,0,1,8.92,2.87l4.71,3.49a10,10,0,0,1,4,7.58,12,12,0,0,1-2.56,8.4q-8.41,10.67-8.41,16.4,0,7.59,7.18,11.18t23.16,3.58a200.79,200.79,0,0,0,33.62-3.07,11.34,11.34,0,0,1,8.61,1.84,10.86,10.86,0,0,1,4.72,7.38l.82,6a12.08,12.08,0,0,1-1.95,9,11,11,0,0,1-7.48,4.92A197.18,197.18,0,0,1,142.52,385.54Zm32-148.62a11.91,11.91,0,0,1,11.69,11.68v5.54a11.91,11.91,0,0,1-11.69,11.68H109.11a11.92,11.92,0,0,1-11.69-11.68V248.6a11.91,11.91,0,0,1,11.69-11.68Z"/><path class="cls-1" d="M31.62,594.58a10,10,0,0,1-6.77-5,10.28,10.28,0,0,1-.82-8.51Q41.45,525.7,52.53,472.6a1.26,1.26,0,0,0-.31-1.23,1.46,1.46,0,0,0-1.13-.61H38.18a11.18,11.18,0,0,1-8.2-3.49,11.18,11.18,0,0,1-3.49-8.2v-4.71a11.2,11.2,0,0,1,3.49-8.2,11.22,11.22,0,0,1,8.2-3.49H56.42a2.11,2.11,0,0,0,2.26-1.84q.41-1.84,1-5.13c.41-2.18.68-3.89.82-5.12a12.07,12.07,0,0,1,4.72-7.89,12.32,12.32,0,0,1,8.81-2.56l8.2.61a10.77,10.77,0,0,1,9.64,12.51c-.14.81-.35,2.12-.62,3.89s-.48,3.07-.61,3.9c-.28,1.09.2,1.63,1.43,1.63h56.79a10.88,10.88,0,0,1,8.09,3.48,11.39,11.39,0,0,1,3.39,8.2v4.72a11.39,11.39,0,0,1-3.39,8.2,10.88,10.88,0,0,1-8.09,3.48H86.76a1.94,1.94,0,0,0-2.05,1.64A1066.42,1066.42,0,0,1,55.4,588a12,12,0,0,1-5.85,7.17,12.67,12.67,0,0,1-9.12,1.44Zm148-28.91a11.44,11.44,0,0,1,8.5,2.16,10.57,10.57,0,0,1,4.41,7.48l.62,4.92a11.54,11.54,0,0,1-2.26,8.71,11.68,11.68,0,0,1-7.58,4.61,238.6,238.6,0,0,1-31.78,2.26q-29.32,0-46.64-10.76T87.58,557.47q0-11.69,10.87-23.37a14.49,14.49,0,0,1,8.91-4.71A16.17,16.17,0,0,1,117.51,531l3.49,1.64a7.53,7.53,0,0,1,4.3,5.94,8.25,8.25,0,0,1-2.25,7.18q-3.9,4.31-3.9,8.2,0,6,8.51,9.84t23.88,3.9A207.27,207.27,0,0,0,179.63,565.67ZM117.92,513.6a10.79,10.79,0,0,1-8.3-2.66,11.13,11.13,0,0,1-4-7.79l-.41-4.1a12,12,0,0,1,10.66-12.71q33.21-3.07,62.53-3.28a10.85,10.85,0,0,1,8.09,3.49,11.36,11.36,0,0,1,3.39,8.2v4.1a11.92,11.92,0,0,1-11.69,11.68Q147.64,510.74,117.92,513.6Z"/><path class="cls-1" d="M74.66,802.77q-18.24,0-33.72-24T25.47,720.15a253.21,253.21,0,0,1,7.58-61.7,12.53,12.53,0,0,1,5.43-7.69,13.54,13.54,0,0,1,9.33-2.15l9,1a9.21,9.21,0,0,1,7.07,4.2,10.23,10.23,0,0,1,1.54,8.31,257.13,257.13,0,0,0-7,58q0,20.72,6.25,35.16t12.4,14.45q3.9,0,10.36-8.1T100.9,738.4a12,12,0,0,1,6.46-6.36,11.87,11.87,0,0,1,8.92-.2l6.56,2.46a11.2,11.2,0,0,1,6.76,15Q119,774.69,103.88,788.72T74.66,802.77Zm87.13-33.83A318,318,0,0,0,141.08,665a10.33,10.33,0,0,1,.41-8.51,9.91,9.91,0,0,1,6.56-5.43l8-2.26a12.72,12.72,0,0,1,9.33.72,13.26,13.26,0,0,1,6.66,6.66q21.11,50.43,23,113a10.24,10.24,0,0,1-3.28,8.09,11.39,11.39,0,0,1-8.2,3.39h-9.84a11.18,11.18,0,0,1-8.2-3.49A11.92,11.92,0,0,1,161.79,768.94Z"/><path class="cls-2" d="M20.55,128.57l-2.87-3.9A14.46,14.46,0,0,1,15,115.55a15.3,15.3,0,0,1,3.49-9.12,177.5,177.5,0,0,0,33-62.93c.28-1.23-.13-1.85-1.23-1.85H28.34a11.21,11.21,0,0,1-8.2-3.48A11.22,11.22,0,0,1,16.65,30V26.48a10.89,10.89,0,0,1,3.49-8.1A11.39,11.39,0,0,1,28.34,15h159.9a11.42,11.42,0,0,1,8.2,3.38,10.91,10.91,0,0,1,3.48,8.1V30a11.24,11.24,0,0,1-3.48,8.2,11.24,11.24,0,0,1-8.2,3.48H150.72c-1.23,0-1.84.55-1.84,1.64V87.78c0,1.23.54,1.57,1.64,1A287.52,287.52,0,0,0,177.78,74a10.32,10.32,0,0,1,8.51-1.23,10.66,10.66,0,0,1,6.87,5.33l2.66,5.13a12.2,12.2,0,0,1,1,9,11.41,11.41,0,0,1-5.33,7.17,385.49,385.49,0,0,1-41,20.91,2.38,2.38,0,0,0-1.64,2.46v39c0,2.33.2,3.73.61,4.2s1.64.86,3.69,1.13q2.25.21,6.56.21,4.71,0,7.38-.21a4.74,4.74,0,0,0,3.39-1.33q.92-1.12,1.53-5.33t1-15.07a10.44,10.44,0,0,1,3.79-7.79,10.8,10.8,0,0,1,8.3-2.66l5.13.41a11.71,11.71,0,0,1,8,4.1,11.51,11.51,0,0,1,3.08,8.4q-1,21.33-3.28,30.34t-6.36,11.89q-4.09,2.87-14.35,3.69-8.2.81-18.45.82-7.38,0-18.45-.41-16-.82-20.09-4.61T116.28,171V43.29a1.45,1.45,0,0,0-1.64-1.64H83.48a2.11,2.11,0,0,0-2.25,1.85,175.34,175.34,0,0,1-5.54,18.24c-.27,1.1.07,1.64,1,1.64h20.7a11.92,11.92,0,0,1,11.69,11.69v12.5q-3.9,34.25-20.6,60.47a132.11,132.11,0,0,1-44.59,42.85,14,14,0,0,1-17.63-3.28L22,182.28A8.79,8.79,0,0,1,20,174.49a9.64,9.64,0,0,1,4.81-6.56,114.2,114.2,0,0,0,33.62-29.32,1.55,1.55,0,0,0-.41-2.46q-7.38-5.53-16.19-11.48c-1.1-.82-2-.75-2.67.21-.41.55-1.09,1.37-2.05,2.46s-1.64,1.91-2,2.46a8.67,8.67,0,0,1-7.48,2.87A9.44,9.44,0,0,1,20.55,128.57ZM57,100.07c-.55,1.1-.41,1.92.41,2.46q12.49,8.82,13.73,9.64c1,.69,1.71.48,2.26-.61a164,164,0,0,0,6.15-22.35c.27-1.09-.21-1.64-1.44-1.64H65.85a2.54,2.54,0,0,0-2.66,1.64Q58.27,98,57,100.07Z"/><path class="cls-2" d="M48.84,392.1a12.49,12.49,0,0,1-9-2.26,12.19,12.19,0,0,1-5.13-7.79,348.16,348.16,0,0,1-7.58-74.21,348.71,348.71,0,0,1,7.58-74.2,12.16,12.16,0,0,1,5.13-7.79,12.49,12.49,0,0,1,9-2.26l9.63,1a9.45,9.45,0,0,1,7.18,4.2,10.39,10.39,0,0,1,1.64,8.51,338.69,338.69,0,0,0-7,70.51,338.72,338.72,0,0,0,7,70.52,10.39,10.39,0,0,1-1.64,8.51,9.45,9.45,0,0,1-7.18,4.2Zm93.68-6.56q-29.52,0-46.12-11.48t-16.61-31q0-7.37,4.72-17.32a89.43,89.43,0,0,1,12.91-19.57,10.65,10.65,0,0,1,8.1-3.9,13.13,13.13,0,0,1,8.92,2.87l4.71,3.49a10,10,0,0,1,4,7.58,12,12,0,0,1-2.56,8.4q-8.41,10.67-8.41,16.4,0,7.59,7.18,11.18t23.16,3.58a200.79,200.79,0,0,0,33.62-3.07,11.34,11.34,0,0,1,8.61,1.84,10.86,10.86,0,0,1,4.72,7.38l.82,6a12.08,12.08,0,0,1-1.95,9,11,11,0,0,1-7.48,4.92A197.18,197.18,0,0,1,142.52,385.54Zm32-148.62a11.91,11.91,0,0,1,11.69,11.68v5.54a11.91,11.91,0,0,1-11.69,11.68H109.11a11.92,11.92,0,0,1-11.69-11.68V248.6a11.91,11.91,0,0,1,11.69-11.68Z"/><path class="cls-2" d="M31.62,594.58a10,10,0,0,1-6.77-5,10.28,10.28,0,0,1-.82-8.51Q41.45,525.7,52.53,472.6a1.26,1.26,0,0,0-.31-1.23,1.46,1.46,0,0,0-1.13-.61H38.18a11.18,11.18,0,0,1-8.2-3.49,11.18,11.18,0,0,1-3.49-8.2v-4.71a11.2,11.2,0,0,1,3.49-8.2,11.22,11.22,0,0,1,8.2-3.49H56.42a2.11,2.11,0,0,0,2.26-1.84q.41-1.84,1-5.13c.41-2.18.68-3.89.82-5.12a12.07,12.07,0,0,1,4.72-7.89,12.32,12.32,0,0,1,8.81-2.56l8.2.61a10.77,10.77,0,0,1,9.64,12.51c-.14.81-.35,2.12-.62,3.89s-.48,3.07-.61,3.9c-.28,1.09.2,1.63,1.43,1.63h56.79a10.88,10.88,0,0,1,8.09,3.48,11.39,11.39,0,0,1,3.39,8.2v4.72a11.39,11.39,0,0,1-3.39,8.2,10.88,10.88,0,0,1-8.09,3.48H86.76a1.94,1.94,0,0,0-2.05,1.64A1066.42,1066.42,0,0,1,55.4,588a12,12,0,0,1-5.85,7.17,12.67,12.67,0,0,1-9.12,1.44Zm148-28.91a11.44,11.44,0,0,1,8.5,2.16,10.57,10.57,0,0,1,4.41,7.48l.62,4.92a11.54,11.54,0,0,1-2.26,8.71,11.68,11.68,0,0,1-7.58,4.61,238.6,238.6,0,0,1-31.78,2.26q-29.32,0-46.64-10.76T87.58,557.47q0-11.69,10.87-23.37a14.49,14.49,0,0,1,8.91-4.71A16.17,16.17,0,0,1,117.51,531l3.49,1.64a7.53,7.53,0,0,1,4.3,5.94,8.25,8.25,0,0,1-2.25,7.18q-3.9,4.31-3.9,8.2,0,6,8.51,9.84t23.88,3.9A207.27,207.27,0,0,0,179.63,565.67ZM117.92,513.6a10.79,10.79,0,0,1-8.3-2.66,11.13,11.13,0,0,1-4-7.79l-.41-4.1a12,12,0,0,1,10.66-12.71q33.21-3.07,62.53-3.28a10.85,10.85,0,0,1,8.09,3.49,11.36,11.36,0,0,1,3.39,8.2v4.1a11.92,11.92,0,0,1-11.69,11.68Q147.64,510.74,117.92,513.6Z"/><path class="cls-2" d="M74.66,802.77q-18.24,0-33.72-24T25.47,720.15a253.21,253.21,0,0,1,7.58-61.7,12.53,12.53,0,0,1,5.43-7.69,13.54,13.54,0,0,1,9.33-2.15l9,1a9.21,9.21,0,0,1,7.07,4.2,10.23,10.23,0,0,1,1.54,8.31,257.13,257.13,0,0,0-7,58q0,20.72,6.25,35.16t12.4,14.45q3.9,0,10.36-8.1T100.9,738.4a12,12,0,0,1,6.46-6.36,11.87,11.87,0,0,1,8.92-.2l6.56,2.46a11.2,11.2,0,0,1,6.76,15Q119,774.69,103.88,788.72T74.66,802.77Zm87.13-33.83A318,318,0,0,0,141.08,665a10.33,10.33,0,0,1,.41-8.51,9.91,9.91,0,0,1,6.56-5.43l8-2.26a12.72,12.72,0,0,1,9.33.72,13.26,13.26,0,0,1,6.66,6.66q21.11,50.43,23,113a10.24,10.24,0,0,1-3.28,8.09,11.39,11.39,0,0,1-8.2,3.39h-9.84a11.18,11.18,0,0,1-8.2-3.49A11.92,11.92,0,0,1,161.79,768.94Z"/></g></g></svg>