<svg xmlns="http://www.w3.org/2000/svg" viewBox="0 0 879.25 304.11"><defs><style>.cls-1{fill:none;stroke:#e55b00;stroke-width:30px;}.cls-2{fill:#ff0;}</style></defs><g id="レイヤー_2" data-name="レイヤー 2"><g id="scene4"><path class="cls-1" d="M127.85,266.11q-19.06-5.44-29.95-19.81T87,215.29A44.94,44.94,0,0,1,90.79,197a43.55,43.55,0,0,1,11.34-15.28q-15.73.62-21.48.61-15.42,0-26.47-1.06c-7.37-.7-12-1.16-14.07-1.36Q21,177.48,21.05,143q0-11.8,4.39-18.31T41,114.84q3-1.2,15.73-5.14t32.07-8.78q-21.18.61-27.23.61-11.19,0-18.3-.46t-8.93-.75q-7.86,0-13.61-8T15,66.74q0-16,9.08-26T50.4,29.52q20.26-2.11,75-2.12,69,0,82.29,3.94Q218,34.06,223.3,38.6a23.92,23.92,0,0,1,7.26,10,61.27,61.27,0,0,1,2.88,13.92,53.8,53.8,0,0,1,.6,9.08q0,15.12-6.65,20.27,0,.3-6.81,3.93A215.6,215.6,0,0,1,200,104.86a346.7,346.7,0,0,1-34.64,11.19h34.49q13.3,0,21.17,8.17t7.87,21.18q0,31.77-23.9,33.88-18.15,2.73-24.2,6.21t-5.75,9.83q.6,5.15,3.63,6.5c2,.91,5.85,1.67,11.49,2.27a20.15,20.15,0,0,0,3.94.3,33.35,33.35,0,0,1,5.75.61q11.49,1.22,18,4.08a20.55,20.55,0,0,1,10,9.38q3.48,6.51,4.09,18.91.6,15.44-6.51,23.9t-19.82,10a199.51,199.51,0,0,1-28.13,2.12A167.79,167.79,0,0,1,127.85,266.11Z"/><path class="cls-1" d="M348.1,251.59a102.61,102.61,0,0,1-34.18-20.87,64.45,64.45,0,0,1-17.85-26.17A96.43,96.43,0,0,1,290,169.9a127.89,127.89,0,0,1,37.81-89.25A125,125,0,0,1,371.1,53.57a146.76,146.76,0,0,1,51.13-8.92A180,180,0,0,1,484,55.84q37.51,13.62,55.52,40.85t23.44,65.95a111.5,111.5,0,0,1,.91,13.92A94.78,94.78,0,0,1,560.19,203a91.3,91.3,0,0,1-9.08,21.64q-7.86,14.22-20.87,14.21-7.26,0-19.37-4.53-12.4-4.54-17.09-11.2T489.7,204.7a41.77,41.77,0,0,1,1.81-9.68,70.47,70.47,0,0,0,2.42-16.64,54.15,54.15,0,0,0-5.75-23.91q-1.51-4.23-6.95-12.1l.3,10.29q0,48.41-18.46,71.4-12.1,15.13-33,24.66a105.85,105.85,0,0,1-44.47,9.53A109.76,109.76,0,0,1,348.1,251.59Zm67.47-71.7a29.95,29.95,0,1,0-21.18,8.77A28.87,28.87,0,0,0,415.57,179.89Z"/><path class="cls-1" d="M857.59,173.08a26.09,26.09,0,0,1,.16,34.64Q851.24,215,839.44,215h-1.51V240.4q0,20.86-6.81,34.79T811,289.11a29.6,29.6,0,0,1-7.26-.91,70.41,70.41,0,0,1-23-10.59q-10.29-7.26-13-14.82a38.2,38.2,0,0,0,12.4-24.21,17.15,17.15,0,0,1,5.15-.6,18.82,18.82,0,0,1,2.57.15,12.92,12.92,0,0,0,1.36.15V215H774.7a38.45,38.45,0,0,0-13.77-13.46,36.49,36.49,0,0,0-18.61-5,36.87,36.87,0,0,0-18.15,4.69,37.87,37.87,0,0,0-13.61,12.55c-2.42-.2-4-.75-4.84-1.66A7.22,7.22,0,0,1,704.2,208l-.3,6.65q-2.73,30.85-18.46,34.49-5.75,1.52-21.78,1.51-21.48,0-34.79-2.11a20.74,20.74,0,0,1-14.07-8q-5.29-6.81-6.5-21.63-1.21-15.43-2-44.63t-.76-56.12q0-21.18.3-27.84.61-17.53,3.94-27.38t11.8-11.64q12.71-2.43,37.21-2.42,25.41,0,32.07,2.42,7.56,2.41,10.89,11.8a26,26,0,0,1,7.57-13.62Q715.08,44,724.17,44h30.56V39.2q0-11.49,7.86-17.85A29,29,0,0,1,781.35,15a27.94,27.94,0,0,1,18.31,6.35q7.71,6.36,7.71,17.85v5.15h23.9q10.59,0,16.64,7.56A27.74,27.74,0,0,1,854,69.76a27.51,27.51,0,0,1-5.9,17.7q-5.89,7.41-16.79,7.41h-23.9v16h32.07q11.49,0,18.15,6.5a20.69,20.69,0,0,1,6.66,15.28,20.45,20.45,0,0,1-6.5,15.13q-6.51,6.35-18.31,6.35h-1.81c0,4.84.1,8.68.3,11.5h1.51Q850.93,165.67,857.59,173.08Zm-203-49.77q12.1,0,21.49.91-.92-17.85-2.42-19.36-2.73-2.43-17.86-2.42-16,0-18.15,2.11-1.51,1.53-2.12,19.67A179,179,0,0,1,654.58,123.31ZM675.46,176q-13.92.6-23.3.6l-15.43-.3q.91,20,3.33,20.87a36.81,36.81,0,0,0,7.57,1.21A122.44,122.44,0,0,0,660,199q9.68,0,12.41-1.51Q674.25,196.53,675.46,176ZM788,165.67l-.61-11.5q-22.68-.3-61.72-.3-12.4,0-19.66-5.75,0,8.48-.61,23.6a24.61,24.61,0,0,1,17.25-6.35ZM705.72,84.28a15.6,15.6,0,0,0,.3,3.63q.3,6.06.3,27.54,6.36-4.85,16.34-4.85h32.07V94.87l-27.84-.3Q713,94.57,705.72,84.28Zm57.78,129a28.62,28.62,0,0,0-21.18-8.93,30.47,30.47,0,0,0-30.25,30.26A28.61,28.61,0,0,0,721,255.83a29.35,29.35,0,0,0,21.33,8.77,30,30,0,0,0,30-30A29.36,29.36,0,0,0,763.5,213.32Z"/><path class="cls-2" d="M127.85,266.11q-19.06-5.44-29.95-19.81T87,215.29A44.94,44.94,0,0,1,90.79,197a43.55,43.55,0,0,1,11.34-15.28q-15.73.62-21.48.61-15.42,0-26.47-1.06c-7.37-.7-12-1.16-14.07-1.36Q21,177.48,21.05,143q0-11.8,4.39-18.31T41,114.84q3-1.2,15.73-5.14t32.07-8.78q-21.18.61-27.23.61-11.19,0-18.3-.46t-8.93-.75q-7.86,0-13.61-8T15,66.74q0-16,9.08-26T50.4,29.52q20.26-2.11,75-2.12,69,0,82.29,3.94Q218,34.06,223.3,38.6a23.92,23.92,0,0,1,7.26,10,61.27,61.27,0,0,1,2.88,13.92,53.8,53.8,0,0,1,.6,9.08q0,15.12-6.65,20.27,0,.3-6.81,3.93A215.6,215.6,0,0,1,200,104.86a346.7,346.7,0,0,1-34.64,11.19h34.49q13.3,0,21.17,8.17t7.87,21.18q0,31.77-23.9,33.88-18.15,2.73-24.2,6.21t-5.75,9.83q.6,5.15,3.63,6.5c2,.91,5.85,1.67,11.49,2.27a20.15,20.15,0,0,0,3.94.3,33.35,33.35,0,0,1,5.75.61q11.49,1.22,18,4.08a20.55,20.55,0,0,1,10,9.38q3.48,6.51,4.09,18.91.6,15.44-6.51,23.9t-19.82,10a199.51,199.51,0,0,1-28.13,2.12A167.79,167.79,0,0,1,127.85,266.11Z"/><path class="cls-2" d="M348.1,251.59a102.61,102.61,0,0,1-34.18-20.87,64.45,64.45,0,0,1-17.85-26.17A96.43,96.43,0,0,1,290,169.9a127.89,127.89,0,0,1,37.81-89.25A125,125,0,0,1,371.1,53.57a146.76,146.76,0,0,1,51.13-8.92A180,180,0,0,1,484,55.84q37.51,13.62,55.52,40.85t23.44,65.95a111.5,111.5,0,0,1,.91,13.92A94.78,94.78,0,0,1,560.19,203a91.3,91.3,0,0,1-9.08,21.64q-7.86,14.22-20.87,14.21-7.26,0-19.37-4.53-12.4-4.54-17.09-11.2T489.7,204.7a41.77,41.77,0,0,1,1.81-9.68,70.47,70.47,0,0,0,2.42-16.64,54.15,54.15,0,0,0-5.75-23.91q-1.51-4.23-6.95-12.1l.3,10.29q0,48.41-18.46,71.4-12.1,15.13-33,24.66a105.85,105.85,0,0,1-44.47,9.53A109.76,109.76,0,0,1,348.1,251.59Zm67.47-71.7a29.95,29.95,0,1,0-21.18,8.77A28.87,28.87,0,0,0,415.57,179.89Z"/><path class="cls-2" d="M857.59,173.08a26.09,26.09,0,0,1,.16,34.64Q851.24,215,839.44,215h-1.51V240.4q0,20.86-6.81,34.79T811,289.11a29.6,29.6,0,0,1-7.26-.91,70.41,70.41,0,0,1-23-10.59q-10.29-7.26-13-14.82a38.2,38.2,0,0,0,12.4-24.21,17.15,17.15,0,0,1,5.15-.6,18.82,18.82,0,0,1,2.57.15,12.92,12.92,0,0,0,1.36.15V215H774.7a38.45,38.45,0,0,0-13.77-13.46,36.49,36.49,0,0,0-18.61-5,36.87,36.87,0,0,0-18.15,4.69,37.87,37.87,0,0,0-13.61,12.55c-2.42-.2-4-.75-4.84-1.66A7.22,7.22,0,0,1,704.2,208l-.3,6.65q-2.73,30.85-18.46,34.49-5.75,1.52-21.78,1.51-21.48,0-34.79-2.11a20.74,20.74,0,0,1-14.07-8q-5.29-6.81-6.5-21.63-1.21-15.43-2-44.63t-.76-56.12q0-21.18.3-27.84.61-17.53,3.94-27.38t11.8-11.64q12.71-2.43,37.21-2.42,25.41,0,32.07,2.42,7.56,2.41,10.89,11.8a26,26,0,0,1,7.57-13.62Q715.08,44,724.17,44h30.56V39.2q0-11.49,7.86-17.85A29,29,0,0,1,781.35,15a27.94,27.94,0,0,1,18.31,6.35q7.71,6.36,7.71,17.85v5.15h23.9q10.59,0,16.64,7.56A27.74,27.74,0,0,1,854,69.76a27.51,27.51,0,0,1-5.9,17.7q-5.89,7.41-16.79,7.41h-23.9v16h32.07q11.49,0,18.15,6.5a20.69,20.69,0,0,1,6.66,15.28,20.45,20.45,0,0,1-6.5,15.13q-6.51,6.35-18.31,6.35h-1.81c0,4.84.1,8.68.3,11.5h1.51Q850.93,165.67,857.59,173.08Zm-203-49.77q12.1,0,21.49.91-.92-17.85-2.42-19.36-2.73-2.43-17.86-2.42-16,0-18.15,2.11-1.51,1.53-2.12,19.67A179,179,0,0,1,654.58,123.31ZM675.46,176q-13.92.6-23.3.6l-15.43-.3q.91,20,3.33,20.87a36.81,36.81,0,0,0,7.57,1.21A122.44,122.44,0,0,0,660,199q9.68,0,12.41-1.51Q674.25,196.53,675.46,176ZM788,165.67l-.61-11.5q-22.68-.3-61.72-.3-12.4,0-19.66-5.75,0,8.48-.61,23.6a24.61,24.61,0,0,1,17.25-6.35ZM705.72,84.28a15.6,15.6,0,0,0,.3,3.63q.3,6.06.3,27.54,6.36-4.85,16.34-4.85h32.07V94.87l-27.84-.3Q713,94.57,705.72,84.28Zm57.78,129a28.62,28.62,0,0,0-21.18-8.93,30.47,30.47,0,0,0-30.25,30.26A28.61,28.61,0,0,0,721,255.83a29.35,29.35,0,0,0,21.33,8.77,30,30,0,0,0,30-30A29.36,29.36,0,0,0,763.5,213.32Z"/></g></g></svg>