<svg xmlns="http://www.w3.org/2000/svg" viewBox="0 0 288.58 1399.48"><defs><style>.cls-1{fill:none;stroke:#333;stroke-width:30px;}.cls-2{fill:#fff;}</style></defs><g id="レイヤー_2" data-name="レイヤー 2"><g id="scene3"><path class="cls-1" d="M22.51,172.75l-3.93-5.46A20.11,20.11,0,0,1,15,154.56a21.18,21.18,0,0,1,5-12.62A246.88,246.88,0,0,0,67,55q.6-2.55-1.68-2.58l-30.5-.37a15.58,15.58,0,0,1-11.34-5,15.57,15.57,0,0,1-4.7-11.46l.06-4.85a15.07,15.07,0,0,1,5-11.19A15.81,15.81,0,0,1,35.24,15l222.29,2.68a15.9,15.9,0,0,1,11.34,4.84,15.18,15.18,0,0,1,4.71,11.32l-.06,4.84a15.58,15.58,0,0,1-5,11.34,15.56,15.56,0,0,1-11.46,4.71l-52.15-.63c-1.71,0-2.58.73-2.6,2.25l-.74,61.84c0,1.71.73,2.2,2.26,1.45A397.4,397.4,0,0,0,242,99.58,14.33,14.33,0,0,1,253.85,98a14.82,14.82,0,0,1,9.46,7.52l3.62,7.17a17,17,0,0,1,1.27,12.56,15.83,15.83,0,0,1-7.53,9.88,537.9,537.9,0,0,1-57.35,28.38,3.31,3.31,0,0,0-2.32,3.39l-.65,54.15q-.06,4.85.78,5.85c.56.68,2.27,1.22,5.11,1.63q3.13.33,9.12.4,6.55.08,10.26-.16,3.42-.24,4.73-1.8c.86-1,1.61-3.5,2.22-7.38s1.18-10.87,1.68-20.93a14.52,14.52,0,0,1,5.4-10.77,15,15,0,0,1,11.59-3.56l7.12.65a16.35,16.35,0,0,1,11,5.84,16,16,0,0,1,4.14,11.73q-1.8,29.63-5.07,42.12t-9,16.43q-5.75,3.92-20,4.88-11.41,1-25.66.83-10.26-.12-25.64-.88-22.22-1.41-27.85-6.74t-5.39-25.86L157,55.8a2,2,0,0,0-2.25-2.3L111.45,53a2.93,2.93,0,0,0-3.16,2.53,244.24,244.24,0,0,1-8,25.27c-.4,1.52.06,2.28,1.4,2.3l28.78.35a16.55,16.55,0,0,1,16.05,16.44l-.21,17.38q-6,47.54-29.66,83.72T54,259.78a19.53,19.53,0,0,1-24.45-4.86l-5.9-7.48A12.24,12.24,0,0,1,21,236.58a13.43,13.43,0,0,1,6.81-9,158.91,158.91,0,0,0,47.23-40.19,2.17,2.17,0,0,0-.53-3.43q-10.17-7.81-22.32-16.23c-1.51-1.16-2.74-1.07-3.71.24q-.87,1.14-2.89,3.39c-1.35,1.51-2.31,2.63-2.89,3.38a12.06,12.06,0,0,1-10.45,3.87A13.14,13.14,0,0,1,22.51,172.75Zm51.2-39c-.78,1.51-.6,2.66.53,3.43q17.24,12.47,18.93,13.62,2,1.45,3.15-.82a225.83,225.83,0,0,0,8.92-31c.4-1.51-.26-2.28-2-2.3l-17.09-.21a3.55,3.55,0,0,0-3.74,2.24Q75.47,130.93,73.71,133.75Z"/><path class="cls-1" d="M56.31,630.77a17.47,17.47,0,0,1-12.5-3.29,17,17,0,0,1-7-10.92q-10-48.57-9.3-103.29t11.79-103a17,17,0,0,1,7.25-10.75,17.46,17.46,0,0,1,12.58-3l13.38,1.59a13.16,13.16,0,0,1,9.9,6,14.44,14.44,0,0,1,2.14,11.85q-10.25,45.49-10.88,97.92T82.19,612a14.43,14.43,0,0,1-2.42,11.8,13.19,13.19,0,0,1-10,5.72Zm130.35-7.55q-41-.5-63.93-16.73t-22.56-43.32q.12-10.24,6.84-24a124.55,124.55,0,0,1,18.28-27,14.78,14.78,0,0,1,11.33-5.27A18.15,18.15,0,0,1,149,511l6.5,4.93a13.92,13.92,0,0,1,5.43,10.61,16.66,16.66,0,0,1-3.7,11.64q-11.88,14.68-12,22.66-.14,10.54,9.78,15.65t32.15,5.38A280.63,280.63,0,0,0,234,578.19a15.67,15.67,0,0,1,11.93,2.7,15.12,15.12,0,0,1,6.43,10.34l1,8.28A16.67,16.67,0,0,1,250.49,612,15.24,15.24,0,0,1,240,618.73,274.07,274.07,0,0,1,186.66,623.22Zm47-206.08a16.57,16.57,0,0,1,16,16.44l-.1,7.7a16.55,16.55,0,0,1-16.44,16.05l-90.91-1.1a16.53,16.53,0,0,1-16-16.44l.09-7.7a16.53,16.53,0,0,1,16.44-16Z"/><path class="cls-1" d="M27.88,1003.15a13.93,13.93,0,0,1-9.33-7.1,14.3,14.3,0,0,1-1-11.84Q42.7,907.56,59,833.94a1.74,1.74,0,0,0-.41-1.72,2,2,0,0,0-1.55-.87l-18-.22a15.58,15.58,0,0,1-11.34-5A15.62,15.62,0,0,1,23,814.69l.08-6.56a15.65,15.65,0,0,1,5-11.34,15.61,15.61,0,0,1,11.46-4.7l25.37.3a2.92,2.92,0,0,0,3.16-2.52c.4-1.71.91-4.08,1.51-7.11s1-5.4,1.23-7.11a16.73,16.73,0,0,1,6.69-10.89,17.21,17.21,0,0,1,12.29-3.42l11.39,1a15,15,0,0,1,13.19,17.55q-.32,1.71-.92,5.4c-.42,2.47-.72,4.27-.92,5.41-.41,1.52.25,2.28,2,2.3l78.94,1a15.11,15.11,0,0,1,11.2,5,15.77,15.77,0,0,1,4.56,11.45l-.07,6.56a15.87,15.87,0,0,1-4.84,11.34A15.18,15.18,0,0,1,193,833l-86.35-1a2.71,2.71,0,0,0-2.88,2.25A1478.66,1478.66,0,0,1,61,994.43a16.6,16.6,0,0,1-8.24,9.87,17.56,17.56,0,0,1-12.71,1.84Zm206.24-37.7a15.91,15.91,0,0,1,11.79,3.13,14.74,14.74,0,0,1,6,10.48l.77,6.85A16,16,0,0,1,249.4,998a16.31,16.31,0,0,1-10.62,6.29,333,333,0,0,1-44.21,2.6q-40.75-.5-64.65-15.74T106.3,952.51q.2-16.25,15.49-32.31a20.19,20.19,0,0,1,12.48-6.41,22.59,22.59,0,0,1,14.08,2.45l4.82,2.34a10.5,10.5,0,0,1,5.88,8.34,11.46,11.46,0,0,1-3.26,9.94c-3.66,3.94-5.5,7.72-5.55,11.33q-.11,8.26,11.66,13.82T195,967.83A290.26,290.26,0,0,0,234.12,965.45ZM149.21,892a15.06,15.06,0,0,1-11.5-3.85,15.47,15.47,0,0,1-5.42-10.89l-.5-5.71a16.62,16.62,0,0,1,15-17.49q46.22-3.72,87-3.51a15.17,15.17,0,0,1,11.2,5A15.84,15.84,0,0,1,249.55,867l-.06,5.7a16.57,16.57,0,0,1-16.45,16Q190.58,888.55,149.21,892Z"/><path class="cls-1" d="M83.13,1384.48q-25.38-.32-46.48-33.91T16.12,1268.8a352.36,352.36,0,0,1,11.58-85.65,17.37,17.37,0,0,1,7.68-10.59,18.76,18.76,0,0,1,13-2.84l12.52,1.58a12.74,12.74,0,0,1,9.76,6,14.16,14.16,0,0,1,2,11.57A357.4,357.4,0,0,0,62,1269.36q-.34,28.79,8.1,49t17,20.3q5.41.06,14.53-11.09t19.05-32.12a16.68,16.68,0,0,1,9.09-8.72,16.47,16.47,0,0,1,12.4-.14l9.08,3.53A15.58,15.58,0,0,1,160.4,1311q-15.26,35.16-36.43,54.43T83.13,1384.48Zm121.68-45.56q-1.65-76.12-27-144.84a14.34,14.34,0,0,1,.71-11.82,13.78,13.78,0,0,1,9.21-7.44l11.16-3a17.6,17.6,0,0,1,13,1.16,18.33,18.33,0,0,1,9.15,9.37q28.5,70.45,30,157.41a14.23,14.23,0,0,1-4.69,11.2,15.85,15.85,0,0,1-11.46,4.57l-13.68-.17a15.58,15.58,0,0,1-11.34-5A16.7,16.7,0,0,1,204.81,1338.92Z"/><path class="cls-2" d="M22.51,172.75l-3.93-5.46A20.11,20.11,0,0,1,15,154.56a21.18,21.18,0,0,1,5-12.62A246.88,246.88,0,0,0,67,55q.6-2.55-1.68-2.58l-30.5-.37a15.58,15.58,0,0,1-11.34-5,15.57,15.57,0,0,1-4.7-11.46l.06-4.85a15.07,15.07,0,0,1,5-11.19A15.81,15.81,0,0,1,35.24,15l222.29,2.68a15.9,15.9,0,0,1,11.34,4.84,15.18,15.18,0,0,1,4.71,11.32l-.06,4.84a15.58,15.58,0,0,1-5,11.34,15.56,15.56,0,0,1-11.46,4.71l-52.15-.63c-1.71,0-2.58.73-2.6,2.25l-.74,61.84c0,1.71.73,2.2,2.26,1.45A397.4,397.4,0,0,0,242,99.58,14.33,14.33,0,0,1,253.85,98a14.82,14.82,0,0,1,9.46,7.52l3.62,7.17a17,17,0,0,1,1.27,12.56,15.83,15.83,0,0,1-7.53,9.88,537.9,537.9,0,0,1-57.35,28.38,3.31,3.31,0,0,0-2.32,3.39l-.65,54.15q-.06,4.85.78,5.85c.56.68,2.27,1.22,5.11,1.63q3.13.33,9.12.4,6.55.08,10.26-.16,3.42-.24,4.73-1.8c.86-1,1.61-3.5,2.22-7.38s1.18-10.87,1.68-20.93a14.52,14.52,0,0,1,5.4-10.77,15,15,0,0,1,11.59-3.56l7.12.65a16.35,16.35,0,0,1,11,5.84,16,16,0,0,1,4.14,11.73q-1.8,29.63-5.07,42.12t-9,16.43q-5.75,3.92-20,4.88-11.41,1-25.66.83-10.26-.12-25.64-.88-22.22-1.41-27.85-6.74t-5.39-25.86L157,55.8a2,2,0,0,0-2.25-2.3L111.45,53a2.93,2.93,0,0,0-3.16,2.53,244.24,244.24,0,0,1-8,25.27c-.4,1.52.06,2.28,1.4,2.3l28.78.35a16.55,16.55,0,0,1,16.05,16.44l-.21,17.38q-6,47.54-29.66,83.72T54,259.78a19.53,19.53,0,0,1-24.45-4.86l-5.9-7.48A12.24,12.24,0,0,1,21,236.58a13.43,13.43,0,0,1,6.81-9,158.91,158.91,0,0,0,47.23-40.19,2.17,2.17,0,0,0-.53-3.43q-10.17-7.81-22.32-16.23c-1.51-1.16-2.74-1.07-3.71.24q-.87,1.14-2.89,3.39c-1.35,1.51-2.31,2.63-2.89,3.38a12.06,12.06,0,0,1-10.45,3.87A13.14,13.14,0,0,1,22.51,172.75Zm51.2-39c-.78,1.51-.6,2.66.53,3.43q17.24,12.47,18.93,13.62,2,1.45,3.15-.82a225.83,225.83,0,0,0,8.92-31c.4-1.51-.26-2.28-2-2.3l-17.09-.21a3.55,3.55,0,0,0-3.74,2.24Q75.47,130.93,73.71,133.75Z"/><path class="cls-2" d="M56.31,630.77a17.47,17.47,0,0,1-12.5-3.29,17,17,0,0,1-7-10.92q-10-48.57-9.3-103.29t11.79-103a17,17,0,0,1,7.25-10.75,17.46,17.46,0,0,1,12.58-3l13.38,1.59a13.16,13.16,0,0,1,9.9,6,14.44,14.44,0,0,1,2.14,11.85q-10.25,45.49-10.88,97.92T82.19,612a14.43,14.43,0,0,1-2.42,11.8,13.19,13.19,0,0,1-10,5.72Zm130.35-7.55q-41-.5-63.93-16.73t-22.56-43.32q.12-10.24,6.84-24a124.55,124.55,0,0,1,18.28-27,14.78,14.78,0,0,1,11.33-5.27A18.15,18.15,0,0,1,149,511l6.5,4.93a13.92,13.92,0,0,1,5.43,10.61,16.66,16.66,0,0,1-3.7,11.64q-11.88,14.68-12,22.66-.14,10.54,9.78,15.65t32.15,5.38A280.63,280.63,0,0,0,234,578.19a15.67,15.67,0,0,1,11.93,2.7,15.12,15.12,0,0,1,6.43,10.34l1,8.28A16.67,16.67,0,0,1,250.49,612,15.24,15.24,0,0,1,240,618.73,274.07,274.07,0,0,1,186.66,623.22Zm47-206.08a16.57,16.57,0,0,1,16,16.44l-.1,7.7a16.55,16.55,0,0,1-16.44,16.05l-90.91-1.1a16.53,16.53,0,0,1-16-16.44l.09-7.7a16.53,16.53,0,0,1,16.44-16Z"/><path class="cls-2" d="M27.88,1003.15a13.93,13.93,0,0,1-9.33-7.1,14.3,14.3,0,0,1-1-11.84Q42.7,907.56,59,833.94a1.74,1.74,0,0,0-.41-1.72,2,2,0,0,0-1.55-.87l-18-.22a15.58,15.58,0,0,1-11.34-5A15.62,15.62,0,0,1,23,814.69l.08-6.56a15.65,15.65,0,0,1,5-11.34,15.61,15.61,0,0,1,11.46-4.7l25.37.3a2.92,2.92,0,0,0,3.16-2.52c.4-1.71.91-4.08,1.51-7.11s1-5.4,1.23-7.11a16.73,16.73,0,0,1,6.69-10.89,17.21,17.21,0,0,1,12.29-3.42l11.39,1a15,15,0,0,1,13.19,17.55q-.32,1.71-.92,5.4c-.42,2.47-.72,4.27-.92,5.41-.41,1.52.25,2.28,2,2.3l78.94,1a15.11,15.11,0,0,1,11.2,5,15.77,15.77,0,0,1,4.56,11.45l-.07,6.56a15.87,15.87,0,0,1-4.84,11.34A15.18,15.18,0,0,1,193,833l-86.35-1a2.71,2.71,0,0,0-2.88,2.25A1478.66,1478.66,0,0,1,61,994.43a16.6,16.6,0,0,1-8.24,9.87,17.56,17.56,0,0,1-12.71,1.84Zm206.24-37.7a15.91,15.91,0,0,1,11.79,3.13,14.74,14.74,0,0,1,6,10.48l.77,6.85A16,16,0,0,1,249.4,998a16.31,16.31,0,0,1-10.62,6.29,333,333,0,0,1-44.21,2.6q-40.75-.5-64.65-15.74T106.3,952.51q.2-16.25,15.49-32.31a20.19,20.19,0,0,1,12.48-6.41,22.59,22.59,0,0,1,14.08,2.45l4.82,2.34a10.5,10.5,0,0,1,5.88,8.34,11.46,11.46,0,0,1-3.26,9.94c-3.66,3.94-5.5,7.72-5.55,11.33q-.11,8.26,11.66,13.82T195,967.83A290.26,290.26,0,0,0,234.12,965.45ZM149.21,892a15.06,15.06,0,0,1-11.5-3.85,15.47,15.47,0,0,1-5.42-10.89l-.5-5.71a16.62,16.62,0,0,1,15-17.49q46.22-3.72,87-3.51a15.17,15.17,0,0,1,11.2,5A15.84,15.84,0,0,1,249.55,867l-.06,5.7a16.57,16.57,0,0,1-16.45,16Q190.58,888.55,149.21,892Z"/><path class="cls-2" d="M83.13,1384.48q-25.38-.32-46.48-33.91T16.12,1268.8a352.36,352.36,0,0,1,11.58-85.65,17.37,17.37,0,0,1,7.68-10.59,18.76,18.76,0,0,1,13-2.84l12.52,1.58a12.74,12.74,0,0,1,9.76,6,14.16,14.16,0,0,1,2,11.57A357.4,357.4,0,0,0,62,1269.36q-.34,28.79,8.1,49t17,20.3q5.41.06,14.53-11.09t19.05-32.12a16.68,16.68,0,0,1,9.09-8.72,16.47,16.47,0,0,1,12.4-.14l9.08,3.53A15.58,15.58,0,0,1,160.4,1311q-15.26,35.16-36.43,54.43T83.13,1384.48Zm121.68-45.56q-1.65-76.12-27-144.84a14.34,14.34,0,0,1,.71-11.82,13.78,13.78,0,0,1,9.21-7.44l11.16-3a17.6,17.6,0,0,1,13,1.16,18.33,18.33,0,0,1,9.15,9.37q28.5,70.45,30,157.41a14.23,14.23,0,0,1-4.69,11.2,15.85,15.85,0,0,1-11.46,4.57l-13.68-.17a15.58,15.58,0,0,1-11.34-5A16.7,16.7,0,0,1,204.81,1338.92Z"/><path class="cls-2" d="M22.51,172.75l-3.93-5.46A20.11,20.11,0,0,1,15,154.56a21.18,21.18,0,0,1,5-12.62A246.88,246.88,0,0,0,67,55q.6-2.55-1.68-2.58l-30.5-.37a15.58,15.58,0,0,1-11.34-5,15.57,15.57,0,0,1-4.7-11.46l.06-4.85a15.07,15.07,0,0,1,5-11.19A15.81,15.81,0,0,1,35.24,15l222.29,2.68a15.9,15.9,0,0,1,11.34,4.84,15.18,15.18,0,0,1,4.71,11.32l-.06,4.84a15.58,15.58,0,0,1-5,11.34,15.56,15.56,0,0,1-11.46,4.71l-52.15-.63c-1.71,0-2.58.73-2.6,2.25l-.74,61.84c0,1.71.73,2.2,2.26,1.45A397.4,397.4,0,0,0,242,99.58,14.33,14.33,0,0,1,253.85,98a14.82,14.82,0,0,1,9.46,7.52l3.62,7.17a17,17,0,0,1,1.27,12.56,15.83,15.83,0,0,1-7.53,9.88,537.9,537.9,0,0,1-57.35,28.38,3.31,3.31,0,0,0-2.32,3.39l-.65,54.15q-.06,4.85.78,5.85c.56.68,2.27,1.22,5.11,1.63q3.13.33,9.12.4,6.55.08,10.26-.16,3.42-.24,4.73-1.8c.86-1,1.61-3.5,2.22-7.38s1.18-10.87,1.68-20.93a14.52,14.52,0,0,1,5.4-10.77,15,15,0,0,1,11.59-3.56l7.12.65a16.35,16.35,0,0,1,11,5.84,16,16,0,0,1,4.14,11.73q-1.8,29.63-5.07,42.12t-9,16.43q-5.75,3.92-20,4.88-11.41,1-25.66.83-10.26-.12-25.64-.88-22.22-1.41-27.85-6.74t-5.39-25.86L157,55.8a2,2,0,0,0-2.25-2.3L111.45,53a2.93,2.93,0,0,0-3.16,2.53,244.24,244.24,0,0,1-8,25.27c-.4,1.52.06,2.28,1.4,2.3l28.78.35a16.55,16.55,0,0,1,16.05,16.44l-.21,17.38q-6,47.54-29.66,83.72T54,259.78a19.53,19.53,0,0,1-24.45-4.86l-5.9-7.48A12.24,12.24,0,0,1,21,236.58a13.43,13.43,0,0,1,6.81-9,158.91,158.91,0,0,0,47.23-40.19,2.17,2.17,0,0,0-.53-3.43q-10.17-7.81-22.32-16.23c-1.51-1.16-2.74-1.07-3.71.24q-.87,1.14-2.89,3.39c-1.35,1.51-2.31,2.63-2.89,3.38a12.06,12.06,0,0,1-10.45,3.87A13.14,13.14,0,0,1,22.51,172.75Zm51.2-39c-.78,1.51-.6,2.66.53,3.43q17.24,12.47,18.93,13.62,2,1.45,3.15-.82a225.83,225.83,0,0,0,8.92-31c.4-1.51-.26-2.28-2-2.3l-17.09-.21a3.55,3.55,0,0,0-3.74,2.24Q75.47,130.93,73.71,133.75Z"/><path class="cls-2" d="M56.31,630.77a17.47,17.47,0,0,1-12.5-3.29,17,17,0,0,1-7-10.92q-10-48.57-9.3-103.29t11.79-103a17,17,0,0,1,7.25-10.75,17.46,17.46,0,0,1,12.58-3l13.38,1.59a13.16,13.16,0,0,1,9.9,6,14.44,14.44,0,0,1,2.14,11.85q-10.25,45.49-10.88,97.92T82.19,612a14.43,14.43,0,0,1-2.42,11.8,13.19,13.19,0,0,1-10,5.72Zm130.35-7.55q-41-.5-63.93-16.73t-22.56-43.32q.12-10.24,6.84-24a124.55,124.55,0,0,1,18.28-27,14.78,14.78,0,0,1,11.33-5.27A18.15,18.15,0,0,1,149,511l6.5,4.93a13.92,13.92,0,0,1,5.43,10.61,16.66,16.66,0,0,1-3.7,11.64q-11.88,14.68-12,22.66-.14,10.54,9.78,15.65t32.15,5.38A280.63,280.63,0,0,0,234,578.19a15.67,15.67,0,0,1,11.93,2.7,15.12,15.12,0,0,1,6.43,10.34l1,8.28A16.67,16.67,0,0,1,250.49,612,15.24,15.24,0,0,1,240,618.73,274.07,274.07,0,0,1,186.66,623.22Zm47-206.08a16.57,16.57,0,0,1,16,16.44l-.1,7.7a16.55,16.55,0,0,1-16.44,16.05l-90.91-1.1a16.53,16.53,0,0,1-16-16.44l.09-7.7a16.53,16.53,0,0,1,16.44-16Z"/><path class="cls-2" d="M27.88,1003.15a13.93,13.93,0,0,1-9.33-7.1,14.3,14.3,0,0,1-1-11.84Q42.7,907.56,59,833.94a1.74,1.74,0,0,0-.41-1.72,2,2,0,0,0-1.55-.87l-18-.22a15.58,15.58,0,0,1-11.34-5A15.62,15.62,0,0,1,23,814.69l.08-6.56a15.65,15.65,0,0,1,5-11.34,15.61,15.61,0,0,1,11.46-4.7l25.37.3a2.92,2.92,0,0,0,3.16-2.52c.4-1.71.91-4.08,1.51-7.11s1-5.4,1.23-7.11a16.73,16.73,0,0,1,6.69-10.89,17.21,17.21,0,0,1,12.29-3.42l11.39,1a15,15,0,0,1,13.19,17.55q-.32,1.71-.92,5.4c-.42,2.47-.72,4.27-.92,5.41-.41,1.52.25,2.28,2,2.3l78.94,1a15.11,15.11,0,0,1,11.2,5,15.77,15.77,0,0,1,4.56,11.45l-.07,6.56a15.87,15.87,0,0,1-4.84,11.34A15.18,15.18,0,0,1,193,833l-86.35-1a2.71,2.71,0,0,0-2.88,2.25A1478.66,1478.66,0,0,1,61,994.43a16.6,16.6,0,0,1-8.24,9.87,17.56,17.56,0,0,1-12.71,1.84Zm206.24-37.7a15.91,15.91,0,0,1,11.79,3.13,14.74,14.74,0,0,1,6,10.48l.77,6.85A16,16,0,0,1,249.4,998a16.31,16.31,0,0,1-10.62,6.29,333,333,0,0,1-44.21,2.6q-40.75-.5-64.65-15.74T106.3,952.51q.2-16.25,15.49-32.31a20.19,20.19,0,0,1,12.48-6.41,22.59,22.59,0,0,1,14.08,2.45l4.82,2.34a10.5,10.5,0,0,1,5.88,8.34,11.46,11.46,0,0,1-3.26,9.94c-3.66,3.94-5.5,7.72-5.55,11.33q-.11,8.26,11.66,13.82T195,967.83A290.26,290.26,0,0,0,234.12,965.45ZM149.21,892a15.06,15.06,0,0,1-11.5-3.85,15.47,15.47,0,0,1-5.42-10.89l-.5-5.71a16.62,16.62,0,0,1,15-17.49q46.22-3.72,87-3.51a15.17,15.17,0,0,1,11.2,5A15.84,15.84,0,0,1,249.55,867l-.06,5.7a16.57,16.57,0,0,1-16.45,16Q190.58,888.55,149.21,892Z"/><path class="cls-2" d="M83.13,1384.48q-25.38-.32-46.48-33.91T16.12,1268.8a352.36,352.36,0,0,1,11.58-85.65,17.37,17.37,0,0,1,7.68-10.59,18.76,18.76,0,0,1,13-2.84l12.52,1.58a12.74,12.74,0,0,1,9.76,6,14.16,14.16,0,0,1,2,11.57A357.4,357.4,0,0,0,62,1269.36q-.34,28.79,8.1,49t17,20.3q5.41.06,14.53-11.09t19.05-32.12a16.68,16.68,0,0,1,9.09-8.72,16.47,16.47,0,0,1,12.4-.14l9.08,3.53A15.58,15.58,0,0,1,160.4,1311q-15.26,35.16-36.43,54.43T83.13,1384.48Zm121.68-45.56q-1.65-76.12-27-144.84a14.34,14.34,0,0,1,.71-11.82,13.78,13.78,0,0,1,9.21-7.44l11.16-3a17.6,17.6,0,0,1,13,1.16,18.33,18.33,0,0,1,9.15,9.37q28.5,70.45,30,157.41a14.23,14.23,0,0,1-4.69,11.2,15.85,15.85,0,0,1-11.46,4.57l-13.68-.17a15.58,15.58,0,0,1-11.34-5A16.7,16.7,0,0,1,204.81,1338.92Z"/></g></g></svg>