<svg xmlns="http://www.w3.org/2000/svg" viewBox="0 0 179.55 678.27"><defs><style>.cls-1{fill:none;stroke:#78001e;stroke-width:25px;}.cls-2{fill:#fff;}</style></defs><g id="レイヤー_2" data-name="レイヤー 2"><g id="scene3"><path class="cls-1" d="M17.1,106.68l-2.38-3.23a12,12,0,0,1-2.21-7.57,12.69,12.69,0,0,1,2.89-7.56A147.13,147.13,0,0,0,42.77,36.13q.34-1.53-1-1.53H23.56a9.29,9.29,0,0,1-6.8-2.89,9.29,9.29,0,0,1-2.89-6.8V22a9,9,0,0,1,2.89-6.71,9.45,9.45,0,0,1,6.8-2.81h132.6a9.45,9.45,0,0,1,6.8,2.81A9,9,0,0,1,165.85,22v2.89a9.29,9.29,0,0,1-2.89,6.8,9.29,9.29,0,0,1-6.8,2.89H125.05c-1,0-1.53.45-1.53,1.36V72.85c0,1,.45,1.3,1.36.85a238.21,238.21,0,0,0,22.61-12.24,8.56,8.56,0,0,1,7.06-1,8.81,8.81,0,0,1,5.69,4.42l2.21,4.25a10.08,10.08,0,0,1,.85,7.48,9.44,9.44,0,0,1-4.42,6,321.38,321.38,0,0,1-34,17.34,2,2,0,0,0-1.36,2v32.3c0,1.93.17,3.09.51,3.49s1.36.7,3.06.93c1.25.11,3.06.17,5.44.17q3.91,0,6.12-.17a3.93,3.93,0,0,0,2.81-1.1c.51-.63.93-2.1,1.27-4.43s.62-6.48.85-12.49a8.64,8.64,0,0,1,3.15-6.46,9,9,0,0,1,6.88-2.21l4.25.34a9.74,9.74,0,0,1,6.63,3.4,9.56,9.56,0,0,1,2.55,7q-.85,17.68-2.72,25.16t-5.27,9.86q-3.41,2.38-11.9,3.06-6.79.67-15.3.68-6.12,0-15.3-.34-13.26-.68-16.66-3.83t-3.4-15.38V36a1.2,1.2,0,0,0-1.36-1.36H69.29a1.75,1.75,0,0,0-1.87,1.53,146.86,146.86,0,0,1-4.59,15.13c-.23.91.06,1.36.85,1.36H80.85a9.87,9.87,0,0,1,9.69,9.69V72.68q-3.23,28.39-17.08,50.15a109.49,109.49,0,0,1-37,35.53,11.66,11.66,0,0,1-14.62-2.72l-3.57-4.42a7.29,7.29,0,0,1-1.61-6.46,8,8,0,0,1,4-5.44A94.64,94.64,0,0,0,48.55,115a1.29,1.29,0,0,0-.34-2q-6.12-4.59-13.43-9.52c-.91-.68-1.64-.62-2.21.17-.34.45-.91,1.13-1.7,2s-1.36,1.59-1.7,2a7.19,7.19,0,0,1-6.2,2.38A7.86,7.86,0,0,1,17.1,106.68ZM47.36,83.05c-.45.91-.34,1.59.34,2q10.36,7.3,11.39,8c.79.57,1.42.4,1.87-.51A135,135,0,0,0,66.06,74c.23-.91-.17-1.36-1.19-1.36H54.67A2.11,2.11,0,0,0,52.46,74Q48.38,81.35,47.36,83.05Z"/><path class="cls-1" d="M40.56,325.22a10.42,10.42,0,0,1-7.48-1.87,10.15,10.15,0,0,1-4.25-6.46,289.15,289.15,0,0,1-6.29-61.54,289.15,289.15,0,0,1,6.29-61.54,10.15,10.15,0,0,1,4.25-6.46,10.37,10.37,0,0,1,7.48-1.87l8,.85a7.87,7.87,0,0,1,6,3.48,8.6,8.6,0,0,1,1.36,7.06,281.36,281.36,0,0,0-5.78,58.48,281.36,281.36,0,0,0,5.78,58.48,8.58,8.58,0,0,1-1.36,7.05,7.85,7.85,0,0,1-6,3.49Zm77.69-5.44q-24.48,0-38.25-9.52T66.23,284.59q0-6.12,3.91-14.37A74.77,74.77,0,0,1,80.85,254a8.81,8.81,0,0,1,6.72-3.23A10.86,10.86,0,0,1,95,253.14L98.87,256a8.32,8.32,0,0,1,3.32,6.29,9.92,9.92,0,0,1-2.13,7q-7,8.83-7,13.6,0,6.28,6,9.26t19.21,3a166.53,166.53,0,0,0,27.88-2.55,9.37,9.37,0,0,1,7.14,1.53,9,9,0,0,1,3.91,6.12l.68,4.93a10,10,0,0,1-1.61,7.48,9.1,9.1,0,0,1-6.21,4.08A163.43,163.43,0,0,1,118.25,319.78Zm26.52-123.25a9.87,9.87,0,0,1,9.69,9.69v4.59a9.87,9.87,0,0,1-9.69,9.69H90.54a9.87,9.87,0,0,1-9.69-9.69v-4.59a9.87,9.87,0,0,1,9.69-9.69Z"/><path class="cls-1" d="M26.28,493.13A8.31,8.31,0,0,1,20.67,489a8.51,8.51,0,0,1-.68-7Q34.44,436,43.62,392a1,1,0,0,0-.25-1,1.23,1.23,0,0,0-.94-.51H31.72a9.29,9.29,0,0,1-6.8-2.89,9.29,9.29,0,0,1-2.89-6.8v-3.91a9.29,9.29,0,0,1,2.89-6.8,9.29,9.29,0,0,1,6.8-2.89H46.85a1.75,1.75,0,0,0,1.87-1.53c.23-1,.51-2.44.85-4.25s.57-3.23.68-4.25a10,10,0,0,1,3.91-6.55,10.24,10.24,0,0,1,7.31-2.12l6.8.51a8.92,8.92,0,0,1,8,10.37c-.11.68-.28,1.76-.51,3.23s-.4,2.55-.51,3.23c-.23.91.17,1.36,1.19,1.36h47.09a9,9,0,0,1,6.72,2.89,9.44,9.44,0,0,1,2.8,6.8v3.91a9.44,9.44,0,0,1-2.8,6.8,9,9,0,0,1-6.72,2.89H72a1.6,1.6,0,0,0-1.7,1.36A883.6,883.6,0,0,1,46,487.69a9.93,9.93,0,0,1-4.84,5.95,10.54,10.54,0,0,1-7.57,1.19Zm122.74-24a9.48,9.48,0,0,1,7.06,1.78,8.8,8.8,0,0,1,3.65,6.21l.51,4.08a9.53,9.53,0,0,1-1.87,7.22,9.72,9.72,0,0,1-6.29,3.83,199.74,199.74,0,0,1-26.35,1.87q-24.32,0-38.67-8.93T72.69,462.36q0-9.69,9-19.38a12,12,0,0,1,7.4-3.91,13.43,13.43,0,0,1,8.41,1.36l2.89,1.36a6.25,6.25,0,0,1,3.57,4.93,6.82,6.82,0,0,1-1.87,5.95q-3.22,3.57-3.23,6.8,0,4.93,7.06,8.16t19.8,3.23A172.65,172.65,0,0,0,149,469.16ZM97.85,426A9,9,0,0,1,91,423.77a9.25,9.25,0,0,1-3.32-6.46l-.34-3.4a9.91,9.91,0,0,1,8.84-10.54q27.54-2.55,51.85-2.72a9,9,0,0,1,6.72,2.89,9.44,9.44,0,0,1,2.8,6.8v3.4a9.87,9.87,0,0,1-9.69,9.69Q122.49,423.6,97.85,426Z"/><path class="cls-1" d="M62,665.77q-15.13,0-28-19.89T21.18,597.26a210.39,210.39,0,0,1,6.29-51.17A10.36,10.36,0,0,1,32,539.72a11.2,11.2,0,0,1,7.73-1.79l7.48.85a7.62,7.62,0,0,1,5.87,3.49,8.46,8.46,0,0,1,1.27,6.88,213.6,213.6,0,0,0-5.78,48.11q0,17.18,5.19,29.16T64,638.4q3.23,0,8.59-6.71t11.13-19.3a9.94,9.94,0,0,1,5.36-5.27,9.84,9.84,0,0,1,7.39-.17l5.44,2a9,9,0,0,1,5.53,5,9.1,9.1,0,0,1,.08,7.39q-8.83,21.09-21.33,32.73T62,665.77Zm72.25-28a263.81,263.81,0,0,0-17.17-86.19,8.52,8.52,0,0,1,.34-7,8.21,8.21,0,0,1,5.44-4.51l6.63-1.87a10.52,10.52,0,0,1,7.74.6,10.92,10.92,0,0,1,5.52,5.52q17.51,41.82,19,93.67a8.48,8.48,0,0,1-2.72,6.72,9.44,9.44,0,0,1-6.8,2.8h-8.16a9.29,9.29,0,0,1-6.8-2.89A9.9,9.9,0,0,1,134.23,637.72Z"/><path class="cls-2" d="M17.1,106.68l-2.38-3.23a12,12,0,0,1-2.21-7.57,12.69,12.69,0,0,1,2.89-7.56A147.13,147.13,0,0,0,42.77,36.13q.34-1.53-1-1.53H23.56a9.29,9.29,0,0,1-6.8-2.89,9.29,9.29,0,0,1-2.89-6.8V22a9,9,0,0,1,2.89-6.71,9.45,9.45,0,0,1,6.8-2.81h132.6a9.45,9.45,0,0,1,6.8,2.81A9,9,0,0,1,165.85,22v2.89a9.29,9.29,0,0,1-2.89,6.8,9.29,9.29,0,0,1-6.8,2.89H125.05c-1,0-1.53.45-1.53,1.36V72.85c0,1,.45,1.3,1.36.85a238.21,238.21,0,0,0,22.61-12.24,8.56,8.56,0,0,1,7.06-1,8.81,8.81,0,0,1,5.69,4.42l2.21,4.25a10.08,10.08,0,0,1,.85,7.48,9.44,9.44,0,0,1-4.42,6,321.38,321.38,0,0,1-34,17.34,2,2,0,0,0-1.36,2v32.3c0,1.93.17,3.09.51,3.49s1.36.7,3.06.93c1.25.11,3.06.17,5.44.17q3.91,0,6.12-.17a3.93,3.93,0,0,0,2.81-1.1c.51-.63.93-2.1,1.27-4.43s.62-6.48.85-12.49a8.64,8.64,0,0,1,3.15-6.46,9,9,0,0,1,6.88-2.21l4.25.34a9.74,9.74,0,0,1,6.63,3.4,9.56,9.56,0,0,1,2.55,7q-.85,17.68-2.72,25.16t-5.27,9.86q-3.41,2.38-11.9,3.06-6.79.67-15.3.68-6.12,0-15.3-.34-13.26-.68-16.66-3.83t-3.4-15.38V36a1.2,1.2,0,0,0-1.36-1.36H69.29a1.75,1.75,0,0,0-1.87,1.53,146.86,146.86,0,0,1-4.59,15.13c-.23.91.06,1.36.85,1.36H80.85a9.87,9.87,0,0,1,9.69,9.69V72.68q-3.23,28.39-17.08,50.15a109.49,109.49,0,0,1-37,35.53,11.66,11.66,0,0,1-14.62-2.72l-3.57-4.42a7.29,7.29,0,0,1-1.61-6.46,8,8,0,0,1,4-5.44A94.64,94.64,0,0,0,48.55,115a1.29,1.29,0,0,0-.34-2q-6.12-4.59-13.43-9.52c-.91-.68-1.64-.62-2.21.17-.34.45-.91,1.13-1.7,2s-1.36,1.59-1.7,2a7.19,7.19,0,0,1-6.2,2.38A7.86,7.86,0,0,1,17.1,106.68ZM47.36,83.05c-.45.91-.34,1.59.34,2q10.36,7.3,11.39,8c.79.57,1.42.4,1.87-.51A135,135,0,0,0,66.06,74c.23-.91-.17-1.36-1.19-1.36H54.67A2.11,2.11,0,0,0,52.46,74Q48.38,81.35,47.36,83.05Z"/><path class="cls-2" d="M40.56,325.22a10.42,10.42,0,0,1-7.48-1.87,10.15,10.15,0,0,1-4.25-6.46,289.15,289.15,0,0,1-6.29-61.54,289.15,289.15,0,0,1,6.29-61.54,10.15,10.15,0,0,1,4.25-6.46,10.37,10.37,0,0,1,7.48-1.87l8,.85a7.87,7.87,0,0,1,6,3.48,8.6,8.6,0,0,1,1.36,7.06,281.36,281.36,0,0,0-5.78,58.48,281.36,281.36,0,0,0,5.78,58.48,8.58,8.58,0,0,1-1.36,7.05,7.85,7.85,0,0,1-6,3.49Zm77.69-5.44q-24.48,0-38.25-9.52T66.23,284.59q0-6.12,3.91-14.37A74.77,74.77,0,0,1,80.85,254a8.81,8.81,0,0,1,6.72-3.23A10.86,10.86,0,0,1,95,253.14L98.87,256a8.32,8.32,0,0,1,3.32,6.29,9.92,9.92,0,0,1-2.13,7q-7,8.83-7,13.6,0,6.28,6,9.26t19.21,3a166.53,166.53,0,0,0,27.88-2.55,9.37,9.37,0,0,1,7.14,1.53,9,9,0,0,1,3.91,6.12l.68,4.93a10,10,0,0,1-1.61,7.48,9.1,9.1,0,0,1-6.21,4.08A163.43,163.43,0,0,1,118.25,319.78Zm26.52-123.25a9.87,9.87,0,0,1,9.69,9.69v4.59a9.87,9.87,0,0,1-9.69,9.69H90.54a9.87,9.87,0,0,1-9.69-9.69v-4.59a9.87,9.87,0,0,1,9.69-9.69Z"/><path class="cls-2" d="M26.28,493.13A8.31,8.31,0,0,1,20.67,489a8.51,8.51,0,0,1-.68-7Q34.44,436,43.62,392a1,1,0,0,0-.25-1,1.23,1.23,0,0,0-.94-.51H31.72a9.29,9.29,0,0,1-6.8-2.89,9.29,9.29,0,0,1-2.89-6.8v-3.91a9.29,9.29,0,0,1,2.89-6.8,9.29,9.29,0,0,1,6.8-2.89H46.85a1.75,1.75,0,0,0,1.87-1.53c.23-1,.51-2.44.85-4.25s.57-3.23.68-4.25a10,10,0,0,1,3.91-6.55,10.24,10.24,0,0,1,7.31-2.12l6.8.51a8.92,8.92,0,0,1,8,10.37c-.11.68-.28,1.76-.51,3.23s-.4,2.55-.51,3.23c-.23.91.17,1.36,1.19,1.36h47.09a9,9,0,0,1,6.72,2.89,9.44,9.44,0,0,1,2.8,6.8v3.91a9.44,9.44,0,0,1-2.8,6.8,9,9,0,0,1-6.72,2.89H72a1.6,1.6,0,0,0-1.7,1.36A883.6,883.6,0,0,1,46,487.69a9.93,9.93,0,0,1-4.84,5.95,10.54,10.54,0,0,1-7.57,1.19Zm122.74-24a9.48,9.48,0,0,1,7.06,1.78,8.8,8.8,0,0,1,3.65,6.21l.51,4.08a9.53,9.53,0,0,1-1.87,7.22,9.72,9.72,0,0,1-6.29,3.83,199.74,199.74,0,0,1-26.35,1.87q-24.32,0-38.67-8.93T72.69,462.36q0-9.69,9-19.38a12,12,0,0,1,7.4-3.91,13.43,13.43,0,0,1,8.41,1.36l2.89,1.36a6.25,6.25,0,0,1,3.57,4.93,6.82,6.82,0,0,1-1.87,5.95q-3.22,3.57-3.23,6.8,0,4.93,7.06,8.16t19.8,3.23A172.65,172.65,0,0,0,149,469.16ZM97.85,426A9,9,0,0,1,91,423.77a9.25,9.25,0,0,1-3.32-6.46l-.34-3.4a9.91,9.91,0,0,1,8.84-10.54q27.54-2.55,51.85-2.72a9,9,0,0,1,6.72,2.89,9.44,9.44,0,0,1,2.8,6.8v3.4a9.87,9.87,0,0,1-9.69,9.69Q122.49,423.6,97.85,426Z"/><path class="cls-2" d="M62,665.77q-15.13,0-28-19.89T21.18,597.26a210.39,210.39,0,0,1,6.29-51.17A10.36,10.36,0,0,1,32,539.72a11.2,11.2,0,0,1,7.73-1.79l7.48.85a7.62,7.62,0,0,1,5.87,3.49,8.46,8.46,0,0,1,1.27,6.88,213.6,213.6,0,0,0-5.78,48.11q0,17.18,5.19,29.16T64,638.4q3.23,0,8.59-6.71t11.13-19.3a9.94,9.94,0,0,1,5.36-5.27,9.84,9.84,0,0,1,7.39-.17l5.44,2a9,9,0,0,1,5.53,5,9.1,9.1,0,0,1,.08,7.39q-8.83,21.09-21.33,32.73T62,665.77Zm72.25-28a263.81,263.81,0,0,0-17.17-86.19,8.52,8.52,0,0,1,.34-7,8.21,8.21,0,0,1,5.44-4.51l6.63-1.87a10.52,10.52,0,0,1,7.74.6,10.92,10.92,0,0,1,5.52,5.52q17.51,41.82,19,93.67a8.48,8.48,0,0,1-2.72,6.72,9.44,9.44,0,0,1-6.8,2.8h-8.16a9.29,9.29,0,0,1-6.8-2.89A9.9,9.9,0,0,1,134.23,637.72Z"/></g></g></svg>