<svg xmlns="http://www.w3.org/2000/svg" viewBox="0 0 358.86 134.73"><defs><style>.cls-1{fill:none;stroke:#ffcb7d;stroke-width:23px;}</style></defs><g id="レイヤー_2" data-name="レイヤー 2"><g id="scene6"><path class="cls-1" d="M29.77,104a7.36,7.36,0,0,0,4.36-1.94l6.77,8.83A18,18,0,0,1,29.77,115c-6.65,0-12-4.72-14-10.77l-.13-.37C11.74,92.39,11.5,80.65,11.5,70.12a158.15,158.15,0,0,1,7-46.94l10.4,3.51a3.72,3.72,0,0,1-.24.84L28,30C27.35,32,26.62,35.16,25.78,39a160.32,160.32,0,0,0-3.15,31.09,125,125,0,0,0,3.63,30.62C27.47,103.52,28.44,103.88,29.77,104Zm74.42-8.6a67.93,67.93,0,0,0-18.88-6l.12,3.51a1,1,0,0,1,0,.61c.12,7.74-3.26,13.91-8.1,17.54a26.25,26.25,0,0,1-15.61,5H60.14a21.23,21.23,0,0,1-13.55-5.08,16.81,16.81,0,0,1-6.05-12.7,17.73,17.73,0,0,1,2.06-8.35c2-4.12,6-7.5,10.89-9.56s10.89-3.15,18.27-3.15h2.06l-.61-17.78c-1.21.12-2.42.12-3.75.12-11.62,0-22.39-.12-28.92-.37L40.9,48c6.3.24,16.94.36,28.56.36h3.39L72.36,33.7c-3.87,0-7.62.12-11.13.12-7.5,0-13.67-.12-17.42-.24l.24-11.13c3.75.12,9.8.24,17.18.24,9.68,0,21.66-.24,33-.72l.6,11c-3.75.24-7.62.36-11.49.48L84,48.22c6.9,0,13.79-.12,19.6-.24l.25,11.13c-5.81.12-12.59.25-19.49.25L85,78.11c.48.12,1.09.12,1.57.24a80,80,0,0,1,22.51,7Zm-33.52,6.78c2.18-1.69,3.75-3.87,3.75-8.71v-.24l-.24-5c-.85,0-1.69-.12-2.42-.12h-.12c-6.17,0-10.65,1-13.68,2.3s-4.59,2.91-5.44,4.6a6.14,6.14,0,0,0-1,3.15,5.27,5.27,0,0,0,2.18,4.23,11,11,0,0,0,7,2.42h1C65,104.85,68.49,104,70.67,102.19ZM98.26,11.8c.12,8.23.48,16.7.48,16.82l7.63-.36S106,19.79,106,11.68Zm18.27-.12-7.62.12c.24,7.63.36,16.34.36,16.34L117,27.9Z"/><path class="cls-1" d="M199.78,24.51,159.85,65.16c15.48,16.82,28.67,30.5,41.62,46.35l-8.47,7c-13.67-16.58-27.71-31-44.89-49.74l.12-7.62,43.56-44.41Z"/><path class="cls-1" d="M278.79,102.07l6.78,8.83A17.89,17.89,0,0,1,274.31,115c-6.53,0-11.73-4.72-13.79-10.77l-.12-.37c-3.87-11.49-4.24-23.23-4.24-33.76a158.15,158.15,0,0,1,7-46.94l10.53,3.51a4.89,4.89,0,0,0-.24.84,11.35,11.35,0,0,0-.73,2.42c-.61,2.06-1.45,5.21-2.3,9.08a160.32,160.32,0,0,0-3.15,31.09A119.78,119.78,0,0,0,271,100.74c1.09,2.78,2.06,3.14,3.39,3.27A7.1,7.1,0,0,0,278.79,102.07Zm65.58,5.81a72.83,72.83,0,0,1-21.78,3.39c-8.95,0-17.06-1.46-22.87-5.57a23.84,23.84,0,0,1-10.4-19.84,13.22,13.22,0,0,1,.12-2.18l11,1v1.21c0,4.35,1.69,7.86,5.69,10.76,2.42,1.82,8.95,3.63,16.45,3.51A60.42,60.42,0,0,0,341,97.35ZM329.13,46.53c2.66-1.69,1.93-4.11-1.34-4.11H294V31.28h33.75A16.89,16.89,0,0,1,338,34.43a11.24,11.24,0,0,1,4.48,9c0,5.21-3.39,9.56-8.23,12.23Z"/><path d="M29.77,104a7.36,7.36,0,0,0,4.36-1.94l6.77,8.83A18,18,0,0,1,29.77,115c-6.65,0-12-4.72-14-10.77l-.13-.37C11.74,92.39,11.5,80.65,11.5,70.12a158.15,158.15,0,0,1,7-46.94l10.4,3.51a3.72,3.72,0,0,1-.24.84L28,30C27.35,32,26.62,35.16,25.78,39a160.32,160.32,0,0,0-3.15,31.09,125,125,0,0,0,3.63,30.62C27.47,103.52,28.44,103.88,29.77,104Zm74.42-8.6a67.93,67.93,0,0,0-18.88-6l.12,3.51a1,1,0,0,1,0,.61c.12,7.74-3.26,13.91-8.1,17.54a26.25,26.25,0,0,1-15.61,5H60.14a21.23,21.23,0,0,1-13.55-5.08,16.81,16.81,0,0,1-6.05-12.7,17.73,17.73,0,0,1,2.06-8.35c2-4.12,6-7.5,10.89-9.56s10.89-3.15,18.27-3.15h2.06l-.61-17.78c-1.21.12-2.42.12-3.75.12-11.62,0-22.39-.12-28.92-.37L40.9,48c6.3.24,16.94.36,28.56.36h3.39L72.36,33.7c-3.87,0-7.62.12-11.13.12-7.5,0-13.67-.12-17.42-.24l.24-11.13c3.75.12,9.8.24,17.18.24,9.68,0,21.66-.24,33-.72l.6,11c-3.75.24-7.62.36-11.49.48L84,48.22c6.9,0,13.79-.12,19.6-.24l.25,11.13c-5.81.12-12.59.25-19.49.25L85,78.11c.48.12,1.09.12,1.57.24a80,80,0,0,1,22.51,7Zm-33.52,6.78c2.18-1.69,3.75-3.87,3.75-8.71v-.24l-.24-5c-.85,0-1.69-.12-2.42-.12h-.12c-6.17,0-10.65,1-13.68,2.3s-4.59,2.91-5.44,4.6a6.14,6.14,0,0,0-1,3.15,5.27,5.27,0,0,0,2.18,4.23,11,11,0,0,0,7,2.42h1C65,104.85,68.49,104,70.67,102.19ZM98.26,11.8c.12,8.23.48,16.7.48,16.82l7.63-.36S106,19.79,106,11.68Zm18.27-.12-7.62.12c.24,7.63.36,16.34.36,16.34L117,27.9Z"/><path d="M199.78,24.51,159.85,65.16c15.48,16.82,28.67,30.5,41.62,46.35l-8.47,7c-13.67-16.58-27.71-31-44.89-49.74l.12-7.62,43.56-44.41Z"/><path d="M278.79,102.07l6.78,8.83A17.89,17.89,0,0,1,274.31,115c-6.53,0-11.73-4.72-13.79-10.77l-.12-.37c-3.87-11.49-4.24-23.23-4.24-33.76a158.15,158.15,0,0,1,7-46.94l10.53,3.51a4.89,4.89,0,0,0-.24.84,11.35,11.35,0,0,0-.73,2.42c-.61,2.06-1.45,5.21-2.3,9.08a160.32,160.32,0,0,0-3.15,31.09A119.78,119.78,0,0,0,271,100.74c1.09,2.78,2.06,3.14,3.39,3.27A7.1,7.1,0,0,0,278.79,102.07Zm65.58,5.81a72.83,72.83,0,0,1-21.78,3.39c-8.95,0-17.06-1.46-22.87-5.57a23.84,23.84,0,0,1-10.4-19.84,13.22,13.22,0,0,1,.12-2.18l11,1v1.21c0,4.35,1.69,7.86,5.69,10.76,2.42,1.82,8.95,3.63,16.45,3.51A60.42,60.42,0,0,0,341,97.35ZM329.13,46.53c2.66-1.69,1.93-4.11-1.34-4.11H294V31.28h33.75A16.89,16.89,0,0,1,338,34.43a11.24,11.24,0,0,1,4.48,9c0,5.21-3.39,9.56-8.23,12.23Z"/></g></g></svg>