<svg xmlns="http://www.w3.org/2000/svg" viewBox="0 0 825.02 214.55"><defs><style>.cls-1{fill:none;stroke:#5e006c;stroke-width:30px;}.cls-2{fill:#fff;}</style></defs><g id="レイヤー_2" data-name="レイヤー 2"><g id="scene3"><path class="cls-1" d="M20.55,133.54l-2.87-3.9A14.46,14.46,0,0,1,15,120.52a15.28,15.28,0,0,1,3.49-9.12,177.46,177.46,0,0,0,33-62.94c.28-1.23-.13-1.84-1.23-1.84H28.34a11.18,11.18,0,0,1-8.2-3.49,11.18,11.18,0,0,1-3.49-8.2V31.45a10.89,10.89,0,0,1,3.49-8.1A11.39,11.39,0,0,1,28.34,20h159.9a11.42,11.42,0,0,1,8.2,3.38,10.91,10.91,0,0,1,3.48,8.1v3.48a11.21,11.21,0,0,1-3.48,8.2,11.22,11.22,0,0,1-8.2,3.49H150.72c-1.23,0-1.84.55-1.84,1.64V92.74c0,1.23.54,1.58,1.64,1A287.52,287.52,0,0,0,177.78,79a10.32,10.32,0,0,1,8.51-1.23,10.66,10.66,0,0,1,6.87,5.33l2.66,5.12a12.15,12.15,0,0,1,1,9,11.41,11.41,0,0,1-5.33,7.18,385.49,385.49,0,0,1-41,20.91,2.38,2.38,0,0,0-1.64,2.46v39c0,2.32.2,3.72.61,4.2s1.64.86,3.69,1.13c1.51.14,3.69.2,6.56.2,3.15,0,5.61-.06,7.38-.2a4.78,4.78,0,0,0,3.39-1.33q.92-1.12,1.53-5.33t1-15.07a10.44,10.44,0,0,1,3.79-7.79,10.85,10.85,0,0,1,8.3-2.67l5.13.41a11.75,11.75,0,0,1,8,4.1,11.53,11.53,0,0,1,3.08,8.41q-1,21.32-3.28,30.34T191.72,195q-4.09,2.86-14.35,3.69-8.19.81-18.45.82-7.38,0-18.45-.41-16-.82-20.09-4.61T116.28,176V48.26a1.45,1.45,0,0,0-1.64-1.64H83.48a2.1,2.1,0,0,0-2.25,1.84,175.51,175.51,0,0,1-5.54,18.25c-.27,1.09.07,1.64,1,1.64h20.7A11.91,11.91,0,0,1,109.11,80V92.54q-3.9,34.23-20.6,60.47a132,132,0,0,1-44.59,42.85,14,14,0,0,1-17.63-3.28L22,187.25A8.79,8.79,0,0,1,20,179.46a9.62,9.62,0,0,1,4.81-6.56,114.07,114.07,0,0,0,33.62-29.32,1.55,1.55,0,0,0-.41-2.46q-7.38-5.53-16.19-11.48c-1.1-.82-2-.75-2.67.21-.41.55-1.09,1.37-2.05,2.46s-1.64,1.91-2,2.46a8.67,8.67,0,0,1-7.48,2.87A9.44,9.44,0,0,1,20.55,133.54ZM57,105c-.55,1.1-.41,1.92.41,2.46q12.49,8.82,13.73,9.64c1,.68,1.71.48,2.26-.62a163.37,163.37,0,0,0,6.15-22.34c.27-1.09-.21-1.64-1.44-1.64H65.85a2.54,2.54,0,0,0-2.66,1.64Q58.27,103,57,105Z"/><path class="cls-1" d="M253.84,192a12.53,12.53,0,0,1-9-2.25,12.25,12.25,0,0,1-5.13-7.79,348.81,348.81,0,0,1-7.58-74.21,348.81,348.81,0,0,1,7.58-74.21,12.22,12.22,0,0,1,5.13-7.79,12.54,12.54,0,0,1,9-2.26l9.63,1a9.45,9.45,0,0,1,7.18,4.2,10.4,10.4,0,0,1,1.64,8.51,338.79,338.79,0,0,0-7,70.52,338.79,338.79,0,0,0,7,70.52,10.4,10.4,0,0,1-1.64,8.51,9.51,9.51,0,0,1-7.18,4.2Zm93.68-6.56q-29.52,0-46.12-11.48T284.79,143q0-7.38,4.72-17.32a89.61,89.61,0,0,1,12.91-19.58,10.65,10.65,0,0,1,8.1-3.9,13.13,13.13,0,0,1,8.92,2.87l4.71,3.49a10,10,0,0,1,4,7.58,12,12,0,0,1-2.56,8.41q-8.41,10.67-8.41,16.4,0,7.59,7.18,11.17t23.16,3.59a200.76,200.76,0,0,0,33.62-3.08,11.28,11.28,0,0,1,8.61,1.85,10.86,10.86,0,0,1,4.72,7.38l.82,5.94a12,12,0,0,1-2,9,11,11,0,0,1-7.48,4.92A197.18,197.18,0,0,1,347.52,185.4Zm32-148.62a11.91,11.91,0,0,1,11.69,11.68V54A11.91,11.91,0,0,1,379.5,65.68H314.11A11.91,11.91,0,0,1,302.42,54V48.46a11.91,11.91,0,0,1,11.69-11.68Z"/><path class="cls-1" d="M441.62,189.5a10,10,0,0,1-6.77-5A10.32,10.32,0,0,1,434,176q17.43-55.35,28.5-108.44a1.26,1.26,0,0,0-.31-1.23,1.47,1.47,0,0,0-1.13-.62H448.18A11.91,11.91,0,0,1,436.49,54V49.28A11.91,11.91,0,0,1,448.18,37.6h18.24a2.12,2.12,0,0,0,2.26-1.85c.27-1.23.61-2.93,1-5.12s.69-3.9.82-5.13a12.07,12.07,0,0,1,4.72-7.89,12.36,12.36,0,0,1,8.81-2.56l8.2.61a10.27,10.27,0,0,1,7.59,4.21,10.24,10.24,0,0,1,2.05,8.3c-.14.82-.34,2.12-.62,3.89s-.48,3.08-.61,3.9c-.28,1.09.2,1.64,1.43,1.64h56.79a10.91,10.91,0,0,1,8.1,3.48,11.42,11.42,0,0,1,3.38,8.2V54A11.41,11.41,0,0,1,567,62.2a10.91,10.91,0,0,1-8.1,3.48H496.76a2,2,0,0,0-2.05,1.64A1063.52,1063.52,0,0,1,465.4,182.94a12,12,0,0,1-5.84,7.18,12.63,12.63,0,0,1-9.13,1.43Zm148-28.9a11.45,11.45,0,0,1,8.51,2.15,10.62,10.62,0,0,1,4.4,7.48l.62,4.92a11.53,11.53,0,0,1-2.26,8.72,11.73,11.73,0,0,1-7.58,4.61,240.09,240.09,0,0,1-31.78,2.25q-29.31,0-46.63-10.76T497.58,152.4q0-11.68,10.87-23.37a14.45,14.45,0,0,1,8.92-4.72A16.2,16.2,0,0,1,527.51,126l3.49,1.64a7.55,7.55,0,0,1,4.3,5.95,8.24,8.24,0,0,1-2.25,7.17q-3.9,4.31-3.9,8.2,0,6,8.51,9.84t23.88,3.9A207.07,207.07,0,0,0,589.63,160.6Zm-61.71-52.07a10.85,10.85,0,0,1-8.3-2.67,11.19,11.19,0,0,1-4-7.79l-.41-4.1a12,12,0,0,1,10.66-12.71Q559.08,78.18,588.4,78a10.92,10.92,0,0,1,8.1,3.49,11.41,11.41,0,0,1,3.38,8.2v4.1a11.91,11.91,0,0,1-11.69,11.68Q557.65,105.66,527.92,108.53Z"/><path class="cls-1" d="M689.67,192.37q-18.25,0-33.72-24t-15.48-58.63a253.84,253.84,0,0,1,7.58-61.71,12.48,12.48,0,0,1,5.44-7.68,13.48,13.48,0,0,1,9.32-2.16l9,1a9.15,9.15,0,0,1,7.08,4.2,10.21,10.21,0,0,1,1.53,8.3,257.73,257.73,0,0,0-7,58q0,20.7,6.26,35.16t12.4,14.45q3.89,0,10.35-8.1T715.91,128a12,12,0,0,1,6.46-6.35,11.84,11.84,0,0,1,8.91-.21l6.56,2.46a10.86,10.86,0,0,1,6.67,6,11,11,0,0,1,.1,8.92q-10.67,25.42-25.73,39.46T689.67,192.37Zm87.12-33.82a318.34,318.34,0,0,0-20.7-103.94,10.23,10.23,0,0,1,.41-8.5,9.88,9.88,0,0,1,6.56-5.44l8-2.25a12.62,12.62,0,0,1,9.33.72A13.11,13.11,0,0,1,787,45.8q21.12,50.43,23,113a10.18,10.18,0,0,1-3.28,8.1,11.35,11.35,0,0,1-8.2,3.38h-9.84a11.24,11.24,0,0,1-8.2-3.48A12,12,0,0,1,776.79,158.55Z"/><path class="cls-2" d="M20.55,133.54l-2.87-3.9A14.46,14.46,0,0,1,15,120.52a15.28,15.28,0,0,1,3.49-9.12,177.46,177.46,0,0,0,33-62.94c.28-1.23-.13-1.84-1.23-1.84H28.34a11.18,11.18,0,0,1-8.2-3.49,11.18,11.18,0,0,1-3.49-8.2V31.45a10.89,10.89,0,0,1,3.49-8.1A11.39,11.39,0,0,1,28.34,20h159.9a11.42,11.42,0,0,1,8.2,3.38,10.91,10.91,0,0,1,3.48,8.1v3.48a11.21,11.21,0,0,1-3.48,8.2,11.22,11.22,0,0,1-8.2,3.49H150.72c-1.23,0-1.84.55-1.84,1.64V92.74c0,1.23.54,1.58,1.64,1A287.52,287.52,0,0,0,177.78,79a10.32,10.32,0,0,1,8.51-1.23,10.66,10.66,0,0,1,6.87,5.33l2.66,5.12a12.15,12.15,0,0,1,1,9,11.41,11.41,0,0,1-5.33,7.18,385.49,385.49,0,0,1-41,20.91,2.38,2.38,0,0,0-1.64,2.46v39c0,2.32.2,3.72.61,4.2s1.64.86,3.69,1.13c1.51.14,3.69.2,6.56.2,3.15,0,5.61-.06,7.38-.2a4.78,4.78,0,0,0,3.39-1.33q.92-1.12,1.53-5.33t1-15.07a10.44,10.44,0,0,1,3.79-7.79,10.85,10.85,0,0,1,8.3-2.67l5.13.41a11.75,11.75,0,0,1,8,4.1,11.53,11.53,0,0,1,3.08,8.41q-1,21.32-3.28,30.34T191.72,195q-4.09,2.86-14.35,3.69-8.19.81-18.45.82-7.38,0-18.45-.41-16-.82-20.09-4.61T116.28,176V48.26a1.45,1.45,0,0,0-1.64-1.64H83.48a2.1,2.1,0,0,0-2.25,1.84,175.51,175.51,0,0,1-5.54,18.25c-.27,1.09.07,1.64,1,1.64h20.7A11.91,11.91,0,0,1,109.11,80V92.54q-3.9,34.23-20.6,60.47a132,132,0,0,1-44.59,42.85,14,14,0,0,1-17.63-3.28L22,187.25A8.79,8.79,0,0,1,20,179.46a9.62,9.62,0,0,1,4.81-6.56,114.07,114.07,0,0,0,33.62-29.32,1.55,1.55,0,0,0-.41-2.46q-7.38-5.53-16.19-11.48c-1.1-.82-2-.75-2.67.21-.41.55-1.09,1.37-2.05,2.46s-1.64,1.91-2,2.46a8.67,8.67,0,0,1-7.48,2.87A9.44,9.44,0,0,1,20.55,133.54ZM57,105c-.55,1.1-.41,1.92.41,2.46q12.49,8.82,13.73,9.64c1,.68,1.71.48,2.26-.62a163.37,163.37,0,0,0,6.15-22.34c.27-1.09-.21-1.64-1.44-1.64H65.85a2.54,2.54,0,0,0-2.66,1.64Q58.27,103,57,105Z"/><path class="cls-2" d="M253.84,192a12.53,12.53,0,0,1-9-2.25,12.25,12.25,0,0,1-5.13-7.79,348.81,348.81,0,0,1-7.58-74.21,348.81,348.81,0,0,1,7.58-74.21,12.22,12.22,0,0,1,5.13-7.79,12.54,12.54,0,0,1,9-2.26l9.63,1a9.45,9.45,0,0,1,7.18,4.2,10.4,10.4,0,0,1,1.64,8.51,338.79,338.79,0,0,0-7,70.52,338.79,338.79,0,0,0,7,70.52,10.4,10.4,0,0,1-1.64,8.51,9.51,9.51,0,0,1-7.18,4.2Zm93.68-6.56q-29.52,0-46.12-11.48T284.79,143q0-7.38,4.72-17.32a89.61,89.61,0,0,1,12.91-19.58,10.65,10.65,0,0,1,8.1-3.9,13.13,13.13,0,0,1,8.92,2.87l4.71,3.49a10,10,0,0,1,4,7.58,12,12,0,0,1-2.56,8.41q-8.41,10.67-8.41,16.4,0,7.59,7.18,11.17t23.16,3.59a200.76,200.76,0,0,0,33.62-3.08,11.28,11.28,0,0,1,8.61,1.85,10.86,10.86,0,0,1,4.72,7.38l.82,5.94a12,12,0,0,1-2,9,11,11,0,0,1-7.48,4.92A197.18,197.18,0,0,1,347.52,185.4Zm32-148.62a11.91,11.91,0,0,1,11.69,11.68V54A11.91,11.91,0,0,1,379.5,65.68H314.11A11.91,11.91,0,0,1,302.42,54V48.46a11.91,11.91,0,0,1,11.69-11.68Z"/><path class="cls-2" d="M441.62,189.5a10,10,0,0,1-6.77-5A10.32,10.32,0,0,1,434,176q17.43-55.35,28.5-108.44a1.26,1.26,0,0,0-.31-1.23,1.47,1.47,0,0,0-1.13-.62H448.18A11.91,11.91,0,0,1,436.49,54V49.28A11.91,11.91,0,0,1,448.18,37.6h18.24a2.12,2.12,0,0,0,2.26-1.85c.27-1.23.61-2.93,1-5.12s.69-3.9.82-5.13a12.07,12.07,0,0,1,4.72-7.89,12.36,12.36,0,0,1,8.81-2.56l8.2.61a10.27,10.27,0,0,1,7.59,4.21,10.24,10.24,0,0,1,2.05,8.3c-.14.82-.34,2.12-.62,3.89s-.48,3.08-.61,3.9c-.28,1.09.2,1.64,1.43,1.64h56.79a10.91,10.91,0,0,1,8.1,3.48,11.42,11.42,0,0,1,3.38,8.2V54A11.41,11.41,0,0,1,567,62.2a10.91,10.91,0,0,1-8.1,3.48H496.76a2,2,0,0,0-2.05,1.64A1063.52,1063.52,0,0,1,465.4,182.94a12,12,0,0,1-5.84,7.18,12.63,12.63,0,0,1-9.13,1.43Zm148-28.9a11.45,11.45,0,0,1,8.51,2.15,10.62,10.62,0,0,1,4.4,7.48l.62,4.92a11.53,11.53,0,0,1-2.26,8.72,11.73,11.73,0,0,1-7.58,4.61,240.09,240.09,0,0,1-31.78,2.25q-29.31,0-46.63-10.76T497.58,152.4q0-11.68,10.87-23.37a14.45,14.45,0,0,1,8.92-4.72A16.2,16.2,0,0,1,527.51,126l3.49,1.64a7.55,7.55,0,0,1,4.3,5.95,8.24,8.24,0,0,1-2.25,7.17q-3.9,4.31-3.9,8.2,0,6,8.51,9.84t23.88,3.9A207.07,207.07,0,0,0,589.63,160.6Zm-61.71-52.07a10.85,10.85,0,0,1-8.3-2.67,11.19,11.19,0,0,1-4-7.79l-.41-4.1a12,12,0,0,1,10.66-12.71Q559.08,78.18,588.4,78a10.92,10.92,0,0,1,8.1,3.49,11.41,11.41,0,0,1,3.38,8.2v4.1a11.91,11.91,0,0,1-11.69,11.68Q557.65,105.66,527.92,108.53Z"/><path class="cls-2" d="M689.67,192.37q-18.25,0-33.72-24t-15.48-58.63a253.84,253.84,0,0,1,7.58-61.71,12.48,12.48,0,0,1,5.44-7.68,13.48,13.48,0,0,1,9.32-2.16l9,1a9.15,9.15,0,0,1,7.08,4.2,10.21,10.21,0,0,1,1.53,8.3,257.73,257.73,0,0,0-7,58q0,20.7,6.26,35.16t12.4,14.45q3.89,0,10.35-8.1T715.91,128a12,12,0,0,1,6.46-6.35,11.84,11.84,0,0,1,8.91-.21l6.56,2.46a10.86,10.86,0,0,1,6.67,6,11,11,0,0,1,.1,8.92q-10.67,25.42-25.73,39.46T689.67,192.37Zm87.12-33.82a318.34,318.34,0,0,0-20.7-103.94,10.23,10.23,0,0,1,.41-8.5,9.88,9.88,0,0,1,6.56-5.44l8-2.25a12.62,12.62,0,0,1,9.33.72A13.11,13.11,0,0,1,787,45.8q21.12,50.43,23,113a10.18,10.18,0,0,1-3.28,8.1,11.35,11.35,0,0,1-8.2,3.38h-9.84a11.24,11.24,0,0,1-8.2-3.48A12,12,0,0,1,776.79,158.55Z"/></g></g></svg>