<svg xmlns="http://www.w3.org/2000/svg" viewBox="0 0 1408.86 286.57"><defs><style>.cls-1{fill:none;stroke:#333;stroke-width:30px;}.cls-2{fill:#fff;}</style></defs><g id="レイヤー_2" data-name="レイヤー 2"><g id="scene3"><path class="cls-1" d="M22.71,179.8l-4-5.42A20.08,20.08,0,0,1,15,161.7,21.26,21.26,0,0,1,19.86,149a246.7,246.7,0,0,0,45.89-87.5C66.13,59.81,65.56,59,64,59H33.54a15.57,15.57,0,0,1-11.4-4.85,15.58,15.58,0,0,1-4.84-11.4V37.87a15.15,15.15,0,0,1,4.84-11.26,15.85,15.85,0,0,1,11.4-4.7h222.3a15.85,15.85,0,0,1,11.4,4.7,15.16,15.16,0,0,1,4.85,11.26v4.84a15.59,15.59,0,0,1-4.85,11.4A15.57,15.57,0,0,1,255.84,59H203.69c-1.71,0-2.57.76-2.57,2.28v61.84c0,1.71.76,2.19,2.28,1.43A398.72,398.72,0,0,0,241.31,104a14.33,14.33,0,0,1,11.83-1.71,14.79,14.79,0,0,1,9.54,7.41l3.71,7.12a16.94,16.94,0,0,1,1.42,12.54,15.84,15.84,0,0,1-7.41,10,537.22,537.22,0,0,1-57,29.07,3.32,3.32,0,0,0-2.28,3.42V226q0,4.84.86,5.84t5.13,1.57q3.13.28,9.12.28,6.56,0,10.26-.28,3.42-.28,4.7-1.85t2.14-7.41q.85-5.85,1.42-21A14.52,14.52,0,0,1,240,192.34a15.1,15.1,0,0,1,11.54-3.71l7.12.57a16.37,16.37,0,0,1,11.12,5.7,16,16,0,0,1,4.27,11.69q-1.43,29.64-4.56,42.18t-8.83,16.53q-5.7,4-19.95,5.13-11.4,1.14-25.65,1.14-10.26,0-25.65-.57-22.23-1.14-27.93-6.41t-5.7-25.8V61.24A2,2,0,0,0,153.53,59H110.21a2.93,2.93,0,0,0-3.14,2.56,243.12,243.12,0,0,1-7.69,25.37c-.38,1.52.09,2.28,1.42,2.28h28.79a16.53,16.53,0,0,1,16.24,16.24V122.8q-5.42,47.6-28.64,84.07t-62,59.57a19.51,19.51,0,0,1-24.51-4.56l-6-7.41A12.25,12.25,0,0,1,22,243.64a13.4,13.4,0,0,1,6.7-9.12,158.69,158.69,0,0,0,46.74-40.76,2.17,2.17,0,0,0-.57-3.42q-10.26-7.69-22.52-16-2.28-1.71-3.7.29-.85,1.14-2.85,3.42T43,181.51a12.06,12.06,0,0,1-10.4,4A13.17,13.17,0,0,1,22.71,179.8Zm50.73-39.62q-1.14,2.3.57,3.42,17.38,12.27,19.1,13.4c1.33.95,2.37.67,3.13-.86a224.49,224.49,0,0,0,8.55-31.06c.38-1.52-.28-2.28-2-2.28H85.7A3.54,3.54,0,0,0,82,125.08Q75.15,137.34,73.44,140.18Z"/><path class="cls-1" d="M438.24,261a17.4,17.4,0,0,1-12.54-3.13,17,17,0,0,1-7.12-10.83Q408,198.61,408,143.89T418.58,40.72a17,17,0,0,1,7.12-10.83,17.41,17.41,0,0,1,12.54-3.14l13.4,1.43a13.15,13.15,0,0,1,10,5.84,14.41,14.41,0,0,1,2.28,11.83q-9.69,45.6-9.69,98t9.69,98a14.41,14.41,0,0,1-2.28,11.83,13.15,13.15,0,0,1-10,5.84Zm130.25-9.12q-41,0-64.13-16t-23.08-43q0-10.26,6.55-24.08a124.52,124.52,0,0,1,18-27.22,14.78,14.78,0,0,1,11.26-5.42,18.23,18.23,0,0,1,12.39,4L536,145a13.94,13.94,0,0,1,5.56,10.54A16.68,16.68,0,0,1,538,167.26q-11.68,14.82-11.68,22.8,0,10.55,10,15.53t32.21,5a279.22,279.22,0,0,0,46.74-4.28,15.72,15.72,0,0,1,12,2.57,15.06,15.06,0,0,1,6.55,10.26l1.14,8.26a16.74,16.74,0,0,1-2.7,12.54,15.25,15.25,0,0,1-10.41,6.84A274,274,0,0,1,568.49,251.9ZM613,45.28a16.53,16.53,0,0,1,16.24,16.24v7.7A16.53,16.53,0,0,1,613,85.46H522a16.53,16.53,0,0,1-16.24-16.24v-7.7A16.53,16.53,0,0,1,522,45.28Z"/><path class="cls-1" d="M790.5,257.6a13.85,13.85,0,0,1-9.4-7A14.29,14.29,0,0,1,780,238.79Q804.19,161.84,819.57,88a1.73,1.73,0,0,0-.42-1.71,2.06,2.06,0,0,0-1.57-.86h-18a16.53,16.53,0,0,1-16.24-16.24V62.66a16.53,16.53,0,0,1,16.24-16.24H825a2.93,2.93,0,0,0,3.13-2.57q.57-2.57,1.43-7.12t1.14-7.13a16.78,16.78,0,0,1,6.55-11,17.22,17.22,0,0,1,12.26-3.56l11.4.85a14.25,14.25,0,0,1,10.54,5.85,14.18,14.18,0,0,1,2.85,11.54c-.19,1.14-.47,2.95-.85,5.41s-.67,4.28-.86,5.42c-.38,1.52.29,2.28,2,2.28h78.94a15.13,15.13,0,0,1,11.26,4.84,15.84,15.84,0,0,1,4.7,11.4v6.56a15.81,15.81,0,0,1-4.7,11.4,15.13,15.13,0,0,1-11.26,4.84H867.17a2.69,2.69,0,0,0-2.85,2.28,1479.5,1479.5,0,0,1-40.76,160.74,16.6,16.6,0,0,1-8.12,10,17.58,17.58,0,0,1-12.68,2Zm205.77-40.18a15.91,15.91,0,0,1,11.83,3,14.74,14.74,0,0,1,6.13,10.4l.85,6.84a16.05,16.05,0,0,1-3.13,12.12,16.29,16.29,0,0,1-10.55,6.41,332.85,332.85,0,0,1-44.17,3.13q-40.76,0-64.84-15T868.31,206q0-16.25,15.1-32.49a20.19,20.19,0,0,1,12.4-6.56,22.57,22.57,0,0,1,14.11,2.28l4.84,2.28a10.5,10.5,0,0,1,6,8.27,11.45,11.45,0,0,1-3.14,10c-3.61,4-5.41,7.8-5.41,11.4q0,8.28,11.83,13.68t33.2,5.42A288.46,288.46,0,0,0,996.27,217.42ZM910.49,145A15.06,15.06,0,0,1,899,141.32a15.49,15.49,0,0,1-5.56-10.83l-.57-5.7a16.63,16.63,0,0,1,14.82-17.67q46.17-4.28,86.92-4.56a15.14,15.14,0,0,1,11.26,4.85,15.81,15.81,0,0,1,4.7,11.4v5.7a16.53,16.53,0,0,1-16.24,16.24Q951.82,141,910.49,145Z"/><path class="cls-1" d="M1226.55,261.59q-25.36,0-46.88-33.34t-21.52-81.51A352.42,352.42,0,0,1,1168.7,61a17.37,17.37,0,0,1,7.55-10.68,18.77,18.77,0,0,1,13-3l12.54,1.43a12.75,12.75,0,0,1,9.83,5.84,14.21,14.21,0,0,1,2.14,11.54,357.78,357.78,0,0,0-9.69,80.66q0,28.78,8.69,48.88T1230,215.71q5.41,0,14.4-11.26T1263,172.1a17,17,0,0,1,21.38-9.12l9.12,3.42a15.58,15.58,0,0,1,9.4,20.81q-14.82,35.34-35.76,54.86T1226.55,261.59Zm121.13-47q-2.57-76.09-28.79-144.5a14.29,14.29,0,0,1,.57-11.82,13.74,13.74,0,0,1,9.12-7.56l11.12-3.13a17.58,17.58,0,0,1,13,1,18.33,18.33,0,0,1,9.26,9.26q29.35,70.11,31.92,157a14.2,14.2,0,0,1-4.56,11.26,15.81,15.81,0,0,1-11.4,4.7h-13.68a15.59,15.59,0,0,1-11.4-4.84A16.68,16.68,0,0,1,1347.68,214.57Z"/><path class="cls-2" d="M22.71,179.8l-4-5.42A20.08,20.08,0,0,1,15,161.7,21.26,21.26,0,0,1,19.86,149a246.7,246.7,0,0,0,45.89-87.5C66.13,59.81,65.56,59,64,59H33.54a15.57,15.57,0,0,1-11.4-4.85,15.58,15.58,0,0,1-4.84-11.4V37.87a15.15,15.15,0,0,1,4.84-11.26,15.85,15.85,0,0,1,11.4-4.7h222.3a15.85,15.85,0,0,1,11.4,4.7,15.16,15.16,0,0,1,4.85,11.26v4.84a15.59,15.59,0,0,1-4.85,11.4A15.57,15.57,0,0,1,255.84,59H203.69c-1.71,0-2.57.76-2.57,2.28v61.84c0,1.71.76,2.19,2.28,1.43A398.72,398.72,0,0,0,241.31,104a14.33,14.33,0,0,1,11.83-1.71,14.79,14.79,0,0,1,9.54,7.41l3.71,7.12a16.94,16.94,0,0,1,1.42,12.54,15.84,15.84,0,0,1-7.41,10,537.22,537.22,0,0,1-57,29.07,3.32,3.32,0,0,0-2.28,3.42V226q0,4.84.86,5.84t5.13,1.57q3.13.28,9.12.28,6.56,0,10.26-.28,3.42-.28,4.7-1.85t2.14-7.41q.85-5.85,1.42-21A14.52,14.52,0,0,1,240,192.34a15.1,15.1,0,0,1,11.54-3.71l7.12.57a16.37,16.37,0,0,1,11.12,5.7,16,16,0,0,1,4.27,11.69q-1.43,29.64-4.56,42.18t-8.83,16.53q-5.7,4-19.95,5.13-11.4,1.14-25.65,1.14-10.26,0-25.65-.57-22.23-1.14-27.93-6.41t-5.7-25.8V61.24A2,2,0,0,0,153.53,59H110.21a2.93,2.93,0,0,0-3.14,2.56,243.12,243.12,0,0,1-7.69,25.37c-.38,1.52.09,2.28,1.42,2.28h28.79a16.53,16.53,0,0,1,16.24,16.24V122.8q-5.42,47.6-28.64,84.07t-62,59.57a19.51,19.51,0,0,1-24.51-4.56l-6-7.41A12.25,12.25,0,0,1,22,243.64a13.4,13.4,0,0,1,6.7-9.12,158.69,158.69,0,0,0,46.74-40.76,2.17,2.17,0,0,0-.57-3.42q-10.26-7.69-22.52-16-2.28-1.71-3.7.29-.85,1.14-2.85,3.42T43,181.51a12.06,12.06,0,0,1-10.4,4A13.17,13.17,0,0,1,22.71,179.8Zm50.73-39.62q-1.14,2.3.57,3.42,17.38,12.27,19.1,13.4c1.33.95,2.37.67,3.13-.86a224.49,224.49,0,0,0,8.55-31.06c.38-1.52-.28-2.28-2-2.28H85.7A3.54,3.54,0,0,0,82,125.08Q75.15,137.34,73.44,140.18Z"/><path class="cls-2" d="M438.24,261a17.4,17.4,0,0,1-12.54-3.13,17,17,0,0,1-7.12-10.83Q408,198.61,408,143.89T418.58,40.72a17,17,0,0,1,7.12-10.83,17.41,17.41,0,0,1,12.54-3.14l13.4,1.43a13.15,13.15,0,0,1,10,5.84,14.41,14.41,0,0,1,2.28,11.83q-9.69,45.6-9.69,98t9.69,98a14.41,14.41,0,0,1-2.28,11.83,13.15,13.15,0,0,1-10,5.84Zm130.25-9.12q-41,0-64.13-16t-23.08-43q0-10.26,6.55-24.08a124.52,124.52,0,0,1,18-27.22,14.78,14.78,0,0,1,11.26-5.42,18.23,18.23,0,0,1,12.39,4L536,145a13.94,13.94,0,0,1,5.56,10.54A16.68,16.68,0,0,1,538,167.26q-11.68,14.82-11.68,22.8,0,10.55,10,15.53t32.21,5a279.22,279.22,0,0,0,46.74-4.28,15.72,15.72,0,0,1,12,2.57,15.06,15.06,0,0,1,6.55,10.26l1.14,8.26a16.74,16.74,0,0,1-2.7,12.54,15.25,15.25,0,0,1-10.41,6.84A274,274,0,0,1,568.49,251.9ZM613,45.28a16.53,16.53,0,0,1,16.24,16.24v7.7A16.53,16.53,0,0,1,613,85.46H522a16.53,16.53,0,0,1-16.24-16.24v-7.7A16.53,16.53,0,0,1,522,45.28Z"/><path class="cls-2" d="M790.5,257.6a13.85,13.85,0,0,1-9.4-7A14.29,14.29,0,0,1,780,238.79Q804.19,161.84,819.57,88a1.73,1.73,0,0,0-.42-1.71,2.06,2.06,0,0,0-1.57-.86h-18a16.53,16.53,0,0,1-16.24-16.24V62.66a16.53,16.53,0,0,1,16.24-16.24H825a2.93,2.93,0,0,0,3.13-2.57q.57-2.57,1.43-7.12t1.14-7.13a16.78,16.78,0,0,1,6.55-11,17.22,17.22,0,0,1,12.26-3.56l11.4.85a14.25,14.25,0,0,1,10.54,5.85,14.18,14.18,0,0,1,2.85,11.54c-.19,1.14-.47,2.95-.85,5.41s-.67,4.28-.86,5.42c-.38,1.52.29,2.28,2,2.28h78.94a15.13,15.13,0,0,1,11.26,4.84,15.84,15.84,0,0,1,4.7,11.4v6.56a15.81,15.81,0,0,1-4.7,11.4,15.13,15.13,0,0,1-11.26,4.84H867.17a2.69,2.69,0,0,0-2.85,2.28,1479.5,1479.5,0,0,1-40.76,160.74,16.6,16.6,0,0,1-8.12,10,17.58,17.58,0,0,1-12.68,2Zm205.77-40.18a15.91,15.91,0,0,1,11.83,3,14.74,14.74,0,0,1,6.13,10.4l.85,6.84a16.05,16.05,0,0,1-3.13,12.12,16.29,16.29,0,0,1-10.55,6.41,332.85,332.85,0,0,1-44.17,3.13q-40.76,0-64.84-15T868.31,206q0-16.25,15.1-32.49a20.19,20.19,0,0,1,12.4-6.56,22.57,22.57,0,0,1,14.11,2.28l4.84,2.28a10.5,10.5,0,0,1,6,8.27,11.45,11.45,0,0,1-3.14,10c-3.61,4-5.41,7.8-5.41,11.4q0,8.28,11.83,13.68t33.2,5.42A288.46,288.46,0,0,0,996.27,217.42ZM910.49,145A15.06,15.06,0,0,1,899,141.32a15.49,15.49,0,0,1-5.56-10.83l-.57-5.7a16.63,16.63,0,0,1,14.82-17.67q46.17-4.28,86.92-4.56a15.14,15.14,0,0,1,11.26,4.85,15.81,15.81,0,0,1,4.7,11.4v5.7a16.53,16.53,0,0,1-16.24,16.24Q951.82,141,910.49,145Z"/><path class="cls-2" d="M1226.55,261.59q-25.36,0-46.88-33.34t-21.52-81.51A352.42,352.42,0,0,1,1168.7,61a17.37,17.37,0,0,1,7.55-10.68,18.77,18.77,0,0,1,13-3l12.54,1.43a12.75,12.75,0,0,1,9.83,5.84,14.21,14.21,0,0,1,2.14,11.54,357.78,357.78,0,0,0-9.69,80.66q0,28.78,8.69,48.88T1230,215.71q5.41,0,14.4-11.26T1263,172.1a17,17,0,0,1,21.38-9.12l9.12,3.42a15.58,15.58,0,0,1,9.4,20.81q-14.82,35.34-35.76,54.86T1226.55,261.59Zm121.13-47q-2.57-76.09-28.79-144.5a14.29,14.29,0,0,1,.57-11.82,13.74,13.74,0,0,1,9.12-7.56l11.12-3.13a17.58,17.58,0,0,1,13,1,18.33,18.33,0,0,1,9.26,9.26q29.35,70.11,31.92,157a14.2,14.2,0,0,1-4.56,11.26,15.81,15.81,0,0,1-11.4,4.7h-13.68a15.59,15.59,0,0,1-11.4-4.84A16.68,16.68,0,0,1,1347.68,214.57Z"/><path class="cls-2" d="M22.71,179.8l-4-5.42A20.08,20.08,0,0,1,15,161.7,21.26,21.26,0,0,1,19.86,149a246.7,246.7,0,0,0,45.89-87.5C66.13,59.81,65.56,59,64,59H33.54a15.57,15.57,0,0,1-11.4-4.85,15.58,15.58,0,0,1-4.84-11.4V37.87a15.15,15.15,0,0,1,4.84-11.26,15.85,15.85,0,0,1,11.4-4.7h222.3a15.85,15.85,0,0,1,11.4,4.7,15.16,15.16,0,0,1,4.85,11.26v4.84a15.59,15.59,0,0,1-4.85,11.4A15.57,15.57,0,0,1,255.84,59H203.69c-1.71,0-2.57.76-2.57,2.28v61.84c0,1.71.76,2.19,2.28,1.43A398.72,398.72,0,0,0,241.31,104a14.33,14.33,0,0,1,11.83-1.71,14.79,14.79,0,0,1,9.54,7.41l3.71,7.12a16.94,16.94,0,0,1,1.42,12.54,15.84,15.84,0,0,1-7.41,10,537.22,537.22,0,0,1-57,29.07,3.32,3.32,0,0,0-2.28,3.42V226q0,4.84.86,5.84t5.13,1.57q3.13.28,9.12.28,6.56,0,10.26-.28,3.42-.28,4.7-1.85t2.14-7.41q.85-5.85,1.42-21A14.52,14.52,0,0,1,240,192.34a15.1,15.1,0,0,1,11.54-3.71l7.12.57a16.37,16.37,0,0,1,11.12,5.7,16,16,0,0,1,4.27,11.69q-1.43,29.64-4.56,42.18t-8.83,16.53q-5.7,4-19.95,5.13-11.4,1.14-25.65,1.14-10.26,0-25.65-.57-22.23-1.14-27.93-6.41t-5.7-25.8V61.24A2,2,0,0,0,153.53,59H110.21a2.93,2.93,0,0,0-3.14,2.56,243.12,243.12,0,0,1-7.69,25.37c-.38,1.52.09,2.28,1.42,2.28h28.79a16.53,16.53,0,0,1,16.24,16.24V122.8q-5.42,47.6-28.64,84.07t-62,59.57a19.51,19.51,0,0,1-24.51-4.56l-6-7.41A12.25,12.25,0,0,1,22,243.64a13.4,13.4,0,0,1,6.7-9.12,158.69,158.69,0,0,0,46.74-40.76,2.17,2.17,0,0,0-.57-3.42q-10.26-7.69-22.52-16-2.28-1.71-3.7.29-.85,1.14-2.85,3.42T43,181.51a12.06,12.06,0,0,1-10.4,4A13.17,13.17,0,0,1,22.71,179.8Zm50.73-39.62q-1.14,2.3.57,3.42,17.38,12.27,19.1,13.4c1.33.95,2.37.67,3.13-.86a224.49,224.49,0,0,0,8.55-31.06c.38-1.52-.28-2.28-2-2.28H85.7A3.54,3.54,0,0,0,82,125.08Q75.15,137.34,73.44,140.18Z"/><path class="cls-2" d="M438.24,261a17.4,17.4,0,0,1-12.54-3.13,17,17,0,0,1-7.12-10.83Q408,198.61,408,143.89T418.58,40.72a17,17,0,0,1,7.12-10.83,17.41,17.41,0,0,1,12.54-3.14l13.4,1.43a13.15,13.15,0,0,1,10,5.84,14.41,14.41,0,0,1,2.28,11.83q-9.69,45.6-9.69,98t9.69,98a14.41,14.41,0,0,1-2.28,11.83,13.15,13.15,0,0,1-10,5.84Zm130.25-9.12q-41,0-64.13-16t-23.08-43q0-10.26,6.55-24.08a124.52,124.52,0,0,1,18-27.22,14.78,14.78,0,0,1,11.26-5.42,18.23,18.23,0,0,1,12.39,4L536,145a13.94,13.94,0,0,1,5.56,10.54A16.68,16.68,0,0,1,538,167.26q-11.68,14.82-11.68,22.8,0,10.55,10,15.53t32.21,5a279.22,279.22,0,0,0,46.74-4.28,15.72,15.72,0,0,1,12,2.57,15.06,15.06,0,0,1,6.55,10.26l1.14,8.26a16.74,16.74,0,0,1-2.7,12.54,15.25,15.25,0,0,1-10.41,6.84A274,274,0,0,1,568.49,251.9ZM613,45.28a16.53,16.53,0,0,1,16.24,16.24v7.7A16.53,16.53,0,0,1,613,85.46H522a16.53,16.53,0,0,1-16.24-16.24v-7.7A16.53,16.53,0,0,1,522,45.28Z"/><path class="cls-2" d="M790.5,257.6a13.85,13.85,0,0,1-9.4-7A14.29,14.29,0,0,1,780,238.79Q804.19,161.84,819.57,88a1.73,1.73,0,0,0-.42-1.71,2.06,2.06,0,0,0-1.57-.86h-18a16.53,16.53,0,0,1-16.24-16.24V62.66a16.53,16.53,0,0,1,16.24-16.24H825a2.93,2.93,0,0,0,3.13-2.57q.57-2.57,1.43-7.12t1.14-7.13a16.78,16.78,0,0,1,6.55-11,17.22,17.22,0,0,1,12.26-3.56l11.4.85a14.25,14.25,0,0,1,10.54,5.85,14.18,14.18,0,0,1,2.85,11.54c-.19,1.14-.47,2.95-.85,5.41s-.67,4.28-.86,5.42c-.38,1.52.29,2.28,2,2.28h78.94a15.13,15.13,0,0,1,11.26,4.84,15.84,15.84,0,0,1,4.7,11.4v6.56a15.81,15.81,0,0,1-4.7,11.4,15.13,15.13,0,0,1-11.26,4.84H867.17a2.69,2.69,0,0,0-2.85,2.28,1479.5,1479.5,0,0,1-40.76,160.74,16.6,16.6,0,0,1-8.12,10,17.58,17.58,0,0,1-12.68,2Zm205.77-40.18a15.91,15.91,0,0,1,11.83,3,14.74,14.74,0,0,1,6.13,10.4l.85,6.84a16.05,16.05,0,0,1-3.13,12.12,16.29,16.29,0,0,1-10.55,6.41,332.85,332.85,0,0,1-44.17,3.13q-40.76,0-64.84-15T868.31,206q0-16.25,15.1-32.49a20.19,20.19,0,0,1,12.4-6.56,22.57,22.57,0,0,1,14.11,2.28l4.84,2.28a10.5,10.5,0,0,1,6,8.27,11.45,11.45,0,0,1-3.14,10c-3.61,4-5.41,7.8-5.41,11.4q0,8.28,11.83,13.68t33.2,5.42A288.46,288.46,0,0,0,996.27,217.42ZM910.49,145A15.06,15.06,0,0,1,899,141.32a15.49,15.49,0,0,1-5.56-10.83l-.57-5.7a16.63,16.63,0,0,1,14.82-17.67q46.17-4.28,86.92-4.56a15.14,15.14,0,0,1,11.26,4.85,15.81,15.81,0,0,1,4.7,11.4v5.7a16.53,16.53,0,0,1-16.24,16.24Q951.82,141,910.49,145Z"/><path class="cls-2" d="M1226.55,261.59q-25.36,0-46.88-33.34t-21.52-81.51A352.42,352.42,0,0,1,1168.7,61a17.37,17.37,0,0,1,7.55-10.68,18.77,18.77,0,0,1,13-3l12.54,1.43a12.75,12.75,0,0,1,9.83,5.84,14.21,14.21,0,0,1,2.14,11.54,357.78,357.78,0,0,0-9.69,80.66q0,28.78,8.69,48.88T1230,215.71q5.41,0,14.4-11.26T1263,172.1a17,17,0,0,1,21.38-9.12l9.12,3.42a15.58,15.58,0,0,1,9.4,20.81q-14.82,35.34-35.76,54.86T1226.55,261.59Zm121.13-47q-2.57-76.09-28.79-144.5a14.29,14.29,0,0,1,.57-11.82,13.74,13.74,0,0,1,9.12-7.56l11.12-3.13a17.58,17.58,0,0,1,13,1,18.33,18.33,0,0,1,9.26,9.26q29.35,70.11,31.92,157a14.2,14.2,0,0,1-4.56,11.26,15.81,15.81,0,0,1-11.4,4.7h-13.68a15.59,15.59,0,0,1-11.4-4.84A16.68,16.68,0,0,1,1347.68,214.57Z"/></g></g></svg>