<svg xmlns="http://www.w3.org/2000/svg" viewBox="0 0 1014.57 195.94"><defs><style>.cls-1{fill:none;stroke:#ff9ae4;stroke-width:40px;}</style></defs><g id="レイヤー_2" data-name="レイヤー 2"><g id="scene6"><path class="cls-1" d="M49.21,172.13q-11.16-3.81-17.35-11.77a47.45,47.45,0,0,1-9.91-29A46.65,46.65,0,0,1,34,100a49,49,0,0,1,12.75-9.64A47.74,47.74,0,0,1,62.3,85.14c-.47-2.84-.77-5-.88-6.38q-22.66-.35-27.08-1.41Q20,74.69,20,58.41q0-9,4.51-14.25a17.75,17.75,0,0,1,11.6-6.11q6.72-.7,20.71-.7a13.62,13.62,0,0,1,5-9q4.24-3.54,12-4.43a16.86,16.86,0,0,1,12,2.92,16.62,16.62,0,0,1,6.38,10.54q42.65.34,49.2,1.41A23.21,23.21,0,0,1,154.61,45q5,4.95,5,12.92,0,8.85-3.27,14.16t-12.3,6.55q-4.61.52-34.52.53H97.35l.71,6.9a81.9,81.9,0,0,1,12.48,3.45,99.54,99.54,0,0,1,11.94,5.58,35.86,35.86,0,0,1,7.79-8.76,13.41,13.41,0,0,1,8.14-2.75,21.6,21.6,0,0,1,9.92,2.66q11.32,5.31,11.32,15.93,0,6.72-5.31,18.76a50.65,50.65,0,0,1,7.17,9.38,17,17,0,0,1,2.39,8.32q0,5.67-5.13,11.86-5.85,6.9-14.16,6.9A28,28,0,0,1,132.22,154a78.36,78.36,0,0,1-16.11,12.57,68.36,68.36,0,0,1-18.85,6.81,105.05,105.05,0,0,1-23.1,2.57A76.83,76.83,0,0,1,49.21,172.13Zm25.39-28.5a13.8,13.8,0,0,0,4.16-10.17A14.2,14.2,0,0,0,64.6,119.3a13.8,13.8,0,0,0-10.17,4.16,13.59,13.59,0,0,0-4.16,10A14.21,14.21,0,0,0,64.6,147.79,13.59,13.59,0,0,0,74.6,143.63ZM113,125.93a8.54,8.54,0,1,0-6.1,2.57A8.33,8.33,0,0,0,113,125.93Z"/><path class="cls-1" d="M215.14,119.65q-4.69-3.18-8.23-11.15-4.77-12.21-4.78-29.21,0-9.2,1.77-27.61c.24-1.29.47-3.48.71-6.55q2.13-14.51,21.06-14.51a35.64,35.64,0,0,1,15.67,3.54q7.33,3.54,7.34,11l-.17,1.77q-.54,5-1,13.63t-.44,14.69a52.86,52.86,0,0,0,.18,5.67,26.2,26.2,0,0,1,3.54-.18q7.08,0,10.26,3.28t5,11.94a34.48,34.48,0,0,1,.71,7.08,15.55,15.55,0,0,1-2.39,8.76q-2.39,3.63-7.88,5.93a85.36,85.36,0,0,1-12.65,3.46,73.6,73.6,0,0,1-15,1.68Q219.83,122.84,215.14,119.65Zm62.57,52.66a26.81,26.81,0,0,1-9-5.4q-8.15-7.08-8.15-14.34,0-5.83,5-11.5,7.78-9.39,11.15-14a56.71,56.71,0,0,0,6.2-11.24,90.56,90.56,0,0,0,4.95-16.9,91.67,91.67,0,0,0,2.13-19.65,121.76,121.76,0,0,0-.71-12.83q-.72-6.63-2.3-18-.36-8.51,4.69-13.28t15.66-4.78q12.75,0,18.76,5.31t7.26,17.17q2.13,19.13,2.12,27.79a116.46,116.46,0,0,1-1.23,16.9,175.57,175.57,0,0,1-4.25,19.56q-4.6,19.3-13.81,33.1T299,170.63q-4.06,3.54-11,3.54A29.94,29.94,0,0,1,277.71,172.31Z"/><path class="cls-1" d="M471.44,68.05q12.3,12.48,12.3,33.72,0,20-5.13,35.76t-12.39,24.95a23.71,23.71,0,0,1-8.23,7.26,21.22,21.22,0,0,1-9.47,2.13,35.92,35.92,0,0,1-7.61-.89,24.46,24.46,0,0,1-11.6-7.17q-5-5.4-5-11.77a33.24,33.24,0,0,1,1.59-9.64q1.59-5.22,4.6-13.37,2.66-6.72,4.07-11.5a29.73,29.73,0,0,0,1.42-8.32q0-6.55-6.37-8.32-3.19,17.52-8.14,26.37t-15.05,8.85a26.9,26.9,0,0,1-9.38-1.77q-8.67-2.66-12.39-8.58t-3.72-15.84a81.33,81.33,0,0,1,.53-8.85q-13.62,0-17.52-15.23a34,34,0,0,1-1.59-10.09q0-12,9.73-18.76,4.6-3.54,18.77-5.48a117.94,117.94,0,0,1,4.86-14.87,19.16,19.16,0,0,1,5.67-7.79,14.53,14.53,0,0,1,9.11-2.66,40.3,40.3,0,0,1,8.68,1.07q9,1.77,13.09,6.55t4.07,12.74c0,1.06-.11,2.89-.35,5.49Q459.14,55.58,471.44,68.05ZM502.06,25.4a18.37,18.37,0,0,0-26,0,17.72,17.72,0,0,0-5.4,13,17.74,17.74,0,0,0,5.4,13,18.37,18.37,0,0,0,26,0,17.74,17.74,0,0,0,5.4-13A17.72,17.72,0,0,0,502.06,25.4Zm27.52,65.75a27.48,27.48,0,0,1,.53,5.49A21.09,21.09,0,0,1,527.72,107a15.66,15.66,0,0,1-7.16,6.63,24.89,24.89,0,0,1-11,3,14.64,14.64,0,0,1-9.91-3.89q-7.08-6.19-13.72-20.53A110.58,110.58,0,0,1,477,64.07a38.83,38.83,0,0,1-.35-3.89V59.12a23.84,23.84,0,0,0,12.39,3.36,24.68,24.68,0,0,0,9.38-1.95,22.74,22.74,0,0,0-.71,5.84,23,23,0,0,0,3.28,12,24.83,24.83,0,0,0,8.76,8.76,23,23,0,0,0,12,3.28,20.56,20.56,0,0,0,7.44-1.24Zm5.22-37.79a18.41,18.41,0,0,0-31.41,13,18.41,18.41,0,1,0,31.41-13Z"/><path class="cls-1" d="M605.69,165.49q-16.11-5.49-24.07-16.55t-8.85-30.17q-.71-15.76,9.91-31a98.92,98.92,0,0,1-14-14.42,73.05,73.05,0,0,1-9.91-15.32,24.87,24.87,0,0,1-1.95-9,14.16,14.16,0,0,1,3-8.76q3-4,9.56-7.7,8.49-4.79,15.22-4.78,8.49,0,16.64,7.79a184.87,184.87,0,0,1,17.34,19.47,124.59,124.59,0,0,1,19.65-11.77,66.67,66.67,0,0,1,18.06-5.4,55,55,0,0,1,8.67-.71q6.72,0,11,2.65t8,9a20.88,20.88,0,0,1,3.36,11,17.29,17.29,0,0,1-3.19,10.09,23.51,23.51,0,0,1-9.38,7.61l-8.85,4.61q-10.62,5.31-17,9a77.42,77.42,0,0,0-11.33,8q-8.67,8-8.67,15.4a11.39,11.39,0,0,0,3.19,8.14q5.65,6.38,21.06,6.37c2,0,4.22-.09,6.64-.26s4.16-.33,5.22-.45,2.48-.17,4.25-.17q8.67,0,12.39,3.63t6,11.59a30,30,0,0,1,1.24,8.49,16.57,16.57,0,0,1-3.45,10.8,18.63,18.63,0,0,1-9.64,6,77.5,77.5,0,0,1-12.22,2.12,155.79,155.79,0,0,1-17.17.89Q622.87,171.69,605.69,165.49Z"/><path class="cls-1" d="M789.77,162.84Q785,157.35,785,151.33q0-7.79,7.26-14.16,2.84-2.47,6.55-5.13a24.56,24.56,0,0,0,5.75-4.78,8.85,8.85,0,0,0,1.51-6,6.2,6.2,0,0,0-4.43-6.1q-4.25-1.5-12.92-1.51-4.07,0-11.86.36l-10.79.17a81,81,0,0,1-8.85-.35q-11.69-1.23-16.55-6.73t-4.87-15.75a22,22,0,0,1,3.71-12.57q3.72-5.48,13.1-7.43,10.1-1.77,18.94-2.74a175,175,0,0,1,19.12-1,204.77,204.77,0,0,1,28,2,69,69,0,0,1,25.23,8Q854.56,83.72,859.69,92a29.54,29.54,0,0,1,4.25,16.11q0,8-3.72,21.06a51.55,51.55,0,0,1-12.83,22.12A71.32,71.32,0,0,1,828,166.2q-9.74,5.49-18.76,5.49A24.87,24.87,0,0,1,789.77,162.84ZM755.61,63.19a25,25,0,0,1-12.21-4.6q-5-3.72-5.84-10.8a20.75,20.75,0,0,1-.18-3.19,20.16,20.16,0,0,1,3.72-12.3q3.72-5,12.39-6.46Q758.8,25,794.2,25q18.75,0,34.34.44t19.29,1.15q8.14,1.77,11.59,6.11t3.45,11.77q0,7.6-4.16,12.12a19.89,19.89,0,0,1-10.88,5.93q-3.72.71-20.89,1.15t-35.57.44Q764.46,64.07,755.61,63.19Z"/><path class="cls-1" d="M973.5,127.26a9.75,9.75,0,0,1-7.17-2.92,11.09,11.09,0,0,1-3.27-7.17l-3.54-68.32a9.35,9.35,0,0,1,2.65-7.08,9.11,9.11,0,0,1,6.9-3H985a9.12,9.12,0,0,1,6.91,3,9.39,9.39,0,0,1,2.65,7.08l-3.36,68.32a11,11,0,0,1-3.36,7.17,10,10,0,0,1-7.26,2.92Zm8.85,14.16a10.28,10.28,0,0,1,10.09,10.09v6.37A10.28,10.28,0,0,1,982.35,168H971.73a10.28,10.28,0,0,1-10.09-10.09v-6.37a10.28,10.28,0,0,1,10.09-10.09Z"/><path d="M49.21,172.13q-11.16-3.81-17.35-11.77a47.45,47.45,0,0,1-9.91-29A46.65,46.65,0,0,1,34,100a49,49,0,0,1,12.75-9.64A47.74,47.74,0,0,1,62.3,85.14c-.47-2.84-.77-5-.88-6.38q-22.66-.35-27.08-1.41Q20,74.69,20,58.41q0-9,4.51-14.25a17.75,17.75,0,0,1,11.6-6.11q6.72-.7,20.71-.7a13.62,13.62,0,0,1,5-9q4.24-3.54,12-4.43a16.86,16.86,0,0,1,12,2.92,16.62,16.62,0,0,1,6.38,10.54q42.65.34,49.2,1.41A23.21,23.21,0,0,1,154.61,45q5,4.95,5,12.92,0,8.85-3.27,14.16t-12.3,6.55q-4.61.52-34.52.53H97.35l.71,6.9a81.9,81.9,0,0,1,12.48,3.45,99.54,99.54,0,0,1,11.94,5.58,35.86,35.86,0,0,1,7.79-8.76,13.41,13.41,0,0,1,8.14-2.75,21.6,21.6,0,0,1,9.92,2.66q11.32,5.31,11.32,15.93,0,6.72-5.31,18.76a50.65,50.65,0,0,1,7.17,9.38,17,17,0,0,1,2.39,8.32q0,5.67-5.13,11.86-5.85,6.9-14.16,6.9A28,28,0,0,1,132.22,154a78.36,78.36,0,0,1-16.11,12.57,68.36,68.36,0,0,1-18.85,6.81,105.05,105.05,0,0,1-23.1,2.57A76.83,76.83,0,0,1,49.21,172.13Zm25.39-28.5a13.8,13.8,0,0,0,4.16-10.17A14.2,14.2,0,0,0,64.6,119.3a13.8,13.8,0,0,0-10.17,4.16,13.59,13.59,0,0,0-4.16,10A14.21,14.21,0,0,0,64.6,147.79,13.59,13.59,0,0,0,74.6,143.63ZM113,125.93a8.54,8.54,0,1,0-6.1,2.57A8.33,8.33,0,0,0,113,125.93Z"/><path d="M215.14,119.65q-4.69-3.18-8.23-11.15-4.77-12.21-4.78-29.21,0-9.2,1.77-27.61c.24-1.29.47-3.48.71-6.55q2.13-14.51,21.06-14.51a35.64,35.64,0,0,1,15.67,3.54q7.33,3.54,7.34,11l-.17,1.77q-.54,5-1,13.63t-.44,14.69a52.86,52.86,0,0,0,.18,5.67,26.2,26.2,0,0,1,3.54-.18q7.08,0,10.26,3.28t5,11.94a34.48,34.48,0,0,1,.71,7.08,15.55,15.55,0,0,1-2.39,8.76q-2.39,3.63-7.88,5.93a85.36,85.36,0,0,1-12.65,3.46,73.6,73.6,0,0,1-15,1.68Q219.83,122.84,215.14,119.65Zm62.57,52.66a26.81,26.81,0,0,1-9-5.4q-8.15-7.08-8.15-14.34,0-5.83,5-11.5,7.78-9.39,11.15-14a56.71,56.71,0,0,0,6.2-11.24,90.56,90.56,0,0,0,4.95-16.9,91.67,91.67,0,0,0,2.13-19.65,121.76,121.76,0,0,0-.71-12.83q-.72-6.63-2.3-18-.36-8.51,4.69-13.28t15.66-4.78q12.75,0,18.76,5.31t7.26,17.17q2.13,19.13,2.12,27.79a116.46,116.46,0,0,1-1.23,16.9,175.57,175.57,0,0,1-4.25,19.56q-4.6,19.3-13.81,33.1T299,170.63q-4.06,3.54-11,3.54A29.94,29.94,0,0,1,277.71,172.31Z"/><path d="M471.44,68.05q12.3,12.48,12.3,33.72,0,20-5.13,35.76t-12.39,24.95a23.71,23.71,0,0,1-8.23,7.26,21.22,21.22,0,0,1-9.47,2.13,35.92,35.92,0,0,1-7.61-.89,24.46,24.46,0,0,1-11.6-7.17q-5-5.4-5-11.77a33.24,33.24,0,0,1,1.59-9.64q1.59-5.22,4.6-13.37,2.66-6.72,4.07-11.5a29.73,29.73,0,0,0,1.42-8.32q0-6.55-6.37-8.32-3.19,17.52-8.14,26.37t-15.05,8.85a26.9,26.9,0,0,1-9.38-1.77q-8.67-2.66-12.39-8.58t-3.72-15.84a81.33,81.33,0,0,1,.53-8.85q-13.62,0-17.52-15.23a34,34,0,0,1-1.59-10.09q0-12,9.73-18.76,4.6-3.54,18.77-5.48a117.94,117.94,0,0,1,4.86-14.87,19.16,19.16,0,0,1,5.67-7.79,14.53,14.53,0,0,1,9.11-2.66,40.3,40.3,0,0,1,8.68,1.07q9,1.77,13.09,6.55t4.07,12.74c0,1.06-.11,2.89-.35,5.49Q459.14,55.58,471.44,68.05ZM502.06,25.4a18.37,18.37,0,0,0-26,0,17.72,17.72,0,0,0-5.4,13,17.74,17.74,0,0,0,5.4,13,18.37,18.37,0,0,0,26,0,17.74,17.74,0,0,0,5.4-13A17.72,17.72,0,0,0,502.06,25.4Zm27.52,65.75a27.48,27.48,0,0,1,.53,5.49A21.09,21.09,0,0,1,527.72,107a15.66,15.66,0,0,1-7.16,6.63,24.89,24.89,0,0,1-11,3,14.64,14.64,0,0,1-9.91-3.89q-7.08-6.19-13.72-20.53A110.58,110.58,0,0,1,477,64.07a38.83,38.83,0,0,1-.35-3.89V59.12a23.84,23.84,0,0,0,12.39,3.36,24.68,24.68,0,0,0,9.38-1.95,22.74,22.74,0,0,0-.71,5.84,23,23,0,0,0,3.28,12,24.83,24.83,0,0,0,8.76,8.76,23,23,0,0,0,12,3.28,20.56,20.56,0,0,0,7.44-1.24Zm5.22-37.79a18.41,18.41,0,0,0-31.41,13,18.41,18.41,0,1,0,31.41-13Z"/><path d="M605.69,165.49q-16.11-5.49-24.07-16.55t-8.85-30.17q-.71-15.76,9.91-31a98.92,98.92,0,0,1-14-14.42,73.05,73.05,0,0,1-9.91-15.32,24.87,24.87,0,0,1-1.95-9,14.16,14.16,0,0,1,3-8.76q3-4,9.56-7.7,8.49-4.79,15.22-4.78,8.49,0,16.64,7.79a184.87,184.87,0,0,1,17.34,19.47,124.59,124.59,0,0,1,19.65-11.77,66.67,66.67,0,0,1,18.06-5.4,55,55,0,0,1,8.67-.71q6.72,0,11,2.65t8,9a20.88,20.88,0,0,1,3.36,11,17.29,17.29,0,0,1-3.19,10.09,23.51,23.51,0,0,1-9.38,7.61l-8.85,4.61q-10.62,5.31-17,9a77.42,77.42,0,0,0-11.33,8q-8.67,8-8.67,15.4a11.39,11.39,0,0,0,3.19,8.14q5.65,6.38,21.06,6.37c2,0,4.22-.09,6.64-.26s4.16-.33,5.22-.45,2.48-.17,4.25-.17q8.67,0,12.39,3.63t6,11.59a30,30,0,0,1,1.24,8.49,16.57,16.57,0,0,1-3.45,10.8,18.63,18.63,0,0,1-9.64,6,77.5,77.5,0,0,1-12.22,2.12,155.79,155.79,0,0,1-17.17.89Q622.87,171.69,605.69,165.49Z"/><path d="M789.77,162.84Q785,157.35,785,151.33q0-7.79,7.26-14.16,2.84-2.47,6.55-5.13a24.56,24.56,0,0,0,5.75-4.78,8.85,8.85,0,0,0,1.51-6,6.2,6.2,0,0,0-4.43-6.1q-4.25-1.5-12.92-1.51-4.07,0-11.86.36l-10.79.17a81,81,0,0,1-8.85-.35q-11.69-1.23-16.55-6.73t-4.87-15.75a22,22,0,0,1,3.71-12.57q3.72-5.48,13.1-7.43,10.1-1.77,18.94-2.74a175,175,0,0,1,19.12-1,204.77,204.77,0,0,1,28,2,69,69,0,0,1,25.23,8Q854.56,83.72,859.69,92a29.54,29.54,0,0,1,4.25,16.11q0,8-3.72,21.06a51.55,51.55,0,0,1-12.83,22.12A71.32,71.32,0,0,1,828,166.2q-9.74,5.49-18.76,5.49A24.87,24.87,0,0,1,789.77,162.84ZM755.61,63.19a25,25,0,0,1-12.21-4.6q-5-3.72-5.84-10.8a20.75,20.75,0,0,1-.18-3.19,20.16,20.16,0,0,1,3.72-12.3q3.72-5,12.39-6.46Q758.8,25,794.2,25q18.75,0,34.34.44t19.29,1.15q8.14,1.77,11.59,6.11t3.45,11.77q0,7.6-4.16,12.12a19.89,19.89,0,0,1-10.88,5.93q-3.72.71-20.89,1.15t-35.57.44Q764.46,64.07,755.61,63.19Z"/><path d="M973.5,127.26a9.75,9.75,0,0,1-7.17-2.92,11.09,11.09,0,0,1-3.27-7.17l-3.54-68.32a9.35,9.35,0,0,1,2.65-7.08,9.11,9.11,0,0,1,6.9-3H985a9.12,9.12,0,0,1,6.91,3,9.39,9.39,0,0,1,2.65,7.08l-3.36,68.32a11,11,0,0,1-3.36,7.17,10,10,0,0,1-7.26,2.92Zm8.85,14.16a10.28,10.28,0,0,1,10.09,10.09v6.37A10.28,10.28,0,0,1,982.35,168H971.73a10.28,10.28,0,0,1-10.09-10.09v-6.37a10.28,10.28,0,0,1,10.09-10.09Z"/></g></g></svg>