<svg xmlns="http://www.w3.org/2000/svg" viewBox="0 0 609.38 136.4"><defs><style>.cls-1{fill:none;stroke:#ffd9fc;stroke-width:23px;}.cls-2{fill:#ba00f6;}</style></defs><g id="レイヤー_2" data-name="レイヤー 2"><g id="scene4"><path class="cls-1" d="M18.34,49.54a6.57,6.57,0,0,1-4.8-2,6.57,6.57,0,0,1-2-4.8V41.38a6.57,6.57,0,0,1,2-4.8,6.57,6.57,0,0,1,4.8-2H43.06a6.37,6.37,0,0,1,4.74,2,6.67,6.67,0,0,1,2,4.8V42.7a6.67,6.67,0,0,1-2,4.8,6.37,6.37,0,0,1-4.74,2ZM41.5,17.26a7,7,0,0,1,6.84,6.84,6.76,6.76,0,0,1-6.84,6.84H20.38a6.41,6.41,0,0,1-4.8-2,7,7,0,0,1,.06-9.66,6.37,6.37,0,0,1,4.74-2Zm7.32,76.56V113.5a6.37,6.37,0,0,1-2,4.74,6.67,6.67,0,0,1-4.8,2H29.14q-.48,0-.48.6a3.48,3.48,0,0,1-3.48,3.48h-4.8a6.37,6.37,0,0,1-4.74-2,6.67,6.67,0,0,1-2-4.8V93.82a6.76,6.76,0,0,1,6.72-6.72H42a6.67,6.67,0,0,1,4.8,2A6.37,6.37,0,0,1,48.82,93.82Zm54.6,6.6a7.78,7.78,0,0,0,.12-1.8v-7.2a1,1,0,0,0-1.08-1.08H96.58a1,1,0,0,0-1.08,1.08v26.64a7,7,0,0,1-6.84,6.84H84a7,7,0,0,1-6.84-6.84V91.42a1,1,0,0,0-1.08-1.08H71.38a1,1,0,0,0-1.08,1.08v18.36a6.37,6.37,0,0,1-2,4.74,6.67,6.67,0,0,1-4.8,2H60.58a6.76,6.76,0,0,1-6.72-6.72V82.06a.74.74,0,0,0-.84-.84,4.49,4.49,0,0,1-4.56-3,.92.92,0,0,0-.36-.12,6.55,6.55,0,0,1-2.28,3.78,6.36,6.36,0,0,1-4.2,1.5H21.34a6.27,6.27,0,0,1-4.68-2,6.52,6.52,0,0,1,0-9.24,6.27,6.27,0,0,1,4.68-2H41.62a6,6,0,0,1,6.24,4.44.12.12,0,1,0,.24,0V62a.12.12,0,0,0-.24,0,6,6,0,0,1-6.24,4.44H21.34a6.6,6.6,0,1,1,0-13.2H41.62a6.49,6.49,0,0,1,3.9,1.26,6.1,6.1,0,0,1,2.34,3.3.35.35,0,0,0,.24-.12v-.24a7,7,0,0,1,6.84-6.84h7.8q1,0,.72-1Q62.5,47,60.58,42a6.32,6.32,0,0,1-.12-4.68q.24-1.08-.6-1.08h-1a6.76,6.76,0,0,1-6.72-6.72V27.94a6.67,6.67,0,0,1,2-4.8,6.37,6.37,0,0,1,4.74-2H77a.85.85,0,0,0,1-1V18.22a6.37,6.37,0,0,1,2-4.74,6.67,6.67,0,0,1,4.8-2h5a6.76,6.76,0,0,1,6.72,6.72v1.92q0,1,1.08,1H117.1a7,7,0,0,1,6.84,6.84V29.5a6.37,6.37,0,0,1-2,4.74,6.67,6.67,0,0,1-4.8,2H114a.58.58,0,0,0-.54.36.48.48,0,0,0,.06.6,6,6,0,0,1,.36,4.8q-.48,1.44-2.88,7.8-.24.84.72.84h7.08a7,7,0,0,1,6.84,6.84V78.1a4.51,4.51,0,0,1-4.56,4.56.64.64,0,0,0-.72.72V96.82a103.15,103.15,0,0,1-.42,10.92,12.5,12.5,0,0,1-2.1,5.94,6.62,6.62,0,0,1-4.26,2.82,46.87,46.87,0,0,1-7.86.48h-1.2a6.66,6.66,0,0,1-4.86-2.34,8,8,0,0,1-2.1-5.1l-.12-2q-.12-1.8,2.82-3.66T103.42,100.42Zm-67.32,6V100.9q0-1.08-1-1.08H29.62q-1,0-1,1.08v5.52q0,1.08,1,1.08h5.52Q36.1,107.5,36.1,106.42Zm60.48-30.6h10.56q1,0,1-1.08V66.82q0-1.08-1-1.08H65.86a1,1,0,0,0-1.08,1.08v7.92a1,1,0,0,0,1.08,1.08h10.2q1.08,0,1.08-1.2a6.37,6.37,0,0,1,2-4.74,6.67,6.67,0,0,1,4.8-2h4.68a7,7,0,0,1,6.84,6.84A1,1,0,0,0,96.58,75.82Zm.12-39.6H78q-.84,0-.6,1.08,2.52,7.08,4.08,12.36a1.21,1.21,0,0,0,1.32,1h8.4a1.41,1.41,0,0,0,1.44-.84,103.47,103.47,0,0,0,4.8-12.6Q97.66,36.22,96.7,36.22Z"/><path class="cls-1" d="M157.78,114.82q-10.08,0-16.5-8.46T134.86,82.3a51.07,51.07,0,0,1,4.74-21.9A48.59,48.59,0,0,1,153,43.18a1.73,1.73,0,0,0,.48-1.8q-1.68-6.36-3.24-13a6.53,6.53,0,0,1,.9-5.1,6,6,0,0,1,4.14-2.82l4.08-.84a6.74,6.74,0,0,1,5.22,1,6.61,6.61,0,0,1,3.06,4.32q.36,1.44,1,4.14t.9,3.66q.24,1,1.08.72a64.48,64.48,0,0,1,19.8-3,67.73,67.73,0,0,1,7.2.36q1.2,0,1.32-.84,1.32-4.56,2.52-9.36a7,7,0,0,1,3.06-4.26,6.53,6.53,0,0,1,5.1-.9l4.08.84A6.61,6.61,0,0,1,218,19.36a6.14,6.14,0,0,1,.84,5.1q-1.32,5.64-2.64,10a1.11,1.11,0,0,0,.6,1.44,42,42,0,0,1,17.94,15.36A41.16,41.16,0,0,1,241.18,74q0,36.12-32.52,44.28a6.37,6.37,0,0,1-5.22-.84,7.07,7.07,0,0,1-3.18-4.32l-1-3.84a5.7,5.7,0,0,1,.72-4.8,7.28,7.28,0,0,1,4.08-3.12Q222.82,95.74,222.82,74q0-13.2-11.76-20.16-.84-.48-1.32.48-10.92,30-24.72,45.24T157.78,114.82Zm.84-52.32a31.87,31.87,0,0,0-6.36,19.8q0,7.2,2.16,10.92t5.4,3.72q4,0,9-4.92a1.4,1.4,0,0,0,.12-1.68.92.92,0,0,0-.12-.36q-4.56-12.48-9.24-27.36a.56.56,0,0,0-.42-.3A.57.57,0,0,0,158.62,62.5Zm31.8-13.68a48.24,48.24,0,0,0-14.88,2.28q-.84.24-.6,1.32Q179,66.1,181.3,72.94a.54.54,0,0,0,.36.3.5.5,0,0,0,.48-.18A180.36,180.36,0,0,0,192.46,49.9q.24-1-.72-1a5,5,0,0,1-.66-.06A5,5,0,0,0,190.42,48.82Z"/><path class="cls-1" d="M262.54,52.9a6.37,6.37,0,0,1-4.74-2,6.67,6.67,0,0,1-2-4.8V43.3a6.67,6.67,0,0,1,2-4.8,6.37,6.37,0,0,1,4.74-2h12.72a1.17,1.17,0,0,0,1.2-1.08q.36-1.56,2.88-15.6a7.29,7.29,0,0,1,2.76-4.68,7.1,7.1,0,0,1,5.16-1.56l3.48.24a6.45,6.45,0,0,1,4.56,2.4,5.62,5.62,0,0,1,1.32,4.8q-.72,4.92-2.4,14.52-.24,1,.84,1h5.76q8.4,0,12.18.06a22.72,22.72,0,0,1,7.92,1.68q4.14,1.62,5.22,3T328.48,48a44.73,44.73,0,0,1,1.26,10.14V73.9q0,44.52-21.72,44.52-7.44,0-19.32-3.12a6.38,6.38,0,0,1-4.14-3.24,7.22,7.22,0,0,1-.66-5.4l.84-3.36a6.22,6.22,0,0,1,3.12-4,6.78,6.78,0,0,1,5.16-.6q8.16,2.16,10.92,2.16a2.64,2.64,0,0,0,1.86-.9,9,9,0,0,0,1.74-3.12A32.06,32.06,0,0,0,309,91.36q.6-3.3,1-8.58t.42-11.88q0-13.44-1.14-15.72t-7.74-2.28H291.7a1.21,1.21,0,0,0-1.32,1,479.22,479.22,0,0,1-17.76,59.28,6.79,6.79,0,0,1-3.54,3.9,6.7,6.7,0,0,1-5.34.3l-3.24-1a6.14,6.14,0,0,1-3.84-3.42,6.59,6.59,0,0,1-.24-5.22,500,500,0,0,0,16.08-54q.24-.84-.84-.84ZM346.9,86.38q-6.48-24.12-14.76-46.92a6.3,6.3,0,0,1,4.32-8L341,30.1a7.31,7.31,0,0,1,5.34.6,7,7,0,0,1,3.54,4.08q8.28,23.4,14.76,47.28a6.4,6.4,0,0,1-.72,5.1,6.21,6.21,0,0,1-4.2,3.06l-4.56,1.08a6.86,6.86,0,0,1-5.16-.84A6.65,6.65,0,0,1,346.9,86.38Z"/><path class="cls-1" d="M392.14,118.18a7.33,7.33,0,0,1-5.28-1.32,7.16,7.16,0,0,1-3-4.56,203.94,203.94,0,0,1-4.44-43.44,203.94,203.94,0,0,1,4.44-43.44,7.16,7.16,0,0,1,3-4.56,7.33,7.33,0,0,1,5.28-1.32l5.64.6A5.54,5.54,0,0,1,402,22.6a6.06,6.06,0,0,1,1,5,198.45,198.45,0,0,0-4.08,41.28,198.45,198.45,0,0,0,4.08,41.28,6.06,6.06,0,0,1-1,5,5.54,5.54,0,0,1-4.2,2.46ZM420,56a6.76,6.76,0,0,1-6.72-6.72V46.42A6.76,6.76,0,0,1,420,39.7h25.8a1,1,0,0,0,1.08-1.08V24.46a6.67,6.67,0,0,1,2-4.8,6.37,6.37,0,0,1,4.74-2h4.8a7,7,0,0,1,6.84,6.84V38.62a1,1,0,0,0,1.08,1.08h8.76a6.76,6.76,0,0,1,6.72,6.72V49.3A6.76,6.76,0,0,1,475.06,56H466.3a1,1,0,0,0-1.08,1.08V68.62q0,22.56-6.36,32.7t-24,15.66a7.07,7.07,0,0,1-5.4-.48,7,7,0,0,1-3.6-4.08l-1.32-3.6a6,6,0,0,1,.3-5,6.43,6.43,0,0,1,3.9-3.24,54.78,54.78,0,0,0,8.1-3.3,22.58,22.58,0,0,0,5.22-3.72,12.09,12.09,0,0,0,3.12-5.7A45.34,45.34,0,0,0,446.5,80q.36-4.26.36-11.34V57.1A1,1,0,0,0,445.78,56Z"/><path class="cls-1" d="M503.26,116.74a5.84,5.84,0,0,1-4-2.94,6,6,0,0,1-.48-5Q509,76.42,515.5,45.34a.72.72,0,0,0-.18-.72.86.86,0,0,0-.66-.36H507.1a7,7,0,0,1-6.84-6.84V34.66a7,7,0,0,1,6.84-6.84h10.68a1.23,1.23,0,0,0,1.32-1.08q.24-1.08.6-3t.48-3a7.06,7.06,0,0,1,2.76-4.62,7.24,7.24,0,0,1,5.16-1.5l4.8.36a6,6,0,0,1,4.44,2.46,6,6,0,0,1,1.2,4.86q-.12.72-.36,2.28t-.36,2.28q-.24,1,.84,1H571.9a6.37,6.37,0,0,1,4.74,2,6.67,6.67,0,0,1,2,4.8v2.76a6.67,6.67,0,0,1-2,4.8,6.37,6.37,0,0,1-4.74,2H535.54a1.13,1.13,0,0,0-1.2,1,623.45,623.45,0,0,1-17.16,67.68,7,7,0,0,1-3.42,4.2,7.41,7.41,0,0,1-5.34.84ZM589.9,99.82a6.69,6.69,0,0,1,5,1.26,6.2,6.2,0,0,1,2.58,4.38l.36,2.88a6.75,6.75,0,0,1-1.32,5.1,6.85,6.85,0,0,1-4.44,2.7,140.19,140.19,0,0,1-18.6,1.32q-17.16,0-27.3-6.3T536,95q0-6.84,6.36-13.68a8.47,8.47,0,0,1,5.22-2.76,9.47,9.47,0,0,1,5.94,1l2,1A4.41,4.41,0,0,1,558.1,84a4.82,4.82,0,0,1-1.32,4.2A7.38,7.38,0,0,0,554.5,93q0,3.48,5,5.76t14,2.28A121.49,121.49,0,0,0,589.9,99.82ZM553.78,69.34a6.34,6.34,0,0,1-4.86-1.56,6.54,6.54,0,0,1-2.34-4.56l-.24-2.4a7,7,0,0,1,6.24-7.44q19.44-1.8,36.6-1.92a6.37,6.37,0,0,1,4.74,2,6.67,6.67,0,0,1,2,4.8v2.4a7,7,0,0,1-6.84,6.84Q571.18,67.66,553.78,69.34Z"/><path class="cls-2" d="M18.34,49.54a6.57,6.57,0,0,1-4.8-2,6.57,6.57,0,0,1-2-4.8V41.38a6.57,6.57,0,0,1,2-4.8,6.57,6.57,0,0,1,4.8-2H43.06a6.37,6.37,0,0,1,4.74,2,6.67,6.67,0,0,1,2,4.8V42.7a6.67,6.67,0,0,1-2,4.8,6.37,6.37,0,0,1-4.74,2ZM41.5,17.26a7,7,0,0,1,6.84,6.84,6.76,6.76,0,0,1-6.84,6.84H20.38a6.41,6.41,0,0,1-4.8-2,7,7,0,0,1,.06-9.66,6.37,6.37,0,0,1,4.74-2Zm7.32,76.56V113.5a6.37,6.37,0,0,1-2,4.74,6.67,6.67,0,0,1-4.8,2H29.14q-.48,0-.48.6a3.48,3.48,0,0,1-3.48,3.48h-4.8a6.37,6.37,0,0,1-4.74-2,6.67,6.67,0,0,1-2-4.8V93.82a6.76,6.76,0,0,1,6.72-6.72H42a6.67,6.67,0,0,1,4.8,2A6.37,6.37,0,0,1,48.82,93.82Zm54.6,6.6a7.78,7.78,0,0,0,.12-1.8v-7.2a1,1,0,0,0-1.08-1.08H96.58a1,1,0,0,0-1.08,1.08v26.64a7,7,0,0,1-6.84,6.84H84a7,7,0,0,1-6.84-6.84V91.42a1,1,0,0,0-1.08-1.08H71.38a1,1,0,0,0-1.08,1.08v18.36a6.37,6.37,0,0,1-2,4.74,6.67,6.67,0,0,1-4.8,2H60.58a6.76,6.76,0,0,1-6.72-6.72V82.06a.74.74,0,0,0-.84-.84,4.49,4.49,0,0,1-4.56-3,.92.92,0,0,0-.36-.12,6.55,6.55,0,0,1-2.28,3.78,6.36,6.36,0,0,1-4.2,1.5H21.34a6.27,6.27,0,0,1-4.68-2,6.52,6.52,0,0,1,0-9.24,6.27,6.27,0,0,1,4.68-2H41.62a6,6,0,0,1,6.24,4.44.12.12,0,1,0,.24,0V62a.12.12,0,0,0-.24,0,6,6,0,0,1-6.24,4.44H21.34a6.6,6.6,0,1,1,0-13.2H41.62a6.49,6.49,0,0,1,3.9,1.26,6.1,6.1,0,0,1,2.34,3.3.35.35,0,0,0,.24-.12v-.24a7,7,0,0,1,6.84-6.84h7.8q1,0,.72-1Q62.5,47,60.58,42a6.32,6.32,0,0,1-.12-4.68q.24-1.08-.6-1.08h-1a6.76,6.76,0,0,1-6.72-6.72V27.94a6.67,6.67,0,0,1,2-4.8,6.37,6.37,0,0,1,4.74-2H77a.85.85,0,0,0,1-1V18.22a6.37,6.37,0,0,1,2-4.74,6.67,6.67,0,0,1,4.8-2h5a6.76,6.76,0,0,1,6.72,6.72v1.92q0,1,1.08,1H117.1a7,7,0,0,1,6.84,6.84V29.5a6.37,6.37,0,0,1-2,4.74,6.67,6.67,0,0,1-4.8,2H114a.58.58,0,0,0-.54.36.48.48,0,0,0,.06.6,6,6,0,0,1,.36,4.8q-.48,1.44-2.88,7.8-.24.84.72.84h7.08a7,7,0,0,1,6.84,6.84V78.1a4.51,4.51,0,0,1-4.56,4.56.64.64,0,0,0-.72.72V96.82a103.15,103.15,0,0,1-.42,10.92,12.5,12.5,0,0,1-2.1,5.94,6.62,6.62,0,0,1-4.26,2.82,46.87,46.87,0,0,1-7.86.48h-1.2a6.66,6.66,0,0,1-4.86-2.34,8,8,0,0,1-2.1-5.1l-.12-2q-.12-1.8,2.82-3.66T103.42,100.42Zm-67.32,6V100.9q0-1.08-1-1.08H29.62q-1,0-1,1.08v5.52q0,1.08,1,1.08h5.52Q36.1,107.5,36.1,106.42Zm60.48-30.6h10.56q1,0,1-1.08V66.82q0-1.08-1-1.08H65.86a1,1,0,0,0-1.08,1.08v7.92a1,1,0,0,0,1.08,1.08h10.2q1.08,0,1.08-1.2a6.37,6.37,0,0,1,2-4.74,6.67,6.67,0,0,1,4.8-2h4.68a7,7,0,0,1,6.84,6.84A1,1,0,0,0,96.58,75.82Zm.12-39.6H78q-.84,0-.6,1.08,2.52,7.08,4.08,12.36a1.21,1.21,0,0,0,1.32,1h8.4a1.41,1.41,0,0,0,1.44-.84,103.47,103.47,0,0,0,4.8-12.6Q97.66,36.22,96.7,36.22Z"/><path class="cls-2" d="M157.78,114.82q-10.08,0-16.5-8.46T134.86,82.3a51.07,51.07,0,0,1,4.74-21.9A48.59,48.59,0,0,1,153,43.18a1.73,1.73,0,0,0,.48-1.8q-1.68-6.36-3.24-13a6.53,6.53,0,0,1,.9-5.1,6,6,0,0,1,4.14-2.82l4.08-.84a6.74,6.74,0,0,1,5.22,1,6.61,6.61,0,0,1,3.06,4.32q.36,1.44,1,4.14t.9,3.66q.24,1,1.08.72a64.48,64.48,0,0,1,19.8-3,67.73,67.73,0,0,1,7.2.36q1.2,0,1.32-.84,1.32-4.56,2.52-9.36a7,7,0,0,1,3.06-4.26,6.53,6.53,0,0,1,5.1-.9l4.08.84A6.61,6.61,0,0,1,218,19.36a6.14,6.14,0,0,1,.84,5.1q-1.32,5.64-2.64,10a1.11,1.11,0,0,0,.6,1.44,42,42,0,0,1,17.94,15.36A41.16,41.16,0,0,1,241.18,74q0,36.12-32.52,44.28a6.37,6.37,0,0,1-5.22-.84,7.07,7.07,0,0,1-3.18-4.32l-1-3.84a5.7,5.7,0,0,1,.72-4.8,7.28,7.28,0,0,1,4.08-3.12Q222.82,95.74,222.82,74q0-13.2-11.76-20.16-.84-.48-1.32.48-10.92,30-24.72,45.24T157.78,114.82Zm.84-52.32a31.87,31.87,0,0,0-6.36,19.8q0,7.2,2.16,10.92t5.4,3.72q4,0,9-4.92a1.4,1.4,0,0,0,.12-1.68.92.92,0,0,0-.12-.36q-4.56-12.48-9.24-27.36a.56.56,0,0,0-.42-.3A.57.57,0,0,0,158.62,62.5Zm31.8-13.68a48.24,48.24,0,0,0-14.88,2.28q-.84.24-.6,1.32Q179,66.1,181.3,72.94a.54.54,0,0,0,.36.3.5.5,0,0,0,.48-.18A180.36,180.36,0,0,0,192.46,49.9q.24-1-.72-1a5,5,0,0,1-.66-.06A5,5,0,0,0,190.42,48.82Z"/><path class="cls-2" d="M262.54,52.9a6.37,6.37,0,0,1-4.74-2,6.67,6.67,0,0,1-2-4.8V43.3a6.67,6.67,0,0,1,2-4.8,6.37,6.37,0,0,1,4.74-2h12.72a1.17,1.17,0,0,0,1.2-1.08q.36-1.56,2.88-15.6a7.29,7.29,0,0,1,2.76-4.68,7.1,7.1,0,0,1,5.16-1.56l3.48.24a6.45,6.45,0,0,1,4.56,2.4,5.62,5.62,0,0,1,1.32,4.8q-.72,4.92-2.4,14.52-.24,1,.84,1h5.76q8.4,0,12.18.06a22.72,22.72,0,0,1,7.92,1.68q4.14,1.62,5.22,3T328.48,48a44.73,44.73,0,0,1,1.26,10.14V73.9q0,44.52-21.72,44.52-7.44,0-19.32-3.12a6.38,6.38,0,0,1-4.14-3.24,7.22,7.22,0,0,1-.66-5.4l.84-3.36a6.22,6.22,0,0,1,3.12-4,6.78,6.78,0,0,1,5.16-.6q8.16,2.16,10.92,2.16a2.64,2.64,0,0,0,1.86-.9,9,9,0,0,0,1.74-3.12A32.06,32.06,0,0,0,309,91.36q.6-3.3,1-8.58t.42-11.88q0-13.44-1.14-15.72t-7.74-2.28H291.7a1.21,1.21,0,0,0-1.32,1,479.22,479.22,0,0,1-17.76,59.28,6.79,6.79,0,0,1-3.54,3.9,6.7,6.7,0,0,1-5.34.3l-3.24-1a6.14,6.14,0,0,1-3.84-3.42,6.59,6.59,0,0,1-.24-5.22,500,500,0,0,0,16.08-54q.24-.84-.84-.84ZM346.9,86.38q-6.48-24.12-14.76-46.92a6.3,6.3,0,0,1,4.32-8L341,30.1a7.31,7.31,0,0,1,5.34.6,7,7,0,0,1,3.54,4.08q8.28,23.4,14.76,47.28a6.4,6.4,0,0,1-.72,5.1,6.21,6.21,0,0,1-4.2,3.06l-4.56,1.08a6.86,6.86,0,0,1-5.16-.84A6.65,6.65,0,0,1,346.9,86.38Z"/><path class="cls-2" d="M392.14,118.18a7.33,7.33,0,0,1-5.28-1.32,7.16,7.16,0,0,1-3-4.56,203.94,203.94,0,0,1-4.44-43.44,203.94,203.94,0,0,1,4.44-43.44,7.16,7.16,0,0,1,3-4.56,7.33,7.33,0,0,1,5.28-1.32l5.64.6A5.54,5.54,0,0,1,402,22.6a6.06,6.06,0,0,1,1,5,198.45,198.45,0,0,0-4.08,41.28,198.45,198.45,0,0,0,4.08,41.28,6.06,6.06,0,0,1-1,5,5.54,5.54,0,0,1-4.2,2.46ZM420,56a6.76,6.76,0,0,1-6.72-6.72V46.42A6.76,6.76,0,0,1,420,39.7h25.8a1,1,0,0,0,1.08-1.08V24.46a6.67,6.67,0,0,1,2-4.8,6.37,6.37,0,0,1,4.74-2h4.8a7,7,0,0,1,6.84,6.84V38.62a1,1,0,0,0,1.08,1.08h8.76a6.76,6.76,0,0,1,6.72,6.72V49.3A6.76,6.76,0,0,1,475.06,56H466.3a1,1,0,0,0-1.08,1.08V68.62q0,22.56-6.36,32.7t-24,15.66a7.07,7.07,0,0,1-5.4-.48,7,7,0,0,1-3.6-4.08l-1.32-3.6a6,6,0,0,1,.3-5,6.43,6.43,0,0,1,3.9-3.24,54.78,54.78,0,0,0,8.1-3.3,22.58,22.58,0,0,0,5.22-3.72,12.09,12.09,0,0,0,3.12-5.7A45.34,45.34,0,0,0,446.5,80q.36-4.26.36-11.34V57.1A1,1,0,0,0,445.78,56Z"/><path class="cls-2" d="M503.26,116.74a5.84,5.84,0,0,1-4-2.94,6,6,0,0,1-.48-5Q509,76.42,515.5,45.34a.72.72,0,0,0-.18-.72.86.86,0,0,0-.66-.36H507.1a7,7,0,0,1-6.84-6.84V34.66a7,7,0,0,1,6.84-6.84h10.68a1.23,1.23,0,0,0,1.32-1.08q.24-1.08.6-3t.48-3a7.06,7.06,0,0,1,2.76-4.62,7.24,7.24,0,0,1,5.16-1.5l4.8.36a6,6,0,0,1,4.44,2.46,6,6,0,0,1,1.2,4.86q-.12.72-.36,2.28t-.36,2.28q-.24,1,.84,1H571.9a6.37,6.37,0,0,1,4.74,2,6.67,6.67,0,0,1,2,4.8v2.76a6.67,6.67,0,0,1-2,4.8,6.37,6.37,0,0,1-4.74,2H535.54a1.13,1.13,0,0,0-1.2,1,623.45,623.45,0,0,1-17.16,67.68,7,7,0,0,1-3.42,4.2,7.41,7.41,0,0,1-5.34.84ZM589.9,99.82a6.69,6.69,0,0,1,5,1.26,6.2,6.2,0,0,1,2.58,4.38l.36,2.88a6.75,6.75,0,0,1-1.32,5.1,6.85,6.85,0,0,1-4.44,2.7,140.19,140.19,0,0,1-18.6,1.32q-17.16,0-27.3-6.3T536,95q0-6.84,6.36-13.68a8.47,8.47,0,0,1,5.22-2.76,9.47,9.47,0,0,1,5.94,1l2,1A4.41,4.41,0,0,1,558.1,84a4.82,4.82,0,0,1-1.32,4.2A7.38,7.38,0,0,0,554.5,93q0,3.48,5,5.76t14,2.28A121.49,121.49,0,0,0,589.9,99.82ZM553.78,69.34a6.34,6.34,0,0,1-4.86-1.56,6.54,6.54,0,0,1-2.34-4.56l-.24-2.4a7,7,0,0,1,6.24-7.44q19.44-1.8,36.6-1.92a6.37,6.37,0,0,1,4.74,2,6.67,6.67,0,0,1,2,4.8v2.4a7,7,0,0,1-6.84,6.84Q571.18,67.66,553.78,69.34Z"/></g></g></svg>