<svg xmlns="http://www.w3.org/2000/svg" viewBox="0 0 840.07 134.6"><defs><style>.cls-1{fill:none;stroke:#ffd1e9;stroke-width:23px;}.cls-2{fill:#ff0065;}</style></defs><g id="レイヤー_2" data-name="レイヤー 2"><g id="scene4"><path class="cls-1" d="M15.54,116.86l-2.88-4a6.19,6.19,0,0,1-1-4.92,6,6,0,0,1,2.94-4.08q20.76-13,31-31.92t10.2-45.24v-6.6a6.57,6.57,0,0,1,2-4.8,6.57,6.57,0,0,1,4.8-2h6a6.57,6.57,0,0,1,4.8,2,6.57,6.57,0,0,1,2,4.8v6.6Q75.42,53,85.62,72t31,31.92a6,6,0,0,1,2.94,4.08,6.19,6.19,0,0,1-1,4.92l-2.88,4a7.38,7.38,0,0,1-4.5,3.06,6.83,6.83,0,0,1-5.34-.9,90.82,90.82,0,0,1-22.5-20.16A111.52,111.52,0,0,1,66.78,71a.39.39,0,0,0-.72,0A113.87,113.87,0,0,1,48.84,98.86,92.73,92.73,0,0,1,25.5,119a6.94,6.94,0,0,1-5.4.9A7.4,7.4,0,0,1,15.54,116.86Z"/><path class="cls-1" d="M135.66,68a6.54,6.54,0,0,1-3.6-3.84,7.09,7.09,0,0,1,.12-5.28,265.2,265.2,0,0,0,12.36-37.08,7.14,7.14,0,0,1,3.12-4.32,7,7,0,0,1,5.16-1.08l4.32.72a6.35,6.35,0,0,1,4.32,2.76,6.23,6.23,0,0,1,1,5q-.12.72-.48,2.16t-.48,2.16q-.24,1,.84,1h14.88a.85.85,0,0,0,1-1V20a6.57,6.57,0,0,1,2-4.8,6.57,6.57,0,0,1,4.8-2h6a6.57,6.57,0,0,1,4.8,2,6.57,6.57,0,0,1,2,4.8v9.24a.85.85,0,0,0,1,1H228.9a6.37,6.37,0,0,1,4.74,2,6.67,6.67,0,0,1,2,4.8v2.52a6.76,6.76,0,0,1-6.72,6.72H198.78q-1,0-1,1.08V63.94a.85.85,0,0,0,1,1H222.9a6.37,6.37,0,0,1,4.74,2,6.67,6.67,0,0,1,2,4.8v2a6.76,6.76,0,0,1-6.72,6.72H198.78q-1,0-1,1.08v21.36a.85.85,0,0,0,1,1h33.84a7,7,0,0,1,6.84,6.84v2.52a7,7,0,0,1-6.84,6.84H139.5a7,7,0,0,1-6.84-6.84v-2.52a7,7,0,0,1,6.84-6.84h37.68a.85.85,0,0,0,1-1V81.58q0-1.08-1-1.08H152.82A7,7,0,0,1,146,73.66a1.4,1.4,0,0,0-1-1.44Zm14.28-4q-.36.84.6.84h26.64a.85.85,0,0,0,1-1V47.38q0-1.08-1-1.08H157.62a1.54,1.54,0,0,0-1.44,1.08Q153.18,56.38,149.94,64.06Z"/><path class="cls-1" d="M255.66,68a6.54,6.54,0,0,1-3.6-3.84,7.09,7.09,0,0,1,.12-5.28,265.2,265.2,0,0,0,12.36-37.08,7.14,7.14,0,0,1,3.12-4.32,7,7,0,0,1,5.16-1.08l4.32.72a6.35,6.35,0,0,1,4.32,2.76,6.23,6.23,0,0,1,1,5q-.12.72-.48,2.16t-.48,2.16q-.24,1,.84,1h14.88a.85.85,0,0,0,1-1V20a6.57,6.57,0,0,1,2-4.8,6.57,6.57,0,0,1,4.8-2h6a6.57,6.57,0,0,1,4.8,2,6.57,6.57,0,0,1,2,4.8v9.24a.85.85,0,0,0,1,1H348.9a6.37,6.37,0,0,1,4.74,2,6.67,6.67,0,0,1,2,4.8v2.52a6.76,6.76,0,0,1-6.72,6.72H318.78q-1,0-1,1.08V63.94a.85.85,0,0,0,1,1H342.9a6.37,6.37,0,0,1,4.74,2,6.67,6.67,0,0,1,2,4.8v2a6.76,6.76,0,0,1-6.72,6.72H318.78q-1,0-1,1.08v21.36a.85.85,0,0,0,1,1h33.84a7,7,0,0,1,6.84,6.84v2.52a7,7,0,0,1-6.84,6.84H259.5a7,7,0,0,1-6.84-6.84v-2.52a7,7,0,0,1,6.84-6.84h37.68a.85.85,0,0,0,1-1V81.58q0-1.08-1-1.08H272.82A7,7,0,0,1,266,73.66a1.4,1.4,0,0,0-1-1.44Zm14.28-4q-.36.84.6.84h26.64a.85.85,0,0,0,1-1V47.38q0-1.08-1-1.08H277.62a1.54,1.54,0,0,0-1.44,1.08Q273.18,56.38,269.94,64.06Z"/><path class="cls-1" d="M382.86,64.9a6.76,6.76,0,0,1-6.72-6.72v-1.8A7,7,0,0,1,383,49.54q14.28,0,43.56-.72,1,0,.72-1-.48-1.8-1.44-5.64-.12-.84-1.2-.84-20.16.6-36.12.6a7,7,0,0,1-6.84-6.84v-1.8a6.51,6.51,0,0,1,2-4.86,6.81,6.81,0,0,1,4.92-2q10.92,0,33.24-.48,1.2,0,1-1.08a8,8,0,0,1-.12-1.68,8,8,0,0,0-.12-1.68,5.88,5.88,0,0,1,1.62-4.74,7.07,7.07,0,0,1,4.74-2.22l4.8-.36A6.65,6.65,0,0,1,438.6,16a6.86,6.86,0,0,1,2.34,4.74l.36,3.6a1.17,1.17,0,0,0,1.2,1.08q7-.24,20.88-1a6.22,6.22,0,0,1,4.92,1.74,6.63,6.63,0,0,1,2.28,4.74v1.8a6.87,6.87,0,0,1-6.48,7.08l-9.36.42q-6.36.3-9.6.42-1,0-.72,1.08,1,3.84,1.56,5.64.12.84,1.2.84l19.68-.72A6.87,6.87,0,0,1,473.94,54v1.8a6.87,6.87,0,0,1-6.48,7.08q-2.4.12-7.2.3t-7.2.3q-1,0-.48,1,2.28,4.8,6,11a6,6,0,0,1-2.4,8.64l-6.72,3.12A16.06,16.06,0,0,1,437,87.7a53.91,53.91,0,0,0-17.88-3.24q-16.8,0-16.8,7.68,0,5.16,6.06,7.62t21.42,2.46a197.66,197.66,0,0,0,21.84-1.56,6.43,6.43,0,0,1,5,1.38,6.61,6.61,0,0,1,2.58,4.5l.36,2.4a6.61,6.61,0,0,1-1.38,5,6.54,6.54,0,0,1-4.5,2.64,203,203,0,0,1-23.88,1.56q-47,0-47-26,0-10.32,9.18-16.32t27.18-6A66.76,66.76,0,0,1,436,72h.24v-.24q-1.08-2.16-3-6.72a1.32,1.32,0,0,0-1.32-.84Q415.62,64.66,382.86,64.9Z"/><path class="cls-1" d="M500.46,74.38l-.6-1.08a7.62,7.62,0,0,1,2.88-9.6l45.72-26.88.12-.12h-37a6.37,6.37,0,0,1-4.74-2,6.67,6.67,0,0,1-2-4.8V27.58a6.67,6.67,0,0,1,2-4.8,6.37,6.37,0,0,1,4.74-2h64.8a7,7,0,0,1,6.84,6.84v2.76q0,7-5.88,10L547.5,56.14v.12h.12A64.43,64.43,0,0,1,559,55.18q16.32,0,25.26,7.44t8.94,20.16q0,17.16-12.6,26.64t-35.76,9.48q-36.36,0-36.36-22,0-8.28,7.86-13.92t21.3-5.64q13.8,0,20,4.5t6.18,13.5a24,24,0,0,1-.24,4,.52.52,0,0,0,.24.42.43.43,0,0,0,.48.06q8.88-5,8.88-15.72,0-14.88-22.68-14.88a101.77,101.77,0,0,0-20.64,1.92,107,107,0,0,0-20.16,6.6,7.24,7.24,0,0,1-5.34.12A6.59,6.59,0,0,1,500.46,74.38Zm46.08,28.44a15.66,15.66,0,0,0,1.2-5.52,5.1,5.1,0,0,0-2.34-4.62q-2.34-1.5-8.82-1.5-5.16,0-7.74,1.62a4.78,4.78,0,0,0-2.58,4.14q0,7,18.6,7H545l.24-.12A1.32,1.32,0,0,0,546.54,102.82Z"/><path class="cls-1" d="M615.66,90.58a6.36,6.36,0,1,1,0-12.72h38.16q1,0,1-1.08V75.22q0-1.08-1-1.08H618.9a5.46,5.46,0,0,1-4-1.62,5.5,5.5,0,0,1,0-7.8,5.46,5.46,0,0,1,4-1.62h34.92q1,0,1-1.08v-1.2q0-1.08-1-1.08H624.06a7,7,0,0,1-6.84-6.84V42.1a6.37,6.37,0,0,1,2-4.74,6.67,6.67,0,0,1,4.8-2h29.76q1,0,1-1.08V33.1q0-1.08-1-1.08H617.34a7,7,0,0,1-6.84-6.84,6.37,6.37,0,0,1,2-4.74,6.67,6.67,0,0,1,4.8-2h36.6q.84,0,.84-1a5.94,5.94,0,0,1,6-6h8.64a5.94,5.94,0,0,1,6,6q0,1,.84,1h36.6a6.67,6.67,0,0,1,4.8,2,6.37,6.37,0,0,1,2,4.74A7,7,0,0,1,712.86,32H676.38q-1,0-1,1.08v1.2q0,1.08,1,1.08h29.76a6.67,6.67,0,0,1,4.8,2,6.37,6.37,0,0,1,2,4.74V52.9a7,7,0,0,1-6.84,6.84H676.38q-1,0-1,1.08V62q0,1.08,1,1.08h31.08a6.67,6.67,0,0,1,4.8,2,6.37,6.37,0,0,1,2,4.74V77a.74.74,0,0,0,.84.84,6,6,0,0,1,5.76,5.76v1.2a6,6,0,0,1-5.76,5.76.74.74,0,0,0-.84.84V103.3a7,7,0,0,1-6.84,6.84H699.9a4.31,4.31,0,0,1-4.2-4.2.53.53,0,0,0-.6-.6H676.38q-1,0-1,1.08-.12,11.28-3.72,14t-17.76,2.7q-5.64,0-11.52-.24a7.4,7.4,0,0,1-7.08-7.08v-.6a5.71,5.71,0,0,1,1.86-4.62,6.26,6.26,0,0,1,4.74-1.74q4.2.24,9.48.24,2.52,0,2.94-.36t.42-2.4a.85.85,0,0,0-1-1h-35a5.52,5.52,0,0,1,0-11h35a.85.85,0,0,0,1-1v-1.8a.85.85,0,0,0-1-1Zm38.16-40.32q1,0,1-1.08V46.9q0-1.08-1-1.08h-17q-1,0-1,1.08v2.28q0,1.08,1,1.08Zm21.6-3.36v2.28q0,1.08,1,1.08h17q1,0,1-1.08V46.9q0-1.08-1-1.08h-17Q675.42,45.82,675.42,46.9Zm0,28.32v1.56q0,1.08,1,1.08h18.24a1,1,0,0,0,1.08-1.08V75.22a1,1,0,0,0-1.08-1.08H676.38Q675.42,74.14,675.42,75.22Zm0,16.32v1.8a.85.85,0,0,0,1,1h18.24q1.08,0,1.08-1v-1.8q0-1-1.08-1H676.38A.85.85,0,0,0,675.42,91.54Z"/><path class="cls-1" d="M741.06,41.38a6.37,6.37,0,0,1-4.74-2,6.67,6.67,0,0,1-2-4.8v-1.8a6.67,6.67,0,0,1,2-4.8,6.37,6.37,0,0,1,4.74-2h17.4a1.4,1.4,0,0,0,1.44-1q.24-.6.9-2.4l1-2.76a7.85,7.85,0,0,1,3.42-4.38,7.56,7.56,0,0,1,5.34-1l5.76,1.08a5.54,5.54,0,0,1,4,2.7,5.48,5.48,0,0,1,.48,4.74q-.12.36-.42,1.08t-.42,1.08q-.24.84.72.84h40.8a7,7,0,0,1,6.84,6.84v1.8a7,7,0,0,1-6.84,6.84H774.18a1.41,1.41,0,0,0-1.44.84l-3,6.36v.24H770a30.2,30.2,0,0,1,10.08-1.92q16.44,0,22.8,13.08a1.1,1.1,0,0,0,1.44.72q7.32-1.56,16.56-2.64a6.7,6.7,0,0,1,7.44,6l.24,2.28a6.85,6.85,0,0,1-1.5,5,6.61,6.61,0,0,1-4.5,2.58q-6.48,1-14.4,2.4a1,1,0,0,0-.84,1.32q.72,7.08.72,8.28a6.16,6.16,0,0,1-1.92,4.8,6.57,6.57,0,0,1-4.8,2h-5.76a6.67,6.67,0,0,1-4.8-2A6.81,6.81,0,0,1,788.58,86a32,32,0,0,0-.12-3.24.71.71,0,0,0-.36-.6.79.79,0,0,0-.72-.12q-15.12,5.88-15.12,11.52,0,4.32,4.8,6.42t18.6,2.1a193,193,0,0,0,23.52-2,6.43,6.43,0,0,1,5,1.38,6.18,6.18,0,0,1,2.46,4.5l.24,2.88a7,7,0,0,1-1.5,5,6.54,6.54,0,0,1-4.5,2.64,219.67,219.67,0,0,1-25.2,1.44q-22.8,0-32.76-5.52t-10-16.92q0-8.76,7.68-16.32t23-13q1-.48.36-1.2-2.88-3.48-8.76-3.48a18.07,18.07,0,0,0-10.56,3.78q-5.28,3.78-13,13.74a7.6,7.6,0,0,1-4.62,3,7.34,7.34,0,0,1-5.34-.84L738.3,79.3a5.81,5.81,0,0,1-3-4,6,6,0,0,1,1-4.92,219.87,219.87,0,0,0,16.44-28.2q.48-.84-.6-.84Z"/><path class="cls-2" d="M15.54,116.86l-2.88-4a6.19,6.19,0,0,1-1-4.92,6,6,0,0,1,2.94-4.08q20.76-13,31-31.92t10.2-45.24v-6.6a6.57,6.57,0,0,1,2-4.8,6.57,6.57,0,0,1,4.8-2h6a6.57,6.57,0,0,1,4.8,2,6.57,6.57,0,0,1,2,4.8v6.6Q75.42,53,85.62,72t31,31.92a6,6,0,0,1,2.94,4.08,6.19,6.19,0,0,1-1,4.92l-2.88,4a7.38,7.38,0,0,1-4.5,3.06,6.83,6.83,0,0,1-5.34-.9,90.82,90.82,0,0,1-22.5-20.16A111.52,111.52,0,0,1,66.78,71a.39.39,0,0,0-.72,0A113.87,113.87,0,0,1,48.84,98.86,92.73,92.73,0,0,1,25.5,119a6.94,6.94,0,0,1-5.4.9A7.4,7.4,0,0,1,15.54,116.86Z"/><path class="cls-2" d="M135.66,68a6.54,6.54,0,0,1-3.6-3.84,7.09,7.09,0,0,1,.12-5.28,265.2,265.2,0,0,0,12.36-37.08,7.14,7.14,0,0,1,3.12-4.32,7,7,0,0,1,5.16-1.08l4.32.72a6.35,6.35,0,0,1,4.32,2.76,6.23,6.23,0,0,1,1,5q-.12.72-.48,2.16t-.48,2.16q-.24,1,.84,1h14.88a.85.85,0,0,0,1-1V20a6.57,6.57,0,0,1,2-4.8,6.57,6.57,0,0,1,4.8-2h6a6.57,6.57,0,0,1,4.8,2,6.57,6.57,0,0,1,2,4.8v9.24a.85.85,0,0,0,1,1H228.9a6.37,6.37,0,0,1,4.74,2,6.67,6.67,0,0,1,2,4.8v2.52a6.76,6.76,0,0,1-6.72,6.72H198.78q-1,0-1,1.08V63.94a.85.85,0,0,0,1,1H222.9a6.37,6.37,0,0,1,4.74,2,6.67,6.67,0,0,1,2,4.8v2a6.76,6.76,0,0,1-6.72,6.72H198.78q-1,0-1,1.08v21.36a.85.85,0,0,0,1,1h33.84a7,7,0,0,1,6.84,6.84v2.52a7,7,0,0,1-6.84,6.84H139.5a7,7,0,0,1-6.84-6.84v-2.52a7,7,0,0,1,6.84-6.84h37.68a.85.85,0,0,0,1-1V81.58q0-1.08-1-1.08H152.82A7,7,0,0,1,146,73.66a1.4,1.4,0,0,0-1-1.44Zm14.28-4q-.36.84.6.84h26.64a.85.85,0,0,0,1-1V47.38q0-1.08-1-1.08H157.62a1.54,1.54,0,0,0-1.44,1.08Q153.18,56.38,149.94,64.06Z"/><path class="cls-2" d="M255.66,68a6.54,6.54,0,0,1-3.6-3.84,7.09,7.09,0,0,1,.12-5.28,265.2,265.2,0,0,0,12.36-37.08,7.14,7.14,0,0,1,3.12-4.32,7,7,0,0,1,5.16-1.08l4.32.72a6.35,6.35,0,0,1,4.32,2.76,6.23,6.23,0,0,1,1,5q-.12.72-.48,2.16t-.48,2.16q-.24,1,.84,1h14.88a.85.85,0,0,0,1-1V20a6.57,6.57,0,0,1,2-4.8,6.57,6.57,0,0,1,4.8-2h6a6.57,6.57,0,0,1,4.8,2,6.57,6.57,0,0,1,2,4.8v9.24a.85.85,0,0,0,1,1H348.9a6.37,6.37,0,0,1,4.74,2,6.67,6.67,0,0,1,2,4.8v2.52a6.76,6.76,0,0,1-6.72,6.72H318.78q-1,0-1,1.08V63.94a.85.85,0,0,0,1,1H342.9a6.37,6.37,0,0,1,4.74,2,6.67,6.67,0,0,1,2,4.8v2a6.76,6.76,0,0,1-6.72,6.72H318.78q-1,0-1,1.08v21.36a.85.85,0,0,0,1,1h33.84a7,7,0,0,1,6.84,6.84v2.52a7,7,0,0,1-6.84,6.84H259.5a7,7,0,0,1-6.84-6.84v-2.52a7,7,0,0,1,6.84-6.84h37.68a.85.85,0,0,0,1-1V81.58q0-1.08-1-1.08H272.82A7,7,0,0,1,266,73.66a1.4,1.4,0,0,0-1-1.44Zm14.28-4q-.36.84.6.84h26.64a.85.85,0,0,0,1-1V47.38q0-1.08-1-1.08H277.62a1.54,1.54,0,0,0-1.44,1.08Q273.18,56.38,269.94,64.06Z"/><path class="cls-2" d="M382.86,64.9a6.76,6.76,0,0,1-6.72-6.72v-1.8A7,7,0,0,1,383,49.54q14.28,0,43.56-.72,1,0,.72-1-.48-1.8-1.44-5.64-.12-.84-1.2-.84-20.16.6-36.12.6a7,7,0,0,1-6.84-6.84v-1.8a6.51,6.51,0,0,1,2-4.86,6.81,6.81,0,0,1,4.92-2q10.92,0,33.24-.48,1.2,0,1-1.08a8,8,0,0,1-.12-1.68,8,8,0,0,0-.12-1.68,5.88,5.88,0,0,1,1.62-4.74,7.07,7.07,0,0,1,4.74-2.22l4.8-.36A6.65,6.65,0,0,1,438.6,16a6.86,6.86,0,0,1,2.34,4.74l.36,3.6a1.17,1.17,0,0,0,1.2,1.08q7-.24,20.88-1a6.22,6.22,0,0,1,4.92,1.74,6.63,6.63,0,0,1,2.28,4.74v1.8a6.87,6.87,0,0,1-6.48,7.08l-9.36.42q-6.36.3-9.6.42-1,0-.72,1.08,1,3.84,1.56,5.64.12.84,1.2.84l19.68-.72A6.87,6.87,0,0,1,473.94,54v1.8a6.87,6.87,0,0,1-6.48,7.08q-2.4.12-7.2.3t-7.2.3q-1,0-.48,1,2.28,4.8,6,11a6,6,0,0,1-2.4,8.64l-6.72,3.12A16.06,16.06,0,0,1,437,87.7a53.91,53.91,0,0,0-17.88-3.24q-16.8,0-16.8,7.68,0,5.16,6.06,7.62t21.42,2.46a197.66,197.66,0,0,0,21.84-1.56,6.43,6.43,0,0,1,5,1.38,6.61,6.61,0,0,1,2.58,4.5l.36,2.4a6.61,6.61,0,0,1-1.38,5,6.54,6.54,0,0,1-4.5,2.64,203,203,0,0,1-23.88,1.56q-47,0-47-26,0-10.32,9.18-16.32t27.18-6A66.76,66.76,0,0,1,436,72h.24v-.24q-1.08-2.16-3-6.72a1.32,1.32,0,0,0-1.32-.84Q415.62,64.66,382.86,64.9Z"/><path class="cls-2" d="M500.46,74.38l-.6-1.08a7.62,7.62,0,0,1,2.88-9.6l45.72-26.88.12-.12h-37a6.37,6.37,0,0,1-4.74-2,6.67,6.67,0,0,1-2-4.8V27.58a6.67,6.67,0,0,1,2-4.8,6.37,6.37,0,0,1,4.74-2h64.8a7,7,0,0,1,6.84,6.84v2.76q0,7-5.88,10L547.5,56.14v.12h.12A64.43,64.43,0,0,1,559,55.18q16.32,0,25.26,7.44t8.94,20.16q0,17.16-12.6,26.64t-35.76,9.48q-36.36,0-36.36-22,0-8.28,7.86-13.92t21.3-5.64q13.8,0,20,4.5t6.18,13.5a24,24,0,0,1-.24,4,.52.52,0,0,0,.24.42.43.43,0,0,0,.48.06q8.88-5,8.88-15.72,0-14.88-22.68-14.88a101.77,101.77,0,0,0-20.64,1.92,107,107,0,0,0-20.16,6.6,7.24,7.24,0,0,1-5.34.12A6.59,6.59,0,0,1,500.46,74.38Zm46.08,28.44a15.66,15.66,0,0,0,1.2-5.52,5.1,5.1,0,0,0-2.34-4.62q-2.34-1.5-8.82-1.5-5.16,0-7.74,1.62a4.78,4.78,0,0,0-2.58,4.14q0,7,18.6,7H545l.24-.12A1.32,1.32,0,0,0,546.54,102.82Z"/><path class="cls-2" d="M615.66,90.58a6.36,6.36,0,1,1,0-12.72h38.16q1,0,1-1.08V75.22q0-1.08-1-1.08H618.9a5.46,5.46,0,0,1-4-1.62,5.5,5.5,0,0,1,0-7.8,5.46,5.46,0,0,1,4-1.62h34.92q1,0,1-1.08v-1.2q0-1.08-1-1.08H624.06a7,7,0,0,1-6.84-6.84V42.1a6.37,6.37,0,0,1,2-4.74,6.67,6.67,0,0,1,4.8-2h29.76q1,0,1-1.08V33.1q0-1.08-1-1.08H617.34a7,7,0,0,1-6.84-6.84,6.37,6.37,0,0,1,2-4.74,6.67,6.67,0,0,1,4.8-2h36.6q.84,0,.84-1a5.94,5.94,0,0,1,6-6h8.64a5.94,5.94,0,0,1,6,6q0,1,.84,1h36.6a6.67,6.67,0,0,1,4.8,2,6.37,6.37,0,0,1,2,4.74A7,7,0,0,1,712.86,32H676.38q-1,0-1,1.08v1.2q0,1.08,1,1.08h29.76a6.67,6.67,0,0,1,4.8,2,6.37,6.37,0,0,1,2,4.74V52.9a7,7,0,0,1-6.84,6.84H676.38q-1,0-1,1.08V62q0,1.08,1,1.08h31.08a6.67,6.67,0,0,1,4.8,2,6.37,6.37,0,0,1,2,4.74V77a.74.74,0,0,0,.84.84,6,6,0,0,1,5.76,5.76v1.2a6,6,0,0,1-5.76,5.76.74.74,0,0,0-.84.84V103.3a7,7,0,0,1-6.84,6.84H699.9a4.31,4.31,0,0,1-4.2-4.2.53.53,0,0,0-.6-.6H676.38q-1,0-1,1.08-.12,11.28-3.72,14t-17.76,2.7q-5.64,0-11.52-.24a7.4,7.4,0,0,1-7.08-7.08v-.6a5.71,5.71,0,0,1,1.86-4.62,6.26,6.26,0,0,1,4.74-1.74q4.2.24,9.48.24,2.52,0,2.94-.36t.42-2.4a.85.85,0,0,0-1-1h-35a5.52,5.52,0,0,1,0-11h35a.85.85,0,0,0,1-1v-1.8a.85.85,0,0,0-1-1Zm38.16-40.32q1,0,1-1.08V46.9q0-1.08-1-1.08h-17q-1,0-1,1.08v2.28q0,1.08,1,1.08Zm21.6-3.36v2.28q0,1.08,1,1.08h17q1,0,1-1.08V46.9q0-1.08-1-1.08h-17Q675.42,45.82,675.42,46.9Zm0,28.32v1.56q0,1.08,1,1.08h18.24a1,1,0,0,0,1.08-1.08V75.22a1,1,0,0,0-1.08-1.08H676.38Q675.42,74.14,675.42,75.22Zm0,16.32v1.8a.85.85,0,0,0,1,1h18.24q1.08,0,1.08-1v-1.8q0-1-1.08-1H676.38A.85.85,0,0,0,675.42,91.54Z"/><path class="cls-2" d="M741.06,41.38a6.37,6.37,0,0,1-4.74-2,6.67,6.67,0,0,1-2-4.8v-1.8a6.67,6.67,0,0,1,2-4.8,6.37,6.37,0,0,1,4.74-2h17.4a1.4,1.4,0,0,0,1.44-1q.24-.6.9-2.4l1-2.76a7.85,7.85,0,0,1,3.42-4.38,7.56,7.56,0,0,1,5.34-1l5.76,1.08a5.54,5.54,0,0,1,4,2.7,5.48,5.48,0,0,1,.48,4.74q-.12.36-.42,1.08t-.42,1.08q-.24.84.72.84h40.8a7,7,0,0,1,6.84,6.84v1.8a7,7,0,0,1-6.84,6.84H774.18a1.41,1.41,0,0,0-1.44.84l-3,6.36v.24H770a30.2,30.2,0,0,1,10.08-1.92q16.44,0,22.8,13.08a1.1,1.1,0,0,0,1.44.72q7.32-1.56,16.56-2.64a6.7,6.7,0,0,1,7.44,6l.24,2.28a6.85,6.85,0,0,1-1.5,5,6.61,6.61,0,0,1-4.5,2.58q-6.48,1-14.4,2.4a1,1,0,0,0-.84,1.32q.72,7.08.72,8.28a6.16,6.16,0,0,1-1.92,4.8,6.57,6.57,0,0,1-4.8,2h-5.76a6.67,6.67,0,0,1-4.8-2A6.81,6.81,0,0,1,788.58,86a32,32,0,0,0-.12-3.24.71.71,0,0,0-.36-.6.79.79,0,0,0-.72-.12q-15.12,5.88-15.12,11.52,0,4.32,4.8,6.42t18.6,2.1a193,193,0,0,0,23.52-2,6.43,6.43,0,0,1,5,1.38,6.18,6.18,0,0,1,2.46,4.5l.24,2.88a7,7,0,0,1-1.5,5,6.54,6.54,0,0,1-4.5,2.64,219.67,219.67,0,0,1-25.2,1.44q-22.8,0-32.76-5.52t-10-16.92q0-8.76,7.68-16.32t23-13q1-.48.36-1.2-2.88-3.48-8.76-3.48a18.07,18.07,0,0,0-10.56,3.78q-5.28,3.78-13,13.74a7.6,7.6,0,0,1-4.62,3,7.34,7.34,0,0,1-5.34-.84L738.3,79.3a5.81,5.81,0,0,1-3-4,6,6,0,0,1,1-4.92,219.87,219.87,0,0,0,16.44-28.2q.48-.84-.6-.84Z"/></g></g></svg>