<svg xmlns="http://www.w3.org/2000/svg" viewBox="0 0 1292.27 373.06"><defs><style>.cls-1,.cls-2{fill:none;}.cls-1{stroke:#ffffe1;stroke-width:22px;}.cls-2{stroke:#ebffb3;stroke-width:33px;}</style></defs><g id="レイヤー_2" data-name="レイヤー 2"><g id="scene6"><path class="cls-1" d="M425.21,228.28a226,226,0,0,1-13.38,29.22v92h-12V277q-5.12,7.17-10.24,13.11a101.32,101.32,0,0,0-7.09-13c12.28-12.83,23.75-32.63,30.58-52.56Zm44.91-2.45V251.9h35.36v61.57H493.06V306H470.12v43.42H457.56V306H435.45v8.47h-12V251.9h34.13V225.83Zm-34.67,37.81v30.58h22.11V263.64Zm34.67,0v30.58h22.94V263.64Z"/><path class="cls-1" d="M577.28,229.79V277.3H539.46v72.35H526.91V229.79Zm-12,19v-9.42H539.46v9.42Zm-25.81,9v10.11h25.81V257.77Zm48.61-28h51.6v104c0,7.24-1.5,11.34-6.42,13.52s-12.28,2.18-23.75,2.18a57,57,0,0,0-4-12.42H568.68v6.83H557.07v-57.2h51.2v50c6.69.27,13.24.14,15.43.14,2.45-.14,3.14-.82,3.14-3.14V277.57H588.07Zm8.32,77.13V296.27H568.68v10.65Zm-27.71,9.28v11.33h27.71V316.2Zm58.16-67.44v-9.42H600.22v9.42Zm-26.62,9v10.38h26.62V257.77Z"/><path class="cls-1" d="M729,262c-11.06.69-22.67,1-32.91,1.1-4.23,22.25-10.37,52.28-17.2,76.58l-12-3.41c6-21.57,11.74-48.46,15.84-69.76a26.45,26.45,0,0,0,.54-3.41c-9.83,0-16.52-.14-16.52-.14L667,250.4c.13,0,7.64.27,18.7.27,2.32-12.83,3.68-21.29,3.68-21.29l12.29,2s-1.23,7.51-3.27,19.12c9.42-.14,19.93-.41,29.89-1Zm42,75.36a113.63,113.63,0,0,1-23.48,2.32,97.35,97.35,0,0,1-19.93-1.91,23.52,23.52,0,0,1-12.7-6.82A18,18,0,0,1,710,318.66c0-6.69,3.41-13.1,9.28-18.16l8.19,9.42c-3.82,3.42-5.05,6.56-5.05,8.74a6,6,0,0,0,1.64,3.82,12.2,12.2,0,0,0,6.14,3,79.51,79.51,0,0,0,17.34,1.63,103,103,0,0,0,20.62-1.91Zm-53.1-66.48H752.7a19.09,19.09,0,0,1,11.47,3.55,13.08,13.08,0,0,1,5.05,10.1c0,5.87-3.82,10.92-9.28,13.79l-6-10.51c2.59-1.78,1.64-4.37-1.23-4.37H717.89Z"/><path class="cls-1" d="M901.77,309.92v1.5c0,10.11-5.87,18.57-13.79,23.62s-18,7.65-29.08,7.65a90.72,90.72,0,0,1-26.07-4.1l3.68-12a76.13,76.13,0,0,0,22.39,3.55c9.29,0,17.07-2.05,22.12-5.46s7.92-7.65,8.19-13.93a1.68,1.68,0,0,0,.14-.82,14.94,14.94,0,0,0-6.69-12.56c-4.37-3.27-11.2-5.46-19.52-5.46-9,0-19.66,2.46-31,8.47l-9-6.56,4.91-34.4h-3c-6.42,0-12.43-.14-17.34-.27l.41-12.42c4.64,0,10.51.13,16.93.13h4.78L832,231.42l12.42,1.78-1.91,13.52c15.29-.28,31.4-.82,43.55-1.64l.82,12.42c-13,1-30.17,1.5-46.14,1.77l-3.69,25.12a74.72,74.72,0,0,1,26.08-5.05c10.51,0,19.93,2.73,27,7.92A28,28,0,0,1,901.77,309.92Z"/><path class="cls-1" d="M992.41,271.15A15.84,15.84,0,1,1,976.57,287,15.85,15.85,0,0,1,992.41,271.15Z"/><path class="cls-1" d="M1128.92,271.15A15.84,15.84,0,1,1,1113.09,287,15.85,15.85,0,0,1,1128.92,271.15Z"/><path class="cls-1" d="M1265.43,271.15A15.84,15.84,0,1,1,1249.6,287,15.85,15.85,0,0,1,1265.43,271.15Z"/><path d="M425.21,228.28a226,226,0,0,1-13.38,29.22v92h-12V277q-5.12,7.17-10.24,13.11a101.32,101.32,0,0,0-7.09-13c12.28-12.83,23.75-32.63,30.58-52.56Zm44.91-2.45V251.9h35.36v61.57H493.06V306H470.12v43.42H457.56V306H435.45v8.47h-12V251.9h34.13V225.83Zm-34.67,37.81v30.58h22.11V263.64Zm34.67,0v30.58h22.94V263.64Z"/><path d="M577.28,229.79V277.3H539.46v72.35H526.91V229.79Zm-12,19v-9.42H539.46v9.42Zm-25.81,9v10.11h25.81V257.77Zm48.61-28h51.6v104c0,7.24-1.5,11.34-6.42,13.52s-12.28,2.18-23.75,2.18a57,57,0,0,0-4-12.42H568.68v6.83H557.07v-57.2h51.2v50c6.69.27,13.24.14,15.43.14,2.45-.14,3.14-.82,3.14-3.14V277.57H588.07Zm8.32,77.13V296.27H568.68v10.65Zm-27.71,9.28v11.33h27.71V316.2Zm58.16-67.44v-9.42H600.22v9.42Zm-26.62,9v10.38h26.62V257.77Z"/><path d="M729,262c-11.06.69-22.67,1-32.91,1.1-4.23,22.25-10.37,52.28-17.2,76.58l-12-3.41c6-21.57,11.74-48.46,15.84-69.76a26.45,26.45,0,0,0,.54-3.41c-9.83,0-16.52-.14-16.52-.14L667,250.4c.13,0,7.64.27,18.7.27,2.32-12.83,3.68-21.29,3.68-21.29l12.29,2s-1.23,7.51-3.27,19.12c9.42-.14,19.93-.41,29.89-1Zm42,75.36a113.63,113.63,0,0,1-23.48,2.32,97.35,97.35,0,0,1-19.93-1.91,23.52,23.52,0,0,1-12.7-6.82A18,18,0,0,1,710,318.66c0-6.69,3.41-13.1,9.28-18.16l8.19,9.42c-3.82,3.42-5.05,6.56-5.05,8.74a6,6,0,0,0,1.64,3.82,12.2,12.2,0,0,0,6.14,3,79.51,79.51,0,0,0,17.34,1.63,103,103,0,0,0,20.62-1.91Zm-53.1-66.48H752.7a19.09,19.09,0,0,1,11.47,3.55,13.08,13.08,0,0,1,5.05,10.1c0,5.87-3.82,10.92-9.28,13.79l-6-10.51c2.59-1.78,1.64-4.37-1.23-4.37H717.89Z"/><path d="M901.77,309.92v1.5c0,10.11-5.87,18.57-13.79,23.62s-18,7.65-29.08,7.65a90.72,90.72,0,0,1-26.07-4.1l3.68-12a76.13,76.13,0,0,0,22.39,3.55c9.29,0,17.07-2.05,22.12-5.46s7.92-7.65,8.19-13.93a1.68,1.68,0,0,0,.14-.82,14.94,14.94,0,0,0-6.69-12.56c-4.37-3.27-11.2-5.46-19.52-5.46-9,0-19.66,2.46-31,8.47l-9-6.56,4.91-34.4h-3c-6.42,0-12.43-.14-17.34-.27l.41-12.42c4.64,0,10.51.13,16.93.13h4.78L832,231.42l12.42,1.78-1.91,13.52c15.29-.28,31.4-.82,43.55-1.64l.82,12.42c-13,1-30.17,1.5-46.14,1.77l-3.69,25.12a74.72,74.72,0,0,1,26.08-5.05c10.51,0,19.93,2.73,27,7.92A28,28,0,0,1,901.77,309.92Z"/><path d="M992.41,271.15A15.84,15.84,0,1,1,976.57,287,15.85,15.85,0,0,1,992.41,271.15Z"/><path d="M1128.92,271.15A15.84,15.84,0,1,1,1113.09,287,15.85,15.85,0,0,1,1128.92,271.15Z"/><path d="M1265.43,271.15A15.84,15.84,0,1,1,1249.6,287,15.85,15.85,0,0,1,1265.43,271.15Z"/><path class="cls-1" d="M455.93,64.17c-11.05.68-22.66,1-32.9,1.09-4.23,22.26-10.37,52.29-17.2,76.59l-12-3.41c6-21.57,11.74-48.47,15.83-69.76a25.19,25.19,0,0,0,.55-3.42c-9.83,0-16.52-.13-16.52-.13L394,52.57c.14,0,7.65.27,18.71.27,2.32-12.83,3.68-21.3,3.68-21.3l12.29,2.05s-1.23,7.51-3.28,19.11c9.42-.13,19.94-.41,29.9-1ZM498,139.53a113.63,113.63,0,0,1-23.48,2.32,98.06,98.06,0,0,1-19.93-1.91,23.47,23.47,0,0,1-12.7-6.83A17.92,17.92,0,0,1,437,120.83c0-6.69,3.41-13.11,9.28-18.16l8.19,9.42c-3.82,3.41-5.05,6.55-5.05,8.74a6.06,6.06,0,0,0,1.64,3.82,12.12,12.12,0,0,0,6.14,3,79.5,79.5,0,0,0,17.34,1.64,103.58,103.58,0,0,0,20.61-1.91ZM444.88,73h34.81a19,19,0,0,1,11.46,3.55,13.06,13.06,0,0,1,5.06,10.11c0,5.87-3.83,10.92-9.29,13.78l-6-10.51c2.59-1.77,1.63-4.37-1.23-4.37H444.88Z"/><path class="cls-1" d="M634.22,135.71c-5.32,6.41-12.42,10.65-20.07,10.65H614c-7.91,0-15.29-4.65-20.61-12.15-3.55-4.92-6.83-8.61-9.69-10.65a13.84,13.84,0,0,0-8.88-3.14,24.63,24.63,0,0,0-4.91.68c-8.74,2.05-17.89,8.46-25.53,16.38l-7.65,7.92-9.14-8.46,59-61.57-42.18.68-.27-12.42,57.2-1.1L606,73,569.51,109.9c7.92-1.22,15.83-.68,21.71,3.55,4.64,3.42,8.32,8.06,12.28,13.38s7.51,7,10.65,7,6.69-1.63,10.38-6.14ZM597,50.93a186.59,186.59,0,0,1-41.5-5.87l3.14-12.15a163.21,163.21,0,0,0,38.5,5.46Z"/><path class="cls-1" d="M710.66,99.12a30.55,30.55,0,0,0,.28,5c.95,7.65,4.5,13.52,11.19,18.29s17.2,8.88,32.22,8.88l-.68,12.56c-16.52-1-29.36-4.64-38.78-11.2a38.8,38.8,0,0,1-16.38-26.89,55.62,55.62,0,0,1-.41-6.69c0-14.61,7.24-28.4,19.66-37.82-4.09.14-8.19.41-12.15.55-21.84,1.09-40.14,1.91-40.41,1.91l-.68-12.56c.13,0,57.34-2.73,90.92-4.09a6.5,6.5,0,0,0,1.64-.14v.14l10.37-.41.41,12.56c-3.41,0-7.23.13-11.6.41-7.51.4-12.83.95-20.48,3.68A38,38,0,0,0,710.66,99.12Z"/><path class="cls-1" d="M879.53,40.83l-45,45.87c17.47,19,32.35,34.4,47,52.28l-9.56,7.92c-15.42-18.7-31.26-34.95-50.65-56.11l.14-8.6,49.15-50.1Z"/><path class="cls-1" d="M1048.26,128.33c-4.51,10.11-12,16.11-20.34,16.25a15.56,15.56,0,0,1-11.74-5.6,19.2,19.2,0,0,1-4.51-13,30.63,30.63,0,0,1,1.5-9c5.33-16,7.92-26.89,7.78-33.85,0-6.28-1.36-8.74-4.36-11.33a12.46,12.46,0,0,0-8.33-2.73c-6.55-.14-16.93,4.09-29.49,14.74-1.64,1.36-3.14,2.73-4.64,4.23v56.79H961.57V101.71A162,162,0,0,0,946,125.47l-.55,1-11.33-5.32a165,165,0,0,1,27.44-38.36V71l-25.39-.41L936.31,58l25.26.54V37.82h12.56V71.54c12.42-9.83,23.75-14.88,34.13-15a25.31,25.31,0,0,1,16.24,5.73c6,4.78,9.15,12.29,9,20.89-.13,9.69-3,21.29-8.46,37.81a14.94,14.94,0,0,0-.82,5.05c.27,5,2.18,6,3.82,6s5.33-1.36,8.88-8.87Z"/><path class="cls-1" d="M1138.49,64.17c-11.06.68-22.66,1-32.9,1.09-4.23,22.26-10.38,52.29-17.2,76.59l-12-3.41c6-21.57,11.74-48.47,15.84-69.76a25.22,25.22,0,0,0,.54-3.42c-9.82,0-16.51-.13-16.51-.13l.27-12.56c.14,0,7.64.27,18.7.27,2.32-12.83,3.69-21.3,3.69-21.3l12.28,2.05s-1.22,7.51-3.27,19.11c9.42-.13,19.93-.41,29.9-1Zm42,75.36a113.63,113.63,0,0,1-23.48,2.32,98.09,98.09,0,0,1-19.94-1.91,23.47,23.47,0,0,1-12.69-6.83,17.93,17.93,0,0,1-4.92-12.28c0-6.69,3.42-13.11,9.29-18.16l8.19,9.42c-3.82,3.41-5,6.55-5,8.74a6,6,0,0,0,1.63,3.82,12.21,12.21,0,0,0,6.15,3,79.44,79.44,0,0,0,17.34,1.64,103.67,103.67,0,0,0,20.61-1.91ZM1127.43,73h34.81a19.09,19.09,0,0,1,11.47,3.55,13.08,13.08,0,0,1,5,10.11c0,5.87-3.82,10.92-9.28,13.78l-6-10.51c2.6-1.77,1.64-4.37-1.23-4.37h-34.81Z"/><path d="M455.93,64.17c-11.05.68-22.66,1-32.9,1.09-4.23,22.26-10.37,52.29-17.2,76.59l-12-3.41c6-21.57,11.74-48.47,15.83-69.76a25.19,25.19,0,0,0,.55-3.42c-9.83,0-16.52-.13-16.52-.13L394,52.57c.14,0,7.65.27,18.71.27,2.32-12.83,3.68-21.3,3.68-21.3l12.29,2.05s-1.23,7.51-3.28,19.11c9.42-.13,19.94-.41,29.9-1ZM498,139.53a113.63,113.63,0,0,1-23.48,2.32,98.06,98.06,0,0,1-19.93-1.91,23.47,23.47,0,0,1-12.7-6.83A17.92,17.92,0,0,1,437,120.83c0-6.69,3.41-13.11,9.28-18.16l8.19,9.42c-3.82,3.41-5.05,6.55-5.05,8.74a6.06,6.06,0,0,0,1.64,3.82,12.12,12.12,0,0,0,6.14,3,79.5,79.5,0,0,0,17.34,1.64,103.58,103.58,0,0,0,20.61-1.91ZM444.88,73h34.81a19,19,0,0,1,11.46,3.55,13.06,13.06,0,0,1,5.06,10.11c0,5.87-3.83,10.92-9.29,13.78l-6-10.51c2.59-1.77,1.63-4.37-1.23-4.37H444.88Z"/><path d="M634.22,135.71c-5.32,6.41-12.42,10.65-20.07,10.65H614c-7.91,0-15.29-4.65-20.61-12.15-3.55-4.92-6.83-8.61-9.69-10.65a13.84,13.84,0,0,0-8.88-3.14,24.63,24.63,0,0,0-4.91.68c-8.74,2.05-17.89,8.46-25.53,16.38l-7.65,7.92-9.14-8.46,59-61.57-42.18.68-.27-12.42,57.2-1.1L606,73,569.51,109.9c7.92-1.22,15.83-.68,21.71,3.55,4.64,3.42,8.32,8.06,12.28,13.38s7.51,7,10.65,7,6.69-1.63,10.38-6.14ZM597,50.93a186.59,186.59,0,0,1-41.5-5.87l3.14-12.15a163.21,163.21,0,0,0,38.5,5.46Z"/><path d="M710.66,99.12a30.55,30.55,0,0,0,.28,5c.95,7.65,4.5,13.52,11.19,18.29s17.2,8.88,32.22,8.88l-.68,12.56c-16.52-1-29.36-4.64-38.78-11.2a38.8,38.8,0,0,1-16.38-26.89,55.62,55.62,0,0,1-.41-6.69c0-14.61,7.24-28.4,19.66-37.82-4.09.14-8.19.41-12.15.55-21.84,1.09-40.14,1.91-40.41,1.91l-.68-12.56c.13,0,57.34-2.73,90.92-4.09a6.5,6.5,0,0,0,1.64-.14v.14l10.37-.41.41,12.56c-3.41,0-7.23.13-11.6.41-7.51.4-12.83.95-20.48,3.68A38,38,0,0,0,710.66,99.12Z"/><path d="M879.53,40.83l-45,45.87c17.47,19,32.35,34.4,47,52.28l-9.56,7.92c-15.42-18.7-31.26-34.95-50.65-56.11l.14-8.6,49.15-50.1Z"/><path d="M1048.26,128.33c-4.51,10.11-12,16.11-20.34,16.25a15.56,15.56,0,0,1-11.74-5.6,19.2,19.2,0,0,1-4.51-13,30.63,30.63,0,0,1,1.5-9c5.33-16,7.92-26.89,7.78-33.85,0-6.28-1.36-8.74-4.36-11.33a12.46,12.46,0,0,0-8.33-2.73c-6.55-.14-16.93,4.09-29.49,14.74-1.64,1.36-3.14,2.73-4.64,4.23v56.79H961.57V101.71A162,162,0,0,0,946,125.47l-.55,1-11.33-5.32a165,165,0,0,1,27.44-38.36V71l-25.39-.41L936.31,58l25.26.54V37.82h12.56V71.54c12.42-9.83,23.75-14.88,34.13-15a25.31,25.31,0,0,1,16.24,5.73c6,4.78,9.15,12.29,9,20.89-.13,9.69-3,21.29-8.46,37.81a14.94,14.94,0,0,0-.82,5.05c.27,5,2.18,6,3.82,6s5.33-1.36,8.88-8.87Z"/><path d="M1138.49,64.17c-11.06.68-22.66,1-32.9,1.09-4.23,22.26-10.38,52.29-17.2,76.59l-12-3.41c6-21.57,11.74-48.47,15.84-69.76a25.22,25.22,0,0,0,.54-3.42c-9.82,0-16.51-.13-16.51-.13l.27-12.56c.14,0,7.64.27,18.7.27,2.32-12.83,3.69-21.3,3.69-21.3l12.28,2.05s-1.22,7.51-3.27,19.11c9.42-.13,19.93-.41,29.9-1Zm42,75.36a113.63,113.63,0,0,1-23.48,2.32,98.09,98.09,0,0,1-19.94-1.91,23.47,23.47,0,0,1-12.69-6.83,17.93,17.93,0,0,1-4.92-12.28c0-6.69,3.42-13.11,9.29-18.16l8.19,9.42c-3.82,3.41-5,6.55-5,8.74a6,6,0,0,0,1.63,3.82,12.21,12.21,0,0,0,6.15,3,79.44,79.44,0,0,0,17.34,1.64,103.67,103.67,0,0,0,20.61-1.91ZM1127.43,73h34.81a19.09,19.09,0,0,1,11.47,3.55,13.08,13.08,0,0,1,5,10.11c0,5.87-3.82,10.92-9.28,13.78l-6-10.51c2.6-1.77,1.64-4.37-1.23-4.37h-34.81Z"/><path class="cls-2" d="M336.35,225.67a84,84,0,0,1,.82,14.33c-.41,48.33-32.36,91.33-73.31,111l-16-34c28.67-13.1,52.42-46.68,52-77a61.27,61.27,0,0,0-.82-9c-2.46-17.2-11.47-31.12-27.85-42.18A91.25,91.25,0,0,0,245,176.52,273.08,273.08,0,0,1,222.5,256c-14.34,30.72-36.86,61-71.67,74.54.41,4.09.41,7.78.82,11.88L117.25,344v-3.68a131.35,131.35,0,0,1-24.58,2.45c-22.11,0-40.54-6.55-53.65-18-12.69-11-20.06-25.8-21.7-40.13a88.88,88.88,0,0,1-.82-14.74c0-50.38,35.63-97.47,97.06-120.82V99.53H48.85l.41-37.68H76.7c11.88,0,24.57,0,37.27-.41l1.23-44.23,37.68,1.64-1.23,41.77c35.22-.82,73.3-2.45,112.21-5.32l2.87,37.27c-40.55,2.86-79.86,4.91-116.31,5.73l-1.23,40.14A273.41,273.41,0,0,1,202,132.7c35.63,0,66.35,8.6,90.1,24.16,23.75,16,40.13,40.14,44.23,68.4ZM115.61,301.84C114.38,273.17,114,244.92,114,215V189.63c-41.77,19.66-60.2,51.19-60.2,79.86a79.62,79.62,0,0,0,.82,9.83,26.47,26.47,0,0,0,9,16.38c5.73,4.91,14.33,9,29.07,9A99.83,99.83,0,0,0,115.61,301.84Zm92.14-131.46H202a214.06,214.06,0,0,0-53.24,7c-.41,12.7-.41,25.39-.41,37.68q0,37.47,1.23,73.72c16-10.24,29.08-28.26,38.91-49.15C199.15,216.25,205.3,190,207.75,170.38Z"/><path d="M336.35,225.67a84,84,0,0,1,.82,14.33c-.41,48.33-32.36,91.33-73.31,111l-16-34c28.67-13.1,52.42-46.68,52-77a61.27,61.27,0,0,0-.82-9c-2.46-17.2-11.47-31.12-27.85-42.18A91.25,91.25,0,0,0,245,176.52,273.08,273.08,0,0,1,222.5,256c-14.34,30.72-36.86,61-71.67,74.54.41,4.09.41,7.78.82,11.88L117.25,344v-3.68a131.35,131.35,0,0,1-24.58,2.45c-22.11,0-40.54-6.55-53.65-18-12.69-11-20.06-25.8-21.7-40.13a88.88,88.88,0,0,1-.82-14.74c0-50.38,35.63-97.47,97.06-120.82V99.53H48.85l.41-37.68H76.7c11.88,0,24.57,0,37.27-.41l1.23-44.23,37.68,1.64-1.23,41.77c35.22-.82,73.3-2.45,112.21-5.32l2.87,37.27c-40.55,2.86-79.86,4.91-116.31,5.73l-1.23,40.14A273.41,273.41,0,0,1,202,132.7c35.63,0,66.35,8.6,90.1,24.16,23.75,16,40.13,40.14,44.23,68.4ZM115.61,301.84C114.38,273.17,114,244.92,114,215V189.63c-41.77,19.66-60.2,51.19-60.2,79.86a79.62,79.62,0,0,0,.82,9.83,26.47,26.47,0,0,0,9,16.38c5.73,4.91,14.33,9,29.07,9A99.83,99.83,0,0,0,115.61,301.84Zm92.14-131.46H202a214.06,214.06,0,0,0-53.24,7c-.41,12.7-.41,25.39-.41,37.68q0,37.47,1.23,73.72c16-10.24,29.08-28.26,38.91-49.15C199.15,216.25,205.3,190,207.75,170.38Z"/></g></g></svg>