<svg xmlns="http://www.w3.org/2000/svg" viewBox="0 0 1295.8 193.63"><defs><style>.cls-1{fill:none;stroke:#ffcb7d;stroke-width:23px;}</style></defs><g id="レイヤー_2" data-name="レイヤー 2"><g id="scene6"><path class="cls-1" d="M112.34,117.43v42.83h73.73V177H20.74V160.26H94.47V117.43H41.41V100.86H94.47V63.63H53.13c-5.77,11.17-11.91,21-18.43,28.85A111.94,111.94,0,0,0,18.88,82.06C34,66.23,45.69,40.72,52.58,14.66l17.87,4.09c-2.79,9.5-6.14,19-9.68,27.93h33.7V12.05h17.87V46.68h64.8v17h-64.8v37.23h57.91v16.57Z"/><path class="cls-1" d="M296.84,94.16c-33.14,2.24-66.09,4.28-66.09,4.28L229.63,81.5l62.18-4.1-5-19c-29.05,2.61-54.74,4.66-54.74,4.66l-1.3-17,40-3.35,11.72-1.11c-1.49-6.34-3.16-12.85-4.65-19.37l16.57-4.09c1.86,7.44,3.54,14.7,5.21,22,14.53-1.49,28.86-2.8,40.41-4.29l2,16.95c-11,1.3-24.57,2.79-38.16,4.09,1.67,6.52,3.53,12.85,5.4,19.18,14.52-1.12,28.3-2.23,38-3.35l1.86,17.13c-9.12.93-21.6,1.86-34.82,3,1.12,3.35,2.42,6.51,3.54,9.68a28.56,28.56,0,0,1,1.86,9.49,18.58,18.58,0,0,1-4.84,13,17.72,17.72,0,0,1-12.66,5.21,21.35,21.35,0,0,1-11.54-3.35l4.09-12.66c6,3.35,8.57-1.86,7.08-5.77C300,103.84,298.52,99,296.84,94.16Zm37.24,57,6,16c-11.36,3.91-33.52,7.27-51.76,7.27h-3c-13.78,0-25.32-2.61-34.82-8a34.06,34.06,0,0,1-17.13-25.69c0-1.12-.18-2.24-.18-3.54,0-11.36,6.7-22.16,17.5-28.3l8.56,14.71c-6.14,3.54-8.94,8.93-8.94,13.59v1.49c.93,6.14,3.36,9.68,8.94,13,5.4,3.17,14.52,5.4,26.44,5.59.74,0,1.68.18,2.61.18C304.1,157.46,326.63,153.93,334.08,151.13Z"/><path class="cls-1" d="M537,124.88c0,14.34-7.82,28.86-22.34,37.8a90.58,90.58,0,0,1-47.11,13.22c-16.57-.19-31.09-3.91-39.84-14.53a21.21,21.21,0,0,1-4.47-13,22.76,22.76,0,0,1,11.36-19.92c6.33-3.91,13.77-5.4,21-5.59,1.3,0,2.79.19,4.28.19,10.24.93,19.36,4.65,26.06,11.17a44.27,44.27,0,0,1,10.8,18.62,63,63,0,0,0,8.75-4.47c10.06-6.33,14.34-15.08,14.34-23.46,0-9.68-5.59-19.18-18.81-24A64.71,64.71,0,0,0,478.36,97a103.45,103.45,0,0,0-17.31,1.68l-8-14L482.46,49.1c-14.53.38-34.26.75-47.3.75h-8l.37-17.13c2.05,0,4.66.18,7.63.18,22.16,0,65.36-1.3,65.54-1.3l6.71,14L476.5,80.75c11-1.49,22.71,1.31,30.35,4.1C526,91.55,537.19,107.94,537,124.88Zm-56.6,32.77a28.57,28.57,0,0,0-6.52-11.36c-3.54-3.35-8-5.4-15.64-6.14a12.89,12.89,0,0,0-2.6-.19h-.19c-4.65,0-9.31,1.31-11.92,3-2.6,1.86-3.16,2.79-3.35,5.4a4.11,4.11,0,0,0,.93,2.61,16.13,16.13,0,0,0,4.84,3.72c4.85,2.42,12.67,4.28,21.42,4.28A63.2,63.2,0,0,0,480.41,157.65Z"/><path class="cls-1" d="M669.19,94.16c-33.14,2.24-66.1,4.28-66.1,4.28L602,81.5l62.18-4.1-5-19c-29,2.61-54.74,4.66-54.74,4.66l-1.31-17,40-3.35,11.73-1.11c-1.49-6.34-3.16-12.85-4.65-19.37l16.57-4.09c1.86,7.44,3.54,14.7,5.21,22,14.53-1.49,28.86-2.8,40.4-4.29l2,16.95c-11,1.3-24.57,2.79-38.17,4.09,1.68,6.52,3.54,12.85,5.4,19.18,14.53-1.12,28.3-2.23,38-3.35l1.86,17.13c-9.13.93-21.6,1.86-34.82,3,1.12,3.35,2.42,6.51,3.54,9.68a28.56,28.56,0,0,1,1.86,9.49,18.62,18.62,0,0,1-4.84,13,17.75,17.75,0,0,1-12.66,5.21A21.41,21.41,0,0,1,663,126.93l4.1-12.66c6,3.35,8.57-1.86,7.08-5.77C672.35,103.84,670.86,99,669.19,94.16Zm37.24,57,6,16c-11.35,3.91-33.51,7.27-51.76,7.27h-3c-13.78,0-25.33-2.61-34.82-8a34.06,34.06,0,0,1-17.13-25.69c0-1.12-.19-2.24-.19-3.54,0-11.36,6.71-22.16,17.51-28.3l8.56,14.71c-6.14,3.54-8.94,8.93-8.94,13.59v1.49c.93,6.14,3.35,9.68,8.94,13,5.4,3.17,14.52,5.4,26.44,5.59.74,0,1.67.18,2.6.18C676.45,157.46,699,153.93,706.43,151.13Z"/><path class="cls-1" d="M804.53,153.74c1.31,0,3.73-.56,6.71-3l10.42,13.59a27.82,27.82,0,0,1-17.13,6.33c-10.23,0-18.43-7.26-21.59-16.57l-.19-.56c-6-17.68-6.33-35.74-6.33-51.94,0-40.78,10.61-71.68,10.8-72.24l16,5.4a5.8,5.8,0,0,1-.37,1.3l-1.12,3.72c-.93,3.17-2,8-3.35,14a246.58,246.58,0,0,0-4.84,47.85,192,192,0,0,0,5.59,47.1C801,153,802.49,153.55,804.53,153.74ZM919,140.52a104.57,104.57,0,0,0-29-9.31l.19,5.4c.19.37,0,.75,0,.93.19,11.92-5,21.41-12.47,27a40.42,40.42,0,0,1-24,7.63h-2.42a32.7,32.7,0,0,1-20.86-7.82,25.91,25.91,0,0,1-9.3-19.55A27.3,27.3,0,0,1,824.27,132c3.17-6.34,9.31-11.55,16.76-14.71,7.63-3.35,16.75-4.84,28.11-4.84h3.17L871.38,85c-1.87.18-3.73.18-5.78.18-17.87,0-34.44-.18-44.49-.56l.55-17.12c9.68.37,26.07.55,43.94.55h5.22l-.75-22.52c-6,0-11.73.18-17.13.18-11.54,0-21-.18-26.81-.37l.37-17.13c5.78.19,15.09.37,26.44.37,14.9,0,33.33-.37,50.83-1.11l.93,16.94c-5.77.37-11.73.56-17.68.74L888,67.91c10.61,0,21.22-.19,30.16-.37l.37,17.12c-8.94.19-19.36.38-30,.38l.94,28.86c.74.18,1.67.18,2.41.37a122.48,122.48,0,0,1,34.64,10.8ZM867.47,151c3.35-2.61,5.77-6,5.77-13.41v-.37l-.38-7.63c-1.3,0-2.6-.19-3.72-.19H869c-9.49,0-16.38,1.49-21,3.54-4.84,2.05-7.08,4.47-8.38,7.07a9.46,9.46,0,0,0-1.49,4.84c0,2.42.93,4.47,3.35,6.52A16.93,16.93,0,0,0,852.2,155h1.49C858.71,155,864.11,153.74,867.47,151ZM909.92,11.87c.18,12.66.74,25.69.74,25.88l11.73-.56s-.56-13-.56-25.51ZM938,11.68l-11.73.19c.37,11.73.56,25.13.56,25.13l11.91-.37Z"/><path class="cls-1" d="M1088.64,104c0,28.48-22.71,59.58-68.7,75l-5.4-16.2c41.15-14,57.16-39.66,57-58.83,0-7.63-2.23-14.15-6.51-19.37-4.66-6-13.6-9.49-26.81-9.49-14.15,0-32.21,4.28-51,11.54L981,70.89c20.11-7.82,39.84-12.66,57.16-12.85,16,0,30.72,4.28,40.21,16A47.49,47.49,0,0,1,1088.64,104Zm-30.35-59.58c-18.24-2.05-42.63-5.59-57.34-8.94l3.72-16.57c13.59,3,38,6.52,55.49,8.57Z"/><path class="cls-1" d="M1271.84,156.16l2.79,16.94c-13.22,2.05-25.32,3.73-40.77,3.73-3.54,0-7.27,0-11.17-.19-9.87-.56-19.56-1.68-28.12-4.84-8.38-3.17-16.57-10.24-18.06-20.85a28.88,28.88,0,0,1-.37-3.91c.19-8.38,4.28-15.46,9.31-21,5.21-5.77,11.54-10.43,18.43-14.71a120.76,120.76,0,0,1,24.95-11.17,14.32,14.32,0,0,0-7.82-6.89,26.16,26.16,0,0,0-8.75-1.3c-9.87,0-23.46,3.91-32.4,11.72l-13-10.61c4.28-7.63,9.68-21.59,14.71-35.19-10.06-.18-19.37-.37-27.18-.74l.74-16.94c9.12.37,20.29.55,32.4.74,4.28-12.85,7.26-22.53,7.26-22.53l16.19,5s-2.23,7.26-5.58,17.31c17.87-.18,35.37-.74,47.85-1.48l1.12,17.12c-14.53.75-34.82,1.49-54.93,1.49-2.61,6.71-6.14,14-8.75,20.48l1.49-.18A65.33,65.33,0,0,1,1212.26,75a40.89,40.89,0,0,1,14.52,2.24c8,2.79,14.52,8.56,17.5,15.64l1.12,2.6A332.9,332.9,0,0,1,1281,89.32l2,16.94a344.62,344.62,0,0,0-34.45,6,24.41,24.41,0,0,1,.19,3.72,131.47,131.47,0,0,1-2,22l-16.75-2.6a138.47,138.47,0,0,0,1.67-18.25,99.63,99.63,0,0,0-18.8,8.75c-6,3.73-11.36,7.82-14.71,11.55-3.54,3.91-4.84,7.26-4.84,9.68a3.25,3.25,0,0,0,.18,1.3c.56,3.54,2,5.4,7.45,7.63,5.21,2.24,13.59,3.17,22.53,3.54,3.72.19,7.07.19,10.43.19C1248,159.7,1258.81,158.21,1271.84,156.16Z"/><path d="M112.34,117.43v42.83h73.73V177H20.74V160.26H94.47V117.43H41.41V100.86H94.47V63.63H53.13c-5.77,11.17-11.91,21-18.43,28.85A111.94,111.94,0,0,0,18.88,82.06C34,66.23,45.69,40.72,52.58,14.66l17.87,4.09c-2.79,9.5-6.14,19-9.68,27.93h33.7V12.05h17.87V46.68h64.8v17h-64.8v37.23h57.91v16.57Z"/><path d="M296.84,94.16c-33.14,2.24-66.09,4.28-66.09,4.28L229.63,81.5l62.18-4.1-5-19c-29.05,2.61-54.74,4.66-54.74,4.66l-1.3-17,40-3.35,11.72-1.11c-1.49-6.34-3.16-12.85-4.65-19.37l16.57-4.09c1.86,7.44,3.54,14.7,5.21,22,14.53-1.49,28.86-2.8,40.41-4.29l2,16.95c-11,1.3-24.57,2.79-38.16,4.09,1.67,6.52,3.53,12.85,5.4,19.18,14.52-1.12,28.3-2.23,38-3.35l1.86,17.13c-9.12.93-21.6,1.86-34.82,3,1.12,3.35,2.42,6.51,3.54,9.68a28.56,28.56,0,0,1,1.86,9.49,18.58,18.58,0,0,1-4.84,13,17.72,17.72,0,0,1-12.66,5.21,21.35,21.35,0,0,1-11.54-3.35l4.09-12.66c6,3.35,8.57-1.86,7.08-5.77C300,103.84,298.52,99,296.84,94.16Zm37.24,57,6,16c-11.36,3.91-33.52,7.27-51.76,7.27h-3c-13.78,0-25.32-2.61-34.82-8a34.06,34.06,0,0,1-17.13-25.69c0-1.12-.18-2.24-.18-3.54,0-11.36,6.7-22.16,17.5-28.3l8.56,14.71c-6.14,3.54-8.94,8.93-8.94,13.59v1.49c.93,6.14,3.36,9.68,8.94,13,5.4,3.17,14.52,5.4,26.44,5.59.74,0,1.68.18,2.61.18C304.1,157.46,326.63,153.93,334.08,151.13Z"/><path d="M537,124.88c0,14.34-7.82,28.86-22.34,37.8a90.58,90.58,0,0,1-47.11,13.22c-16.57-.19-31.09-3.91-39.84-14.53a21.21,21.21,0,0,1-4.47-13,22.76,22.76,0,0,1,11.36-19.92c6.33-3.91,13.77-5.4,21-5.59,1.3,0,2.79.19,4.28.19,10.24.93,19.36,4.65,26.06,11.17a44.27,44.27,0,0,1,10.8,18.62,63,63,0,0,0,8.75-4.47c10.06-6.33,14.34-15.08,14.34-23.46,0-9.68-5.59-19.18-18.81-24A64.71,64.71,0,0,0,478.36,97a103.45,103.45,0,0,0-17.31,1.68l-8-14L482.46,49.1c-14.53.38-34.26.75-47.3.75h-8l.37-17.13c2.05,0,4.66.18,7.63.18,22.16,0,65.36-1.3,65.54-1.3l6.71,14L476.5,80.75c11-1.49,22.71,1.31,30.35,4.1C526,91.55,537.19,107.94,537,124.88Zm-56.6,32.77a28.57,28.57,0,0,0-6.52-11.36c-3.54-3.35-8-5.4-15.64-6.14a12.89,12.89,0,0,0-2.6-.19h-.19c-4.65,0-9.31,1.31-11.92,3-2.6,1.86-3.16,2.79-3.35,5.4a4.11,4.11,0,0,0,.93,2.61,16.13,16.13,0,0,0,4.84,3.72c4.85,2.42,12.67,4.28,21.42,4.28A63.2,63.2,0,0,0,480.41,157.65Z"/><path d="M669.19,94.16c-33.14,2.24-66.1,4.28-66.1,4.28L602,81.5l62.18-4.1-5-19c-29,2.61-54.74,4.66-54.74,4.66l-1.31-17,40-3.35,11.73-1.11c-1.49-6.34-3.16-12.85-4.65-19.37l16.57-4.09c1.86,7.44,3.54,14.7,5.21,22,14.53-1.49,28.86-2.8,40.4-4.29l2,16.95c-11,1.3-24.57,2.79-38.17,4.09,1.68,6.52,3.54,12.85,5.4,19.18,14.53-1.12,28.3-2.23,38-3.35l1.86,17.13c-9.13.93-21.6,1.86-34.82,3,1.12,3.35,2.42,6.51,3.54,9.68a28.56,28.56,0,0,1,1.86,9.49,18.62,18.62,0,0,1-4.84,13,17.75,17.75,0,0,1-12.66,5.21A21.41,21.41,0,0,1,663,126.93l4.1-12.66c6,3.35,8.57-1.86,7.08-5.77C672.35,103.84,670.86,99,669.19,94.16Zm37.24,57,6,16c-11.35,3.91-33.51,7.27-51.76,7.27h-3c-13.78,0-25.33-2.61-34.82-8a34.06,34.06,0,0,1-17.13-25.69c0-1.12-.19-2.24-.19-3.54,0-11.36,6.71-22.16,17.51-28.3l8.56,14.71c-6.14,3.54-8.94,8.93-8.94,13.59v1.49c.93,6.14,3.35,9.68,8.94,13,5.4,3.17,14.52,5.4,26.44,5.59.74,0,1.67.18,2.6.18C676.45,157.46,699,153.93,706.43,151.13Z"/><path d="M804.53,153.74c1.31,0,3.73-.56,6.71-3l10.42,13.59a27.82,27.82,0,0,1-17.13,6.33c-10.23,0-18.43-7.26-21.59-16.57l-.19-.56c-6-17.68-6.33-35.74-6.33-51.94,0-40.78,10.61-71.68,10.8-72.24l16,5.4a5.8,5.8,0,0,1-.37,1.3l-1.12,3.72c-.93,3.17-2,8-3.35,14a246.58,246.58,0,0,0-4.84,47.85,192,192,0,0,0,5.59,47.1C801,153,802.49,153.55,804.53,153.74ZM919,140.52a104.57,104.57,0,0,0-29-9.31l.19,5.4c.19.37,0,.75,0,.93.19,11.92-5,21.41-12.47,27a40.42,40.42,0,0,1-24,7.63h-2.42a32.7,32.7,0,0,1-20.86-7.82,25.91,25.91,0,0,1-9.3-19.55A27.3,27.3,0,0,1,824.27,132c3.17-6.34,9.31-11.55,16.76-14.71,7.63-3.35,16.75-4.84,28.11-4.84h3.17L871.38,85c-1.87.18-3.73.18-5.78.18-17.87,0-34.44-.18-44.49-.56l.55-17.12c9.68.37,26.07.55,43.94.55h5.22l-.75-22.52c-6,0-11.73.18-17.13.18-11.54,0-21-.18-26.81-.37l.37-17.13c5.78.19,15.09.37,26.44.37,14.9,0,33.33-.37,50.83-1.11l.93,16.94c-5.77.37-11.73.56-17.68.74L888,67.91c10.61,0,21.22-.19,30.16-.37l.37,17.12c-8.94.19-19.36.38-30,.38l.94,28.86c.74.18,1.67.18,2.41.37a122.48,122.48,0,0,1,34.64,10.8ZM867.47,151c3.35-2.61,5.77-6,5.77-13.41v-.37l-.38-7.63c-1.3,0-2.6-.19-3.72-.19H869c-9.49,0-16.38,1.49-21,3.54-4.84,2.05-7.08,4.47-8.38,7.07a9.46,9.46,0,0,0-1.49,4.84c0,2.42.93,4.47,3.35,6.52A16.93,16.93,0,0,0,852.2,155h1.49C858.71,155,864.11,153.74,867.47,151ZM909.92,11.87c.18,12.66.74,25.69.74,25.88l11.73-.56s-.56-13-.56-25.51ZM938,11.68l-11.73.19c.37,11.73.56,25.13.56,25.13l11.91-.37Z"/><path d="M1088.64,104c0,28.48-22.71,59.58-68.7,75l-5.4-16.2c41.15-14,57.16-39.66,57-58.83,0-7.63-2.23-14.15-6.51-19.37-4.66-6-13.6-9.49-26.81-9.49-14.15,0-32.21,4.28-51,11.54L981,70.89c20.11-7.82,39.84-12.66,57.16-12.85,16,0,30.72,4.28,40.21,16A47.49,47.49,0,0,1,1088.64,104Zm-30.35-59.58c-18.24-2.05-42.63-5.59-57.34-8.94l3.72-16.57c13.59,3,38,6.52,55.49,8.57Z"/><path d="M1271.84,156.16l2.79,16.94c-13.22,2.05-25.32,3.73-40.77,3.73-3.54,0-7.27,0-11.17-.19-9.87-.56-19.56-1.68-28.12-4.84-8.38-3.17-16.57-10.24-18.06-20.85a28.88,28.88,0,0,1-.37-3.91c.19-8.38,4.28-15.46,9.31-21,5.21-5.77,11.54-10.43,18.43-14.71a120.76,120.76,0,0,1,24.95-11.17,14.32,14.32,0,0,0-7.82-6.89,26.16,26.16,0,0,0-8.75-1.3c-9.87,0-23.46,3.91-32.4,11.72l-13-10.61c4.28-7.63,9.68-21.59,14.71-35.19-10.06-.18-19.37-.37-27.18-.74l.74-16.94c9.12.37,20.29.55,32.4.74,4.28-12.85,7.26-22.53,7.26-22.53l16.19,5s-2.23,7.26-5.58,17.31c17.87-.18,35.37-.74,47.85-1.48l1.12,17.12c-14.53.75-34.82,1.49-54.93,1.49-2.61,6.71-6.14,14-8.75,20.48l1.49-.18A65.33,65.33,0,0,1,1212.26,75a40.89,40.89,0,0,1,14.52,2.24c8,2.79,14.52,8.56,17.5,15.64l1.12,2.6A332.9,332.9,0,0,1,1281,89.32l2,16.94a344.62,344.62,0,0,0-34.45,6,24.41,24.41,0,0,1,.19,3.72,131.47,131.47,0,0,1-2,22l-16.75-2.6a138.47,138.47,0,0,0,1.67-18.25,99.63,99.63,0,0,0-18.8,8.75c-6,3.73-11.36,7.82-14.71,11.55-3.54,3.91-4.84,7.26-4.84,9.68a3.25,3.25,0,0,0,.18,1.3c.56,3.54,2,5.4,7.45,7.63,5.21,2.24,13.59,3.17,22.53,3.54,3.72.19,7.07.19,10.43.19C1248,159.7,1258.81,158.21,1271.84,156.16Z"/></g></g></svg>