<svg xmlns="http://www.w3.org/2000/svg" viewBox="0 0 129.97 605.92"><defs><style>.cls-1{fill:#ecd7ff;}.cls-2{fill:#ecdeff;}</style></defs><title>アセット 4</title><g id="レイヤー_2" data-name="レイヤー 2"><g id="背景のアニメーション"><path class="cls-1" d="M87.51,518.41c3.39-3.39,50.77,22.53,41.18,22.53,9.59,0-37.79,25.91-41.18,22.52C90.9,566.85,65,614.23,65,604.64c0,9.59-25.91-37.79-22.52-41.18-3.39,3.39-50.77-22.52-41.18-22.52-9.59,0,37.79-25.92,41.18-22.53C39.07,515,65,467.64,65,477.23,65,467.64,90.9,515,87.51,518.41Z"/><circle class="cls-2" cx="64.98" cy="400.67" r="2"/><circle class="cls-2" cx="64.98" cy="301" r="2"/><circle class="cls-2" cx="64.98" cy="201.33" r="2"/><circle class="cls-2" cx="64.98" cy="101.67" r="2"/><circle class="cls-2" cx="64.98" cy="2" r="2"/></g></g></svg>