<svg xmlns="http://www.w3.org/2000/svg" viewBox="0 0 411 910"><defs><style>.cls-1{fill:#ecc6ff;}.cls-2{fill:#ecdeff;}</style></defs><title>アセット 2</title><g id="レイヤー_2" data-name="レイヤー 2"><g id="背景のアニメーション"><path class="cls-1" d="M278.16,631.84C181.28,728.72,137,704.5,411,704.5c-274,0-229.72-24.22-132.84,72.66C181.28,680.28,205.5,636,205.5,910c0-274,24.22-229.72-72.66-132.84C229.72,680.28,274,704.5,0,704.5c274,0,229.72,24.22,132.84-72.66C229.72,728.72,205.5,773,205.5,499,205.5,773,181.28,728.72,278.16,631.84Z"/><circle class="cls-2" cx="205.5" cy="400.67" r="2"/><circle class="cls-2" cx="205.5" cy="301" r="2"/><circle class="cls-2" cx="205.5" cy="201.33" r="2"/><circle class="cls-2" cx="205.5" cy="101.67" r="2"/><circle class="cls-2" cx="205.5" cy="2" r="2"/></g></g></svg>