<svg xmlns="http://www.w3.org/2000/svg" viewBox="0 0 178.1 651.38"><defs><style>.cls-1{fill:#ecc6ff;}.cls-2{fill:#ecdeff;}</style></defs><title>アセット 5</title><g id="レイヤー_2" data-name="レイヤー 2"><g id="背景のアニメーション"><path class="cls-1" d="M120.53,530.85C106,545.38,137,562.33,178.1,562.33c-41.1,0-72.1,17-57.57,31.49C106,579.29,89.05,610.28,89.05,651.38c0-41.1-17-72.09-31.48-57.56C72.1,579.29,41.1,562.33,0,562.33c41.1,0,72.1-17,57.57-31.48,14.53,14.53,31.48-16.47,31.48-57.57C89.05,514.38,106,545.38,120.53,530.85Z"/><circle class="cls-2" cx="89.05" cy="400.67" r="2"/><circle class="cls-2" cx="89.05" cy="301" r="2"/><circle class="cls-2" cx="89.05" cy="201.33" r="2"/><circle class="cls-2" cx="89.05" cy="101.67" r="2"/><circle class="cls-2" cx="89.05" cy="2" r="2"/></g></g></svg>