<svg xmlns="http://www.w3.org/2000/svg" xmlns:xlink="http://www.w3.org/1999/xlink" viewBox="0 0 605.94 530.67"><defs><style>.cls-1{fill:url(#新規グラデーションスウォッチ_6);}.cls-2{fill:none;}.cls-3{fill:#fff;}</style><linearGradient id="新規グラデーションスウォッチ_6" x1="-181.4" y1="301.43" x2="-167.59" y2="16.32" gradientTransform="matrix(0.66, 0.75, -0.75, 0.66, 363.72, 435.65)" gradientUnits="userSpaceOnUse"><stop offset="0" stop-color="#744697"/><stop offset="0.1" stop-color="#386db4"/><stop offset="0.22" stop-color="#4cb0e4"/><stop offset="0.35" stop-color="#84ceeb"/><stop offset="0.48" stop-color="#78c39c"/><stop offset="0.58" stop-color="#92c876"/><stop offset="0.69" stop-color="#adcf39"/><stop offset="0.81" stop-color="#cada2e"/><stop offset="0.9" stop-color="#f5b231"/><stop offset="1" stop-color="#e51d53"/></linearGradient></defs><title>アセット 1</title><g id="レイヤー_2" data-name="レイヤー 2"><g id="背景のアニメーション"><g id="数秒に一度流れるアニメーション"><path class="cls-1" d="M134.72,510.19A80.92,80.92,0,0,1,27.11,389.31c33.38-29.71,206.75-75.72,206.75-75.72S168.1,480.47,134.72,510.19Z"/><rect class="cls-2" x="143.06" y="262.79" width="1.86" height="1.86"/><circle class="cls-3" cx="143.99" cy="263.72" r="0.93"/><rect class="cls-2" x="154.56" y="268.23" width="0.58" height="0.58"/><circle class="cls-3" cx="154.85" cy="268.52" r="0.29"/><rect class="cls-2" x="157" y="265.18" width="1.89" height="1.89"/><circle class="cls-3" cx="157.94" cy="266.12" r="0.94"/><rect class="cls-2" x="157.96" y="254.06" width="1.38" height="1.38"/><circle class="cls-3" cx="158.65" cy="254.76" r="0.69"/><rect class="cls-2" x="162.95" y="248.59" width="1.3" height="1.3"/><circle class="cls-3" cx="163.6" cy="249.24" r="0.65"/><rect class="cls-2" x="173.17" y="258.57" width="0.94" height="0.94"/><circle class="cls-3" cx="173.63" cy="259.04" r="0.47"/><rect class="cls-2" x="173.96" y="255.07" width="1.83" height="1.83"/><circle class="cls-3" cx="174.88" cy="255.98" r="0.92"/><rect class="cls-2" x="174.19" y="253.02" width="1.84" height="1.84"/><circle class="cls-3" cx="175.11" cy="253.94" r="0.92"/><rect class="cls-2" x="175.22" y="243.44" width="1.73" height="1.73"/><circle class="cls-3" cx="176.09" cy="244.3" r="0.87"/><rect class="cls-2" x="183.9" y="245.08" width="1.31" height="1.31"/><circle class="cls-3" cx="184.55" cy="245.74" r="0.66"/><rect class="cls-2" x="185.03" y="236.62" width="1.46" height="1.46"/><circle class="cls-3" cx="185.76" cy="237.35" r="0.73"/><rect class="cls-2" x="188.64" y="229.31" width="1.81" height="1.81"/><circle class="cls-3" cx="189.55" cy="230.22" r="0.91"/><rect class="cls-2" x="190.74" y="225.98" width="1.16" height="1.16"/><circle class="cls-3" cx="191.32" cy="226.56" r="0.58"/><rect class="cls-2" x="189.79" y="221.75" width="1.07" height="1.07"/><circle class="cls-3" cx="190.32" cy="222.29" r="0.53"/><rect class="cls-2" x="192.8" y="223.12" width="1.57" height="1.57"/><circle class="cls-3" cx="193.58" cy="223.91" r="0.79"/><rect class="cls-2" x="195.78" y="219.19" width="0.85" height="0.85"/><circle class="cls-3" cx="196.21" cy="219.61" r="0.43"/><rect class="cls-2" x="198.51" y="219.02" width="1.43" height="1.43"/><circle class="cls-3" cx="199.23" cy="219.74" r="0.72"/><rect class="cls-2" x="205.6" y="225.49" width="1.45" height="1.45"/><circle class="cls-3" cx="206.33" cy="226.22" r="0.73"/><rect class="cls-2" x="208.38" y="219.09" width="0.54" height="0.54"/><circle class="cls-3" cx="208.65" cy="219.37" r="0.27"/><rect class="cls-2" x="205.52" y="211.07" width="1.47" height="1.47"/><circle class="cls-3" cx="206.25" cy="211.8" r="0.74"/><rect class="cls-2" x="208.8" y="212.54" width="0.78" height="0.78"/><circle class="cls-3" cx="209.2" cy="212.93" r="0.39"/><rect class="cls-2" x="221.75" y="218.25" width="1.85" height="1.85"/><circle class="cls-3" cx="222.67" cy="219.17" r="0.92"/><rect class="cls-2" x="223.2" y="211.19" width="0.82" height="0.82"/><circle class="cls-3" cx="223.6" cy="211.6" r="0.41"/><rect class="cls-2" x="224.62" y="201.76" width="1.88" height="1.88"/><circle class="cls-3" cx="225.55" cy="202.7" r="0.94"/><rect class="cls-2" x="230.33" y="199.83" width="1.99" height="1.99"/><circle class="cls-3" cx="231.33" cy="200.83" r="1"/><rect class="cls-2" x="231.98" y="189.03" width="0.66" height="0.66"/><circle class="cls-3" cx="232.31" cy="189.36" r="0.33"/><rect class="cls-2" x="247.37" y="199.11" width="1.07" height="1.07"/><circle class="cls-3" cx="247.9" cy="199.64" r="0.54"/><rect class="cls-2" x="238.45" y="184.72" width="0.75" height="0.75"/><circle class="cls-3" cx="238.83" cy="185.1" r="0.37"/><rect class="cls-2" x="242.22" y="183.11" width="1.02" height="1.02"/><circle class="cls-3" cx="242.73" cy="183.62" r="0.51"/><rect class="cls-2" x="243.85" y="183.63" width="1.73" height="1.73"/><circle class="cls-3" cx="244.71" cy="184.5" r="0.86"/><rect class="cls-2" x="249.82" y="180.2" width="1.91" height="1.91"/><circle class="cls-3" cx="250.77" cy="181.16" r="0.96"/><rect class="cls-2" x="258.85" y="189.73" width="1.09" height="1.09"/><circle class="cls-3" cx="259.39" cy="190.28" r="0.55"/><rect class="cls-2" x="258.98" y="177.79" width="0.86" height="0.86"/><circle class="cls-3" cx="259.41" cy="178.22" r="0.43"/><rect class="cls-2" x="263.21" y="179.76" width="1.68" height="1.68"/><circle class="cls-3" cx="264.04" cy="180.6" r="0.84"/><rect class="cls-2" x="266.4" y="180.19" width="1.91" height="1.91"/><circle class="cls-3" cx="267.36" cy="181.15" r="0.96"/><rect class="cls-2" x="266.08" y="168.16" width="0.59" height="0.59"/><circle class="cls-3" cx="266.37" cy="168.45" r="0.29"/><rect class="cls-2" x="272.01" y="165.35" width="1.8" height="1.8"/><circle class="cls-3" cx="272.91" cy="166.24" r="0.9"/><rect class="cls-2" x="282.31" y="169.3" width="1.25" height="1.25"/><circle class="cls-3" cx="282.93" cy="169.92" r="0.63"/><rect class="cls-2" x="275.54" y="152.7" width="2" height="2"/><circle class="cls-3" cx="276.54" cy="153.7" r="1"/><rect class="cls-2" x="281.03" y="147.48" width="1.43" height="1.43"/><circle class="cls-3" cx="281.75" cy="148.19" r="0.72"/><rect class="cls-2" x="289.65" y="151.86" width="0.89" height="0.89"/><circle class="cls-3" cx="290.1" cy="152.31" r="0.45"/><rect class="cls-2" x="297.77" y="151.68" width="1.37" height="1.37"/><circle class="cls-3" cx="298.46" cy="152.37" r="0.69"/><rect class="cls-2" x="298.98" y="141.8" width="1.95" height="1.95"/><circle class="cls-3" cx="299.96" cy="142.78" r="0.98"/><rect class="cls-2" x="299.08" y="134.92" width="1.39" height="1.39"/><circle class="cls-3" cx="299.78" cy="135.61" r="0.7"/><rect class="cls-2" x="306.14" y="133.75" width="1.38" height="1.38"/><circle class="cls-3" cx="306.83" cy="134.44" r="0.69"/><rect class="cls-2" x="309.72" y="127.7" width="1.48" height="1.48"/><circle class="cls-3" cx="310.46" cy="128.45" r="0.74"/><rect class="cls-2" x="322.59" y="134.96" width="0.61" height="0.61"/><circle class="cls-3" cx="322.89" cy="135.26" r="0.3"/><rect class="cls-2" x="317.32" y="119.95" width="1.26" height="1.26"/><circle class="cls-3" cx="317.95" cy="120.58" r="0.63"/><rect class="cls-2" x="318.66" y="116.83" width="1.56" height="1.56"/><circle class="cls-3" cx="319.44" cy="117.61" r="0.78"/><rect class="cls-2" x="317.5" y="113.24" width="1.54" height="1.54"/><circle class="cls-3" cx="318.27" cy="114.01" r="0.77"/><rect class="cls-2" x="334.56" y="121.13" width="0.64" height="0.64"/><circle class="cls-3" cx="334.88" cy="121.45" r="0.32"/><rect class="cls-2" x="332.43" y="116.17" width="1.17" height="1.17"/><circle class="cls-3" cx="333.02" cy="116.76" r="0.59"/><rect class="cls-2" x="337.26" y="115" width="1.63" height="1.63"/><circle class="cls-3" cx="338.07" cy="115.81" r="0.81"/><rect class="cls-2" x="335.05" y="107.38" width="1.81" height="1.81"/><circle class="cls-3" cx="335.95" cy="108.28" r="0.91"/><rect class="cls-2" x="344.65" y="111.76" width="1.21" height="1.21"/><circle class="cls-3" cx="345.26" cy="112.36" r="0.61"/><rect class="cls-2" x="338.99" y="103.7" width="0.85" height="0.85"/><circle class="cls-3" cx="339.42" cy="104.12" r="0.42"/><rect class="cls-2" x="344.72" y="101.69" width="1.4" height="1.4"/><circle class="cls-3" cx="345.42" cy="102.39" r="0.7"/><rect class="cls-2" x="346.87" y="100.35" width="1.44" height="1.44"/><circle class="cls-3" cx="347.59" cy="101.07" r="0.72"/><rect class="cls-2" x="350.32" y="100.21" width="1.88" height="1.88"/><circle class="cls-3" cx="351.26" cy="101.15" r="0.94"/><rect class="cls-2" x="361.13" y="101.2" width="0.51" height="0.51"/><circle class="cls-3" cx="361.38" cy="101.46" r="0.26"/><rect class="cls-2" x="363.19" y="94.64" width="0.63" height="0.63"/><circle class="cls-3" cx="363.51" cy="94.96" r="0.32"/><rect class="cls-2" x="364.93" y="88.4" width="1.63" height="1.63"/><circle class="cls-3" cx="365.74" cy="89.22" r="0.82"/><rect class="cls-2" x="364.4" y="85.79" width="0.65" height="0.65"/><circle class="cls-3" cx="364.73" cy="86.12" r="0.33"/><rect class="cls-2" x="369.36" y="85.95" width="1.35" height="1.35"/><circle class="cls-3" cx="370.03" cy="86.62" r="0.68"/><rect class="cls-2" x="369.07" y="80.56" width="0.98" height="0.98"/><circle class="cls-3" cx="369.56" cy="81.05" r="0.49"/><rect class="cls-2" x="324.95" y="236.99" width="0.77" height="0.77"/><circle class="cls-3" cx="325.33" cy="237.38" r="0.38"/><rect class="cls-2" x="323.57" y="232.25" width="1.86" height="1.86"/><circle class="cls-3" cx="324.5" cy="233.19" r="0.93"/><rect class="cls-2" x="320.74" y="216.57" width="1.95" height="1.95"/><circle class="cls-3" cx="321.72" cy="217.55" r="0.98"/><rect class="cls-2" x="335.46" y="225.46" width="1.58" height="1.58"/><circle class="cls-3" cx="336.25" cy="226.26" r="0.79"/><rect class="cls-2" x="328.95" y="214.26" width="0.65" height="0.65"/><circle class="cls-3" cx="329.27" cy="214.58" r="0.32"/><rect class="cls-2" x="337.78" y="220.89" width="1.03" height="1.03"/><circle class="cls-3" cx="338.29" cy="221.41" r="0.51"/><rect class="cls-2" x="344.33" y="216.49" width="0.95" height="0.95"/><circle class="cls-3" cx="344.81" cy="216.97" r="0.47"/><rect class="cls-2" x="336.46" y="204.91" width="0.79" height="0.79"/><circle class="cls-3" cx="336.85" cy="205.31" r="0.39"/><rect class="cls-2" x="341.04" y="204.91" width="1.17" height="1.17"/><circle class="cls-3" cx="341.62" cy="205.5" r="0.59"/><rect class="cls-2" x="342.99" y="198.76" width="1.62" height="1.62"/><circle class="cls-3" cx="343.8" cy="199.57" r="0.81"/><rect class="cls-2" x="352.38" y="205.88" width="1.95" height="1.95"/><circle class="cls-3" cx="353.35" cy="206.85" r="0.97"/><rect class="cls-2" x="353.99" y="201.54" width="1.87" height="1.87"/><circle class="cls-3" cx="354.92" cy="202.48" r="0.94"/><rect class="cls-2" x="350.43" y="194.42" width="1.78" height="1.78"/><circle class="cls-3" cx="351.32" cy="195.31" r="0.89"/><rect class="cls-2" x="360" y="202.3" width="0.67" height="0.67"/><circle class="cls-3" cx="360.34" cy="202.64" r="0.34"/><rect class="cls-2" x="361.13" y="194.64" width="0.82" height="0.82"/><circle class="cls-3" cx="361.54" cy="195.05" r="0.41"/><rect class="cls-2" x="369.54" y="194.43" width="1.03" height="1.03"/><circle class="cls-3" cx="370.06" cy="194.94" r="0.51"/><rect class="cls-2" x="362.8" y="181.92" width="0.93" height="0.93"/><circle class="cls-3" cx="363.26" cy="182.38" r="0.46"/><rect class="cls-2" x="372.52" y="181.97" width="1.1" height="1.1"/><circle class="cls-3" cx="373.07" cy="182.52" r="0.55"/><rect class="cls-2" x="380.81" y="181.27" width="1.47" height="1.47"/><circle class="cls-3" cx="381.55" cy="182.01" r="0.73"/><rect class="cls-2" x="381.4" y="177.46" width="0.65" height="0.65"/><circle class="cls-3" cx="381.72" cy="177.78" r="0.33"/><rect class="cls-2" x="387.06" y="172.7" width="0.84" height="0.84"/><circle class="cls-3" cx="387.48" cy="173.12" r="0.42"/><rect class="cls-2" x="389.17" y="165.11" width="0.57" height="0.57"/><circle class="cls-3" cx="389.45" cy="165.4" r="0.29"/><rect class="cls-2" x="401.42" y="170.62" width="1.16" height="1.16"/><circle class="cls-3" cx="402" cy="171.2" r="0.58"/><rect class="cls-2" x="396.56" y="154.54" width="1.25" height="1.25"/><circle class="cls-3" cx="397.18" cy="155.16" r="0.63"/><rect class="cls-2" x="401.89" y="151.75" width="1.02" height="1.02"/><circle class="cls-3" cx="402.4" cy="152.26" r="0.51"/><rect class="cls-2" x="405.49" y="144.79" width="1.93" height="1.93"/><circle class="cls-3" cx="406.45" cy="145.76" r="0.97"/><rect class="cls-2" x="419.23" y="151.21" width="1.15" height="1.15"/><circle class="cls-3" cx="419.81" cy="151.79" r="0.57"/><rect class="cls-2" x="424.26" y="153.73" width="1.4" height="1.4"/><circle class="cls-3" cx="424.96" cy="154.43" r="0.7"/><rect class="cls-2" x="425.82" y="143.89" width="1.37" height="1.37"/><circle class="cls-3" cx="426.5" cy="144.58" r="0.69"/><rect class="cls-2" x="428.65" y="135.21" width="1.95" height="1.95"/><circle class="cls-3" cx="429.62" cy="136.18" r="0.97"/><rect class="cls-2" x="430.14" y="125.65" width="1.58" height="1.58"/><circle class="cls-3" cx="430.94" cy="126.44" r="0.79"/><rect class="cls-2" x="439.76" y="130.59" width="1.29" height="1.29"/><circle class="cls-3" cx="440.4" cy="131.23" r="0.64"/><rect class="cls-2" x="441.57" y="122.87" width="0.75" height="0.75"/><circle class="cls-3" cx="441.94" cy="123.24" r="0.37"/><rect class="cls-2" x="448.01" y="123.75" width="1.51" height="1.51"/><circle class="cls-3" cx="448.77" cy="124.51" r="0.76"/><rect class="cls-2" x="450.35" y="123.33" width="1.94" height="1.94"/><circle class="cls-3" cx="451.32" cy="124.3" r="0.97"/><rect class="cls-2" x="450.73" y="120.11" width="1.44" height="1.44"/><circle class="cls-3" cx="451.45" cy="120.83" r="0.72"/><rect class="cls-2" x="448.56" y="110.69" width="1.67" height="1.67"/><circle class="cls-3" cx="449.39" cy="111.53" r="0.83"/><rect class="cls-2" x="457.25" y="114" width="1.39" height="1.39"/><circle class="cls-3" cx="457.94" cy="114.7" r="0.69"/><rect class="cls-2" x="465.16" y="120.07" width="1.02" height="1.02"/><circle class="cls-3" cx="465.67" cy="120.58" r="0.51"/><rect class="cls-2" x="460.03" y="104.83" width="1.28" height="1.28"/><circle class="cls-3" cx="460.67" cy="105.47" r="0.64"/><rect class="cls-2" x="464.08" y="108.51" width="1.49" height="1.49"/><circle class="cls-3" cx="464.82" cy="109.26" r="0.75"/><rect class="cls-2" x="465.61" y="102.53" width="0.63" height="0.63"/><circle class="cls-3" cx="465.93" cy="102.85" r="0.32"/><rect class="cls-2" x="465.89" y="97.99" width="0.74" height="0.74"/><circle class="cls-3" cx="466.26" cy="98.36" r="0.37"/><rect class="cls-2" x="471.08" y="92.4" width="1.08" height="1.08"/><circle class="cls-3" cx="471.62" cy="92.94" r="0.54"/><rect class="cls-2" x="480.82" y="101.57" width="1.93" height="1.93"/><circle class="cls-3" cx="481.79" cy="102.53" r="0.96"/><rect class="cls-2" x="477.49" y="94.77" width="1.98" height="1.98"/><circle class="cls-3" cx="478.48" cy="95.76" r="0.99"/><rect class="cls-2" x="476.79" y="88.75" width="0.63" height="0.63"/><circle class="cls-3" cx="477.1" cy="89.07" r="0.31"/><rect class="cls-2" x="487.69" y="92.22" width="0.73" height="0.73"/><circle class="cls-3" cx="488.06" cy="92.59" r="0.37"/><rect class="cls-2" x="485.54" y="86.19" width="1.59" height="1.59"/><circle class="cls-3" cx="486.33" cy="86.98" r="0.8"/><rect class="cls-2" x="498.85" y="92.8" width="1.66" height="1.66"/><circle class="cls-3" cx="499.67" cy="93.63" r="0.83"/><rect class="cls-2" x="496.59" y="85.72" width="1.15" height="1.15"/><circle class="cls-3" cx="497.16" cy="86.3" r="0.58"/><rect class="cls-2" x="494.38" y="74.82" width="1.11" height="1.11"/><circle class="cls-3" cx="494.94" cy="75.38" r="0.56"/><rect class="cls-2" x="505.13" y="79.15" width="1.5" height="1.5"/><circle class="cls-3" cx="505.88" cy="79.9" r="0.75"/><rect class="cls-2" x="509.79" y="76.75" width="0.92" height="0.92"/><circle class="cls-3" cx="510.25" cy="77.21" r="0.46"/><rect class="cls-2" x="507.76" y="66.04" width="1" height="1"/><circle class="cls-3" cx="508.26" cy="66.54" r="0.5"/><rect class="cls-2" x="517.43" y="67.78" width="1.15" height="1.15"/><circle class="cls-3" cx="518" cy="68.35" r="0.57"/><rect class="cls-2" x="516.22" y="60.43" width="1.6" height="1.6"/><circle class="cls-3" cx="517.02" cy="61.23" r="0.8"/><rect class="cls-2" x="524.41" y="58.16" width="1.08" height="1.08"/><circle class="cls-3" cx="524.95" cy="58.7" r="0.54"/><rect class="cls-2" x="528.34" y="58.26" width="1.43" height="1.43"/><circle class="cls-3" cx="529.05" cy="58.97" r="0.71"/><rect class="cls-2" x="527.05" y="50.06" width="1.98" height="1.98"/><circle class="cls-3" cx="528.04" cy="51.05" r="0.99"/><rect class="cls-2" x="540.53" y="58.66" width="1.08" height="1.08"/><circle class="cls-3" cx="541.07" cy="59.2" r="0.54"/><rect class="cls-2" x="540.55" y="55.62" width="1.55" height="1.55"/><circle class="cls-3" cx="541.33" cy="56.39" r="0.78"/><rect class="cls-2" x="539.37" y="48.14" width="1.41" height="1.41"/><circle class="cls-3" cx="540.08" cy="48.84" r="0.7"/><rect class="cls-2" x="549.56" y="55.17" width="1.35" height="1.35"/><circle class="cls-3" cx="550.23" cy="55.84" r="0.68"/><rect class="cls-2" x="552.85" y="49.46" width="1.29" height="1.29"/><circle class="cls-3" cx="553.5" cy="50.11" r="0.65"/><rect class="cls-2" x="547.67" y="36.71" width="0.51" height="0.51"/><circle class="cls-3" cx="547.93" cy="36.96" r="0.26"/><rect class="cls-2" x="555.16" y="44.78" width="0.52" height="0.52"/><circle class="cls-3" cx="555.42" cy="45.04" r="0.26"/><rect class="cls-2" x="562.35" y="44.65" width="0.78" height="0.78"/><circle class="cls-3" cx="562.74" cy="45.04" r="0.39"/><rect class="cls-2" x="562.74" y="33.04" width="1.9" height="1.9"/><circle class="cls-3" cx="563.69" cy="33.99" r="0.95"/><rect class="cls-2" x="566.99" y="34.77" width="1.6" height="1.6"/><circle class="cls-3" cx="567.78" cy="35.56" r="0.8"/><rect class="cls-2" x="574.26" y="36.41" width="1.07" height="1.07"/><circle class="cls-3" cx="574.8" cy="36.94" r="0.54"/><rect class="cls-2" x="569.66" y="25.62" width="0.54" height="0.54"/><circle class="cls-3" cx="569.92" cy="25.88" r="0.27"/><rect class="cls-2" x="573.67" y="26.33" width="1.69" height="1.69"/><circle class="cls-3" cx="574.51" cy="27.17" r="0.84"/><rect class="cls-2" x="571.52" y="19.18" width="1.46" height="1.46"/><circle class="cls-3" cx="572.25" cy="19.91" r="0.73"/><rect class="cls-2" x="572.95" y="13.71" width="1.73" height="1.73"/><circle class="cls-3" cx="573.81" cy="14.57" r="0.86"/><rect class="cls-2" x="585.8" y="21.72" width="0.94" height="0.94"/><circle class="cls-3" cx="586.27" cy="22.19" r="0.47"/><rect class="cls-2" x="592.02" y="18.31" width="1.39" height="1.39"/><circle class="cls-3" cx="592.72" cy="19" r="0.69"/><rect class="cls-2" x="591.26" y="8.2" width="0.89" height="0.89"/><circle class="cls-3" cx="591.71" cy="8.65" r="0.44"/><rect class="cls-2" x="598.13" y="6.68" width="1.43" height="1.43"/><circle class="cls-3" cx="598.84" cy="7.4" r="0.72"/><rect class="cls-2" x="605.03" y="8.26" width="0.91" height="0.91"/><circle class="cls-3" cx="605.48" cy="8.72" r="0.46"/><rect class="cls-2" x="256.3" y="396.56" width="0.76" height="0.76"/><circle class="cls-3" cx="256.68" cy="396.94" r="0.38"/><rect class="cls-2" x="267.07" y="404.28" width="1.44" height="1.44"/><circle class="cls-3" cx="267.79" cy="405" r="0.72"/><rect class="cls-2" x="264.61" y="392.88" width="1.87" height="1.87"/><circle class="cls-3" cx="265.54" cy="393.82" r="0.93"/><rect class="cls-2" x="271.57" y="389.79" width="1.06" height="1.06"/><circle class="cls-3" cx="272.1" cy="390.32" r="0.53"/><rect class="cls-2" x="270.57" y="380.14" width="1.09" height="1.09"/><circle class="cls-3" cx="271.11" cy="380.69" r="0.55"/><rect class="cls-2" x="276.35" y="382.31" width="1.41" height="1.41"/><circle class="cls-3" cx="277.05" cy="383.01" r="0.7"/><rect class="cls-2" x="285.22" y="391.2" width="0.82" height="0.82"/><circle class="cls-3" cx="285.63" cy="391.62" r="0.41"/><rect class="cls-2" x="288.59" y="387.29" width="1.26" height="1.26"/><circle class="cls-3" cx="289.23" cy="387.93" r="0.63"/><rect class="cls-2" x="293.46" y="382.03" width="1.14" height="1.14"/><circle class="cls-3" cx="294.03" cy="382.6" r="0.57"/><rect class="cls-2" x="296.7" y="378.42" width="1.35" height="1.35"/><circle class="cls-3" cx="297.37" cy="379.1" r="0.68"/><rect class="cls-2" x="297.78" y="372.81" width="1.78" height="1.78"/><circle class="cls-3" cx="298.66" cy="373.7" r="0.89"/><rect class="cls-2" x="302.82" y="369.23" width="1.75" height="1.75"/><circle class="cls-3" cx="303.7" cy="370.1" r="0.88"/><rect class="cls-2" x="308.51" y="368.15" width="0.59" height="0.59"/><circle class="cls-3" cx="308.8" cy="368.44" r="0.29"/><rect class="cls-2" x="306.84" y="356.94" width="1.39" height="1.39"/><circle class="cls-3" cx="307.53" cy="357.64" r="0.7"/><rect class="cls-2" x="313.84" y="361.01" width="1.89" height="1.89"/><circle class="cls-3" cx="314.79" cy="361.95" r="0.95"/><rect class="cls-2" x="320.74" y="357.84" width="1.26" height="1.26"/><circle class="cls-3" cx="321.37" cy="358.47" r="0.63"/><rect class="cls-2" x="314.44" y="344.93" width="1.16" height="1.16"/><circle class="cls-3" cx="315.02" cy="345.51" r="0.58"/><rect class="cls-2" x="322.43" y="348.61" width="0.68" height="0.68"/><circle class="cls-3" cx="322.77" cy="348.95" r="0.34"/><rect class="cls-2" x="321.11" y="336.42" width="0.55" height="0.55"/><circle class="cls-3" cx="321.39" cy="336.69" r="0.28"/><rect class="cls-2" x="325.17" y="338.41" width="1.37" height="1.37"/><circle class="cls-3" cx="325.85" cy="339.09" r="0.69"/><rect class="cls-2" x="334.98" y="339.47" width="0.94" height="0.94"/><circle class="cls-3" cx="335.45" cy="339.94" r="0.47"/><rect class="cls-2" x="334.27" y="333.2" width="0.7" height="0.7"/><circle class="cls-3" cx="334.62" cy="333.55" r="0.35"/><rect class="cls-2" x="335.54" y="325.58" width="1.16" height="1.16"/><circle class="cls-3" cx="336.12" cy="326.17" r="0.58"/><rect class="cls-2" x="345.95" y="328.42" width="1.76" height="1.76"/><circle class="cls-3" cx="346.83" cy="329.3" r="0.88"/><rect class="cls-2" x="355.41" y="328.49" width="0.7" height="0.7"/><circle class="cls-3" cx="355.76" cy="328.84" r="0.35"/><rect class="cls-2" x="353.7" y="321.82" width="1.09" height="1.09"/><circle class="cls-3" cx="354.25" cy="322.37" r="0.55"/><rect class="cls-2" x="355.75" y="313.3" width="1.75" height="1.75"/><circle class="cls-3" cx="356.62" cy="314.18" r="0.88"/><rect class="cls-2" x="366.24" y="317.16" width="0.64" height="0.64"/><circle class="cls-3" cx="366.56" cy="317.48" r="0.32"/><rect class="cls-2" x="368.04" y="313.58" width="0.87" height="0.87"/><circle class="cls-3" cx="368.48" cy="314.02" r="0.44"/><rect class="cls-2" x="364.57" y="305.76" width="0.56" height="0.56"/><circle class="cls-3" cx="364.85" cy="306.04" r="0.28"/><rect class="cls-2" x="372.41" y="310.87" width="0.71" height="0.71"/><circle class="cls-3" cx="372.77" cy="311.22" r="0.36"/><rect class="cls-2" x="364.58" y="298.95" width="1.56" height="1.56"/><circle class="cls-3" cx="365.36" cy="299.73" r="0.78"/><rect class="cls-2" x="376.9" y="302.85" width="1.12" height="1.12"/><circle class="cls-3" cx="377.45" cy="303.41" r="0.56"/><rect class="cls-2" x="379.83" y="296.25" width="1.55" height="1.55"/><circle class="cls-3" cx="380.6" cy="297.03" r="0.77"/><rect class="cls-2" x="384.76" y="290.94" width="1.99" height="1.99"/><circle class="cls-3" cx="385.75" cy="291.94" r="1"/><rect class="cls-2" x="385.41" y="289.37" width="0.62" height="0.62"/><circle class="cls-3" cx="385.72" cy="289.69" r="0.31"/><rect class="cls-2" x="393.44" y="289.34" width="1.9" height="1.9"/><circle class="cls-3" cx="394.39" cy="290.29" r="0.95"/><rect class="cls-2" x="400.71" y="287.71" width="0.7" height="0.7"/><circle class="cls-3" cx="401.06" cy="288.06" r="0.35"/><rect class="cls-2" x="397.26" y="276.42" width="1.07" height="1.07"/><circle class="cls-3" cx="397.8" cy="276.96" r="0.53"/><rect class="cls-2" x="410.18" y="284.53" width="1.57" height="1.57"/><circle class="cls-3" cx="410.97" cy="285.32" r="0.79"/><rect class="cls-2" x="407.17" y="270.26" width="1.15" height="1.15"/><circle class="cls-3" cx="407.75" cy="270.83" r="0.57"/><rect class="cls-2" x="407.38" y="267.52" width="0.91" height="0.91"/><circle class="cls-3" cx="407.84" cy="267.97" r="0.45"/><rect class="cls-2" x="410.89" y="269.87" width="0.87" height="0.87"/><circle class="cls-3" cx="411.33" cy="270.31" r="0.44"/><rect class="cls-2" x="421.07" y="274.85" width="0.51" height="0.51"/><circle class="cls-3" cx="421.32" cy="275.1" r="0.25"/><rect class="cls-2" x="418.99" y="267.98" width="1.83" height="1.83"/><circle class="cls-3" cx="419.91" cy="268.89" r="0.92"/><rect class="cls-2" x="427.45" y="268.63" width="1.04" height="1.04"/><circle class="cls-3" cx="427.97" cy="269.15" r="0.52"/><rect class="cls-2" x="426.93" y="258.61" width="0.99" height="0.99"/><circle class="cls-3" cx="427.43" cy="259.11" r="0.49"/><rect class="cls-2" x="424.48" y="250.72" width="1.57" height="1.57"/><circle class="cls-3" cx="425.26" cy="251.51" r="0.79"/><rect class="cls-2" x="432.78" y="252.22" width="0.78" height="0.78"/><circle class="cls-3" cx="433.17" cy="252.61" r="0.39"/><rect class="cls-2" x="430.82" y="243.7" width="1.67" height="1.67"/><circle class="cls-3" cx="431.66" cy="244.54" r="0.83"/><rect class="cls-2" x="448.75" y="253.4" width="0.96" height="0.96"/><circle class="cls-3" cx="449.23" cy="253.88" r="0.48"/><rect class="cls-2" x="440.28" y="235.58" width="1.67" height="1.67"/><circle class="cls-3" cx="441.12" cy="236.42" r="0.84"/><rect class="cls-2" x="449.86" y="237.25" width="0.89" height="0.89"/><circle class="cls-3" cx="450.3" cy="237.69" r="0.44"/><rect class="cls-2" x="462.03" y="242.05" width="1.32" height="1.32"/><circle class="cls-3" cx="462.69" cy="242.71" r="0.66"/><rect class="cls-2" x="455.05" y="224.47" width="1.16" height="1.16"/><circle class="cls-3" cx="455.63" cy="225.05" r="0.58"/><rect class="cls-2" x="459.11" y="225.32" width="1.48" height="1.48"/><circle class="cls-3" cx="459.85" cy="226.06" r="0.74"/><rect class="cls-2" x="469.54" y="228.39" width="1.92" height="1.92"/><circle class="cls-3" cx="470.5" cy="229.35" r="0.96"/><rect class="cls-2" x="473.03" y="221.39" width="0.8" height="0.8"/><circle class="cls-3" cx="473.43" cy="221.79" r="0.4"/><rect class="cls-2" x="473.7" y="215.08" width="0.92" height="0.92"/><circle class="cls-3" cx="474.16" cy="215.54" r="0.46"/><rect class="cls-2" x="488" y="221.46" width="1.2" height="1.2"/><circle class="cls-3" cx="488.6" cy="222.06" r="0.6"/><rect class="cls-2" x="481.54" y="203.5" width="0.61" height="0.61"/><circle class="cls-3" cx="481.84" cy="203.8" r="0.3"/><rect class="cls-2" x="246.77" y="408.83" width="1.4" height="1.4"/><circle class="cls-3" cx="247.47" cy="409.53" r="0.7"/><rect class="cls-2" x="252.07" y="397.6" width="1.6" height="1.6"/><circle class="cls-3" cx="252.87" cy="398.4" r="0.8"/><rect class="cls-2" x="265.56" y="401.33" width="0.88" height="0.88"/><circle class="cls-3" cx="265.99" cy="401.77" r="0.44"/><rect class="cls-2" x="269.64" y="388.31" width="2.21" height="2.21"/><circle class="cls-3" cx="270.75" cy="389.42" r="1.1"/><rect class="cls-2" x="282.72" y="391.39" width="1.76" height="1.76"/><circle class="cls-3" cx="283.6" cy="392.27" r="0.88"/><rect class="cls-2" x="289.2" y="382.68" width="2.64" height="2.64"/><circle class="cls-3" cx="290.52" cy="384" r="1.32"/><rect class="cls-2" x="303.54" y="386.47" width="1.57" height="1.57"/><circle class="cls-3" cx="304.32" cy="387.26" r="0.79"/><rect class="cls-2" x="312.53" y="381.8" width="1.21" height="1.21"/><circle class="cls-3" cx="313.13" cy="382.41" r="0.6"/><rect class="cls-2" x="316.06" y="369.35" width="1.03" height="1.03"/><circle class="cls-3" cx="316.57" cy="369.86" r="0.52"/><rect class="cls-2" x="326.87" y="367.46" width="1.43" height="1.43"/><circle class="cls-3" cx="327.59" cy="368.17" r="0.71"/><rect class="cls-2" x="337.94" y="365.72" width="0.84" height="0.84"/><circle class="cls-3" cx="338.36" cy="366.14" r="0.42"/><rect class="cls-2" x="337.88" y="348.23" width="1.15" height="1.15"/><circle class="cls-3" cx="338.45" cy="348.8" r="0.57"/><rect class="cls-2" x="354.38" y="352.92" width="1.61" height="1.61"/><circle class="cls-3" cx="355.19" cy="353.73" r="0.81"/><rect class="cls-2" x="354.66" y="338.27" width="2.27" height="2.27"/><circle class="cls-3" cx="355.8" cy="339.41" r="1.14"/><rect class="cls-2" x="365.54" y="335.45" width="2.46" height="2.46"/><circle class="cls-3" cx="366.77" cy="336.68" r="1.23"/><rect class="cls-2" x="370.88" y="326.33" width="1.03" height="1.03"/><circle class="cls-3" cx="371.4" cy="326.85" r="0.51"/><rect class="cls-2" x="373.83" y="314.63" width="1.14" height="1.14"/><circle class="cls-3" cx="374.4" cy="315.2" r="0.57"/><rect class="cls-2" x="388.36" y="315.9" width="1.41" height="1.41"/><circle class="cls-3" cx="389.07" cy="316.61" r="0.7"/><rect class="cls-2" x="395.2" y="308.31" width="1.93" height="1.93"/><circle class="cls-3" cx="396.16" cy="309.27" r="0.96"/><rect class="cls-2" x="398.98" y="298.14" width="1.95" height="1.95"/><circle class="cls-3" cx="399.95" cy="299.12" r="0.98"/><rect class="cls-2" x="414.33" y="298.83" width="1.61" height="1.61"/><circle class="cls-3" cx="415.13" cy="299.64" r="0.81"/><rect class="cls-2" x="408.26" y="279.43" width="2.17" height="2.17"/><circle class="cls-3" cx="409.34" cy="280.51" r="1.08"/><rect class="cls-2" x="428.35" y="284.59" width="1.03" height="1.03"/><circle class="cls-3" cx="428.87" cy="285.1" r="0.52"/><rect class="cls-2" x="427.85" y="270.36" width="2.72" height="2.72"/><circle class="cls-3" cx="429.21" cy="271.72" r="1.36"/><rect class="cls-2" x="437.28" y="265.54" width="2.55" height="2.55"/><circle class="cls-3" cx="438.55" cy="266.82" r="1.28"/><rect class="cls-2" x="442.33" y="256.56" width="1.91" height="1.91"/><circle class="cls-3" cx="443.29" cy="257.51" r="0.95"/><rect class="cls-2" x="444.79" y="245.09" width="1.57" height="1.57"/><circle class="cls-3" cx="445.57" cy="245.87" r="0.79"/><rect class="cls-2" x="452.62" y="238.1" width="2.66" height="2.66"/><circle class="cls-3" cx="453.95" cy="239.44" r="1.33"/><rect class="cls-2" x="463.43" y="235.24" width="0.89" height="0.89"/><circle class="cls-3" cx="463.87" cy="235.68" r="0.45"/><rect class="cls-2" x="470.79" y="228.64" width="2.94" height="2.94"/><circle class="cls-3" cx="472.25" cy="230.11" r="1.47"/><rect class="cls-2" x="473.6" y="216.45" width="2.58" height="2.58"/><circle class="cls-3" cx="474.89" cy="217.74" r="1.29"/><rect class="cls-2" x="485.66" y="215.13" width="1.53" height="1.53"/><circle class="cls-3" cx="486.43" cy="215.9" r="0.77"/><rect class="cls-2" x="292.73" y="265.32" width="0.97" height="0.97"/><circle class="cls-3" cx="293.21" cy="265.8" r="0.48"/><rect class="cls-2" x="303.64" y="263.06" width="1.6" height="1.6"/><circle class="cls-3" cx="304.44" cy="263.86" r="0.8"/><rect class="cls-2" x="310" y="255.08" width="2.31" height="2.31"/><circle class="cls-3" cx="311.15" cy="256.23" r="1.15"/><rect class="cls-2" x="310.25" y="239.25" width="1.72" height="1.72"/><circle class="cls-3" cx="311.11" cy="240.11" r="0.86"/><rect class="cls-2" x="325" y="241.85" width="2.58" height="2.58"/><circle class="cls-3" cx="326.3" cy="243.14" r="1.29"/><rect class="cls-2" x="324.31" y="224.96" width="2.91" height="2.91"/><circle class="cls-3" cx="325.77" cy="226.41" r="1.46"/><rect class="cls-2" x="335.99" y="223.32" width="0.89" height="0.89"/><circle class="cls-3" cx="336.43" cy="223.76" r="0.44"/><rect class="cls-2" x="344.31" y="217.78" width="1.44" height="1.44"/><circle class="cls-3" cx="345.03" cy="218.5" r="0.72"/><rect class="cls-2" x="358.36" y="219.34" width="1.04" height="1.04"/><circle class="cls-3" cx="358.89" cy="219.86" r="0.52"/><rect class="cls-2" x="359.1" y="204.17" width="0.79" height="0.79"/><circle class="cls-3" cx="359.49" cy="204.56" r="0.39"/><rect class="cls-2" x="365.24" y="195.97" width="1.89" height="1.89"/><circle class="cls-3" cx="366.19" cy="196.91" r="0.94"/><rect class="cls-2" x="371.18" y="187.45" width="2.61" height="2.61"/><circle class="cls-3" cx="372.48" cy="188.76" r="1.3"/><rect class="cls-2" x="390.42" y="195.36" width="0.89" height="0.89"/><circle class="cls-3" cx="390.86" cy="195.8" r="0.44"/><rect class="cls-2" x="395.33" y="185.54" width="1.46" height="1.46"/><circle class="cls-3" cx="396.06" cy="186.27" r="0.73"/><rect class="cls-2" x="400.52" y="176.11" width="2.3" height="2.3"/><circle class="cls-3" cx="401.67" cy="177.26" r="1.15"/><rect class="cls-2" x="412.37" y="174.78" width="0.92" height="0.92"/><circle class="cls-3" cx="412.84" cy="175.24" r="0.46"/><rect class="cls-2" x="419.71" y="168.17" width="2.75" height="2.75"/><circle class="cls-3" cx="421.08" cy="169.54" r="1.38"/><rect class="cls-2" x="423.31" y="156.63" width="2.73" height="2.73"/><circle class="cls-3" cx="424.68" cy="157.99" r="1.36"/><rect class="cls-2" x="433.73" y="153.63" width="2.46" height="2.46"/><circle class="cls-3" cx="434.96" cy="154.86" r="1.23"/><rect class="cls-2" x="439.33" y="144.52" width="1.79" height="1.79"/><circle class="cls-3" cx="440.23" cy="145.42" r="0.9"/><rect class="cls-2" x="452.18" y="144.08" width="1.25" height="1.25"/><circle class="cls-3" cx="452.8" cy="144.71" r="0.63"/><rect class="cls-2" x="457.42" y="134.89" width="1.47" height="1.47"/><circle class="cls-3" cx="458.16" cy="135.62" r="0.74"/><rect class="cls-2" x="467.57" y="131.31" width="1.19" height="1.19"/><circle class="cls-3" cx="468.17" cy="131.9" r="0.59"/><rect class="cls-2" x="468.03" y="116.69" width="2.72" height="2.72"/><circle class="cls-3" cx="469.39" cy="118.05" r="1.36"/><rect class="cls-2" x="477.33" y="112.07" width="1.6" height="1.6"/><circle class="cls-3" cx="478.13" cy="112.87" r="0.8"/><rect class="cls-2" x="479.38" y="99.28" width="2.97" height="2.97"/><circle class="cls-3" cx="480.87" cy="100.77" r="1.49"/><rect class="cls-2" x="495.68" y="102.72" width="1.96" height="1.96"/><circle class="cls-3" cx="496.66" cy="103.7" r="0.98"/><rect class="cls-2" x="505.92" y="99.19" width="0.91" height="0.91"/><circle class="cls-3" cx="506.37" cy="99.64" r="0.45"/><rect class="cls-2" x="506.38" y="84.49" width="1.33" height="1.33"/><circle class="cls-3" cx="507.05" cy="85.16" r="0.67"/><rect class="cls-2" x="513.2" y="77.21" width="2.95" height="2.95"/><circle class="cls-3" cx="514.67" cy="78.68" r="1.47"/><rect class="cls-2" x="525.63" y="76.19" width="1.74" height="1.74"/><circle class="cls-3" cx="526.5" cy="77.06" r="0.87"/><rect class="cls-2" x="531.63" y="67.92" width="2.76" height="2.76"/><circle class="cls-3" cx="533.01" cy="69.3" r="1.38"/><rect class="cls-2" x="541.2" y="63.65" width="2.17" height="2.17"/><circle class="cls-3" cx="542.28" cy="64.73" r="1.08"/><rect class="cls-2" x="545.44" y="53.3" width="2.45" height="2.45"/><circle class="cls-3" cx="546.66" cy="54.52" r="1.22"/><rect class="cls-2" x="547.22" y="39.99" width="1.15" height="1.15"/><circle class="cls-3" cx="547.79" cy="40.56" r="0.57"/><rect class="cls-2" x="560.08" y="39.65" width="2.29" height="2.29"/><circle class="cls-3" cx="561.23" cy="40.79" r="1.15"/><rect class="cls-2" x="572.05" y="38.14" width="1.81" height="1.81"/><circle class="cls-3" cx="572.96" cy="39.05" r="0.9"/><rect class="cls-2" x="576.63" y="28.2" width="2.18" height="2.18"/><circle class="cls-3" cx="577.73" cy="29.29" r="1.09"/><rect class="cls-2" x="583.81" y="21.15" width="1.53" height="1.53"/><circle class="cls-3" cx="584.57" cy="21.92" r="0.76"/><rect class="cls-2" x="590.44" y="13.6" width="2.29" height="2.29"/><circle class="cls-3" cx="591.58" cy="14.74" r="1.15"/><rect class="cls-2" x="591.88" width="2.32" height="2.32"/><circle class="cls-3" cx="593.04" cy="1.16" r="1.16"/><rect class="cls-2" x="146.8" y="257.33" width="1.96" height="1.96"/><circle class="cls-3" cx="147.78" cy="258.31" r="0.98"/><rect class="cls-2" x="159.87" y="257.3" width="2.38" height="2.38"/><circle class="cls-3" cx="161.06" cy="258.48" r="1.19"/><rect class="cls-2" x="169.12" y="252.65" width="1.54" height="1.54"/><circle class="cls-3" cx="169.88" cy="253.42" r="0.77"/><rect class="cls-2" x="169.94" y="238.16" width="1.15" height="1.15"/><circle class="cls-3" cx="170.51" cy="238.73" r="0.57"/><rect class="cls-2" x="181.36" y="236.18" width="1.57" height="1.57"/><circle class="cls-3" cx="182.15" cy="236.97" r="0.79"/><rect class="cls-2" x="192.2" y="233.5" width="1.66" height="1.66"/><circle class="cls-3" cx="193.03" cy="234.33" r="0.83"/><rect class="cls-2" x="191.48" y="217.28" width="2.38" height="2.38"/><circle class="cls-3" cx="192.67" cy="218.48" r="1.19"/><rect class="cls-2" x="207.41" y="220.63" width="2.94" height="2.94"/><circle class="cls-3" cx="208.88" cy="222.1" r="1.47"/><rect class="cls-2" x="217.3" y="216.76" width="2.26" height="2.26"/><circle class="cls-3" cx="218.44" cy="217.89" r="1.13"/><rect class="cls-2" x="224.49" y="209.81" width="2.68" height="2.68"/><circle class="cls-3" cx="225.83" cy="211.15" r="1.34"/><rect class="cls-2" x="223.92" y="193.71" width="2.71" height="2.71"/><circle class="cls-3" cx="225.27" cy="195.07" r="1.35"/><rect class="cls-2" x="229.87" y="185.23" width="2.15" height="2.15"/><circle class="cls-3" cx="230.95" cy="186.31" r="1.08"/><rect class="cls-2" x="243.74" y="186.1" width="2.19" height="2.19"/><circle class="cls-3" cx="244.84" cy="187.2" r="1.09"/><rect class="cls-2" x="247.22" y="174.77" width="2.28" height="2.28"/><circle class="cls-3" cx="248.36" cy="175.9" r="1.14"/><rect class="cls-2" x="257.25" y="171.03" width="1.22" height="1.22"/><circle class="cls-3" cx="257.86" cy="171.64" r="0.61"/><rect class="cls-2" x="261.95" y="161.15" width="1.46" height="1.46"/><circle class="cls-3" cx="262.68" cy="161.88" r="0.73"/><rect class="cls-2" x="276.28" y="162.66" width="2.6" height="2.6"/><circle class="cls-3" cx="277.58" cy="163.96" r="1.3"/><rect class="cls-2" x="280.82" y="152.58" width="2.94" height="2.94"/><circle class="cls-3" cx="282.29" cy="154.06" r="1.47"/><rect class="cls-2" x="286.47" y="143.75" width="2.35" height="2.35"/><circle class="cls-3" cx="287.65" cy="144.93" r="1.18"/><rect class="cls-2" x="292.24" y="134.99" width="1.1" height="1.1"/><circle class="cls-3" cx="292.79" cy="135.54" r="0.55"/><rect class="cls-2" x="299.1" y="127.61" width="0.9" height="0.9"/><circle class="cls-3" cx="299.56" cy="128.06" r="0.45"/><rect class="cls-2" x="312.86" y="128.36" width="1.1" height="1.1"/><circle class="cls-3" cx="313.41" cy="128.91" r="0.55"/><rect class="cls-2" x="315.92" y="116.56" width="1.48" height="1.48"/><circle class="cls-3" cx="316.66" cy="117.3" r="0.74"/><rect class="cls-2" x="327.66" y="114.89" width="1.13" height="1.13"/><circle class="cls-3" cx="328.22" cy="115.45" r="0.56"/><rect class="cls-2" x="330.95" y="103.3" width="2.51" height="2.51"/><circle class="cls-3" cx="332.21" cy="104.56" r="1.26"/><rect class="cls-2" x="335.99" y="93.66" width="2.79" height="2.79"/><circle class="cls-3" cx="337.39" cy="95.05" r="1.39"/><rect class="cls-2" x="352.16" y="98.48" width="0.91" height="0.91"/><circle class="cls-3" cx="352.62" cy="98.93" r="0.45"/><rect class="cls-2" x="362.93" y="97" width="1.01" height="1.01"/><circle class="cls-3" cx="363.44" cy="97.51" r="0.5"/><rect class="cls-2" x="367.85" y="88.02" width="2.04" height="2.04"/><circle class="cls-3" cx="368.86" cy="89.03" r="1.02"/><rect class="cls-2" x="376.43" y="80.16" width="0.97" height="0.97"/><circle class="cls-3" cx="376.92" cy="80.64" r="0.49"/><rect class="cls-2" x="388.95" y="88.54" width="1.46" height="1.46"/><circle class="cls-3" cx="389.68" cy="89.27" r="0.73"/><rect class="cls-2" x="265.14" y="404.16" width="1.64" height="1.64"/><circle class="cls-3" cx="265.96" cy="404.97" r="0.82"/><rect class="cls-2" x="273.21" y="398.03" width="1.88" height="1.88"/><circle class="cls-3" cx="274.15" cy="398.97" r="0.94"/><rect class="cls-2" x="277.67" y="384.83" width="2.51" height="2.51"/><circle class="cls-3" cx="278.92" cy="386.09" r="1.25"/><rect class="cls-2" x="288.06" y="383.28" width="2.49" height="2.49"/><circle class="cls-3" cx="289.31" cy="384.52" r="1.25"/><rect class="cls-2" x="302.07" y="388.74" width="1.95" height="1.95"/><circle class="cls-3" cx="303.04" cy="389.71" r="0.97"/><rect class="cls-2" x="302.42" y="371" width="2.6" height="2.6"/><circle class="cls-3" cx="303.72" cy="372.3" r="1.3"/><rect class="cls-2" x="320.96" y="378.7" width="2.61" height="2.61"/><circle class="cls-3" cx="322.26" cy="380.01" r="1.3"/><rect class="cls-2" x="318.39" y="358.84" width="1.87" height="1.87"/><circle class="cls-3" cx="319.32" cy="359.77" r="0.93"/><rect class="cls-2" x="331.23" y="359.3" width="2.92" height="2.92"/><circle class="cls-3" cx="332.69" cy="360.76" r="1.46"/><rect class="cls-2" x="340.32" y="354.44" width="1.14" height="1.14"/><circle class="cls-3" cx="340.89" cy="355.02" r="0.57"/><rect class="cls-2" x="346.15" y="345.95" width="1.93" height="1.93"/><circle class="cls-3" cx="347.12" cy="346.91" r="0.97"/><rect class="cls-2" x="350.27" y="335.82" width="1.66" height="1.66"/><circle class="cls-3" cx="351.1" cy="336.65" r="0.83"/><rect class="cls-2" x="363.79" y="335.41" width="1.05" height="1.05"/><circle class="cls-3" cx="364.32" cy="335.93" r="0.52"/><rect class="cls-2" x="365.2" y="322.5" width="1.92" height="1.92"/><circle class="cls-3" cx="366.16" cy="323.46" r="0.96"/><rect class="cls-2" x="377.46" y="320.62" width="2.82" height="2.82"/><circle class="cls-3" cx="378.87" cy="322.03" r="1.41"/><rect class="cls-2" x="386.77" y="315.72" width="2.18" height="2.18"/><circle class="cls-3" cx="387.86" cy="316.81" r="1.09"/><rect class="cls-2" x="382.17" y="297.39" width="1.56" height="1.56"/><circle class="cls-3" cx="382.95" cy="298.17" r="0.78"/><rect class="cls-2" x="401.37" y="302.02" width="2.11" height="2.11"/><circle class="cls-3" cx="402.43" cy="303.07" r="1.05"/><rect class="cls-2" x="406.98" y="293.55" width="1.15" height="1.15"/><circle class="cls-3" cx="407.56" cy="294.13" r="0.58"/><rect class="cls-2" x="406.82" y="279.21" width="1.36" height="1.36"/><circle class="cls-3" cx="407.51" cy="279.89" r="0.68"/><rect class="cls-2" x="420.83" y="279.43" width="2.98" height="2.98"/><circle class="cls-3" cx="422.32" cy="280.92" r="1.49"/><rect class="cls-2" x="418.46" y="262.44" width="1.37" height="1.37"/><circle class="cls-3" cx="419.15" cy="263.13" r="0.69"/><rect class="cls-2" x="435.77" y="266.1" width="1.91" height="1.91"/><circle class="cls-3" cx="436.73" cy="267.05" r="0.95"/><rect class="cls-2" x="433.73" y="249.48" width="1.6" height="1.6"/><circle class="cls-3" cx="434.54" cy="250.28" r="0.8"/><rect class="cls-2" x="445.21" y="246.73" width="2.46" height="2.46"/><circle class="cls-3" cx="446.44" cy="247.96" r="1.23"/><rect class="cls-2" x="455.05" y="242.93" width="0.99" height="0.99"/><circle class="cls-3" cx="455.55" cy="243.43" r="0.5"/><rect class="cls-2" x="466.34" y="241.35" width="1.23" height="1.23"/><circle class="cls-3" cx="466.96" cy="241.96" r="0.61"/><rect class="cls-2" x="467.39" y="226.14" width="1.38" height="1.38"/><circle class="cls-3" cx="468.08" cy="226.83" r="0.69"/><rect class="cls-2" x="475.92" y="220.74" width="0.8" height="0.8"/><circle class="cls-3" cx="476.31" cy="221.14" r="0.4"/></g></g></g></svg>