<svg xmlns="http://www.w3.org/2000/svg" viewBox="0 0 144.22 635.44"><defs><style>.cls-1{fill:#ecc6ff;}.cls-2{fill:#ecdeff;}</style></defs><title>アセット 6</title><g id="レイヤー_2" data-name="レイヤー 2"><g id="背景のアニメーション"><path class="cls-1" d="M94.94,540.5c10-10,70.09,22.83,41.74,22.83,28.35,0-31.72,32.86-41.74,22.83,10,10-22.83,70.1-22.83,41.75,0,28.35-32.85-31.72-22.83-41.75-10,10-70.1-22.83-41.75-22.83-28.35,0,31.73-32.85,41.75-22.83-10-10,22.83-70.09,22.83-41.74C72.11,470.41,105,530.48,94.94,540.5Z"/><circle class="cls-2" cx="72.11" cy="400.67" r="2"/><circle class="cls-2" cx="72.11" cy="301" r="2"/><circle class="cls-2" cx="72.11" cy="201.33" r="2"/><circle class="cls-2" cx="72.11" cy="101.67" r="2"/><circle class="cls-2" cx="72.11" cy="2" r="2"/></g></g></svg>