<?xml version="1.0" encoding="utf-8"?>
<!-- Generator: Adobe Illustrator 24.0.0, SVG Export Plug-In . SVG Version: 6.00 Build 0)  -->
<svg version="1.1" xmlns="http://www.w3.org/2000/svg" xmlns:xlink="http://www.w3.org/1999/xlink" x="0px" y="0px"
	 viewBox="0 0 3813 1376" style="enable-background:new 0 0 3813 1376;" xml:space="preserve">
<style type="text/css">
	.st0{fill:none;stroke:#FF8BC5;stroke-width:37;stroke-miterlimit:10;}
	.st1{fill:#8B0069;}
	.st2{fill:none;stroke:#FF8BC5;stroke-width:40;stroke-miterlimit:10;}
	.st3{fill:none;stroke:#F2F300;stroke-width:40;stroke-miterlimit:10;}
	.st4{fill:#FFFFC8;}
	.st5{fill:#F5FF00;stroke:#F2F35B;stroke-width:52;stroke-miterlimit:10;}
</style>
<g id="レイヤー_2">
</g>
<g id="レイヤー_1">
	<g>
		<g>
			<path d="M82.67,609.23l-6.65-7.56c-3.89-4.44-5.68-9.8-5.35-16.09c0.33-6.28,2.61-11.61,6.85-15.97
				c8.34-8.38,16.13-17.09,23.36-26.11c1.36-1.99,1.64-3.92,0.82-5.8c-2.74-6.9-7.68-18.56-14.85-34.97
				c-0.51-1.17-1.14-1.32-1.87-0.44c-1.99,3.11-4.81,4.97-8.45,5.58c-3.64,0.62-7.07-0.19-10.27-2.42
				c-5.84-4.42-18.33-13.21-37.47-26.35c-5.1-3.36-8.24-7.98-9.42-13.9c-1.18-5.9-0.1-11.4,3.27-16.5l3.34-4.81
				c3.12-4.99,7.64-8.08,13.54-9.26c5.9-1.18,11.4-0.09,16.5,3.27c0.1,0.24,0.32,0.42,0.66,0.55c0.33,0.14,0.56,0.32,0.66,0.55
				c0.33,0.14,0.66,0.07,0.96-0.21c0.3-0.27,0.35-0.64,0.14-1.11l-13.51-30.95c-2.35-5.39-2.41-10.95-0.16-16.68
				c2.25-5.72,6.06-9.76,11.46-12.12l96.36-42.07c2.11-0.92,2.76-2.32,1.94-4.2l-0.31-0.7c-2.35-5.39-2.44-10.87-0.26-16.43
				c2.18-5.56,5.96-9.51,11.36-11.87l16.18-7.06c5.39-2.35,10.92-2.46,16.6-0.34c5.67,2.13,9.69,5.89,12.04,11.28l0.31,0.7
				c0.82,1.88,2.16,2.41,4.04,1.58l89.33-39c5.39-2.35,10.95-2.4,16.68-0.16c5.73,2.25,9.77,6.07,12.12,11.46l2.61,5.98
				c2.36,5.4,2.38,10.89,0.09,16.5c-2.3,5.61-6.14,9.59-11.53,11.94L109.94,408.9c-1.88,0.82-2.35,2.28-1.43,4.39l39.77,91.09
				c16.07,36.81,26.3,67.59,30.68,92.33c4.38,24.75,4.11,49.08-0.79,73c-1.11,5.78-4.28,10.03-9.51,12.74
				c-5.24,2.71-10.67,3.05-16.29,1.04l-16.72-5.68c-5.86-1.91-10.22-5.66-13.08-11.25c-2.86-5.59-3.5-11.38-1.93-17.37
				c3.25-16.21,3.72-31.77,1.4-46.67c-0.08-0.8-0.56-1.29-1.47-1.45c-0.91-0.16-1.5,0.1-1.76,0.77c-2.93,3.52-5.25,6.2-6.95,8.06
				c-3.9,4.5-8.77,6.62-14.6,6.37C91.42,616.02,86.56,613.68,82.67,609.23z M283.01,398.66c-1.88,0.82-2.35,2.28-1.43,4.39
				l4.61,10.55c0.92,2.11,2.32,2.76,4.2,1.94L347,390.82c5.39-2.35,10.92-2.47,16.6-0.34c5.67,2.13,9.69,5.89,12.04,11.28
				l51.74,118.52c9.31,21.33,12.77,35.81,10.37,43.42c-2.4,7.61-12.75,15.4-31.03,23.39c-7.03,3.07-18.09,7.48-33.17,13.22
				c-5.73,2.22-11.46,2.21-17.18-0.04c-5.73-2.25-10.05-6.08-12.98-11.5l-2.15-4.92c-2.83-5.19-3.15-10.41-0.99-15.69
				c2.16-5.27,5.88-8.91,11.14-10.93c1.64-0.71,3.54-1.48,5.7-2.28c2.16-0.8,3.8-1.38,4.9-1.72c1.11-0.34,2.13-0.72,3.07-1.13
				c5.39-2.35,8.29-4.18,8.71-5.48c0.41-1.29-0.71-4.99-3.37-11.09l-4.45-10.2c-0.2-0.47-0.65-0.69-1.34-0.67
				c-0.69,0.03-1.1,0.21-1.23,0.54c-2.35,5.49-6.16,9.39-11.44,11.69c-5.28,2.3-10.73,2.45-16.35,0.44
				c-8.56-2.96-16.84-5.63-24.85-8c-2.15-0.45-3.29,0.46-3.41,2.74c-1.9,12.28-4.58,23.08-8.05,32.4
				c-2.25,5.73-6.18,9.68-11.79,11.85c-5.61,2.18-11.22,1.97-16.81-0.62l-16.94-8.1c-0.44-0.36-0.84-0.32-1.21,0.11
				c-0.37,0.44-0.45,0.89-0.24,1.36l22.72,52.05c2.35,5.39,2.38,10.89,0.09,16.5c-2.3,5.61-6.14,9.59-11.54,11.94l-13.36,5.83
				c-5.4,2.36-10.87,2.44-16.42,0.26c-5.56-2.18-9.51-5.97-11.87-11.36L157.6,496.96c-2.35-5.39-2.44-10.87-0.26-16.42
				c2.18-5.56,5.96-9.51,11.36-11.87l60.49-26.41c1.87-0.82,2.35-2.28,1.43-4.39l-4.61-10.55c-0.92-2.11-2.32-2.75-4.2-1.94
				l-60.49,26.41c-5.4,2.36-10.95,2.41-16.68,0.16c-5.73-2.24-9.76-6.06-12.12-11.46l-1.38-3.17c-2.35-5.39-2.39-10.89-0.09-16.5
				c2.29-5.61,6.14-9.59,11.53-11.94l182.88-79.84c5.39-2.35,10.92-2.47,16.6-0.34c5.67,2.13,9.69,5.89,12.04,11.28l1.38,3.17
				c2.36,5.4,2.41,10.96,0.16,16.68c-2.25,5.73-6.07,9.77-11.46,12.12L283.01,398.66z M243.48,544.05
				c8.11-17.22,9.95-36.02,5.52-56.42c-0.08-0.8-0.56-1.43-1.45-1.88c-0.9-0.45-1.69-0.52-2.39-0.21l-21.81,9.52
				c-1.88,0.82-2.35,2.28-1.43,4.39l19.35,44.31c0.21,0.47,0.59,0.72,1.16,0.75C242.99,544.55,243.34,544.39,243.48,544.05z
				 M305.99,458.98c-1.88,0.82-2.59,2.39-2.14,4.7c0.28,1.28,0.67,3.13,1.17,5.56c0.5,2.44,0.89,4.29,1.17,5.56
				c0.45,2.32,1.75,3.7,3.91,4.16c11.67,2.44,23.99,5.72,36.95,9.83c2.15,0.46,2.82-0.25,2-2.13l-15.66-35.87
				c-0.92-2.11-2.44-2.71-4.55-1.78L305.99,458.98z"/>
			<path d="M699.75,369.38c-24.15,0.38-42.2-18.71-42.04-42.64c0.74-24.63,26.15-42.36,48.26-45.38
				c46.77-6.27,77.7,30.17,80.13,74.19c2.24,40.57-31.23,77.28-63.72,95c-38.38,19.41-80.68,16.66-100.13-27.89
				c-25.61-58.66-43.54-59.23-73.98-45.94l-18.93,8.27l23.54,122.76c7.37,36.12-50.37,47.62-57.04,12.09l-53.28-290.11
				c-6.3-35.7,50.21-48,57.21-11.72l23.35,133.46l31.18-13.61c56.06-24.47,89.65-4.22,118.82,62.6
				c22.85,52.35,82.28-16.03,81.33-46.56c-0.62-12.55-3.78-24.87-10.64-32.48l0.78,5.85C742.98,350.95,723.32,369.7,699.75,369.38z"
				/>
			<path d="M978.59,72.62c-70.53,79.41-99.34,145.03-78.76,192.17c21.72,49.75,97.34,39.72,123.73-7.16
				c4.99-8.81,6.63-19.25,3.64-28.11c-3.81,10.5-12.63,19.66-23.4,24.36c-21.9,9.56-47.18,0.27-56.42-20.9
				c-9.4-21.53,2.82-47.2,24.35-56.6c21.53-9.4,47.39-0.8,63.01,12.71c29.32,25.65,29.54,73.73,5.83,107.51
				c-22.92,32.55-71.13,52.71-110.19,50.32c-36.88-2.46-71.12-24.2-85.87-57.98c-24.63-56.43,6.25-137.54,69.68-212.96l-183.02,79.9
				c-18.93,8.27-43.88-0.29-49.55-20.36c-4.42-16.19,3.02-33.58,19.35-40.71c17.08-7.46,36.49-0.46,43.78,16.25
				c0.65,1.49,1.71,1.9,3.2,1.26l200.1-87.36C978.87,11.5,995.96,52.66,978.59,72.62z M1017.58,128.52
				c8.18,6.59,19.52,8.27,30.29,3.57c14.85-6.48,22.08-23.34,15.76-37.82c-6.32-14.48-23.6-20.64-38.45-14.16
				c-10.77,4.7-17.24,14.16-17.97,24.64c-8.18-6.59-20.27-7.95-30.29-3.57c-15.22,6.65-21.71,23.18-15.38,37.66
				c6.32,14.48,22.85,20.96,38.07,14.32C1009.64,148.79,1016.49,139.17,1017.58,128.52z"/>
		</g>
		<g>
			<path class="st0" d="M82.67,609.23l-6.65-7.56c-3.89-4.44-5.68-9.8-5.35-16.09c0.33-6.28,2.61-11.61,6.85-15.97
				c8.34-8.38,16.13-17.09,23.36-26.11c1.36-1.99,1.64-3.92,0.82-5.8c-2.74-6.9-7.68-18.56-14.85-34.97
				c-0.51-1.17-1.14-1.32-1.87-0.44c-1.99,3.11-4.81,4.97-8.45,5.58c-3.64,0.62-7.07-0.19-10.27-2.42
				c-5.84-4.42-18.33-13.21-37.47-26.35c-5.1-3.36-8.24-7.98-9.42-13.9c-1.18-5.9-0.1-11.4,3.27-16.5l3.34-4.81
				c3.12-4.99,7.64-8.08,13.54-9.26c5.9-1.18,11.4-0.09,16.5,3.27c0.1,0.24,0.32,0.42,0.66,0.55c0.33,0.14,0.56,0.32,0.66,0.55
				c0.33,0.14,0.66,0.07,0.96-0.21c0.3-0.27,0.35-0.64,0.14-1.11l-13.51-30.95c-2.35-5.39-2.41-10.95-0.16-16.68
				c2.25-5.72,6.06-9.76,11.46-12.12l96.36-42.07c2.11-0.92,2.76-2.32,1.94-4.2l-0.31-0.7c-2.35-5.39-2.44-10.87-0.26-16.43
				c2.18-5.56,5.96-9.51,11.36-11.87l16.18-7.06c5.39-2.35,10.92-2.46,16.6-0.34c5.67,2.13,9.69,5.89,12.04,11.28l0.31,0.7
				c0.82,1.88,2.16,2.41,4.04,1.58l89.33-39c5.39-2.35,10.95-2.4,16.68-0.16c5.73,2.25,9.77,6.07,12.12,11.46l2.61,5.98
				c2.36,5.4,2.38,10.89,0.09,16.5c-2.3,5.61-6.14,9.59-11.53,11.94L109.94,408.9c-1.88,0.82-2.35,2.28-1.43,4.39l39.77,91.09
				c16.07,36.81,26.3,67.59,30.68,92.33c4.38,24.75,4.11,49.08-0.79,73c-1.11,5.78-4.28,10.03-9.51,12.74
				c-5.24,2.71-10.67,3.05-16.29,1.04l-16.72-5.68c-5.86-1.91-10.22-5.66-13.08-11.25c-2.86-5.59-3.5-11.38-1.93-17.37
				c3.25-16.21,3.72-31.77,1.4-46.67c-0.08-0.8-0.56-1.29-1.47-1.45c-0.91-0.16-1.5,0.1-1.76,0.77c-2.93,3.52-5.25,6.2-6.95,8.06
				c-3.9,4.5-8.77,6.62-14.6,6.37C91.42,616.02,86.56,613.68,82.67,609.23z M283.01,398.66c-1.88,0.82-2.35,2.28-1.43,4.39
				l4.61,10.55c0.92,2.11,2.32,2.76,4.2,1.94L347,390.82c5.39-2.35,10.92-2.47,16.6-0.34c5.67,2.13,9.69,5.89,12.04,11.28
				l51.74,118.52c9.31,21.33,12.77,35.81,10.37,43.42c-2.4,7.61-12.75,15.4-31.03,23.39c-7.03,3.07-18.09,7.48-33.17,13.22
				c-5.73,2.22-11.46,2.21-17.18-0.04c-5.73-2.25-10.05-6.08-12.98-11.5l-2.15-4.92c-2.83-5.19-3.15-10.41-0.99-15.69
				c2.16-5.27,5.88-8.91,11.14-10.93c1.64-0.71,3.54-1.48,5.7-2.28c2.16-0.8,3.8-1.38,4.9-1.72c1.11-0.34,2.13-0.72,3.07-1.13
				c5.39-2.35,8.29-4.18,8.71-5.48c0.41-1.29-0.71-4.99-3.37-11.09l-4.45-10.2c-0.2-0.47-0.65-0.69-1.34-0.67
				c-0.69,0.03-1.1,0.21-1.23,0.54c-2.35,5.49-6.16,9.39-11.44,11.69c-5.28,2.3-10.73,2.45-16.35,0.44
				c-8.56-2.96-16.84-5.63-24.85-8c-2.15-0.45-3.29,0.46-3.41,2.74c-1.9,12.28-4.58,23.08-8.05,32.4
				c-2.25,5.73-6.18,9.68-11.79,11.85c-5.61,2.18-11.22,1.97-16.81-0.62l-16.94-8.1c-0.44-0.36-0.84-0.32-1.21,0.11
				c-0.37,0.44-0.45,0.89-0.24,1.36l22.72,52.05c2.35,5.39,2.38,10.89,0.09,16.5c-2.3,5.61-6.14,9.59-11.54,11.94l-13.36,5.83
				c-5.4,2.36-10.87,2.44-16.42,0.26c-5.56-2.18-9.51-5.97-11.87-11.36L157.6,496.96c-2.35-5.39-2.44-10.87-0.26-16.42
				c2.18-5.56,5.96-9.51,11.36-11.87l60.49-26.41c1.87-0.82,2.35-2.28,1.43-4.39l-4.61-10.55c-0.92-2.11-2.32-2.75-4.2-1.94
				l-60.49,26.41c-5.4,2.36-10.95,2.41-16.68,0.16c-5.73-2.24-9.76-6.06-12.12-11.46l-1.38-3.17c-2.35-5.39-2.39-10.89-0.09-16.5
				c2.29-5.61,6.14-9.59,11.53-11.94l182.88-79.84c5.39-2.35,10.92-2.47,16.6-0.34c5.67,2.13,9.69,5.89,12.04,11.28l1.38,3.17
				c2.36,5.4,2.41,10.96,0.16,16.68c-2.25,5.73-6.07,9.77-11.46,12.12L283.01,398.66z M243.48,544.05
				c8.11-17.22,9.95-36.02,5.52-56.42c-0.08-0.8-0.56-1.43-1.45-1.88c-0.9-0.45-1.69-0.52-2.39-0.21l-21.81,9.52
				c-1.88,0.82-2.35,2.28-1.43,4.39l19.35,44.31c0.21,0.47,0.59,0.72,1.16,0.75C242.99,544.55,243.34,544.39,243.48,544.05z
				 M305.99,458.98c-1.88,0.82-2.59,2.39-2.14,4.7c0.28,1.28,0.67,3.13,1.17,5.56c0.5,2.44,0.89,4.29,1.17,5.56
				c0.45,2.32,1.75,3.7,3.91,4.16c11.67,2.44,23.99,5.72,36.95,9.83c2.15,0.46,2.82-0.25,2-2.13l-15.66-35.87
				c-0.92-2.11-2.44-2.71-4.55-1.78L305.99,458.98z"/>
			<path class="st0" d="M699.75,369.38c-24.15,0.38-42.2-18.71-42.04-42.64c0.74-24.63,26.15-42.36,48.26-45.38
				c46.77-6.27,77.7,30.17,80.13,74.19c2.24,40.57-31.23,77.28-63.72,95c-38.38,19.41-80.68,16.66-100.13-27.89
				c-25.61-58.66-43.54-59.23-73.98-45.94l-18.93,8.27l23.54,122.76c7.37,36.12-50.37,47.62-57.04,12.09l-53.28-290.11
				c-6.3-35.7,50.21-48,57.21-11.72l23.35,133.46l31.18-13.61c56.06-24.47,89.65-4.22,118.82,62.6
				c22.85,52.35,82.28-16.03,81.33-46.56c-0.62-12.55-3.78-24.87-10.64-32.48l0.78,5.85C742.98,350.95,723.32,369.7,699.75,369.38z"
				/>
			<path class="st0" d="M978.59,72.62c-70.53,79.41-99.34,145.03-78.76,192.17c21.72,49.75,97.34,39.72,123.73-7.16
				c4.99-8.81,6.63-19.25,3.64-28.11c-3.81,10.5-12.63,19.66-23.4,24.36c-21.9,9.56-47.18,0.27-56.42-20.9
				c-9.4-21.53,2.82-47.2,24.35-56.6c21.53-9.4,47.39-0.8,63.01,12.71c29.32,25.65,29.54,73.73,5.83,107.51
				c-22.92,32.55-71.13,52.71-110.19,50.32c-36.88-2.46-71.12-24.2-85.87-57.98c-24.63-56.43,6.25-137.54,69.68-212.96l-183.02,79.9
				c-18.93,8.27-43.88-0.29-49.55-20.36c-4.42-16.19,3.02-33.58,19.35-40.71c17.08-7.46,36.49-0.46,43.78,16.25
				c0.65,1.49,1.71,1.9,3.2,1.26l200.1-87.36C978.87,11.5,995.96,52.66,978.59,72.62z M1017.58,128.52
				c8.18,6.59,19.52,8.27,30.29,3.57c14.85-6.48,22.08-23.34,15.76-37.82c-6.32-14.48-23.6-20.64-38.45-14.16
				c-10.77,4.7-17.24,14.16-17.97,24.64c-8.18-6.59-20.27-7.95-30.29-3.57c-15.22,6.65-21.71,23.18-15.38,37.66
				c6.32,14.48,22.85,20.96,38.07,14.32C1009.64,148.79,1016.49,139.17,1017.58,128.52z"/>
		</g>
		<g>
			<path class="st1" d="M82.67,609.23l-6.65-7.56c-3.89-4.44-5.68-9.8-5.35-16.09c0.33-6.28,2.61-11.61,6.85-15.97
				c8.34-8.38,16.13-17.09,23.36-26.11c1.36-1.99,1.64-3.92,0.82-5.8c-2.74-6.9-7.68-18.56-14.85-34.97
				c-0.51-1.17-1.14-1.32-1.87-0.44c-1.99,3.11-4.81,4.97-8.45,5.58c-3.64,0.62-7.07-0.19-10.27-2.42
				c-5.84-4.42-18.33-13.21-37.47-26.35c-5.1-3.36-8.24-7.98-9.42-13.9c-1.18-5.9-0.1-11.4,3.27-16.5l3.34-4.81
				c3.12-4.99,7.64-8.08,13.54-9.26c5.9-1.18,11.4-0.09,16.5,3.27c0.1,0.24,0.32,0.42,0.66,0.55c0.33,0.14,0.56,0.32,0.66,0.55
				c0.33,0.14,0.66,0.07,0.96-0.21c0.3-0.27,0.35-0.64,0.14-1.11l-13.51-30.95c-2.35-5.39-2.41-10.95-0.16-16.68
				c2.25-5.72,6.06-9.76,11.46-12.12l96.36-42.07c2.11-0.92,2.76-2.32,1.94-4.2l-0.31-0.7c-2.35-5.39-2.44-10.87-0.26-16.43
				c2.18-5.56,5.96-9.51,11.36-11.87l16.18-7.06c5.39-2.35,10.92-2.46,16.6-0.34c5.67,2.13,9.69,5.89,12.04,11.28l0.31,0.7
				c0.82,1.88,2.16,2.41,4.04,1.58l89.33-39c5.39-2.35,10.95-2.4,16.68-0.16c5.73,2.25,9.77,6.07,12.12,11.46l2.61,5.98
				c2.36,5.4,2.38,10.89,0.09,16.5c-2.3,5.61-6.14,9.59-11.53,11.94L109.94,408.9c-1.88,0.82-2.35,2.28-1.43,4.39l39.77,91.09
				c16.07,36.81,26.3,67.59,30.68,92.33c4.38,24.75,4.11,49.08-0.79,73c-1.11,5.78-4.28,10.03-9.51,12.74
				c-5.24,2.71-10.67,3.05-16.29,1.04l-16.72-5.68c-5.86-1.91-10.22-5.66-13.08-11.25c-2.86-5.59-3.5-11.38-1.93-17.37
				c3.25-16.21,3.72-31.77,1.4-46.67c-0.08-0.8-0.56-1.29-1.47-1.45c-0.91-0.16-1.5,0.1-1.76,0.77c-2.93,3.52-5.25,6.2-6.95,8.06
				c-3.9,4.5-8.77,6.62-14.6,6.37C91.42,616.02,86.56,613.68,82.67,609.23z M283.01,398.66c-1.88,0.82-2.35,2.28-1.43,4.39
				l4.61,10.55c0.92,2.11,2.32,2.76,4.2,1.94L347,390.82c5.39-2.35,10.92-2.47,16.6-0.34c5.67,2.13,9.69,5.89,12.04,11.28
				l51.74,118.52c9.31,21.33,12.77,35.81,10.37,43.42c-2.4,7.61-12.75,15.4-31.03,23.39c-7.03,3.07-18.09,7.48-33.17,13.22
				c-5.73,2.22-11.46,2.21-17.18-0.04c-5.73-2.25-10.05-6.08-12.98-11.5l-2.15-4.92c-2.83-5.19-3.15-10.41-0.99-15.69
				c2.16-5.27,5.88-8.91,11.14-10.93c1.64-0.71,3.54-1.48,5.7-2.28c2.16-0.8,3.8-1.38,4.9-1.72c1.11-0.34,2.13-0.72,3.07-1.13
				c5.39-2.35,8.29-4.18,8.71-5.48c0.41-1.29-0.71-4.99-3.37-11.09l-4.45-10.2c-0.2-0.47-0.65-0.69-1.34-0.67
				c-0.69,0.03-1.1,0.21-1.23,0.54c-2.35,5.49-6.16,9.39-11.44,11.69c-5.28,2.3-10.73,2.45-16.35,0.44
				c-8.56-2.96-16.84-5.63-24.85-8c-2.15-0.45-3.29,0.46-3.41,2.74c-1.9,12.28-4.58,23.08-8.05,32.4
				c-2.25,5.73-6.18,9.68-11.79,11.85c-5.61,2.18-11.22,1.97-16.81-0.62l-16.94-8.1c-0.44-0.36-0.84-0.32-1.21,0.11
				c-0.37,0.44-0.45,0.89-0.24,1.36l22.72,52.05c2.35,5.39,2.38,10.89,0.09,16.5c-2.3,5.61-6.14,9.59-11.54,11.94l-13.36,5.83
				c-5.4,2.36-10.87,2.44-16.42,0.26c-5.56-2.18-9.51-5.97-11.87-11.36L157.6,496.96c-2.35-5.39-2.44-10.87-0.26-16.42
				c2.18-5.56,5.96-9.51,11.36-11.87l60.49-26.41c1.87-0.82,2.35-2.28,1.43-4.39l-4.61-10.55c-0.92-2.11-2.32-2.75-4.2-1.94
				l-60.49,26.41c-5.4,2.36-10.95,2.41-16.68,0.16c-5.73-2.24-9.76-6.06-12.12-11.46l-1.38-3.17c-2.35-5.39-2.39-10.89-0.09-16.5
				c2.29-5.61,6.14-9.59,11.53-11.94l182.88-79.84c5.39-2.35,10.92-2.47,16.6-0.34c5.67,2.13,9.69,5.89,12.04,11.28l1.38,3.17
				c2.36,5.4,2.41,10.96,0.16,16.68c-2.25,5.73-6.07,9.77-11.46,12.12L283.01,398.66z M243.48,544.05
				c8.11-17.22,9.95-36.02,5.52-56.42c-0.08-0.8-0.56-1.43-1.45-1.88c-0.9-0.45-1.69-0.52-2.39-0.21l-21.81,9.52
				c-1.88,0.82-2.35,2.28-1.43,4.39l19.35,44.31c0.21,0.47,0.59,0.72,1.16,0.75C242.99,544.55,243.34,544.39,243.48,544.05z
				 M305.99,458.98c-1.88,0.82-2.59,2.39-2.14,4.7c0.28,1.28,0.67,3.13,1.17,5.56c0.5,2.44,0.89,4.29,1.17,5.56
				c0.45,2.32,1.75,3.7,3.91,4.16c11.67,2.44,23.99,5.72,36.95,9.83c2.15,0.46,2.82-0.25,2-2.13l-15.66-35.87
				c-0.92-2.11-2.44-2.71-4.55-1.78L305.99,458.98z"/>
			<path class="st1" d="M699.75,369.38c-24.15,0.38-42.2-18.71-42.04-42.64c0.74-24.63,26.15-42.36,48.26-45.38
				c46.77-6.27,77.7,30.17,80.13,74.19c2.24,40.57-31.23,77.28-63.72,95c-38.38,19.41-80.68,16.66-100.13-27.89
				c-25.61-58.66-43.54-59.23-73.98-45.94l-18.93,8.27l23.54,122.76c7.37,36.12-50.37,47.62-57.04,12.09l-53.28-290.11
				c-6.3-35.7,50.21-48,57.21-11.72l23.35,133.46l31.18-13.61c56.06-24.47,89.65-4.22,118.82,62.6
				c22.85,52.35,82.28-16.03,81.33-46.56c-0.62-12.55-3.78-24.87-10.64-32.48l0.78,5.85C742.98,350.95,723.32,369.7,699.75,369.38z"
				/>
			<path class="st1" d="M978.59,72.62c-70.53,79.41-99.34,145.03-78.76,192.17c21.72,49.75,97.34,39.72,123.73-7.16
				c4.99-8.81,6.63-19.25,3.64-28.11c-3.81,10.5-12.63,19.66-23.4,24.36c-21.9,9.56-47.18,0.27-56.42-20.9
				c-9.4-21.53,2.82-47.2,24.35-56.6c21.53-9.4,47.39-0.8,63.01,12.71c29.32,25.65,29.54,73.73,5.83,107.51
				c-22.92,32.55-71.13,52.71-110.19,50.32c-36.88-2.46-71.12-24.2-85.87-57.98c-24.63-56.43,6.25-137.54,69.68-212.96l-183.02,79.9
				c-18.93,8.27-43.88-0.29-49.55-20.36c-4.42-16.19,3.02-33.58,19.35-40.71c17.08-7.46,36.49-0.46,43.78,16.25
				c0.65,1.49,1.71,1.9,3.2,1.26l200.1-87.36C978.87,11.5,995.96,52.66,978.59,72.62z M1017.58,128.52
				c8.18,6.59,19.52,8.27,30.29,3.57c14.85-6.48,22.08-23.34,15.76-37.82c-6.32-14.48-23.6-20.64-38.45-14.16
				c-10.77,4.7-17.24,14.16-17.97,24.64c-8.18-6.59-20.27-7.95-30.29-3.57c-15.22,6.65-21.71,23.18-15.38,37.66
				c6.32,14.48,22.85,20.96,38.07,14.32C1009.64,148.79,1016.49,139.17,1017.58,128.52z"/>
		</g>
	</g>
	<g>
		<g>
			<path d="M568.89,783.94c-4.66,0-8.58-1.59-11.77-4.78c-3.19-3.18-4.78-7.11-4.78-11.77v-34.94c0-5.64,2.08-10.48,6.25-14.53
				c4.17-4.05,9.07-6.07,14.71-6.07h306.71c5.64,0,10.54,2.02,14.71,6.07c4.17,4.05,6.25,8.89,6.25,14.53v30.89
				c0,5.64-2.09,10.48-6.25,14.53c-4.17,4.05-9.07,6.07-14.71,6.07h-0.74c-0.74,0-1.29,0.31-1.66,0.92
				c-0.37,0.62-0.31,1.17,0.18,1.66l0.37,0.74c3.43,4.66,4.6,9.87,3.49,15.63c-1.1,5.76-4.11,9.99-9.01,12.69
				c-24.03,13.97-52.47,25.74-85.32,35.31c-5.88,1.72-11.65,1.41-17.29-0.92c-5.64-2.33-9.93-6.19-12.87-11.58
				c-1.23-1.96-2.82-2.94-4.78-2.94h-9.56c-1.72,0-2.33,0.98-1.84,2.94v0.74c1.96,5.15,1.59,10.11-1.1,14.89
				c-2.7,4.78-6.75,7.67-12.14,8.64c-1.23,0.25-3.07,0.55-5.52,0.92c-2.45,0.37-4.29,0.68-5.52,0.92c-0.25,0-0.37,0.13-0.37,0.37
				c0,0.25,0.12,0.37,0.37,0.37l36.04,3.31c2.94,0.49,4.41,2.21,4.41,5.15c0,0.25,0.37,0.37,1.1,0.37
				c36.78-8.58,68.52-19.86,95.25-33.83c5.39-2.94,11.09-3.86,17.1-2.76c6,1.1,10.97,3.86,14.89,8.27l1.1,1.47
				c3.43,4.17,4.78,8.95,4.05,14.34c-0.74,5.4-3.44,9.44-8.09,12.14c-25.01,13.98-53.82,25.38-86.42,34.2
				c-5.88,1.71-11.71,1.34-17.47-1.1c-5.76-2.45-10.11-6.38-13.06-11.77l-7.35-12.87c-0.25-0.49-0.62-0.74-1.1-0.74
				c-0.49,0-0.74,0.24-0.74,0.74c-0.74,5.88-2.02,10.6-3.86,14.16c-1.84,3.55-4.41,6.56-7.72,9.01c-3.31,2.45-8.77,4.23-16.37,5.33
				c-7.6,1.1-16,1.84-25.19,2.21c-9.19,0.37-22.01,0.55-38.43,0.55c-29.92,0-51.25-0.68-63.99-2.02
				c-12.75-1.35-20.9-3.56-24.46-6.62c-3.56-3.07-5.33-8.27-5.33-15.63v-26.85c0-5.64,2.02-10.54,6.07-14.71
				c4.05-4.17,8.88-6.25,14.53-6.25h27.21c1.96,0,3.73,0.8,5.33,2.39c1.59,1.6,2.39,3.37,2.39,5.33c0,0.74,0.24,1.1,0.74,1.1
				c28.69-3.18,59.58-7.84,92.68-13.98c0.24,0,0.37-0.12,0.37-0.37c0-0.24-0.13-0.37-0.37-0.37H592.43
				c-5.64,0-10.54-2.02-14.71-6.07c-4.17-4.05-6.25-8.88-6.25-14.53v-28.32C571.47,784.8,570.6,783.94,568.89,783.94z
				 M878.55,627.27c-1.96,0-2.33,0.86-1.1,2.57c3.92,6.38,8.33,12.63,13.24,18.76c3.92,4.91,6.13,10.61,6.62,17.1
				c0.49,6.5-0.74,12.45-3.68,17.84l-1.47,2.57c-2.21,4.17-5.64,6.38-10.3,6.62c-4.66,0.25-8.22-1.59-10.67-5.52
				c-7.11-12.5-11.16-19.61-12.14-21.33c-0.49-0.24-0.86-0.24-1.1,0v19.12c0,5.64-2.09,10.48-6.25,14.53
				c-4.17,4.05-9.07,6.07-14.71,6.07c-5.64,0-10.48-2.02-14.53-6.07s-6.07-8.88-6.07-14.53v-13.98c0-0.49-0.18-0.86-0.55-1.1
				c-0.37-0.24-0.68-0.12-0.92,0.37c-0.49,0.74-1.29,1.84-2.39,3.31c-1.1,1.47-1.9,2.57-2.39,3.31c-2.94,3.92-6.87,5.64-11.77,5.15
				c-4.91-0.49-8.46-2.94-10.67-7.35l-0.37-1.1c-0.25-0.24-0.55-0.37-0.92-0.37s-0.55,0.25-0.55,0.74v8.83
				c0,5.64-2.09,10.54-6.25,14.71c-4.17,4.17-9.07,6.25-14.71,6.25h-76.49c-5.64,0-10.54-2.08-14.71-6.25
				c-4.17-4.17-6.25-9.07-6.25-14.71v-11.4c0-0.49-0.25-0.74-0.74-0.74c-0.49,0-0.86,0.13-1.1,0.37c-2.94,4.17-6.99,6.32-12.14,6.44
				c-5.15,0.13-9.44-1.78-12.87-5.7c0-0.24-0.25-0.55-0.74-0.92c-0.49-0.37-0.74-0.67-0.74-0.92c-0.49-0.49-0.98-0.61-1.47-0.37
				c-0.49,0.25-0.74,0.62-0.74,1.1v14.34c0,5.64-2.02,10.48-6.07,14.53s-8.89,6.07-14.53,6.07c-5.64,0-10.54-2.02-14.71-6.07
				c-4.17-4.05-6.25-8.88-6.25-14.53v-19.12c0-0.49-0.13-0.74-0.37-0.74c-0.25,0-0.49,0.13-0.74,0.37
				c-1.72,3.68-5.76,10.91-12.14,21.7c-2.45,3.92-6.01,5.76-10.67,5.52c-4.66-0.24-8.09-2.45-10.3-6.62l-1.47-2.57
				c-6.38-12.01-5.27-23.66,3.31-34.94c5.64-7.6,10.05-13.97,13.24-19.12c0.24-0.49,0.18-0.98-0.18-1.47
				c-0.37-0.49-0.8-0.74-1.29-0.74c-5.4,0-9.93-1.9-13.61-5.7c-3.68-3.8-5.52-8.4-5.52-13.79c0-5.39,1.9-9.93,5.7-13.61
				c3.8-3.68,8.4-5.52,13.79-5.52h14.34c1.96,0,2.94-0.98,2.94-2.94c0-5.15,1.84-9.56,5.52-13.24c3.68-3.68,8.09-5.52,13.24-5.52
				h9.93c5.15,0,9.56,1.84,13.24,5.52c3.68,3.68,5.52,8.09,5.52,13.24c0,1.97,0.98,2.94,2.94,2.94h19.12c2.21,0,3.68-0.98,4.41-2.94
				c0-0.49,0.24-0.98,0.74-1.47c0.49-0.49,0.74-0.98,0.74-1.47c2.45-5.15,6.07-9.19,10.85-12.14c4.78-2.94,9.87-4.17,15.26-3.68
				l9.56,1.1c2.45,0.25,4.29,1.35,5.52,3.31c1.22,1.97,1.47,4.17,0.74,6.62c-0.49,0.98-0.13,1.47,1.1,1.47h55.9
				c3.92,0,7.29,1.35,10.11,4.05c2.82,2.7,4.23,6.01,4.23,9.93c0,3.92-1.41,7.3-4.23,10.11c-2.82,2.82-6.19,4.23-10.11,4.23h-15.08
				c-2.21,0-3.31,1.1-3.31,3.31v5.52c0,2.21,1.1,3.31,3.31,3.31h32.36c2.21,0,3.31-1.1,3.31-3.31v-7.36
				c0-5.64,2.08-10.48,6.25-14.53c4.17-4.05,9.07-6.07,14.71-6.07h2.21c1.96,0,2.94-0.98,2.94-2.94c0-5.15,1.84-9.56,5.52-13.24
				c3.68-3.68,8.09-5.52,13.24-5.52h9.93c5.15,0,9.56,1.84,13.24,5.52c3.68,3.68,5.52,8.09,5.52,13.24c0,1.97,0.98,2.94,2.94,2.94
				h14.34c5.39,0,9.99,1.9,13.79,5.7c3.8,3.8,5.7,8.4,5.7,13.79c0,5.4-1.84,9.93-5.52,13.61
				C888.48,625.43,883.94,627.27,878.55,627.27z M603.09,745.69v4.41c0,0.25,0.24,0.37,0.74,0.37c2.94,0,4.41,1.6,4.41,4.78v7.35
				c0,0.98,0.61,1.84,1.84,2.57c5.88,3.44,9.8,5.88,11.77,7.36c2.45,1.47,3.86,3.62,4.23,6.44c0.37,2.82-0.43,5.21-2.39,7.17
				l-1.47,1.47c-3.68,4.17-7.97,4.66-12.87,1.47c-0.25-0.24-0.49-0.24-0.74,0c-0.25,0.25-0.37,0.49-0.37,0.74v19.86
				c0,2.21,1.1,3.31,3.31,3.31h6.25c0.49,0,0.86-0.24,1.1-0.74c0.24-0.49,0.24-0.86,0-1.1c-1.97-3.18-2.45-6.62-1.47-10.3
				c0.98-3.68,3.18-6.25,6.62-7.72c7.36-3.43,15.08-7.6,23.17-12.5c1.22-0.98,1.22-1.84,0-2.57c-5.4-2.7-14.1-6.74-26.11-12.14
				c-2.45-1.22-4.11-3.13-4.96-5.7c-0.86-2.57-0.55-4.96,0.92-7.17c3.68-5.64,8.7-7.23,15.08-4.78
				c14.22,5.88,25.5,11.16,33.83,15.81c2.21,0.98,4.05,0.86,5.52-0.37c7.84-6.37,14.71-12.63,20.59-18.76
				c0.49-0.49-3.68-1.22-12.5-2.21l-6.99,7.72c-4.66,5.15-9.93,5.76-15.81,1.84c-1.23-0.74-5.76-3.43-13.61-8.09
				c-1.72-0.98-3.56-1.47-5.52-1.47H606.4C604.2,742.75,603.09,743.73,603.09,745.69z M661.94,883.97c19.61,0,31.56-0.68,35.86-2.02
				c4.29-1.35,6.68-5.46,7.17-12.32c0-2.21-1.1-3.06-3.31-2.57c-19.37,3.19-43.27,6.38-71.71,9.56c-2.7,0.49-3.68,1.71-2.94,3.68
				c0.98,1.71,3.49,2.76,7.54,3.13C638.58,883.78,647.71,883.97,661.94,883.97z M710.11,759.3c-4.66,4.91-10.42,10.42-17.28,16.55
				c-1.47,1.47-1.35,2.7,0.37,3.68c6.86,4.41,12.01,7.85,15.45,10.3c2.45,1.47,3.8,3.62,4.05,6.44c0.24,2.82-0.61,5.21-2.57,7.17
				c-1.96,2.45-4.54,3.8-7.72,4.05c-3.19,0.25-6.01-0.49-8.46-2.21c-7.6-5.15-13.98-9.19-19.12-12.14c-1.97-1.22-3.8-1.22-5.52,0
				c-10.54,7.11-21.21,13.24-32,18.39c-0.25,0.25-0.37,0.55-0.37,0.92c0,0.37,0.12,0.55,0.37,0.55h11.77c1.22,0,2.57-0.74,4.05-2.21
				c3.43-3.92,7.66-6.25,12.69-6.99c5.02-0.74,9.75,0.25,14.16,2.94c0.74,0.49,1.9,1.23,3.49,2.21c1.59,0.98,2.76,1.72,3.49,2.21
				c1.96,1.23,3.92,1.84,5.88,1.84h23.9c2.21,0,3.31-1.1,3.31-3.31v-14.71c0-1.96-0.86-3.55-2.57-4.78
				c-0.74-0.49-2.39-1.47-4.96-2.94s-4.48-2.57-5.7-3.31c-2.45-1.22-3.86-3.25-4.23-6.07c-0.37-2.82,0.43-5.21,2.39-7.17l1.47-1.47
				c3.92-4.41,8.09-5.15,12.5-2.21c0.24,0.25,0.49,0.25,0.74,0c0.24-0.24,0.37-0.49,0.37-0.74v-1.1c0-3.92,1.47-7.35,4.41-10.3
				c2.94-2.94,6.37-4.41,10.3-4.41h10.3c3.43,0,6.25,1.1,8.46,3.31s3.31,5.03,3.31,8.46c0,0.49,0.18,0.92,0.55,1.29
				s0.67,0.43,0.92,0.18c22.55-6.13,40.94-12.63,55.16-19.49c0.24-0.24,0.37-0.55,0.37-0.92s-0.25-0.55-0.74-0.55H708.64
				c-0.25,0-0.43,0.13-0.55,0.37c-0.13,0.25-0.06,0.49,0.18,0.74c2.45,2.21,3.92,4.72,4.41,7.54
				C713.18,754.21,712.32,756.85,710.11,759.3z M664.88,643.08v-12.87c0-1.96-1.1-2.94-3.31-2.94h-13.98c-0.49,0-0.86,0.31-1.1,0.92
				c-0.25,0.61-0.13,1.05,0.37,1.29c10.3,9.56,15.57,14.47,15.81,14.71C663.65,644.68,664.38,644.31,664.88,643.08z M704.96,672.14
				v-20.59c0-2.21-1.1-3.31-3.31-3.31h-31.63c-0.49,0-0.86,0.25-1.1,0.74c-0.25,0.49-0.13,0.98,0.37,1.47l4.05,4.05
				c1.47,1.47,3.06,2.21,4.78,2.21h2.21c4.41,0,8.21,1.6,11.4,4.78c3.18,3.19,4.78,6.99,4.78,11.4c0,1.72,0.86,2.57,2.57,2.57h2.57
				C703.86,675.45,704.96,674.34,704.96,672.14z M704.96,616.61v-5.52c0-2.21-1.1-3.31-3.31-3.31h-2.57c-1.72,0-3.19,0.86-4.41,2.57
				c-0.49,0.74-1.23,1.9-2.21,3.49c-0.98,1.6-1.72,2.76-2.21,3.49c-1.23,1.72-0.86,2.57,1.1,2.57h10.3
				C703.86,619.92,704.96,618.81,704.96,616.61z M785.14,650.44c0.49-0.98,0.12-1.71-1.1-2.21h-32.36c-2.21,0-3.31,1.1-3.31,3.31
				v20.59c0,2.21,1.1,3.31,3.31,3.31h2.57c1.71,0,2.57-0.86,2.57-2.57c0-4.41,1.59-8.21,4.78-11.4c3.18-3.18,6.99-4.78,11.4-4.78
				h3.31c1.71,0,3.43-0.86,5.15-2.57c0.24-0.49,0.86-1.1,1.84-1.84C784.27,651.54,784.89,650.93,785.14,650.44z M850.23,776.58
				v-6.99c0-0.74-0.31-1.29-0.92-1.65c-0.61-0.37-1.17-0.43-1.65-0.18c-16.43,9.81-34.33,18.02-53.69,24.64
				c-5.88,1.97-11.71,1.9-17.47-0.18c-5.76-2.08-10.36-5.7-13.79-10.85l-4.41-6.62c-0.25-0.49-0.55-0.67-0.92-0.55
				c-0.37,0.13-0.55,0.43-0.55,0.92v38.98c0,1.97,1.1,2.7,3.31,2.21c33.83-9.31,63.01-21.08,87.53-35.31
				C849.37,780.26,850.23,778.79,850.23,776.58z M802.42,629.84c1.22-1.71,0.86-2.57-1.1-2.57h-9.56c-2.21,0-3.31,0.98-3.31,2.94
				v13.24c0,0.49,0.24,0.86,0.74,1.1c0.49,0.25,0.98,0.13,1.47-0.37C796.04,637.81,799.97,633.03,802.42,629.84z M837.36,742.75
				c-1.72,0-2.09,0.74-1.1,2.21l11.77,14.71c0.49,0.49,0.98,0.61,1.47,0.37c0.49-0.24,0.74-0.61,0.74-1.1v-13.24
				c0-1.96-1.1-2.94-3.31-2.94H837.36z"/>
			<path d="M982.63,830.28c-3.31-10.67-12.87-41.19-16.55-83.48c-1.84-16.18-2.57-34.57-2.57-51.49c0-24.27,1.47-47.07,3.68-58.48
				c4.78-28.32,21.33-38.25,45.97-38.25c18.02,0,31.63,8.46,40.45,29.05c5.15,13.61,2.21,66.2,5.52,111.43
				c2.57,44.13,9.19,80.91,9.19,95.62c0,20.59-7.36,30.89-35.31,35.31c-2.21,0.37-4.78,0.37-6.99,0.37
				C1005.79,870.36,989.61,856.76,982.63,830.28z M1218.73,723.62c-21.33-2.94-31.63-9.93-31.63-18.76c0-2.57,0.74-5.15,2.21-7.72
				c-43.76,5.52-67.67,5.15-67.67,5.15c-19.86,1.84-27.58-12.14-33.47-36.78c-0.74-4.05-1.84-8.46-1.84-12.87
				c0-14.71,6.25-29.42,18.39-35.67c16.55-8.46,52.96-11.77,83.85-11.77c16.92,0,32,1.1,40.09,2.94c13.61,2.57,34.2,12.5,34.2,36.04
				c0,18.39-3.68,35.67-8.09,52.96c-5.15,20.96-11.03,27.21-25.74,27.21C1225.72,724.36,1222.78,723.99,1218.73,723.62z
				 M1165.77,860.43c-23.91-3.68-38.62-10.67-49.28-15.08c-17.28-6.62-24.27-18.02-24.27-32.36c0-4.05,0.74-8.83,1.84-13.61
				c4.78-18.02,11.4-33.1,33.83-35.31c10.67-1.1,32,8.83,52.59,12.87c21.7,4.41,39.35,2.57,54.43,5.88
				c14.71,2.94,22.43,15.81,22.43,36.41c0,36.78-15.81,41.56-36.04,43.4c-5.52,0.37-11.4,0.74-18.39,0.74
				C1192.62,863.38,1180.85,862.64,1165.77,860.43z"/>
			<path d="M1439.39,879.56c-29.05-10.3-44.87-41.93-44.87-73.92c0-23.54,8.83-47.44,26.48-62.89c-7.72,6.62-16.55,8.83-26.11,8.83
				c-4.05,0-7.72-0.37-11.77-1.1c-27.21-4.78-34.57-18.02-34.57-39.72c0-6.62,0.74-13.98,1.47-22.07
				c-19.49-5.52-28.32-17.65-28.32-33.83c0-2.94,0.37-5.88,0.74-9.19c4.41-29.42,14.34-36.41,45.6-36.41
				c9.93-22.07,20.96-31.63,39.72-31.63c4.41,0,9.56,0.37,15.08,1.47c27.21,5.15,36.78,16.55,37.14,35.31
				c27.58,3.68,40.45,9.93,40.45,32c0,3.68-0.37,7.72-1.1,12.5c-5.15,30.52-18.02,35.67-55.9,37.51
				c-5.88,18.02-12.87,37.51-22.07,45.97c16.18-13.98,36.41-19.12,57.74-20.23c-1.1-2.94-1.1-5.15-1.1-7.72
				c0-15.45,12.87-24.64,33.1-27.95c4.05-1.1,7.72-1.47,11.4-1.47c17.29,0,27.58,9.19,32.36,21.7c2.57,6.25,4.78,15.81,6.62,26.48
				c23.54,8.83,36.78,22.07,48.18,33.47c9.19,9.56,14.34,20.23,14.34,31.63c0,7.36-2.94,15.81-8.46,23.54
				c-9.93,12.87-19.49,18.02-29.42,18.02c-9.56,0-19.12-4.78-28.69-12.14c-13.61,41.19-44.13,58.48-78.33,58.48
				C1465.87,886.18,1452.63,883.6,1439.39,879.56z M1499.33,806c0-11.4-9.56-20.96-20.96-20.96c-11.77,0-21.33,9.56-21.33,20.96
				c0,11.77,9.56,21.33,21.33,21.33C1489.77,827.33,1499.33,817.77,1499.33,806z M1541.26,654.48c0-28.69,23.54-52.22,52.22-52.22
				s52.22,23.54,52.22,52.22c0,29.05-23.54,52.59-52.22,52.59S1541.26,683.54,1541.26,654.48z"/>
			<path d="M1781.04,855.28c-4.78-6.99-7.36-15.45-7.36-23.54c0-12.14,6.62-23.54,24.27-30.89c23.54-9.56,31.63-11.4,31.63-22.8
				c-0.37-7.36-11.77-7.72-26.11-7.72c-19.86,0-45.97,1.47-60.31,1.47c-24.64,0-42.29-12.5-42.29-39.72
				c0-29.42,10.67-38.25,38.62-42.29c11.4-1.47,27.58-2.94,45.97-2.94c33.1,0,71.71,3.68,95.99,13.61
				c34.2,14.34,45.6,43.4,45.6,72.45c0,9.19-1.1,18.39-2.94,27.21c-9.19,42.66-51.49,60.31-79.81,70.24
				c-9.56,3.68-18.76,5.52-26.48,5.52C1802.37,875.88,1789.87,868.89,1781.04,855.28z"/>
			<path d="M2053.55,875.14c-26.11-2.94-38.25-11.03-38.25-43.4c0-20.59,3.68-84.22,9.19-140.49
				c-23.54-2.57-33.83-15.45-33.83-42.66c0-32.36,15.45-41.93,45.6-45.6c0-20.23,18.02-31.26,40.09-31.26c2.94,0,5.88,0,8.46,0.37
				c21.7,2.57,36.04,10.3,38.62,30.89c54.06,0,80.17,0.37,80.17,47.44c0,23.9-9.93,34.94-29.79,40.09
				c-7.72,2.21-40.09,3.31-54.8,3.68c-4.78,63.99-11.77,140.85-14.34,154.09c-3.68,18.39-20.96,27.21-41.92,27.21
				C2059.43,875.51,2056.49,875.51,2053.55,875.14z M2208.75,881.4c-22.07-1.47-34.94-4.41-47.07-7.72
				c-25.38-6.62-32.36-16.18-32.36-32c0-3.31,0.74-6.99,1.1-11.03c3.68-32,14.71-36.04,38.25-36.04c16.55,0,30.89,4.05,54.43,5.52
				c26.11,2.21,30.16-0.37,48.55,2.94c25.74,4.05,30.89,17.65,30.89,32.36c0,4.41-0.37,8.46-0.74,12.87
				c-3.31,21.7-15.08,30.52-36.41,33.1c-8.09,0.74-15.81,1.1-25.38,1.1C2231.92,882.5,2221.99,882.13,2208.75,881.4z
				 M2162.78,775.85c-21.33-2.57-26.85-15.08-26.85-37.14c0-22.8,6.62-34.94,29.42-41.56c19.86-5.88,47.44-7.72,68.77-7.72
				c9.56,0,18.02,0.37,23.91,0.74c20.96,2.21,33.83,11.77,37.14,34.94c0.37,4.05,0.74,8.46,0.74,12.14
				c0,17.29-6.25,27.58-29.79,32.73c-15.45,3.68-46.34,7.36-75.02,7.36C2181.17,777.32,2171.6,776.95,2162.78,775.85z"/>
			<path d="M2423.15,892.43c-31.63-1.84-38.25-12.5-43.03-50.75c-2.21-20.96-4.41-73.19-4.41-118.05c0-20.23,0.37-38.98,1.47-52.96
				c3.68-37.51,24.27-40.45,63.99-42.66c29.42-17.65,68.77-47.07,81.28-55.9c4.41-3.68,11.03-6.25,18.39-6.25
				c8.09,0,17.29,3.68,25.74,12.14c5.52,6.25,8.09,13.24,8.09,19.86c0,10.67-6.62,20.96-16.55,28.32c20.96,0,37.88,1.1,46.71,2.21
				c34.57,5.52,43.03,24.64,43.03,63.26c-0.37,34.2-1.84,123.2-4.78,151.89c-4.78,40.09-11.03,45.24-46.34,49.65
				c-12.14,1.84-36.04,2.57-63.26,2.57C2493.03,895.74,2445.95,893.9,2423.15,892.43z M2533.48,769.23c16.55,0,32.73,0,46.34,0.37
				v-13.98c-29.42,1.1-70.24,1.84-104.45,1.84c-12.5,0-23.54,0-33.47-0.37c0.37,4.78,0.37,8.83,1.1,13.61
				C2466.55,769.59,2500.75,769.23,2533.48,769.23z M2525.02,704.13c19.12,0,37.51,0.37,52.59,0.74c-0.74-5.52-1.47-9.19-2.21-10.3
				c-3.68-3.68-29.79-5.52-57.74-5.52c-34.2,0-70.98,2.57-73.55,5.15c-0.74,1.1-1.1,5.15-1.84,11.4
				C2465.08,704.87,2495.6,704.13,2525.02,704.13z M2574.67,829.91c0.74-1.1,1.1-3.68,1.84-8.09c-26.48,0.74-58.84,1.1-87.53,1.1
				c-15.45,0-29.79,0-41.56-0.37c0.74,5.15,1.84,7.35,2.57,8.46c4.78,2.57,35.67,4.05,65.46,4.05
				C2544.15,835.06,2572.1,833.59,2574.67,829.91z"/>
			<path d="M3057.91,727.67c0,8.46-5.15,15.45-12.87,23.17c-8.09,7.72-23.91,15.08-36.41,15.08c-5.52,0-9.93-1.1-13.61-3.68
				l-0.37,2.57c-4.05,26.85-4.78,72.45-20.96,109.96c-6.25,13.98-23.54,26.85-44.13,26.85c-5.15,0-10.3-1.1-15.08-2.57
				c-13.97-4.41-27.21-11.03-37.51-23.17c-4.05-3.68-5.52-8.46-5.52-13.24c0-5.52,3.31-11.03,7.36-15.08
				c7.35-7.72,17.65-13.98,26.48-13.98c3.68,0,7.72,0.74,11.03,2.94c9.93-22.07,11.03-60.31,11.03-60.31h-33.1
				c-13.24,47.07-26.48,63.26-51.49,89.37c-8.83,8.46-22.43,19.49-36.41,19.49c-4.41,0-9.19-1.47-13.61-4.41
				c-7.72-5.15-13.61-13.24-13.61-22.8c0-6.62,2.94-13.61,9.19-19.86c19.49-19.49,28.32-29.05,39.72-62.52
				c-12.5-0.74-18.76-0.74-25.01-2.21c-15.45-2.94-22.07-9.19-24.64-18.39c-0.74,0.37-1.1,1.1-1.47,1.47
				c-5.52,5.52-12.87,8.09-21.7,8.09c-10.67,0-22.8-4.41-32.36-11.4c-8.09-6.62-13.24-14.71-13.24-23.17
				c0-4.78,1.47-9.19,5.15-13.24c25.01-31.63,55.9-70.24,75.02-114.74c5.15-12.5,13.97-18.76,26.11-18.76
				c5.88,0,13.24,1.47,21.7,4.78c15.08,6.62,26.11,15.81,26.11,28.32c0,4.05-0.74,7.36-2.21,11.4
				c-9.19,22.43-26.48,51.12-45.24,77.97h17.65c37.51,0,98.19,1.84,121.36,3.31c-15.08-24.64-29.42-52.22-36.78-72.45
				c-1.84-5.15-2.57-9.93-2.57-14.71c0-15.08,8.46-26.85,22.07-33.83c6.99-4.05,13.98-6.25,20.23-6.25c12.5,0,22.8,7.72,29.42,23.54
				c16.92,39.35,40.82,77.97,62.52,104.45C3055.34,716.64,3057.91,722.52,3057.91,727.67z"/>
			<path d="M3132.93,830.28c-3.31-10.67-12.87-41.19-16.55-83.48c-1.84-16.18-2.57-34.57-2.57-51.49c0-24.27,1.47-47.07,3.68-58.48
				c4.78-28.32,21.33-38.25,45.97-38.25c18.02,0,31.63,8.46,40.46,29.05c5.15,13.61,2.21,66.2,5.52,111.43
				c2.57,44.13,9.19,80.91,9.19,95.62c0,20.59-7.35,30.89-35.31,35.31c-2.21,0.37-4.78,0.37-6.99,0.37
				C3156.1,870.36,3139.92,856.76,3132.93,830.28z M3369.04,723.62c-21.33-2.94-31.63-9.93-31.63-18.76c0-2.57,0.74-5.15,2.21-7.72
				c-43.76,5.52-67.67,5.15-67.67,5.15c-19.86,1.84-27.58-12.14-33.47-36.78c-0.74-4.05-1.84-8.46-1.84-12.87
				c0-14.71,6.25-29.42,18.39-35.67c16.55-8.46,52.96-11.77,83.85-11.77c16.92,0,32,1.1,40.09,2.94c13.61,2.57,34.2,12.5,34.2,36.04
				c0,18.39-3.68,35.67-8.09,52.96c-5.15,20.96-11.03,27.21-25.74,27.21C3376.02,724.36,3373.08,723.99,3369.04,723.62z
				 M3316.08,860.43c-23.91-3.68-38.62-10.67-49.28-15.08c-17.29-6.62-24.27-18.02-24.27-32.36c0-4.05,0.74-8.83,1.84-13.61
				c4.78-18.02,11.4-33.1,33.83-35.31c10.67-1.1,32,8.83,52.59,12.87c21.7,4.41,39.35,2.57,54.43,5.88
				c14.71,2.94,22.43,15.81,22.43,36.41c0,36.78-15.81,41.56-36.04,43.4c-5.52,0.37-11.4,0.74-18.39,0.74
				C3342.92,863.38,3331.16,862.64,3316.08,860.43z"/>
		</g>
		<g>
			<path class="st2" d="M568.89,783.94c-4.66,0-8.58-1.59-11.77-4.78c-3.19-3.18-4.78-7.11-4.78-11.77v-34.94
				c0-5.64,2.08-10.48,6.25-14.53c4.17-4.05,9.07-6.07,14.71-6.07h306.71c5.64,0,10.54,2.02,14.71,6.07
				c4.17,4.05,6.25,8.89,6.25,14.53v30.89c0,5.64-2.09,10.48-6.25,14.53c-4.17,4.05-9.07,6.07-14.71,6.07h-0.74
				c-0.74,0-1.29,0.31-1.66,0.92c-0.37,0.62-0.31,1.17,0.18,1.66l0.37,0.74c3.43,4.66,4.6,9.87,3.49,15.63
				c-1.1,5.76-4.11,9.99-9.01,12.69c-24.03,13.97-52.47,25.74-85.32,35.31c-5.88,1.72-11.65,1.41-17.29-0.92
				c-5.64-2.33-9.93-6.19-12.87-11.58c-1.23-1.96-2.82-2.94-4.78-2.94h-9.56c-1.72,0-2.33,0.98-1.84,2.94v0.74
				c1.96,5.15,1.59,10.11-1.1,14.89c-2.7,4.78-6.75,7.67-12.14,8.64c-1.23,0.25-3.07,0.55-5.52,0.92c-2.45,0.37-4.29,0.68-5.52,0.92
				c-0.25,0-0.37,0.13-0.37,0.37c0,0.25,0.12,0.37,0.37,0.37l36.04,3.31c2.94,0.49,4.41,2.21,4.41,5.15c0,0.25,0.37,0.37,1.1,0.37
				c36.78-8.58,68.52-19.86,95.25-33.83c5.39-2.94,11.09-3.86,17.1-2.76c6,1.1,10.97,3.86,14.89,8.27l1.1,1.47
				c3.43,4.17,4.78,8.95,4.05,14.34c-0.74,5.4-3.44,9.44-8.09,12.14c-25.01,13.98-53.82,25.38-86.42,34.2
				c-5.88,1.71-11.71,1.34-17.47-1.1c-5.76-2.45-10.11-6.38-13.06-11.77l-7.35-12.87c-0.25-0.49-0.62-0.74-1.1-0.74
				c-0.49,0-0.74,0.24-0.74,0.74c-0.74,5.88-2.02,10.6-3.86,14.16c-1.84,3.55-4.41,6.56-7.72,9.01c-3.31,2.45-8.77,4.23-16.37,5.33
				c-7.6,1.1-16,1.84-25.19,2.21c-9.19,0.37-22.01,0.55-38.43,0.55c-29.92,0-51.25-0.68-63.99-2.02
				c-12.75-1.35-20.9-3.56-24.46-6.62c-3.56-3.07-5.33-8.27-5.33-15.63v-26.85c0-5.64,2.02-10.54,6.07-14.71
				c4.05-4.17,8.88-6.25,14.53-6.25h27.21c1.96,0,3.73,0.8,5.33,2.39c1.59,1.6,2.39,3.37,2.39,5.33c0,0.74,0.24,1.1,0.74,1.1
				c28.69-3.18,59.58-7.84,92.68-13.98c0.24,0,0.37-0.12,0.37-0.37c0-0.24-0.13-0.37-0.37-0.37H592.43
				c-5.64,0-10.54-2.02-14.71-6.07c-4.17-4.05-6.25-8.88-6.25-14.53v-28.32C571.47,784.8,570.6,783.94,568.89,783.94z
				 M878.55,627.27c-1.96,0-2.33,0.86-1.1,2.57c3.92,6.38,8.33,12.63,13.24,18.76c3.92,4.91,6.13,10.61,6.62,17.1
				c0.49,6.5-0.74,12.45-3.68,17.84l-1.47,2.57c-2.21,4.17-5.64,6.38-10.3,6.62c-4.66,0.25-8.22-1.59-10.67-5.52
				c-7.11-12.5-11.16-19.61-12.14-21.33c-0.49-0.24-0.86-0.24-1.1,0v19.12c0,5.64-2.09,10.48-6.25,14.53
				c-4.17,4.05-9.07,6.07-14.71,6.07c-5.64,0-10.48-2.02-14.53-6.07s-6.07-8.88-6.07-14.53v-13.98c0-0.49-0.18-0.86-0.55-1.1
				c-0.37-0.24-0.68-0.12-0.92,0.37c-0.49,0.74-1.29,1.84-2.39,3.31c-1.1,1.47-1.9,2.57-2.39,3.31c-2.94,3.92-6.87,5.64-11.77,5.15
				c-4.91-0.49-8.46-2.94-10.67-7.35l-0.37-1.1c-0.25-0.24-0.55-0.37-0.92-0.37s-0.55,0.25-0.55,0.74v8.83
				c0,5.64-2.09,10.54-6.25,14.71c-4.17,4.17-9.07,6.25-14.71,6.25h-76.49c-5.64,0-10.54-2.08-14.71-6.25
				c-4.17-4.17-6.25-9.07-6.25-14.71v-11.4c0-0.49-0.25-0.74-0.74-0.74c-0.49,0-0.86,0.13-1.1,0.37c-2.94,4.17-6.99,6.32-12.14,6.44
				c-5.15,0.13-9.44-1.78-12.87-5.7c0-0.24-0.25-0.55-0.74-0.92c-0.49-0.37-0.74-0.67-0.74-0.92c-0.49-0.49-0.98-0.61-1.47-0.37
				c-0.49,0.25-0.74,0.62-0.74,1.1v14.34c0,5.64-2.02,10.48-6.07,14.53s-8.89,6.07-14.53,6.07c-5.64,0-10.54-2.02-14.71-6.07
				c-4.17-4.05-6.25-8.88-6.25-14.53v-19.12c0-0.49-0.13-0.74-0.37-0.74c-0.25,0-0.49,0.13-0.74,0.37
				c-1.72,3.68-5.76,10.91-12.14,21.7c-2.45,3.92-6.01,5.76-10.67,5.52c-4.66-0.24-8.09-2.45-10.3-6.62l-1.47-2.57
				c-6.38-12.01-5.27-23.66,3.31-34.94c5.64-7.6,10.05-13.97,13.24-19.12c0.24-0.49,0.18-0.98-0.18-1.47
				c-0.37-0.49-0.8-0.74-1.29-0.74c-5.4,0-9.93-1.9-13.61-5.7c-3.68-3.8-5.52-8.4-5.52-13.79c0-5.39,1.9-9.93,5.7-13.61
				c3.8-3.68,8.4-5.52,13.79-5.52h14.34c1.96,0,2.94-0.98,2.94-2.94c0-5.15,1.84-9.56,5.52-13.24c3.68-3.68,8.09-5.52,13.24-5.52
				h9.93c5.15,0,9.56,1.84,13.24,5.52c3.68,3.68,5.52,8.09,5.52,13.24c0,1.97,0.98,2.94,2.94,2.94h19.12c2.21,0,3.68-0.98,4.41-2.94
				c0-0.49,0.24-0.98,0.74-1.47c0.49-0.49,0.74-0.98,0.74-1.47c2.45-5.15,6.07-9.19,10.85-12.14c4.78-2.94,9.87-4.17,15.26-3.68
				l9.56,1.1c2.45,0.25,4.29,1.35,5.52,3.31c1.22,1.97,1.47,4.17,0.74,6.62c-0.49,0.98-0.13,1.47,1.1,1.47h55.9
				c3.92,0,7.29,1.35,10.11,4.05c2.82,2.7,4.23,6.01,4.23,9.93c0,3.92-1.41,7.3-4.23,10.11c-2.82,2.82-6.19,4.23-10.11,4.23h-15.08
				c-2.21,0-3.31,1.1-3.31,3.31v5.52c0,2.21,1.1,3.31,3.31,3.31h32.36c2.21,0,3.31-1.1,3.31-3.31v-7.36
				c0-5.64,2.08-10.48,6.25-14.53c4.17-4.05,9.07-6.07,14.71-6.07h2.21c1.96,0,2.94-0.98,2.94-2.94c0-5.15,1.84-9.56,5.52-13.24
				c3.68-3.68,8.09-5.52,13.24-5.52h9.93c5.15,0,9.56,1.84,13.24,5.52c3.68,3.68,5.52,8.09,5.52,13.24c0,1.97,0.98,2.94,2.94,2.94
				h14.34c5.39,0,9.99,1.9,13.79,5.7c3.8,3.8,5.7,8.4,5.7,13.79c0,5.4-1.84,9.93-5.52,13.61
				C888.48,625.43,883.94,627.27,878.55,627.27z M603.09,745.69v4.41c0,0.25,0.24,0.37,0.74,0.37c2.94,0,4.41,1.6,4.41,4.78v7.35
				c0,0.98,0.61,1.84,1.84,2.57c5.88,3.44,9.8,5.88,11.77,7.36c2.45,1.47,3.86,3.62,4.23,6.44c0.37,2.82-0.43,5.21-2.39,7.17
				l-1.47,1.47c-3.68,4.17-7.97,4.66-12.87,1.47c-0.25-0.24-0.49-0.24-0.74,0c-0.25,0.25-0.37,0.49-0.37,0.74v19.86
				c0,2.21,1.1,3.31,3.31,3.31h6.25c0.49,0,0.86-0.24,1.1-0.74c0.24-0.49,0.24-0.86,0-1.1c-1.97-3.18-2.45-6.62-1.47-10.3
				c0.98-3.68,3.18-6.25,6.62-7.72c7.36-3.43,15.08-7.6,23.17-12.5c1.22-0.98,1.22-1.84,0-2.57c-5.4-2.7-14.1-6.74-26.11-12.14
				c-2.45-1.22-4.11-3.13-4.96-5.7c-0.86-2.57-0.55-4.96,0.92-7.17c3.68-5.64,8.7-7.23,15.08-4.78
				c14.22,5.88,25.5,11.16,33.83,15.81c2.21,0.98,4.05,0.86,5.52-0.37c7.84-6.37,14.71-12.63,20.59-18.76
				c0.49-0.49-3.68-1.22-12.5-2.21l-6.99,7.72c-4.66,5.15-9.93,5.76-15.81,1.84c-1.23-0.74-5.76-3.43-13.61-8.09
				c-1.72-0.98-3.56-1.47-5.52-1.47H606.4C604.2,742.75,603.09,743.73,603.09,745.69z M661.94,883.97c19.61,0,31.56-0.68,35.86-2.02
				c4.29-1.35,6.68-5.46,7.17-12.32c0-2.21-1.1-3.06-3.31-2.57c-19.37,3.19-43.27,6.38-71.71,9.56c-2.7,0.49-3.68,1.71-2.94,3.68
				c0.98,1.71,3.49,2.76,7.54,3.13C638.58,883.78,647.71,883.97,661.94,883.97z M710.11,759.3c-4.66,4.91-10.42,10.42-17.28,16.55
				c-1.47,1.47-1.35,2.7,0.37,3.68c6.86,4.41,12.01,7.85,15.45,10.3c2.45,1.47,3.8,3.62,4.05,6.44c0.24,2.82-0.61,5.21-2.57,7.17
				c-1.96,2.45-4.54,3.8-7.72,4.05c-3.19,0.25-6.01-0.49-8.46-2.21c-7.6-5.15-13.98-9.19-19.12-12.14c-1.97-1.22-3.8-1.22-5.52,0
				c-10.54,7.11-21.21,13.24-32,18.39c-0.25,0.25-0.37,0.55-0.37,0.92c0,0.37,0.12,0.55,0.37,0.55h11.77c1.22,0,2.57-0.74,4.05-2.21
				c3.43-3.92,7.66-6.25,12.69-6.99c5.02-0.74,9.75,0.25,14.16,2.94c0.74,0.49,1.9,1.23,3.49,2.21c1.59,0.98,2.76,1.72,3.49,2.21
				c1.96,1.23,3.92,1.84,5.88,1.84h23.9c2.21,0,3.31-1.1,3.31-3.31v-14.71c0-1.96-0.86-3.55-2.57-4.78
				c-0.74-0.49-2.39-1.47-4.96-2.94s-4.48-2.57-5.7-3.31c-2.45-1.22-3.86-3.25-4.23-6.07c-0.37-2.82,0.43-5.21,2.39-7.17l1.47-1.47
				c3.92-4.41,8.09-5.15,12.5-2.21c0.24,0.25,0.49,0.25,0.74,0c0.24-0.24,0.37-0.49,0.37-0.74v-1.1c0-3.92,1.47-7.35,4.41-10.3
				c2.94-2.94,6.37-4.41,10.3-4.41h10.3c3.43,0,6.25,1.1,8.46,3.31s3.31,5.03,3.31,8.46c0,0.49,0.18,0.92,0.55,1.29
				s0.67,0.43,0.92,0.18c22.55-6.13,40.94-12.63,55.16-19.49c0.24-0.24,0.37-0.55,0.37-0.92s-0.25-0.55-0.74-0.55H708.64
				c-0.25,0-0.43,0.13-0.55,0.37c-0.13,0.25-0.06,0.49,0.18,0.74c2.45,2.21,3.92,4.72,4.41,7.54
				C713.18,754.21,712.32,756.85,710.11,759.3z M664.88,643.08v-12.87c0-1.96-1.1-2.94-3.31-2.94h-13.98c-0.49,0-0.86,0.31-1.1,0.92
				c-0.25,0.61-0.13,1.05,0.37,1.29c10.3,9.56,15.57,14.47,15.81,14.71C663.65,644.68,664.38,644.31,664.88,643.08z M704.96,672.14
				v-20.59c0-2.21-1.1-3.31-3.31-3.31h-31.63c-0.49,0-0.86,0.25-1.1,0.74c-0.25,0.49-0.13,0.98,0.37,1.47l4.05,4.05
				c1.47,1.47,3.06,2.21,4.78,2.21h2.21c4.41,0,8.21,1.6,11.4,4.78c3.18,3.19,4.78,6.99,4.78,11.4c0,1.72,0.86,2.57,2.57,2.57h2.57
				C703.86,675.45,704.96,674.34,704.96,672.14z M704.96,616.61v-5.52c0-2.21-1.1-3.31-3.31-3.31h-2.57c-1.72,0-3.19,0.86-4.41,2.57
				c-0.49,0.74-1.23,1.9-2.21,3.49c-0.98,1.6-1.72,2.76-2.21,3.49c-1.23,1.72-0.86,2.57,1.1,2.57h10.3
				C703.86,619.92,704.96,618.81,704.96,616.61z M785.14,650.44c0.49-0.98,0.12-1.71-1.1-2.21h-32.36c-2.21,0-3.31,1.1-3.31,3.31
				v20.59c0,2.21,1.1,3.31,3.31,3.31h2.57c1.71,0,2.57-0.86,2.57-2.57c0-4.41,1.59-8.21,4.78-11.4c3.18-3.18,6.99-4.78,11.4-4.78
				h3.31c1.71,0,3.43-0.86,5.15-2.57c0.24-0.49,0.86-1.1,1.84-1.84C784.27,651.54,784.89,650.93,785.14,650.44z M850.23,776.58
				v-6.99c0-0.74-0.31-1.29-0.92-1.65c-0.61-0.37-1.17-0.43-1.65-0.18c-16.43,9.81-34.33,18.02-53.69,24.64
				c-5.88,1.97-11.71,1.9-17.47-0.18c-5.76-2.08-10.36-5.7-13.79-10.85l-4.41-6.62c-0.25-0.49-0.55-0.67-0.92-0.55
				c-0.37,0.13-0.55,0.43-0.55,0.92v38.98c0,1.97,1.1,2.7,3.31,2.21c33.83-9.31,63.01-21.08,87.53-35.31
				C849.37,780.26,850.23,778.79,850.23,776.58z M802.42,629.84c1.22-1.71,0.86-2.57-1.1-2.57h-9.56c-2.21,0-3.31,0.98-3.31,2.94
				v13.24c0,0.49,0.24,0.86,0.74,1.1c0.49,0.25,0.98,0.13,1.47-0.37C796.04,637.81,799.97,633.03,802.42,629.84z M837.36,742.75
				c-1.72,0-2.09,0.74-1.1,2.21l11.77,14.71c0.49,0.49,0.98,0.61,1.47,0.37c0.49-0.24,0.74-0.61,0.74-1.1v-13.24
				c0-1.96-1.1-2.94-3.31-2.94H837.36z"/>
			<path class="st2" d="M982.63,830.28c-3.31-10.67-12.87-41.19-16.55-83.48c-1.84-16.18-2.57-34.57-2.57-51.49
				c0-24.27,1.47-47.07,3.68-58.48c4.78-28.32,21.33-38.25,45.97-38.25c18.02,0,31.63,8.46,40.45,29.05
				c5.15,13.61,2.21,66.2,5.52,111.43c2.57,44.13,9.19,80.91,9.19,95.62c0,20.59-7.36,30.89-35.31,35.31
				c-2.21,0.37-4.78,0.37-6.99,0.37C1005.79,870.36,989.61,856.76,982.63,830.28z M1218.73,723.62
				c-21.33-2.94-31.63-9.93-31.63-18.76c0-2.57,0.74-5.15,2.21-7.72c-43.76,5.52-67.67,5.15-67.67,5.15
				c-19.86,1.84-27.58-12.14-33.47-36.78c-0.74-4.05-1.84-8.46-1.84-12.87c0-14.71,6.25-29.42,18.39-35.67
				c16.55-8.46,52.96-11.77,83.85-11.77c16.92,0,32,1.1,40.09,2.94c13.61,2.57,34.2,12.5,34.2,36.04c0,18.39-3.68,35.67-8.09,52.96
				c-5.15,20.96-11.03,27.21-25.74,27.21C1225.72,724.36,1222.78,723.99,1218.73,723.62z M1165.77,860.43
				c-23.91-3.68-38.62-10.67-49.28-15.08c-17.28-6.62-24.27-18.02-24.27-32.36c0-4.05,0.74-8.83,1.84-13.61
				c4.78-18.02,11.4-33.1,33.83-35.31c10.67-1.1,32,8.83,52.59,12.87c21.7,4.41,39.35,2.57,54.43,5.88
				c14.71,2.94,22.43,15.81,22.43,36.41c0,36.78-15.81,41.56-36.04,43.4c-5.52,0.37-11.4,0.74-18.39,0.74
				C1192.62,863.38,1180.85,862.64,1165.77,860.43z"/>
			<path class="st2" d="M1439.39,879.56c-29.05-10.3-44.87-41.93-44.87-73.92c0-23.54,8.83-47.44,26.48-62.89
				c-7.72,6.62-16.55,8.83-26.11,8.83c-4.05,0-7.72-0.37-11.77-1.1c-27.21-4.78-34.57-18.02-34.57-39.72
				c0-6.62,0.74-13.98,1.47-22.07c-19.49-5.52-28.32-17.65-28.32-33.83c0-2.94,0.37-5.88,0.74-9.19
				c4.41-29.42,14.34-36.41,45.6-36.41c9.93-22.07,20.96-31.63,39.72-31.63c4.41,0,9.56,0.37,15.08,1.47
				c27.21,5.15,36.78,16.55,37.14,35.31c27.58,3.68,40.45,9.93,40.45,32c0,3.68-0.37,7.72-1.1,12.5
				c-5.15,30.52-18.02,35.67-55.9,37.51c-5.88,18.02-12.87,37.51-22.07,45.97c16.18-13.98,36.41-19.12,57.74-20.23
				c-1.1-2.94-1.1-5.15-1.1-7.72c0-15.45,12.87-24.64,33.1-27.95c4.05-1.1,7.72-1.47,11.4-1.47c17.29,0,27.58,9.19,32.36,21.7
				c2.57,6.25,4.78,15.81,6.62,26.48c23.54,8.83,36.78,22.07,48.18,33.47c9.19,9.56,14.34,20.23,14.34,31.63
				c0,7.36-2.94,15.81-8.46,23.54c-9.93,12.87-19.49,18.02-29.42,18.02c-9.56,0-19.12-4.78-28.69-12.14
				c-13.61,41.19-44.13,58.48-78.33,58.48C1465.87,886.18,1452.63,883.6,1439.39,879.56z M1499.33,806
				c0-11.4-9.56-20.96-20.96-20.96c-11.77,0-21.33,9.56-21.33,20.96c0,11.77,9.56,21.33,21.33,21.33
				C1489.77,827.33,1499.33,817.77,1499.33,806z M1541.26,654.48c0-28.69,23.54-52.22,52.22-52.22s52.22,23.54,52.22,52.22
				c0,29.05-23.54,52.59-52.22,52.59S1541.26,683.54,1541.26,654.48z"/>
			<path class="st2" d="M1781.04,855.28c-4.78-6.99-7.36-15.45-7.36-23.54c0-12.14,6.62-23.54,24.27-30.89
				c23.54-9.56,31.63-11.4,31.63-22.8c-0.37-7.36-11.77-7.72-26.11-7.72c-19.86,0-45.97,1.47-60.31,1.47
				c-24.64,0-42.29-12.5-42.29-39.72c0-29.42,10.67-38.25,38.62-42.29c11.4-1.47,27.58-2.94,45.97-2.94
				c33.1,0,71.71,3.68,95.99,13.61c34.2,14.34,45.6,43.4,45.6,72.45c0,9.19-1.1,18.39-2.94,27.21
				c-9.19,42.66-51.49,60.31-79.81,70.24c-9.56,3.68-18.76,5.52-26.48,5.52C1802.37,875.88,1789.87,868.89,1781.04,855.28z"/>
			<path class="st2" d="M2053.55,875.14c-26.11-2.94-38.25-11.03-38.25-43.4c0-20.59,3.68-84.22,9.19-140.49
				c-23.54-2.57-33.83-15.45-33.83-42.66c0-32.36,15.45-41.93,45.6-45.6c0-20.23,18.02-31.26,40.09-31.26c2.94,0,5.88,0,8.46,0.37
				c21.7,2.57,36.04,10.3,38.62,30.89c54.06,0,80.17,0.37,80.17,47.44c0,23.9-9.93,34.94-29.79,40.09
				c-7.72,2.21-40.09,3.31-54.8,3.68c-4.78,63.99-11.77,140.85-14.34,154.09c-3.68,18.39-20.96,27.21-41.92,27.21
				C2059.43,875.51,2056.49,875.51,2053.55,875.14z M2208.75,881.4c-22.07-1.47-34.94-4.41-47.07-7.72
				c-25.38-6.62-32.36-16.18-32.36-32c0-3.31,0.74-6.99,1.1-11.03c3.68-32,14.71-36.04,38.25-36.04c16.55,0,30.89,4.05,54.43,5.52
				c26.11,2.21,30.16-0.37,48.55,2.94c25.74,4.05,30.89,17.65,30.89,32.36c0,4.41-0.37,8.46-0.74,12.87
				c-3.31,21.7-15.08,30.52-36.41,33.1c-8.09,0.74-15.81,1.1-25.38,1.1C2231.92,882.5,2221.99,882.13,2208.75,881.4z
				 M2162.78,775.85c-21.33-2.57-26.85-15.08-26.85-37.14c0-22.8,6.62-34.94,29.42-41.56c19.86-5.88,47.44-7.72,68.77-7.72
				c9.56,0,18.02,0.37,23.91,0.74c20.96,2.21,33.83,11.77,37.14,34.94c0.37,4.05,0.74,8.46,0.74,12.14
				c0,17.29-6.25,27.58-29.79,32.73c-15.45,3.68-46.34,7.36-75.02,7.36C2181.17,777.32,2171.6,776.95,2162.78,775.85z"/>
			<path class="st2" d="M2423.15,892.43c-31.63-1.84-38.25-12.5-43.03-50.75c-2.21-20.96-4.41-73.19-4.41-118.05
				c0-20.23,0.37-38.98,1.47-52.96c3.68-37.51,24.27-40.45,63.99-42.66c29.42-17.65,68.77-47.07,81.28-55.9
				c4.41-3.68,11.03-6.25,18.39-6.25c8.09,0,17.29,3.68,25.74,12.14c5.52,6.25,8.09,13.24,8.09,19.86
				c0,10.67-6.62,20.96-16.55,28.32c20.96,0,37.88,1.1,46.71,2.21c34.57,5.52,43.03,24.64,43.03,63.26
				c-0.37,34.2-1.84,123.2-4.78,151.89c-4.78,40.09-11.03,45.24-46.34,49.65c-12.14,1.84-36.04,2.57-63.26,2.57
				C2493.03,895.74,2445.95,893.9,2423.15,892.43z M2533.48,769.23c16.55,0,32.73,0,46.34,0.37v-13.98
				c-29.42,1.1-70.24,1.84-104.45,1.84c-12.5,0-23.54,0-33.47-0.37c0.37,4.78,0.37,8.83,1.1,13.61
				C2466.55,769.59,2500.75,769.23,2533.48,769.23z M2525.02,704.13c19.12,0,37.51,0.37,52.59,0.74c-0.74-5.52-1.47-9.19-2.21-10.3
				c-3.68-3.68-29.79-5.52-57.74-5.52c-34.2,0-70.98,2.57-73.55,5.15c-0.74,1.1-1.1,5.15-1.84,11.4
				C2465.08,704.87,2495.6,704.13,2525.02,704.13z M2574.67,829.91c0.74-1.1,1.1-3.68,1.84-8.09c-26.48,0.74-58.84,1.1-87.53,1.1
				c-15.45,0-29.79,0-41.56-0.37c0.74,5.15,1.84,7.35,2.57,8.46c4.78,2.57,35.67,4.05,65.46,4.05
				C2544.15,835.06,2572.1,833.59,2574.67,829.91z"/>
			<path class="st2" d="M3057.91,727.67c0,8.46-5.15,15.45-12.87,23.17c-8.09,7.72-23.91,15.08-36.41,15.08
				c-5.52,0-9.93-1.1-13.61-3.68l-0.37,2.57c-4.05,26.85-4.78,72.45-20.96,109.96c-6.25,13.98-23.54,26.85-44.13,26.85
				c-5.15,0-10.3-1.1-15.08-2.57c-13.97-4.41-27.21-11.03-37.51-23.17c-4.05-3.68-5.52-8.46-5.52-13.24
				c0-5.52,3.31-11.03,7.36-15.08c7.35-7.72,17.65-13.98,26.48-13.98c3.68,0,7.72,0.74,11.03,2.94
				c9.93-22.07,11.03-60.31,11.03-60.31h-33.1c-13.24,47.07-26.48,63.26-51.49,89.37c-8.83,8.46-22.43,19.49-36.41,19.49
				c-4.41,0-9.19-1.47-13.61-4.41c-7.72-5.15-13.61-13.24-13.61-22.8c0-6.62,2.94-13.61,9.19-19.86
				c19.49-19.49,28.32-29.05,39.72-62.52c-12.5-0.74-18.76-0.74-25.01-2.21c-15.45-2.94-22.07-9.19-24.64-18.39
				c-0.74,0.37-1.1,1.1-1.47,1.47c-5.52,5.52-12.87,8.09-21.7,8.09c-10.67,0-22.8-4.41-32.36-11.4
				c-8.09-6.62-13.24-14.71-13.24-23.17c0-4.78,1.47-9.19,5.15-13.24c25.01-31.63,55.9-70.24,75.02-114.74
				c5.15-12.5,13.97-18.76,26.11-18.76c5.88,0,13.24,1.47,21.7,4.78c15.08,6.62,26.11,15.81,26.11,28.32c0,4.05-0.74,7.36-2.21,11.4
				c-9.19,22.43-26.48,51.12-45.24,77.97h17.65c37.51,0,98.19,1.84,121.36,3.31c-15.08-24.64-29.42-52.22-36.78-72.45
				c-1.84-5.15-2.57-9.93-2.57-14.71c0-15.08,8.46-26.85,22.07-33.83c6.99-4.05,13.98-6.25,20.23-6.25c12.5,0,22.8,7.72,29.42,23.54
				c16.92,39.35,40.82,77.97,62.52,104.45C3055.34,716.64,3057.91,722.52,3057.91,727.67z"/>
			<path class="st2" d="M3132.93,830.28c-3.31-10.67-12.87-41.19-16.55-83.48c-1.84-16.18-2.57-34.57-2.57-51.49
				c0-24.27,1.47-47.07,3.68-58.48c4.78-28.32,21.33-38.25,45.97-38.25c18.02,0,31.63,8.46,40.46,29.05
				c5.15,13.61,2.21,66.2,5.52,111.43c2.57,44.13,9.19,80.91,9.19,95.62c0,20.59-7.35,30.89-35.31,35.31
				c-2.21,0.37-4.78,0.37-6.99,0.37C3156.1,870.36,3139.92,856.76,3132.93,830.28z M3369.04,723.62
				c-21.33-2.94-31.63-9.93-31.63-18.76c0-2.57,0.74-5.15,2.21-7.72c-43.76,5.52-67.67,5.15-67.67,5.15
				c-19.86,1.84-27.58-12.14-33.47-36.78c-0.74-4.05-1.84-8.46-1.84-12.87c0-14.71,6.25-29.42,18.39-35.67
				c16.55-8.46,52.96-11.77,83.85-11.77c16.92,0,32,1.1,40.09,2.94c13.61,2.57,34.2,12.5,34.2,36.04c0,18.39-3.68,35.67-8.09,52.96
				c-5.15,20.96-11.03,27.21-25.74,27.21C3376.02,724.36,3373.08,723.99,3369.04,723.62z M3316.08,860.43
				c-23.91-3.68-38.62-10.67-49.28-15.08c-17.29-6.62-24.27-18.02-24.27-32.36c0-4.05,0.74-8.83,1.84-13.61
				c4.78-18.02,11.4-33.1,33.83-35.31c10.67-1.1,32,8.83,52.59,12.87c21.7,4.41,39.35,2.57,54.43,5.88
				c14.71,2.94,22.43,15.81,22.43,36.41c0,36.78-15.81,41.56-36.04,43.4c-5.52,0.37-11.4,0.74-18.39,0.74
				C3342.92,863.38,3331.16,862.64,3316.08,860.43z"/>
		</g>
		<g>
			<path class="st1" d="M568.89,783.94c-4.66,0-8.58-1.59-11.77-4.78c-3.19-3.18-4.78-7.11-4.78-11.77v-34.94
				c0-5.64,2.08-10.48,6.25-14.53c4.17-4.05,9.07-6.07,14.71-6.07h306.71c5.64,0,10.54,2.02,14.71,6.07
				c4.17,4.05,6.25,8.89,6.25,14.53v30.89c0,5.64-2.09,10.48-6.25,14.53c-4.17,4.05-9.07,6.07-14.71,6.07h-0.74
				c-0.74,0-1.29,0.31-1.66,0.92c-0.37,0.62-0.31,1.17,0.18,1.66l0.37,0.74c3.43,4.66,4.6,9.87,3.49,15.63
				c-1.1,5.76-4.11,9.99-9.01,12.69c-24.03,13.97-52.47,25.74-85.32,35.31c-5.88,1.72-11.65,1.41-17.29-0.92
				c-5.64-2.33-9.93-6.19-12.87-11.58c-1.23-1.96-2.82-2.94-4.78-2.94h-9.56c-1.72,0-2.33,0.98-1.84,2.94v0.74
				c1.96,5.15,1.59,10.11-1.1,14.89c-2.7,4.78-6.75,7.67-12.14,8.64c-1.23,0.25-3.07,0.55-5.52,0.92c-2.45,0.37-4.29,0.68-5.52,0.92
				c-0.25,0-0.37,0.13-0.37,0.37c0,0.25,0.12,0.37,0.37,0.37l36.04,3.31c2.94,0.49,4.41,2.21,4.41,5.15c0,0.25,0.37,0.37,1.1,0.37
				c36.78-8.58,68.52-19.86,95.25-33.83c5.39-2.94,11.09-3.86,17.1-2.76c6,1.1,10.97,3.86,14.89,8.27l1.1,1.47
				c3.43,4.17,4.78,8.95,4.05,14.34c-0.74,5.4-3.44,9.44-8.09,12.14c-25.01,13.98-53.82,25.38-86.42,34.2
				c-5.88,1.71-11.71,1.34-17.47-1.1c-5.76-2.45-10.11-6.38-13.06-11.77l-7.35-12.87c-0.25-0.49-0.62-0.74-1.1-0.74
				c-0.49,0-0.74,0.24-0.74,0.74c-0.74,5.88-2.02,10.6-3.86,14.16c-1.84,3.55-4.41,6.56-7.72,9.01c-3.31,2.45-8.77,4.23-16.37,5.33
				c-7.6,1.1-16,1.84-25.19,2.21c-9.19,0.37-22.01,0.55-38.43,0.55c-29.92,0-51.25-0.68-63.99-2.02
				c-12.75-1.35-20.9-3.56-24.46-6.62c-3.56-3.07-5.33-8.27-5.33-15.63v-26.85c0-5.64,2.02-10.54,6.07-14.71
				c4.05-4.17,8.88-6.25,14.53-6.25h27.21c1.96,0,3.73,0.8,5.33,2.39c1.59,1.6,2.39,3.37,2.39,5.33c0,0.74,0.24,1.1,0.74,1.1
				c28.69-3.18,59.58-7.84,92.68-13.98c0.24,0,0.37-0.12,0.37-0.37c0-0.24-0.13-0.37-0.37-0.37H592.43
				c-5.64,0-10.54-2.02-14.71-6.07c-4.17-4.05-6.25-8.88-6.25-14.53v-28.32C571.47,784.8,570.6,783.94,568.89,783.94z
				 M878.55,627.27c-1.96,0-2.33,0.86-1.1,2.57c3.92,6.38,8.33,12.63,13.24,18.76c3.92,4.91,6.13,10.61,6.62,17.1
				c0.49,6.5-0.74,12.45-3.68,17.84l-1.47,2.57c-2.21,4.17-5.64,6.38-10.3,6.62c-4.66,0.25-8.22-1.59-10.67-5.52
				c-7.11-12.5-11.16-19.61-12.14-21.33c-0.49-0.24-0.86-0.24-1.1,0v19.12c0,5.64-2.09,10.48-6.25,14.53
				c-4.17,4.05-9.07,6.07-14.71,6.07c-5.64,0-10.48-2.02-14.53-6.07s-6.07-8.88-6.07-14.53v-13.98c0-0.49-0.18-0.86-0.55-1.1
				c-0.37-0.24-0.68-0.12-0.92,0.37c-0.49,0.74-1.29,1.84-2.39,3.31c-1.1,1.47-1.9,2.57-2.39,3.31c-2.94,3.92-6.87,5.64-11.77,5.15
				c-4.91-0.49-8.46-2.94-10.67-7.35l-0.37-1.1c-0.25-0.24-0.55-0.37-0.92-0.37s-0.55,0.25-0.55,0.74v8.83
				c0,5.64-2.09,10.54-6.25,14.71c-4.17,4.17-9.07,6.25-14.71,6.25h-76.49c-5.64,0-10.54-2.08-14.71-6.25
				c-4.17-4.17-6.25-9.07-6.25-14.71v-11.4c0-0.49-0.25-0.74-0.74-0.74c-0.49,0-0.86,0.13-1.1,0.37c-2.94,4.17-6.99,6.32-12.14,6.44
				c-5.15,0.13-9.44-1.78-12.87-5.7c0-0.24-0.25-0.55-0.74-0.92c-0.49-0.37-0.74-0.67-0.74-0.92c-0.49-0.49-0.98-0.61-1.47-0.37
				c-0.49,0.25-0.74,0.62-0.74,1.1v14.34c0,5.64-2.02,10.48-6.07,14.53s-8.89,6.07-14.53,6.07c-5.64,0-10.54-2.02-14.71-6.07
				c-4.17-4.05-6.25-8.88-6.25-14.53v-19.12c0-0.49-0.13-0.74-0.37-0.74c-0.25,0-0.49,0.13-0.74,0.37
				c-1.72,3.68-5.76,10.91-12.14,21.7c-2.45,3.92-6.01,5.76-10.67,5.52c-4.66-0.24-8.09-2.45-10.3-6.62l-1.47-2.57
				c-6.38-12.01-5.27-23.66,3.31-34.94c5.64-7.6,10.05-13.97,13.24-19.12c0.24-0.49,0.18-0.98-0.18-1.47
				c-0.37-0.49-0.8-0.74-1.29-0.74c-5.4,0-9.93-1.9-13.61-5.7c-3.68-3.8-5.52-8.4-5.52-13.79c0-5.39,1.9-9.93,5.7-13.61
				c3.8-3.68,8.4-5.52,13.79-5.52h14.34c1.96,0,2.94-0.98,2.94-2.94c0-5.15,1.84-9.56,5.52-13.24c3.68-3.68,8.09-5.52,13.24-5.52
				h9.93c5.15,0,9.56,1.84,13.24,5.52c3.68,3.68,5.52,8.09,5.52,13.24c0,1.97,0.98,2.94,2.94,2.94h19.12c2.21,0,3.68-0.98,4.41-2.94
				c0-0.49,0.24-0.98,0.74-1.47c0.49-0.49,0.74-0.98,0.74-1.47c2.45-5.15,6.07-9.19,10.85-12.14c4.78-2.94,9.87-4.17,15.26-3.68
				l9.56,1.1c2.45,0.25,4.29,1.35,5.52,3.31c1.22,1.97,1.47,4.17,0.74,6.62c-0.49,0.98-0.13,1.47,1.1,1.47h55.9
				c3.92,0,7.29,1.35,10.11,4.05c2.82,2.7,4.23,6.01,4.23,9.93c0,3.92-1.41,7.3-4.23,10.11c-2.82,2.82-6.19,4.23-10.11,4.23h-15.08
				c-2.21,0-3.31,1.1-3.31,3.31v5.52c0,2.21,1.1,3.31,3.31,3.31h32.36c2.21,0,3.31-1.1,3.31-3.31v-7.36
				c0-5.64,2.08-10.48,6.25-14.53c4.17-4.05,9.07-6.07,14.71-6.07h2.21c1.96,0,2.94-0.98,2.94-2.94c0-5.15,1.84-9.56,5.52-13.24
				c3.68-3.68,8.09-5.52,13.24-5.52h9.93c5.15,0,9.56,1.84,13.24,5.52c3.68,3.68,5.52,8.09,5.52,13.24c0,1.97,0.98,2.94,2.94,2.94
				h14.34c5.39,0,9.99,1.9,13.79,5.7c3.8,3.8,5.7,8.4,5.7,13.79c0,5.4-1.84,9.93-5.52,13.61
				C888.48,625.43,883.94,627.27,878.55,627.27z M603.09,745.69v4.41c0,0.25,0.24,0.37,0.74,0.37c2.94,0,4.41,1.6,4.41,4.78v7.35
				c0,0.98,0.61,1.84,1.84,2.57c5.88,3.44,9.8,5.88,11.77,7.36c2.45,1.47,3.86,3.62,4.23,6.44c0.37,2.82-0.43,5.21-2.39,7.17
				l-1.47,1.47c-3.68,4.17-7.97,4.66-12.87,1.47c-0.25-0.24-0.49-0.24-0.74,0c-0.25,0.25-0.37,0.49-0.37,0.74v19.86
				c0,2.21,1.1,3.31,3.31,3.31h6.25c0.49,0,0.86-0.24,1.1-0.74c0.24-0.49,0.24-0.86,0-1.1c-1.97-3.18-2.45-6.62-1.47-10.3
				c0.98-3.68,3.18-6.25,6.62-7.72c7.36-3.43,15.08-7.6,23.17-12.5c1.22-0.98,1.22-1.84,0-2.57c-5.4-2.7-14.1-6.74-26.11-12.14
				c-2.45-1.22-4.11-3.13-4.96-5.7c-0.86-2.57-0.55-4.96,0.92-7.17c3.68-5.64,8.7-7.23,15.08-4.78
				c14.22,5.88,25.5,11.16,33.83,15.81c2.21,0.98,4.05,0.86,5.52-0.37c7.84-6.37,14.71-12.63,20.59-18.76
				c0.49-0.49-3.68-1.22-12.5-2.21l-6.99,7.72c-4.66,5.15-9.93,5.76-15.81,1.84c-1.23-0.74-5.76-3.43-13.61-8.09
				c-1.72-0.98-3.56-1.47-5.52-1.47H606.4C604.2,742.75,603.09,743.73,603.09,745.69z M661.94,883.97c19.61,0,31.56-0.68,35.86-2.02
				c4.29-1.35,6.68-5.46,7.17-12.32c0-2.21-1.1-3.06-3.31-2.57c-19.37,3.19-43.27,6.38-71.71,9.56c-2.7,0.49-3.68,1.71-2.94,3.68
				c0.98,1.71,3.49,2.76,7.54,3.13C638.58,883.78,647.71,883.97,661.94,883.97z M710.11,759.3c-4.66,4.91-10.42,10.42-17.28,16.55
				c-1.47,1.47-1.35,2.7,0.37,3.68c6.86,4.41,12.01,7.85,15.45,10.3c2.45,1.47,3.8,3.62,4.05,6.44c0.24,2.82-0.61,5.21-2.57,7.17
				c-1.96,2.45-4.54,3.8-7.72,4.05c-3.19,0.25-6.01-0.49-8.46-2.21c-7.6-5.15-13.98-9.19-19.12-12.14c-1.97-1.22-3.8-1.22-5.52,0
				c-10.54,7.11-21.21,13.24-32,18.39c-0.25,0.25-0.37,0.55-0.37,0.92c0,0.37,0.12,0.55,0.37,0.55h11.77c1.22,0,2.57-0.74,4.05-2.21
				c3.43-3.92,7.66-6.25,12.69-6.99c5.02-0.74,9.75,0.25,14.16,2.94c0.74,0.49,1.9,1.23,3.49,2.21c1.59,0.98,2.76,1.72,3.49,2.21
				c1.96,1.23,3.92,1.84,5.88,1.84h23.9c2.21,0,3.31-1.1,3.31-3.31v-14.71c0-1.96-0.86-3.55-2.57-4.78
				c-0.74-0.49-2.39-1.47-4.96-2.94s-4.48-2.57-5.7-3.31c-2.45-1.22-3.86-3.25-4.23-6.07c-0.37-2.82,0.43-5.21,2.39-7.17l1.47-1.47
				c3.92-4.41,8.09-5.15,12.5-2.21c0.24,0.25,0.49,0.25,0.74,0c0.24-0.24,0.37-0.49,0.37-0.74v-1.1c0-3.92,1.47-7.35,4.41-10.3
				c2.94-2.94,6.37-4.41,10.3-4.41h10.3c3.43,0,6.25,1.1,8.46,3.31s3.31,5.03,3.31,8.46c0,0.49,0.18,0.92,0.55,1.29
				s0.67,0.43,0.92,0.18c22.55-6.13,40.94-12.63,55.16-19.49c0.24-0.24,0.37-0.55,0.37-0.92s-0.25-0.55-0.74-0.55H708.64
				c-0.25,0-0.43,0.13-0.55,0.37c-0.13,0.25-0.06,0.49,0.18,0.74c2.45,2.21,3.92,4.72,4.41,7.54
				C713.18,754.21,712.32,756.85,710.11,759.3z M664.88,643.08v-12.87c0-1.96-1.1-2.94-3.31-2.94h-13.98c-0.49,0-0.86,0.31-1.1,0.92
				c-0.25,0.61-0.13,1.05,0.37,1.29c10.3,9.56,15.57,14.47,15.81,14.71C663.65,644.68,664.38,644.31,664.88,643.08z M704.96,672.14
				v-20.59c0-2.21-1.1-3.31-3.31-3.31h-31.63c-0.49,0-0.86,0.25-1.1,0.74c-0.25,0.49-0.13,0.98,0.37,1.47l4.05,4.05
				c1.47,1.47,3.06,2.21,4.78,2.21h2.21c4.41,0,8.21,1.6,11.4,4.78c3.18,3.19,4.78,6.99,4.78,11.4c0,1.72,0.86,2.57,2.57,2.57h2.57
				C703.86,675.45,704.96,674.34,704.96,672.14z M704.96,616.61v-5.52c0-2.21-1.1-3.31-3.31-3.31h-2.57c-1.72,0-3.19,0.86-4.41,2.57
				c-0.49,0.74-1.23,1.9-2.21,3.49c-0.98,1.6-1.72,2.76-2.21,3.49c-1.23,1.72-0.86,2.57,1.1,2.57h10.3
				C703.86,619.92,704.96,618.81,704.96,616.61z M785.14,650.44c0.49-0.98,0.12-1.71-1.1-2.21h-32.36c-2.21,0-3.31,1.1-3.31,3.31
				v20.59c0,2.21,1.1,3.31,3.31,3.31h2.57c1.71,0,2.57-0.86,2.57-2.57c0-4.41,1.59-8.21,4.78-11.4c3.18-3.18,6.99-4.78,11.4-4.78
				h3.31c1.71,0,3.43-0.86,5.15-2.57c0.24-0.49,0.86-1.1,1.84-1.84C784.27,651.54,784.89,650.93,785.14,650.44z M850.23,776.58
				v-6.99c0-0.74-0.31-1.29-0.92-1.65c-0.61-0.37-1.17-0.43-1.65-0.18c-16.43,9.81-34.33,18.02-53.69,24.64
				c-5.88,1.97-11.71,1.9-17.47-0.18c-5.76-2.08-10.36-5.7-13.79-10.85l-4.41-6.62c-0.25-0.49-0.55-0.67-0.92-0.55
				c-0.37,0.13-0.55,0.43-0.55,0.92v38.98c0,1.97,1.1,2.7,3.31,2.21c33.83-9.31,63.01-21.08,87.53-35.31
				C849.37,780.26,850.23,778.79,850.23,776.58z M802.42,629.84c1.22-1.71,0.86-2.57-1.1-2.57h-9.56c-2.21,0-3.31,0.98-3.31,2.94
				v13.24c0,0.49,0.24,0.86,0.74,1.1c0.49,0.25,0.98,0.13,1.47-0.37C796.04,637.81,799.97,633.03,802.42,629.84z M837.36,742.75
				c-1.72,0-2.09,0.74-1.1,2.21l11.77,14.71c0.49,0.49,0.98,0.61,1.47,0.37c0.49-0.24,0.74-0.61,0.74-1.1v-13.24
				c0-1.96-1.1-2.94-3.31-2.94H837.36z"/>
			<path class="st1" d="M982.63,830.28c-3.31-10.67-12.87-41.19-16.55-83.48c-1.84-16.18-2.57-34.57-2.57-51.49
				c0-24.27,1.47-47.07,3.68-58.48c4.78-28.32,21.33-38.25,45.97-38.25c18.02,0,31.63,8.46,40.45,29.05
				c5.15,13.61,2.21,66.2,5.52,111.43c2.57,44.13,9.19,80.91,9.19,95.62c0,20.59-7.36,30.89-35.31,35.31
				c-2.21,0.37-4.78,0.37-6.99,0.37C1005.79,870.36,989.61,856.76,982.63,830.28z M1218.73,723.62
				c-21.33-2.94-31.63-9.93-31.63-18.76c0-2.57,0.74-5.15,2.21-7.72c-43.76,5.52-67.67,5.15-67.67,5.15
				c-19.86,1.84-27.58-12.14-33.47-36.78c-0.74-4.05-1.84-8.46-1.84-12.87c0-14.71,6.25-29.42,18.39-35.67
				c16.55-8.46,52.96-11.77,83.85-11.77c16.92,0,32,1.1,40.09,2.94c13.61,2.57,34.2,12.5,34.2,36.04c0,18.39-3.68,35.67-8.09,52.96
				c-5.15,20.96-11.03,27.21-25.74,27.21C1225.72,724.36,1222.78,723.99,1218.73,723.62z M1165.77,860.43
				c-23.91-3.68-38.62-10.67-49.28-15.08c-17.28-6.62-24.27-18.02-24.27-32.36c0-4.05,0.74-8.83,1.84-13.61
				c4.78-18.02,11.4-33.1,33.83-35.31c10.67-1.1,32,8.83,52.59,12.87c21.7,4.41,39.35,2.57,54.43,5.88
				c14.71,2.94,22.43,15.81,22.43,36.41c0,36.78-15.81,41.56-36.04,43.4c-5.52,0.37-11.4,0.74-18.39,0.74
				C1192.62,863.38,1180.85,862.64,1165.77,860.43z"/>
			<path class="st1" d="M1439.39,879.56c-29.05-10.3-44.87-41.93-44.87-73.92c0-23.54,8.83-47.44,26.48-62.89
				c-7.72,6.62-16.55,8.83-26.11,8.83c-4.05,0-7.72-0.37-11.77-1.1c-27.21-4.78-34.57-18.02-34.57-39.72
				c0-6.62,0.74-13.98,1.47-22.07c-19.49-5.52-28.32-17.65-28.32-33.83c0-2.94,0.37-5.88,0.74-9.19
				c4.41-29.42,14.34-36.41,45.6-36.41c9.93-22.07,20.96-31.63,39.72-31.63c4.41,0,9.56,0.37,15.08,1.47
				c27.21,5.15,36.78,16.55,37.14,35.31c27.58,3.68,40.45,9.93,40.45,32c0,3.68-0.37,7.72-1.1,12.5
				c-5.15,30.52-18.02,35.67-55.9,37.51c-5.88,18.02-12.87,37.51-22.07,45.97c16.18-13.98,36.41-19.12,57.74-20.23
				c-1.1-2.94-1.1-5.15-1.1-7.72c0-15.45,12.87-24.64,33.1-27.95c4.05-1.1,7.72-1.47,11.4-1.47c17.29,0,27.58,9.19,32.36,21.7
				c2.57,6.25,4.78,15.81,6.62,26.48c23.54,8.83,36.78,22.07,48.18,33.47c9.19,9.56,14.34,20.23,14.34,31.63
				c0,7.36-2.94,15.81-8.46,23.54c-9.93,12.87-19.49,18.02-29.42,18.02c-9.56,0-19.12-4.78-28.69-12.14
				c-13.61,41.19-44.13,58.48-78.33,58.48C1465.87,886.18,1452.63,883.6,1439.39,879.56z M1499.33,806
				c0-11.4-9.56-20.96-20.96-20.96c-11.77,0-21.33,9.56-21.33,20.96c0,11.77,9.56,21.33,21.33,21.33
				C1489.77,827.33,1499.33,817.77,1499.33,806z M1541.26,654.48c0-28.69,23.54-52.22,52.22-52.22s52.22,23.54,52.22,52.22
				c0,29.05-23.54,52.59-52.22,52.59S1541.26,683.54,1541.26,654.48z"/>
			<path class="st1" d="M1781.04,855.28c-4.78-6.99-7.36-15.45-7.36-23.54c0-12.14,6.62-23.54,24.27-30.89
				c23.54-9.56,31.63-11.4,31.63-22.8c-0.37-7.36-11.77-7.72-26.11-7.72c-19.86,0-45.97,1.47-60.31,1.47
				c-24.64,0-42.29-12.5-42.29-39.72c0-29.42,10.67-38.25,38.62-42.29c11.4-1.47,27.58-2.94,45.97-2.94
				c33.1,0,71.71,3.68,95.99,13.61c34.2,14.34,45.6,43.4,45.6,72.45c0,9.19-1.1,18.39-2.94,27.21
				c-9.19,42.66-51.49,60.31-79.81,70.24c-9.56,3.68-18.76,5.52-26.48,5.52C1802.37,875.88,1789.87,868.89,1781.04,855.28z"/>
			<path class="st1" d="M2053.55,875.14c-26.11-2.94-38.25-11.03-38.25-43.4c0-20.59,3.68-84.22,9.19-140.49
				c-23.54-2.57-33.83-15.45-33.83-42.66c0-32.36,15.45-41.93,45.6-45.6c0-20.23,18.02-31.26,40.09-31.26c2.94,0,5.88,0,8.46,0.37
				c21.7,2.57,36.04,10.3,38.62,30.89c54.06,0,80.17,0.37,80.17,47.44c0,23.9-9.93,34.94-29.79,40.09
				c-7.72,2.21-40.09,3.31-54.8,3.68c-4.78,63.99-11.77,140.85-14.34,154.09c-3.68,18.39-20.96,27.21-41.92,27.21
				C2059.43,875.51,2056.49,875.51,2053.55,875.14z M2208.75,881.4c-22.07-1.47-34.94-4.41-47.07-7.72
				c-25.38-6.62-32.36-16.18-32.36-32c0-3.31,0.74-6.99,1.1-11.03c3.68-32,14.71-36.04,38.25-36.04c16.55,0,30.89,4.05,54.43,5.52
				c26.11,2.21,30.16-0.37,48.55,2.94c25.74,4.05,30.89,17.65,30.89,32.36c0,4.41-0.37,8.46-0.74,12.87
				c-3.31,21.7-15.08,30.52-36.41,33.1c-8.09,0.74-15.81,1.1-25.38,1.1C2231.92,882.5,2221.99,882.13,2208.75,881.4z
				 M2162.78,775.85c-21.33-2.57-26.85-15.08-26.85-37.14c0-22.8,6.62-34.94,29.42-41.56c19.86-5.88,47.44-7.72,68.77-7.72
				c9.56,0,18.02,0.37,23.91,0.74c20.96,2.21,33.83,11.77,37.14,34.94c0.37,4.05,0.74,8.46,0.74,12.14
				c0,17.29-6.25,27.58-29.79,32.73c-15.45,3.68-46.34,7.36-75.02,7.36C2181.17,777.32,2171.6,776.95,2162.78,775.85z"/>
			<path class="st1" d="M2423.15,892.43c-31.63-1.84-38.25-12.5-43.03-50.75c-2.21-20.96-4.41-73.19-4.41-118.05
				c0-20.23,0.37-38.98,1.47-52.96c3.68-37.51,24.27-40.45,63.99-42.66c29.42-17.65,68.77-47.07,81.28-55.9
				c4.41-3.68,11.03-6.25,18.39-6.25c8.09,0,17.29,3.68,25.74,12.14c5.52,6.25,8.09,13.24,8.09,19.86
				c0,10.67-6.62,20.96-16.55,28.32c20.96,0,37.88,1.1,46.71,2.21c34.57,5.52,43.03,24.64,43.03,63.26
				c-0.37,34.2-1.84,123.2-4.78,151.89c-4.78,40.09-11.03,45.24-46.34,49.65c-12.14,1.84-36.04,2.57-63.26,2.57
				C2493.03,895.74,2445.95,893.9,2423.15,892.43z M2533.48,769.23c16.55,0,32.73,0,46.34,0.37v-13.98
				c-29.42,1.1-70.24,1.84-104.45,1.84c-12.5,0-23.54,0-33.47-0.37c0.37,4.78,0.37,8.83,1.1,13.61
				C2466.55,769.59,2500.75,769.23,2533.48,769.23z M2525.02,704.13c19.12,0,37.51,0.37,52.59,0.74c-0.74-5.52-1.47-9.19-2.21-10.3
				c-3.68-3.68-29.79-5.52-57.74-5.52c-34.2,0-70.98,2.57-73.55,5.15c-0.74,1.1-1.1,5.15-1.84,11.4
				C2465.08,704.87,2495.6,704.13,2525.02,704.13z M2574.67,829.91c0.74-1.1,1.1-3.68,1.84-8.09c-26.48,0.74-58.84,1.1-87.53,1.1
				c-15.45,0-29.79,0-41.56-0.37c0.74,5.15,1.84,7.35,2.57,8.46c4.78,2.57,35.67,4.05,65.46,4.05
				C2544.15,835.06,2572.1,833.59,2574.67,829.91z"/>
			<path class="st1" d="M3057.91,727.67c0,8.46-5.15,15.45-12.87,23.17c-8.09,7.72-23.91,15.08-36.41,15.08
				c-5.52,0-9.93-1.1-13.61-3.68l-0.37,2.57c-4.05,26.85-4.78,72.45-20.96,109.96c-6.25,13.98-23.54,26.85-44.13,26.85
				c-5.15,0-10.3-1.1-15.08-2.57c-13.97-4.41-27.21-11.03-37.51-23.17c-4.05-3.68-5.52-8.46-5.52-13.24
				c0-5.52,3.31-11.03,7.36-15.08c7.35-7.72,17.65-13.98,26.48-13.98c3.68,0,7.72,0.74,11.03,2.94
				c9.93-22.07,11.03-60.31,11.03-60.31h-33.1c-13.24,47.07-26.48,63.26-51.49,89.37c-8.83,8.46-22.43,19.49-36.41,19.49
				c-4.41,0-9.19-1.47-13.61-4.41c-7.72-5.15-13.61-13.24-13.61-22.8c0-6.62,2.94-13.61,9.19-19.86
				c19.49-19.49,28.32-29.05,39.72-62.52c-12.5-0.74-18.76-0.74-25.01-2.21c-15.45-2.94-22.07-9.19-24.64-18.39
				c-0.74,0.37-1.1,1.1-1.47,1.47c-5.52,5.52-12.87,8.09-21.7,8.09c-10.67,0-22.8-4.41-32.36-11.4
				c-8.09-6.62-13.24-14.71-13.24-23.17c0-4.78,1.47-9.19,5.15-13.24c25.01-31.63,55.9-70.24,75.02-114.74
				c5.15-12.5,13.97-18.76,26.11-18.76c5.88,0,13.24,1.47,21.7,4.78c15.08,6.62,26.11,15.81,26.11,28.32c0,4.05-0.74,7.36-2.21,11.4
				c-9.19,22.43-26.48,51.12-45.24,77.97h17.65c37.51,0,98.19,1.84,121.36,3.31c-15.08-24.64-29.42-52.22-36.78-72.45
				c-1.84-5.15-2.57-9.93-2.57-14.71c0-15.08,8.46-26.85,22.07-33.83c6.99-4.05,13.98-6.25,20.23-6.25c12.5,0,22.8,7.72,29.42,23.54
				c16.92,39.35,40.82,77.97,62.52,104.45C3055.34,716.64,3057.91,722.52,3057.91,727.67z"/>
			<path class="st1" d="M3132.93,830.28c-3.31-10.67-12.87-41.19-16.55-83.48c-1.84-16.18-2.57-34.57-2.57-51.49
				c0-24.27,1.47-47.07,3.68-58.48c4.78-28.32,21.33-38.25,45.97-38.25c18.02,0,31.63,8.46,40.46,29.05
				c5.15,13.61,2.21,66.2,5.52,111.43c2.57,44.13,9.19,80.91,9.19,95.62c0,20.59-7.35,30.89-35.31,35.31
				c-2.21,0.37-4.78,0.37-6.99,0.37C3156.1,870.36,3139.92,856.76,3132.93,830.28z M3369.04,723.62
				c-21.33-2.94-31.63-9.93-31.63-18.76c0-2.57,0.74-5.15,2.21-7.72c-43.76,5.52-67.67,5.15-67.67,5.15
				c-19.86,1.84-27.58-12.14-33.47-36.78c-0.74-4.05-1.84-8.46-1.84-12.87c0-14.71,6.25-29.42,18.39-35.67
				c16.55-8.46,52.96-11.77,83.85-11.77c16.92,0,32,1.1,40.09,2.94c13.61,2.57,34.2,12.5,34.2,36.04c0,18.39-3.68,35.67-8.09,52.96
				c-5.15,20.96-11.03,27.21-25.74,27.21C3376.02,724.36,3373.08,723.99,3369.04,723.62z M3316.08,860.43
				c-23.91-3.68-38.62-10.67-49.28-15.08c-17.29-6.62-24.27-18.02-24.27-32.36c0-4.05,0.74-8.83,1.84-13.61
				c4.78-18.02,11.4-33.1,33.83-35.31c10.67-1.1,32,8.83,52.59,12.87c21.7,4.41,39.35,2.57,54.43,5.88
				c14.71,2.94,22.43,15.81,22.43,36.41c0,36.78-15.81,41.56-36.04,43.4c-5.52,0.37-11.4,0.74-18.39,0.74
				C3342.92,863.38,3331.16,862.64,3316.08,860.43z"/>
		</g>
	</g>
	<g>
		<g>
			<path d="M322.65,1239.02h-21.78l-39.6,1.19v71.28h-38.81v-62.57h-1.98c-6.73,5.94-15.05,11.88-21.78,17.03
				c-7.92,4.75-15.84,9.9-23.76,12.67l-17.82-32.47c15.84-9.9,31.68-20.99,47.52-33.66c15.05-12.28,28.91-26.14,40.79-41.98h-83.56
				v-38.81h115.23l21.78-34.45h3.96l30.89,15.84v2.77l-7.92,15.84h173.45v38.81H361.46v28.91c17.03,0,34.85,0,51.48,0
				c17.03,0,31.68,4.75,44.75,15.84c7.13,9.11,11.09,19.8,11.88,31.68c0,11.88,0,23.76,0,35.64c-0.79,10.3-4.75,19.01-11.88,26.14
				c-7.92,5.94-17.03,8.71-26.93,8.71c-10.69,1.19-20.59,1.19-31.68,1.19v-36.04l1.19-2.77l30.49-1.19v-32.47l-2.77-5.15
				c-11.09-2.77-21.78-3.96-32.87-3.96c-10.69,1.19-22.57,1.19-33.66,1.19v116.03h-38.81V1239.02z M377.29,1092.1
				c-13.07-5.94-25.74-10.69-38.81-14.65c-19.8,8.71-40.39,14.65-61.38,19.8c-20.99,4.75-42.77,6.73-65.34,6.73v-37.62
				c12.67-0.79,26.53-1.98,39.6-3.96c12.67-1.98,24.55-4.75,37.62-7.92v-1.98l-47.52-21.78v-3.17l14.65-31.68h3.17l83.16,37.62
				c13.07-6.73,25.74-13.86,38.81-21.78c11.88-7.92,23.76-15.84,36.83-23.76l22.57,28.91c-8.71,6.73-16.63,13.86-25.74,18.61
				c-8.71,5.94-17.82,11.88-26.53,17.03v1.98l43.56,19.8v1.98l-17.03,33.66C402.24,1103.98,390.36,1098.04,377.29,1092.1z
				 M322.65,1170.51H298.1l-24.16,30.89h36.83l11.88-1.19V1170.51z"/>
			<path d="M591.53,1156.65c-6.73-12.67-9.9-26.93-9.9-41.58c0-15.05,0-30.89,0-45.54h-32.47v-36.83h68.51v-36.83h36.43v36.83h66.53
				v36.83H618.06l-0.4,22.57l0.79,32.47c5.54,7.13,19.01,12.28,27.72,11.48c9.9-1.19,19.8-3.17,29.7-5.15
				c9.11-1.19,19.01-3.17,28.12-5.15l9.9,34.85c-13.86,3.96-28.12,7.13-42.77,9.11c-15.05,1.98-30.89,2.77-46.73,2.77
				C611.73,1171.7,600.64,1166.55,591.53,1156.65z M567.77,1338.41v-3.17l1.98-30.49h22.97l31.68,1.98h73.26l8.71,0.79v-23.76
				h-99.79v-34.85h100.19v-18.61H592.72v-34.85h264.92v34.85H743.6v18.61h100.19v34.85h-99.79l-0.4,21.78
				c7.92,1.19,15.84,1.98,24.95,1.98c7.92,0,15.84,0,24.55,0l89.5-1.98v33.66l-40.79,1.98H634.3L567.77,1338.41z M802.99,1180.41
				v-3.96l7.92-29.7h5.15l18.61,3.17c5.15-3.96,7.92-9.11,11.09-15.05v-3.17l-71.28-4.75l-22.18,48.71h-3.96l-27.72-15.84v-3.96
				c13.07-24.95,23.76-49.89,32.87-75.63c8.71-25.74,15.05-51.48,19.8-78.41l83.56-0.79c11.88,0.79,21.78,4.75,30.49,11.88
				c9.9,12.67,13.86,27.72,13.07,44.75c-1.19,21.78-3.96,42.37-9.9,62.17c-7.13,20.99-17.03,38.81-29.7,55.84
				c-7.92,6.73-18.22,9.9-28.91,9.9L802.99,1180.41z M860.81,1088.14l-68.51-4.75l-5.15,14.65l69.7,5.15l0.79-1.19L860.81,1088.14z
				 M864.77,1048.54l-3.17-9.9c-8.71-1.19-17.82-1.98-27.72-1.98s-19.8,0-28.91,0c-2.77,4.75-4.75,10.69-5.94,17.82l65.74,3.96
				V1048.54z"/>
			<path d="M985.55,1286.54c-8.71-8.71-13.86-19.8-16.63-31.68c-3.17-11.88-5.15-24.55-5.15-37.62c1.98-24.95,7.92-49.5,19.01-72.47
				c9.9-22.97,23.76-43.56,42.77-62.57c16.63-15.84,34.45-26.53,55.44-32.87c20.99-5.94,41.58-8.71,64.55-7.92
				c19.01,1.19,36.83,5.15,53.46,12.28c15.84,7.92,30.89,18.61,43.96,32.47c16.63,19.8,27.72,41.58,32.47,66.53
				c5.15,24.95,5.94,50.69,5.15,77.62l-7.92,58.21l-40.39-8.71c3.17-14.65,8.32-30.89,9.5-46.73s1.19-31.68,0-48.71
				c-1.19-15.84-5.15-30.49-11.09-44.35c-5.94-14.26-14.65-26.93-27.72-38.02c-9.9-7.92-20.59-13.86-32.47-16.63
				c-7.13,32.47-15.05,66.53-24.16,100.19c-8.71,33.66-25.74,64.55-50.29,91.08c-9.9,9.11-20.99,15.05-32.87,20.2
				c-11.88,4.75-24.95,6.73-38.81,6.73C1009.71,1302.77,996.64,1296.83,985.55,1286.54z M1082.97,1233.08
				c5.94-8.71,11.09-17.82,15.05-26.93c6.73-20.59,13.86-41.58,19.8-62.17c4.75-20.99,9.9-42.77,13.86-63.76h-3.96
				c-17.03,1.19-31.68,3.96-46.73,11.09c-15.05,6.73-27.72,16.63-38.81,29.7c-12.67,15.05-21.78,31.68-28.51,49.5
				c-7.13,19.01-11.09,37.62-11.09,58.61c1.19,11.88,5.15,21.78,11.88,30.89c5.15,3.96,11.88,5.94,19.8,4.75
				c9.11-1.98,17.82-4.75,25.74-9.9C1069.11,1248.92,1077.03,1242.19,1082.97,1233.08z"/>
		</g>
		<g>
			<path class="st2" d="M322.65,1239.02h-21.78l-39.6,1.19v71.28h-38.81v-62.57h-1.98c-6.73,5.94-15.05,11.88-21.78,17.03
				c-7.92,4.75-15.84,9.9-23.76,12.67l-17.82-32.47c15.84-9.9,31.68-20.99,47.52-33.66c15.05-12.28,28.91-26.14,40.79-41.98h-83.56
				v-38.81h115.23l21.78-34.45h3.96l30.89,15.84v2.77l-7.92,15.84h173.45v38.81H361.46v28.91c17.03,0,34.85,0,51.48,0
				c17.03,0,31.68,4.75,44.75,15.84c7.13,9.11,11.09,19.8,11.88,31.68c0,11.88,0,23.76,0,35.64c-0.79,10.3-4.75,19.01-11.88,26.14
				c-7.92,5.94-17.03,8.71-26.93,8.71c-10.69,1.19-20.59,1.19-31.68,1.19v-36.04l1.19-2.77l30.49-1.19v-32.47l-2.77-5.15
				c-11.09-2.77-21.78-3.96-32.87-3.96c-10.69,1.19-22.57,1.19-33.66,1.19v116.03h-38.81V1239.02z M377.29,1092.1
				c-13.07-5.94-25.74-10.69-38.81-14.65c-19.8,8.71-40.39,14.65-61.38,19.8c-20.99,4.75-42.77,6.73-65.34,6.73v-37.62
				c12.67-0.79,26.53-1.98,39.6-3.96c12.67-1.98,24.55-4.75,37.62-7.92v-1.98l-47.52-21.78v-3.17l14.65-31.68h3.17l83.16,37.62
				c13.07-6.73,25.74-13.86,38.81-21.78c11.88-7.92,23.76-15.84,36.83-23.76l22.57,28.91c-8.71,6.73-16.63,13.86-25.74,18.61
				c-8.71,5.94-17.82,11.88-26.53,17.03v1.98l43.56,19.8v1.98l-17.03,33.66C402.24,1103.98,390.36,1098.04,377.29,1092.1z
				 M322.65,1170.51H298.1l-24.16,30.89h36.83l11.88-1.19V1170.51z"/>
			<path class="st2" d="M591.53,1156.65c-6.73-12.67-9.9-26.93-9.9-41.58c0-15.05,0-30.89,0-45.54h-32.47v-36.83h68.51v-36.83h36.43
				v36.83h66.53v36.83H618.06l-0.4,22.57l0.79,32.47c5.54,7.13,19.01,12.28,27.72,11.48c9.9-1.19,19.8-3.17,29.7-5.15
				c9.11-1.19,19.01-3.17,28.12-5.15l9.9,34.85c-13.86,3.96-28.12,7.13-42.77,9.11c-15.05,1.98-30.89,2.77-46.73,2.77
				C611.73,1171.7,600.64,1166.55,591.53,1156.65z M567.77,1338.41v-3.17l1.98-30.49h22.97l31.68,1.98h73.26l8.71,0.79v-23.76
				h-99.79v-34.85h100.19v-18.61H592.72v-34.85h264.92v34.85H743.6v18.61h100.19v34.85h-99.79l-0.4,21.78
				c7.92,1.19,15.84,1.98,24.95,1.98c7.92,0,15.84,0,24.55,0l89.5-1.98v33.66l-40.79,1.98H634.3L567.77,1338.41z M802.99,1180.41
				v-3.96l7.92-29.7h5.15l18.61,3.17c5.15-3.96,7.92-9.11,11.09-15.05v-3.17l-71.28-4.75l-22.18,48.71h-3.96l-27.72-15.84v-3.96
				c13.07-24.95,23.76-49.89,32.87-75.63c8.71-25.74,15.05-51.48,19.8-78.41l83.56-0.79c11.88,0.79,21.78,4.75,30.49,11.88
				c9.9,12.67,13.86,27.72,13.07,44.75c-1.19,21.78-3.96,42.37-9.9,62.17c-7.13,20.99-17.03,38.81-29.7,55.84
				c-7.92,6.73-18.22,9.9-28.91,9.9L802.99,1180.41z M860.81,1088.14l-68.51-4.75l-5.15,14.65l69.7,5.15l0.79-1.19L860.81,1088.14z
				 M864.77,1048.54l-3.17-9.9c-8.71-1.19-17.82-1.98-27.72-1.98s-19.8,0-28.91,0c-2.77,4.75-4.75,10.69-5.94,17.82l65.74,3.96
				V1048.54z"/>
			<path class="st2" d="M985.55,1286.54c-8.71-8.71-13.86-19.8-16.63-31.68c-3.17-11.88-5.15-24.55-5.15-37.62
				c1.98-24.95,7.92-49.5,19.01-72.47c9.9-22.97,23.76-43.56,42.77-62.57c16.63-15.84,34.45-26.53,55.44-32.87
				c20.99-5.94,41.58-8.71,64.55-7.92c19.01,1.19,36.83,5.15,53.46,12.28c15.84,7.92,30.89,18.61,43.96,32.47
				c16.63,19.8,27.72,41.58,32.47,66.53c5.15,24.95,5.94,50.69,5.15,77.62l-7.92,58.21l-40.39-8.71c3.17-14.65,8.32-30.89,9.5-46.73
				s1.19-31.68,0-48.71c-1.19-15.84-5.15-30.49-11.09-44.35c-5.94-14.26-14.65-26.93-27.72-38.02c-9.9-7.92-20.59-13.86-32.47-16.63
				c-7.13,32.47-15.05,66.53-24.16,100.19c-8.71,33.66-25.74,64.55-50.29,91.08c-9.9,9.11-20.99,15.05-32.87,20.2
				c-11.88,4.75-24.95,6.73-38.81,6.73C1009.71,1302.77,996.64,1296.83,985.55,1286.54z M1082.97,1233.08
				c5.94-8.71,11.09-17.82,15.05-26.93c6.73-20.59,13.86-41.58,19.8-62.17c4.75-20.99,9.9-42.77,13.86-63.76h-3.96
				c-17.03,1.19-31.68,3.96-46.73,11.09c-15.05,6.73-27.72,16.63-38.81,29.7c-12.67,15.05-21.78,31.68-28.51,49.5
				c-7.13,19.01-11.09,37.62-11.09,58.61c1.19,11.88,5.15,21.78,11.88,30.89c5.15,3.96,11.88,5.94,19.8,4.75
				c9.11-1.98,17.82-4.75,25.74-9.9C1069.11,1248.92,1077.03,1242.19,1082.97,1233.08z"/>
		</g>
		<g>
			<path class="st1" d="M322.65,1239.02h-21.78l-39.6,1.19v71.28h-38.81v-62.57h-1.98c-6.73,5.94-15.05,11.88-21.78,17.03
				c-7.92,4.75-15.84,9.9-23.76,12.67l-17.82-32.47c15.84-9.9,31.68-20.99,47.52-33.66c15.05-12.28,28.91-26.14,40.79-41.98h-83.56
				v-38.81h115.23l21.78-34.45h3.96l30.89,15.84v2.77l-7.92,15.84h173.45v38.81H361.46v28.91c17.03,0,34.85,0,51.48,0
				c17.03,0,31.68,4.75,44.75,15.84c7.13,9.11,11.09,19.8,11.88,31.68c0,11.88,0,23.76,0,35.64c-0.79,10.3-4.75,19.01-11.88,26.14
				c-7.92,5.94-17.03,8.71-26.93,8.71c-10.69,1.19-20.59,1.19-31.68,1.19v-36.04l1.19-2.77l30.49-1.19v-32.47l-2.77-5.15
				c-11.09-2.77-21.78-3.96-32.87-3.96c-10.69,1.19-22.57,1.19-33.66,1.19v116.03h-38.81V1239.02z M377.29,1092.1
				c-13.07-5.94-25.74-10.69-38.81-14.65c-19.8,8.71-40.39,14.65-61.38,19.8c-20.99,4.75-42.77,6.73-65.34,6.73v-37.62
				c12.67-0.79,26.53-1.98,39.6-3.96c12.67-1.98,24.55-4.75,37.62-7.92v-1.98l-47.52-21.78v-3.17l14.65-31.68h3.17l83.16,37.62
				c13.07-6.73,25.74-13.86,38.81-21.78c11.88-7.92,23.76-15.84,36.83-23.76l22.57,28.91c-8.71,6.73-16.63,13.86-25.74,18.61
				c-8.71,5.94-17.82,11.88-26.53,17.03v1.98l43.56,19.8v1.98l-17.03,33.66C402.24,1103.98,390.36,1098.04,377.29,1092.1z
				 M322.65,1170.51H298.1l-24.16,30.89h36.83l11.88-1.19V1170.51z"/>
			<path class="st1" d="M591.53,1156.65c-6.73-12.67-9.9-26.93-9.9-41.58c0-15.05,0-30.89,0-45.54h-32.47v-36.83h68.51v-36.83h36.43
				v36.83h66.53v36.83H618.06l-0.4,22.57l0.79,32.47c5.54,7.13,19.01,12.28,27.72,11.48c9.9-1.19,19.8-3.17,29.7-5.15
				c9.11-1.19,19.01-3.17,28.12-5.15l9.9,34.85c-13.86,3.96-28.12,7.13-42.77,9.11c-15.05,1.98-30.89,2.77-46.73,2.77
				C611.73,1171.7,600.64,1166.55,591.53,1156.65z M567.77,1338.41v-3.17l1.98-30.49h22.97l31.68,1.98h73.26l8.71,0.79v-23.76
				h-99.79v-34.85h100.19v-18.61H592.72v-34.85h264.92v34.85H743.6v18.61h100.19v34.85h-99.79l-0.4,21.78
				c7.92,1.19,15.84,1.98,24.95,1.98c7.92,0,15.84,0,24.55,0l89.5-1.98v33.66l-40.79,1.98H634.3L567.77,1338.41z M802.99,1180.41
				v-3.96l7.92-29.7h5.15l18.61,3.17c5.15-3.96,7.92-9.11,11.09-15.05v-3.17l-71.28-4.75l-22.18,48.71h-3.96l-27.72-15.84v-3.96
				c13.07-24.95,23.76-49.89,32.87-75.63c8.71-25.74,15.05-51.48,19.8-78.41l83.56-0.79c11.88,0.79,21.78,4.75,30.49,11.88
				c9.9,12.67,13.86,27.72,13.07,44.75c-1.19,21.78-3.96,42.37-9.9,62.17c-7.13,20.99-17.03,38.81-29.7,55.84
				c-7.92,6.73-18.22,9.9-28.91,9.9L802.99,1180.41z M860.81,1088.14l-68.51-4.75l-5.15,14.65l69.7,5.15l0.79-1.19L860.81,1088.14z
				 M864.77,1048.54l-3.17-9.9c-8.71-1.19-17.82-1.98-27.72-1.98s-19.8,0-28.91,0c-2.77,4.75-4.75,10.69-5.94,17.82l65.74,3.96
				V1048.54z"/>
			<path class="st1" d="M985.55,1286.54c-8.71-8.71-13.86-19.8-16.63-31.68c-3.17-11.88-5.15-24.55-5.15-37.62
				c1.98-24.95,7.92-49.5,19.01-72.47c9.9-22.97,23.76-43.56,42.77-62.57c16.63-15.84,34.45-26.53,55.44-32.87
				c20.99-5.94,41.58-8.71,64.55-7.92c19.01,1.19,36.83,5.15,53.46,12.28c15.84,7.92,30.89,18.61,43.96,32.47
				c16.63,19.8,27.72,41.58,32.47,66.53c5.15,24.95,5.94,50.69,5.15,77.62l-7.92,58.21l-40.39-8.71c3.17-14.65,8.32-30.89,9.5-46.73
				s1.19-31.68,0-48.71c-1.19-15.84-5.15-30.49-11.09-44.35c-5.94-14.26-14.65-26.93-27.72-38.02c-9.9-7.92-20.59-13.86-32.47-16.63
				c-7.13,32.47-15.05,66.53-24.16,100.19c-8.71,33.66-25.74,64.55-50.29,91.08c-9.9,9.11-20.99,15.05-32.87,20.2
				c-11.88,4.75-24.95,6.73-38.81,6.73C1009.71,1302.77,996.64,1296.83,985.55,1286.54z M1082.97,1233.08
				c5.94-8.71,11.09-17.82,15.05-26.93c6.73-20.59,13.86-41.58,19.8-62.17c4.75-20.99,9.9-42.77,13.86-63.76h-3.96
				c-17.03,1.19-31.68,3.96-46.73,11.09c-15.05,6.73-27.72,16.63-38.81,29.7c-12.67,15.05-21.78,31.68-28.51,49.5
				c-7.13,19.01-11.09,37.62-11.09,58.61c1.19,11.88,5.15,21.78,11.88,30.89c5.15,3.96,11.88,5.94,19.8,4.75
				c9.11-1.98,17.82-4.75,25.74-9.9C1069.11,1248.92,1077.03,1242.19,1082.97,1233.08z"/>
		</g>
	</g>
	<g>
		<g>
			<path d="M1361.91,1315.73c18.79-23.18,37.97-48.77,55.16-73.95c17.19-24.78,29.98-51.17,41.17-79.15h-105.13v-39.17h152.3V998.34
				h38.77v125.12h146.3v39.17h-109.93v96.34c0,12.79,2.8,24.78,9.99,35.98c13.99,3.2,27.98,4,42.77,4l19.19-4c4-8,6-17.19,6-25.98
				c0-9.19,0-19.19,0-27.98h39.17v37.98c-1.2,17.19-7.99,33.18-19.19,45.97c-7.99,6-16.79,9.19-26.78,9.99
				c-10.39,1.2-20.39,2-30.38,3.2c-10.79-1.2-21.99-2-32.78-3.2c-11.19-0.8-21.19-6-29.18-14.79c-7.2-9.19-11.19-19.19-13.19-30.38
				c-2.8-10.79-4-21.99-4.8-32.78v-94.34h-41.97c-11.19,33.18-25.18,64.36-44.37,93.14c-18.79,29.98-40.77,58.36-63.96,85.14
				L1361.91,1315.73z M1399.88,1033.51l33.18-19.99l53.17,79.15l-31.98,20.79L1399.88,1033.51z M1563.38,1089.48l49.97-77.15h3.2
				l29.98,21.99l-51.17,78.35L1563.38,1089.48z"/>
		</g>
		<g>
			<path class="st3" d="M1361.91,1315.73c18.79-23.18,37.97-48.77,55.16-73.95c17.19-24.78,29.98-51.17,41.17-79.15h-105.13v-39.17
				h152.3V998.34h38.77v125.12h146.3v39.17h-109.93v96.34c0,12.79,2.8,24.78,9.99,35.98c13.99,3.2,27.98,4,42.77,4l19.19-4
				c4-8,6-17.19,6-25.98c0-9.19,0-19.19,0-27.98h39.17v37.98c-1.2,17.19-7.99,33.18-19.19,45.97c-7.99,6-16.79,9.19-26.78,9.99
				c-10.39,1.2-20.39,2-30.38,3.2c-10.79-1.2-21.99-2-32.78-3.2c-11.19-0.8-21.19-6-29.18-14.79c-7.2-9.19-11.19-19.19-13.19-30.38
				c-2.8-10.79-4-21.99-4.8-32.78v-94.34h-41.97c-11.19,33.18-25.18,64.36-44.37,93.14c-18.79,29.98-40.77,58.36-63.96,85.14
				L1361.91,1315.73z M1399.88,1033.51l33.18-19.99l53.17,79.15l-31.98,20.79L1399.88,1033.51z M1563.38,1089.48l49.97-77.15h3.2
				l29.98,21.99l-51.17,78.35L1563.38,1089.48z"/>
		</g>
		<g>
			<path class="st4" d="M1361.91,1315.73c18.79-23.18,37.97-48.77,55.16-73.95c17.19-24.78,29.98-51.17,41.17-79.15h-105.13v-39.17
				h152.3V998.34h38.77v125.12h146.3v39.17h-109.93v96.34c0,12.79,2.8,24.78,9.99,35.98c13.99,3.2,27.98,4,42.77,4l19.19-4
				c4-8,6-17.19,6-25.98c0-9.19,0-19.19,0-27.98h39.17v37.98c-1.2,17.19-7.99,33.18-19.19,45.97c-7.99,6-16.79,9.19-26.78,9.99
				c-10.39,1.2-20.39,2-30.38,3.2c-10.79-1.2-21.99-2-32.78-3.2c-11.19-0.8-21.19-6-29.18-14.79c-7.2-9.19-11.19-19.19-13.19-30.38
				c-2.8-10.79-4-21.99-4.8-32.78v-94.34h-41.97c-11.19,33.18-25.18,64.36-44.37,93.14c-18.79,29.98-40.77,58.36-63.96,85.14
				L1361.91,1315.73z M1399.88,1033.51l33.18-19.99l53.17,79.15l-31.98,20.79L1399.88,1033.51z M1563.38,1089.48l49.97-77.15h3.2
				l29.98,21.99l-51.17,78.35L1563.38,1089.48z"/>
		</g>
	</g>
	<g>
		<g>
			<path d="M1928.47,1302.13c11.19-25.98,22.79-48.37,29.58-71.15c7.2-23.18,12.39-47.17,14.39-72.35
				c-1.2-12.79-7.2-24.78-17.19-33.98c-9.19-8-19.99-13.19-31.98-15.19c-11.99-2-23.98-2.8-37.18-2l-61.96,213.46l-39.17-11.59
				l57.96-198.67l-67.16,11.99l-9.99-37.97c17.19-3.2,31.18-6,46.37-9.19c13.99-2.8,27.98-4.8,42.77-6l20.79-69.95l37.97,11.99
				l-16.39,57.16c16.79,0,32.78,2,47.97,6c14.79,4.8,27.98,12.79,39.97,23.98c9.99,10.79,17.19,21.99,21.19,35.18
				c4,12.79,4.8,27.98,4,42.77c-3.2,25.18-9.19,50.37-17.19,74.35c-8,23.98-16.39,47.97-31.58,71.95L1928.47,1302.13z
				 M2061.58,1211.79l-49.17-126.72l35.98-12.79l49.17,126.32L2061.58,1211.79z M2024.01,1001.53l25.18-6.4l15.19,51.96l-25.18,7.59
				L2024.01,1001.53z M2068.78,986.34l25.18-7.2l15.99,52.77l-26.38,8.39L2068.78,986.34z"/>
			<path d="M2177.52,990.61c13.99-1.2,27.98-3.2,43.17-5.2c13.99-0.8,27.98-2,43.17-2c8.79,1.2,15.99,4,22.79,11.19
				c5.2,6.8,7.2,14.79,6,24.78c-2.8,11.19-6,22.38-10.79,33.18c-5.2,11.19-9.19,23.18-11.99,33.98c6.8,9.99,12.79,21.19,17.99,32.38
				c4.8,10.79,6,23.98,4.8,37.98c-2.8,12.79-8.79,24.78-18.79,35.18c-9.19,8-21.19,10.79-35.18,9.99l-19.99-7.2v-2l15.59-30.38
				l13.59,2.4c6.8-7.2,9.99-15.19,8-25.98c-3.2-9.19-8-17.99-13.19-27.18c-6-7.99-10.79-15.99-15.99-25.18
				c5.2-10.79,9.99-21.99,15.19-32.78c4.8-11.19,8.79-21.99,11.99-33.18h-13.99l-26.38,2.8v304.6h-35.98V990.61z M2406.16,1281.21
				c-19.19,0-38.37,0-57.16,0.4c-19.19-1.6-37.17-2.4-55.16-4.4v-3.2l4-33.18h11.99l15.99,2v-69.95h80.35v-27.98h36.78v27.98h44.37
				v37.17h-44.37v33.98h19.19l61.96-4l3.2,37.17l-84.34,4v46.77h-36.78V1281.21z M2466.12,1148.9
				c-17.19-11.19-33.18-21.19-49.17-31.98c-15.99,11.99-33.18,21.99-49.97,30.78c-17.19,9.19-35.18,17.19-53.17,23.18l-13.19-33.18
				c15.19-6.8,29.18-12.79,44.37-19.99c14.79-6.79,28.78-15.19,41.97-25.18l1.2-4l-28.38-27.98h-2.8l-21.99,21.19
				c-9.19-9.19-17.19-17.99-23.18-27.98c13.19-11.99,25.18-25.18,35.98-39.17c11.19-13.99,21.19-27.18,31.98-39.97l26.78,12.79
				h41.57c14.79,0,27.18,5.2,37.17,15.99c4.8,7.19,6.8,15.99,6,26.38c-3.2,11.99-9.19,22.79-17.19,31.98
				c-8,9.99-15.99,19.99-25.18,29.98c13.19,9.99,26.38,19.19,39.17,27.18c13.19,8.79,27.18,15.99,41.97,21.99l1.2,4l-13.99,30.78
				h-1.2C2499.3,1168.89,2482.11,1159.69,2466.12,1148.9z M2406.16,1210.06h-43.17v33.98l37.17,0.8l6-0.8V1210.06z M2438.94,1046.57
				c5.2-6.8,9.99-13.99,13.19-21.19l-31.18-0.8c-12.79,0.8-25.98,2.8-37.17,7.2l34.78,35.58
				C2426.95,1059.76,2432.95,1053.76,2438.94,1046.57z"/>
			<path d="M2714.76,1299.2c-13.19-3.2-26.38-9.19-37.17-17.99c-9.99-11.19-13.99-24.38-11.99-40.37c2.8-10.79,8-19.99,15.99-27.98
				c18.79-13.99,39.17-23.98,61.96-29.18c21.99-4.8,44.77-9.99,67.16-13.59c-12.79-6.79-25.98-11.19-39.97-14.39
				c-15.19-2.8-29.98-4-45.17-2.8c-14.79,0.8-29.98,4-43.97,6.8c-15.19,3.2-31.58,8.79-46.37,11.59l-17.99-34.38l132.31-87.14
				h-121.92v-39.17h197.07v39.17l-97.14,65.16c23.98-1.2,47.17,0.8,69.15,6.8s41.97,17.19,59.16,33.98
				c8.79,11.19,15.19,21.99,19.19,34.38c4,12.79,4.8,25.98,4,40.77c-1.2,9.19-4,17.99-7.99,25.98c-4.4,9.19-9.19,16.39-16.39,23.18
				c-12.79,11.19-27.98,17.99-44.77,21.19c-17.19,2.8-34.38,4.8-53.17,4C2741.55,1304,2727.56,1302,2714.76,1299.2z
				 M2835.88,1240.84c2.8-6.79,4-14.79,4.8-23.98l-0.8-8h-7.99c-23.18,2-43.97,5.2-65.16,9.19c-21.19,4.8-60.76,17.99-62.36,32.38
				c-0.8,6.4,24.38,12.39,38.37,13.59c13.99,0.8,27.98,2,42.77,2c13.19-1.2,26.38-5.2,37.17-11.19
				C2829.89,1250.03,2835.88,1240.84,2835.88,1240.84z"/>
			<path d="M3065.34,1315.99c-11.19-2.8-21.19-8.79-29.98-17.99c-9.19-12.79-14.39-27.98-15.19-45.17c-1.2-16.79-2-32.78-3.2-49.97
				v-96.34H2973v-38.77h43.97V995.4h31.18l8,1.2v71.15h69.15v-92.34h39.17v92.34h57.96v-82.34h39.17v82.34h61.16v38.77h-61.16
				v101.53H3125.3v-101.53h-69.15v107.53c1.2,10.79,1.2,20.79,2,31.98c0,10.79,3.2,20.79,9.99,29.18
				c13.19,4.8,25.98,7.99,41.17,7.99c15.19,0,29.18,0,43.97,0c23.18-1.2,45.17-3.2,68.35-5.2c22.79-2,44.77-4,67.16-6.8l4,38.77
				c-31.18,4-63.16,7.2-95.14,9.19c-32.38,2-64.36,2.8-97.54,2.8C3088.12,1321.19,3076.13,1319.19,3065.34,1315.99z
				 M3222.43,1106.53h-57.96v62.36h57.96V1106.53z"/>
			<path d="M3445.89,1319.19v-2c9.19-17.99,15.99-37.17,21.99-57.16c5.2-19.19,8-39.97,8-61.16h-2
				c-12.79,9.19-26.78,17.19-40.77,23.98c-15.19,7.2-30.38,13.99-45.17,19.19l-11.99-35.98c19.99-7.2,38.77-15.99,57.96-27.18
				c19.19-11.19,35.98-23.98,53.16-39.17l0.8-2.8h-65.16l-6.79-158.29l113.13-5.2h71.15c11.99,1.2,23.98,2,35.18,5.2
				c10.79,2.8,21.99,8,30.78,14.79c7.2,7.2,10.39,13.99,10.39,23.18c0,8.79,0,17.99,0,27.18l-7.2,93.14h-59.96v2
				c16.79,13.99,33.98,25.98,51.96,35.98c17.99,10.79,35.98,21.19,55.16,29.98v3.2l-13.99,30.78h-3.2
				c-12.79-6.8-26.78-13.99-39.97-20.79c-13.19-7.2-27.18-15.19-39.97-21.99v133.11h-37.18v-162.29l-35.98-29.18l-33.18,29.98v19.99
				l1.2,18.39c-1.2,22.79-4,45.97-10.39,67.16c-6.8,20.79-14.79,41.97-23.98,62.76h-0.8L3445.89,1319.19z M3526.24,1010.59h-4
				l-67.16,4v23.98l2,2h69.15V1010.59z M3526.24,1068.55h-69.15v15.99l0.8,15.19h68.35V1068.55z M3635.37,1094.54l2-25.98h-71.15
				l-0.4,31.18h69.55V1094.54z M3639.36,1020.59c-11.19-5.2-21.99-8-35.18-9.19c-12.79-0.8-25.18-0.8-37.97-2v31.18h71.15
				L3639.36,1020.59z"/>
		</g>
		<g>
			<path class="st2" d="M1928.47,1302.13c11.19-25.98,22.79-48.37,29.58-71.15c7.2-23.18,12.39-47.17,14.39-72.35
				c-1.2-12.79-7.2-24.78-17.19-33.98c-9.19-8-19.99-13.19-31.98-15.19c-11.99-2-23.98-2.8-37.18-2l-61.96,213.46l-39.17-11.59
				l57.96-198.67l-67.16,11.99l-9.99-37.97c17.19-3.2,31.18-6,46.37-9.19c13.99-2.8,27.98-4.8,42.77-6l20.79-69.95l37.97,11.99
				l-16.39,57.16c16.79,0,32.78,2,47.97,6c14.79,4.8,27.98,12.79,39.97,23.98c9.99,10.79,17.19,21.99,21.19,35.18
				c4,12.79,4.8,27.98,4,42.77c-3.2,25.18-9.19,50.37-17.19,74.35c-8,23.98-16.39,47.97-31.58,71.95L1928.47,1302.13z
				 M2061.58,1211.79l-49.17-126.72l35.98-12.79l49.17,126.32L2061.58,1211.79z M2024.01,1001.53l25.18-6.4l15.19,51.96l-25.18,7.59
				L2024.01,1001.53z M2068.78,986.34l25.18-7.2l15.99,52.77l-26.38,8.39L2068.78,986.34z"/>
			<path class="st2" d="M2177.52,990.61c13.99-1.2,27.98-3.2,43.17-5.2c13.99-0.8,27.98-2,43.17-2c8.79,1.2,15.99,4,22.79,11.19
				c5.2,6.8,7.2,14.79,6,24.78c-2.8,11.19-6,22.38-10.79,33.18c-5.2,11.19-9.19,23.18-11.99,33.98c6.8,9.99,12.79,21.19,17.99,32.38
				c4.8,10.79,6,23.98,4.8,37.98c-2.8,12.79-8.79,24.78-18.79,35.18c-9.19,8-21.19,10.79-35.18,9.99l-19.99-7.2v-2l15.59-30.38
				l13.59,2.4c6.8-7.2,9.99-15.19,8-25.98c-3.2-9.19-8-17.99-13.19-27.18c-6-7.99-10.79-15.99-15.99-25.18
				c5.2-10.79,9.99-21.99,15.19-32.78c4.8-11.19,8.79-21.99,11.99-33.18h-13.99l-26.38,2.8v304.6h-35.98V990.61z M2406.16,1281.21
				c-19.19,0-38.37,0-57.16,0.4c-19.19-1.6-37.17-2.4-55.16-4.4v-3.2l4-33.18h11.99l15.99,2v-69.95h80.35v-27.98h36.78v27.98h44.37
				v37.17h-44.37v33.98h19.19l61.96-4l3.2,37.17l-84.34,4v46.77h-36.78V1281.21z M2466.12,1148.9
				c-17.19-11.19-33.18-21.19-49.17-31.98c-15.99,11.99-33.18,21.99-49.97,30.78c-17.19,9.19-35.18,17.19-53.17,23.18l-13.19-33.18
				c15.19-6.8,29.18-12.79,44.37-19.99c14.79-6.79,28.78-15.19,41.97-25.18l1.2-4l-28.38-27.98h-2.8l-21.99,21.19
				c-9.19-9.19-17.19-17.99-23.18-27.98c13.19-11.99,25.18-25.18,35.98-39.17c11.19-13.99,21.19-27.18,31.98-39.97l26.78,12.79
				h41.57c14.79,0,27.18,5.2,37.17,15.99c4.8,7.19,6.8,15.99,6,26.38c-3.2,11.99-9.19,22.79-17.19,31.98
				c-8,9.99-15.99,19.99-25.18,29.98c13.19,9.99,26.38,19.19,39.17,27.18c13.19,8.79,27.18,15.99,41.97,21.99l1.2,4l-13.99,30.78
				h-1.2C2499.3,1168.89,2482.11,1159.69,2466.12,1148.9z M2406.16,1210.06h-43.17v33.98l37.17,0.8l6-0.8V1210.06z M2438.94,1046.57
				c5.2-6.8,9.99-13.99,13.19-21.19l-31.18-0.8c-12.79,0.8-25.98,2.8-37.17,7.2l34.78,35.58
				C2426.95,1059.76,2432.95,1053.76,2438.94,1046.57z"/>
			<path class="st2" d="M2714.76,1299.2c-13.19-3.2-26.38-9.19-37.17-17.99c-9.99-11.19-13.99-24.38-11.99-40.37
				c2.8-10.79,8-19.99,15.99-27.98c18.79-13.99,39.17-23.98,61.96-29.18c21.99-4.8,44.77-9.99,67.16-13.59
				c-12.79-6.79-25.98-11.19-39.97-14.39c-15.19-2.8-29.98-4-45.17-2.8c-14.79,0.8-29.98,4-43.97,6.8
				c-15.19,3.2-31.58,8.79-46.37,11.59l-17.99-34.38l132.31-87.14h-121.92v-39.17h197.07v39.17l-97.14,65.16
				c23.98-1.2,47.17,0.8,69.15,6.8s41.97,17.19,59.16,33.98c8.79,11.19,15.19,21.99,19.19,34.38c4,12.79,4.8,25.98,4,40.77
				c-1.2,9.19-4,17.99-7.99,25.98c-4.4,9.19-9.19,16.39-16.39,23.18c-12.79,11.19-27.98,17.99-44.77,21.19
				c-17.19,2.8-34.38,4.8-53.17,4C2741.55,1304,2727.56,1302,2714.76,1299.2z M2835.88,1240.84c2.8-6.79,4-14.79,4.8-23.98l-0.8-8
				h-7.99c-23.18,2-43.97,5.2-65.16,9.19c-21.19,4.8-60.76,17.99-62.36,32.38c-0.8,6.4,24.38,12.39,38.37,13.59
				c13.99,0.8,27.98,2,42.77,2c13.19-1.2,26.38-5.2,37.17-11.19C2829.89,1250.03,2835.88,1240.84,2835.88,1240.84z"/>
			<path class="st2" d="M3065.34,1315.99c-11.19-2.8-21.19-8.79-29.98-17.99c-9.19-12.79-14.39-27.98-15.19-45.17
				c-1.2-16.79-2-32.78-3.2-49.97v-96.34H2973v-38.77h43.97V995.4h31.18l8,1.2v71.15h69.15v-92.34h39.17v92.34h57.96v-82.34h39.17
				v82.34h61.16v38.77h-61.16v101.53H3125.3v-101.53h-69.15v107.53c1.2,10.79,1.2,20.79,2,31.98c0,10.79,3.2,20.79,9.99,29.18
				c13.19,4.8,25.98,7.99,41.17,7.99c15.19,0,29.18,0,43.97,0c23.18-1.2,45.17-3.2,68.35-5.2c22.79-2,44.77-4,67.16-6.8l4,38.77
				c-31.18,4-63.16,7.2-95.14,9.19c-32.38,2-64.36,2.8-97.54,2.8C3088.12,1321.19,3076.13,1319.19,3065.34,1315.99z
				 M3222.43,1106.53h-57.96v62.36h57.96V1106.53z"/>
			<path class="st2" d="M3445.89,1319.19v-2c9.19-17.99,15.99-37.17,21.99-57.16c5.2-19.19,8-39.97,8-61.16h-2
				c-12.79,9.19-26.78,17.19-40.77,23.98c-15.19,7.2-30.38,13.99-45.17,19.19l-11.99-35.98c19.99-7.2,38.77-15.99,57.96-27.18
				c19.19-11.19,35.98-23.98,53.16-39.17l0.8-2.8h-65.16l-6.79-158.29l113.13-5.2h71.15c11.99,1.2,23.98,2,35.18,5.2
				c10.79,2.8,21.99,8,30.78,14.79c7.2,7.2,10.39,13.99,10.39,23.18c0,8.79,0,17.99,0,27.18l-7.2,93.14h-59.96v2
				c16.79,13.99,33.98,25.98,51.96,35.98c17.99,10.79,35.98,21.19,55.16,29.98v3.2l-13.99,30.78h-3.2
				c-12.79-6.8-26.78-13.99-39.97-20.79c-13.19-7.2-27.18-15.19-39.97-21.99v133.11h-37.18v-162.29l-35.98-29.18l-33.18,29.98v19.99
				l1.2,18.39c-1.2,22.79-4,45.97-10.39,67.16c-6.8,20.79-14.79,41.97-23.98,62.76h-0.8L3445.89,1319.19z M3526.24,1010.59h-4
				l-67.16,4v23.98l2,2h69.15V1010.59z M3526.24,1068.55h-69.15v15.99l0.8,15.19h68.35V1068.55z M3635.37,1094.54l2-25.98h-71.15
				l-0.4,31.18h69.55V1094.54z M3639.36,1020.59c-11.19-5.2-21.99-8-35.18-9.19c-12.79-0.8-25.18-0.8-37.97-2v31.18h71.15
				L3639.36,1020.59z"/>
		</g>
		<g>
			<path class="st1" d="M1928.47,1302.13c11.19-25.98,22.79-48.37,29.58-71.15c7.2-23.18,12.39-47.17,14.39-72.35
				c-1.2-12.79-7.2-24.78-17.19-33.98c-9.19-8-19.99-13.19-31.98-15.19c-11.99-2-23.98-2.8-37.18-2l-61.96,213.46l-39.17-11.59
				l57.96-198.67l-67.16,11.99l-9.99-37.97c17.19-3.2,31.18-6,46.37-9.19c13.99-2.8,27.98-4.8,42.77-6l20.79-69.95l37.97,11.99
				l-16.39,57.16c16.79,0,32.78,2,47.97,6c14.79,4.8,27.98,12.79,39.97,23.98c9.99,10.79,17.19,21.99,21.19,35.18
				c4,12.79,4.8,27.98,4,42.77c-3.2,25.18-9.19,50.37-17.19,74.35c-8,23.98-16.39,47.97-31.58,71.95L1928.47,1302.13z
				 M2061.58,1211.79l-49.17-126.72l35.98-12.79l49.17,126.32L2061.58,1211.79z M2024.01,1001.53l25.18-6.4l15.19,51.96l-25.18,7.59
				L2024.01,1001.53z M2068.78,986.34l25.18-7.2l15.99,52.77l-26.38,8.39L2068.78,986.34z"/>
			<path class="st1" d="M2177.52,990.61c13.99-1.2,27.98-3.2,43.17-5.2c13.99-0.8,27.98-2,43.17-2c8.79,1.2,15.99,4,22.79,11.19
				c5.2,6.8,7.2,14.79,6,24.78c-2.8,11.19-6,22.38-10.79,33.18c-5.2,11.19-9.19,23.18-11.99,33.98c6.8,9.99,12.79,21.19,17.99,32.38
				c4.8,10.79,6,23.98,4.8,37.98c-2.8,12.79-8.79,24.78-18.79,35.18c-9.19,8-21.19,10.79-35.18,9.99l-19.99-7.2v-2l15.59-30.38
				l13.59,2.4c6.8-7.2,9.99-15.19,8-25.98c-3.2-9.19-8-17.99-13.19-27.18c-6-7.99-10.79-15.99-15.99-25.18
				c5.2-10.79,9.99-21.99,15.19-32.78c4.8-11.19,8.79-21.99,11.99-33.18h-13.99l-26.38,2.8v304.6h-35.98V990.61z M2406.16,1281.21
				c-19.19,0-38.37,0-57.16,0.4c-19.19-1.6-37.17-2.4-55.16-4.4v-3.2l4-33.18h11.99l15.99,2v-69.95h80.35v-27.98h36.78v27.98h44.37
				v37.17h-44.37v33.98h19.19l61.96-4l3.2,37.17l-84.34,4v46.77h-36.78V1281.21z M2466.12,1148.9
				c-17.19-11.19-33.18-21.19-49.17-31.98c-15.99,11.99-33.18,21.99-49.97,30.78c-17.19,9.19-35.18,17.19-53.17,23.18l-13.19-33.18
				c15.19-6.8,29.18-12.79,44.37-19.99c14.79-6.79,28.78-15.19,41.97-25.18l1.2-4l-28.38-27.98h-2.8l-21.99,21.19
				c-9.19-9.19-17.19-17.99-23.18-27.98c13.19-11.99,25.18-25.18,35.98-39.17c11.19-13.99,21.19-27.18,31.98-39.97l26.78,12.79
				h41.57c14.79,0,27.18,5.2,37.17,15.99c4.8,7.19,6.8,15.99,6,26.38c-3.2,11.99-9.19,22.79-17.19,31.98
				c-8,9.99-15.99,19.99-25.18,29.98c13.19,9.99,26.38,19.19,39.17,27.18c13.19,8.79,27.18,15.99,41.97,21.99l1.2,4l-13.99,30.78
				h-1.2C2499.3,1168.89,2482.11,1159.69,2466.12,1148.9z M2406.16,1210.06h-43.17v33.98l37.17,0.8l6-0.8V1210.06z M2438.94,1046.57
				c5.2-6.8,9.99-13.99,13.19-21.19l-31.18-0.8c-12.79,0.8-25.98,2.8-37.17,7.2l34.78,35.58
				C2426.95,1059.76,2432.95,1053.76,2438.94,1046.57z"/>
			<path class="st1" d="M2714.76,1299.2c-13.19-3.2-26.38-9.19-37.17-17.99c-9.99-11.19-13.99-24.38-11.99-40.37
				c2.8-10.79,8-19.99,15.99-27.98c18.79-13.99,39.17-23.98,61.96-29.18c21.99-4.8,44.77-9.99,67.16-13.59
				c-12.79-6.79-25.98-11.19-39.97-14.39c-15.19-2.8-29.98-4-45.17-2.8c-14.79,0.8-29.98,4-43.97,6.8
				c-15.19,3.2-31.58,8.79-46.37,11.59l-17.99-34.38l132.31-87.14h-121.92v-39.17h197.07v39.17l-97.14,65.16
				c23.98-1.2,47.17,0.8,69.15,6.8s41.97,17.19,59.16,33.98c8.79,11.19,15.19,21.99,19.19,34.38c4,12.79,4.8,25.98,4,40.77
				c-1.2,9.19-4,17.99-7.99,25.98c-4.4,9.19-9.19,16.39-16.39,23.18c-12.79,11.19-27.98,17.99-44.77,21.19
				c-17.19,2.8-34.38,4.8-53.17,4C2741.55,1304,2727.56,1302,2714.76,1299.2z M2835.88,1240.84c2.8-6.79,4-14.79,4.8-23.98l-0.8-8
				h-7.99c-23.18,2-43.97,5.2-65.16,9.19c-21.19,4.8-60.76,17.99-62.36,32.38c-0.8,6.4,24.38,12.39,38.37,13.59
				c13.99,0.8,27.98,2,42.77,2c13.19-1.2,26.38-5.2,37.17-11.19C2829.89,1250.03,2835.88,1240.84,2835.88,1240.84z"/>
			<path class="st1" d="M3065.34,1315.99c-11.19-2.8-21.19-8.79-29.98-17.99c-9.19-12.79-14.39-27.98-15.19-45.17
				c-1.2-16.79-2-32.78-3.2-49.97v-96.34H2973v-38.77h43.97V995.4h31.18l8,1.2v71.15h69.15v-92.34h39.17v92.34h57.96v-82.34h39.17
				v82.34h61.16v38.77h-61.16v101.53H3125.3v-101.53h-69.15v107.53c1.2,10.79,1.2,20.79,2,31.98c0,10.79,3.2,20.79,9.99,29.18
				c13.19,4.8,25.98,7.99,41.17,7.99c15.19,0,29.18,0,43.97,0c23.18-1.2,45.17-3.2,68.35-5.2c22.79-2,44.77-4,67.16-6.8l4,38.77
				c-31.18,4-63.16,7.2-95.14,9.19c-32.38,2-64.36,2.8-97.54,2.8C3088.12,1321.19,3076.13,1319.19,3065.34,1315.99z
				 M3222.43,1106.53h-57.96v62.36h57.96V1106.53z"/>
			<path class="st1" d="M3445.89,1319.19v-2c9.19-17.99,15.99-37.17,21.99-57.16c5.2-19.19,8-39.97,8-61.16h-2
				c-12.79,9.19-26.78,17.19-40.77,23.98c-15.19,7.2-30.38,13.99-45.17,19.19l-11.99-35.98c19.99-7.2,38.77-15.99,57.96-27.18
				c19.19-11.19,35.98-23.98,53.16-39.17l0.8-2.8h-65.16l-6.79-158.29l113.13-5.2h71.15c11.99,1.2,23.98,2,35.18,5.2
				c10.79,2.8,21.99,8,30.78,14.79c7.2,7.2,10.39,13.99,10.39,23.18c0,8.79,0,17.99,0,27.18l-7.2,93.14h-59.96v2
				c16.79,13.99,33.98,25.98,51.96,35.98c17.99,10.79,35.98,21.19,55.16,29.98v3.2l-13.99,30.78h-3.2
				c-12.79-6.8-26.78-13.99-39.97-20.79c-13.19-7.2-27.18-15.19-39.97-21.99v133.11h-37.18v-162.29l-35.98-29.18l-33.18,29.98v19.99
				l1.2,18.39c-1.2,22.79-4,45.97-10.39,67.16c-6.8,20.79-14.79,41.97-23.98,62.76h-0.8L3445.89,1319.19z M3526.24,1010.59h-4
				l-67.16,4v23.98l2,2h69.15V1010.59z M3526.24,1068.55h-69.15v15.99l0.8,15.19h68.35V1068.55z M3635.37,1094.54l2-25.98h-71.15
				l-0.4,31.18h69.55V1094.54z M3639.36,1020.59c-11.19-5.2-21.99-8-35.18-9.19c-12.79-0.8-25.18-0.8-37.97-2v31.18h71.15
				L3639.36,1020.59z"/>
		</g>
	</g>
	<path class="st5" d="M3679.59,625.17l1.5,22.26c4.7,57.18,25.71,111.81,60.52,157.42l11.12,10.57l-18.26,1.5
		c-57.18,4.7-111.81,25.71-157.42,60.52l-14.57,11.12l-1.5-18.26c-4.7-57.18-25.71-107.81-60.52-153.42l-11.12-14.57l18.26-1.5
		c57.18-4.7,111.81-29.71,157.42-64.52L3679.59,625.17z"/>
</g>
</svg>
